<svg xmlns="http://www.w3.org/2000/svg" xmlns:xlink="http://www.w3.org/1999/xlink" width="6912" zoomAndPan="magnify" viewBox="0 0 5184 2592.000001" height="3456" preserveAspectRatio="xMidYMid meet" version="1.0"><defs><filter x="0%" y="0%" width="100%" height="100%" id="eab3c72c8d"><feColorMatrix values="0 0 0 0 1 0 0 0 0 1 0 0 0 0 1 0 0 0 1 0" color-interpolation-filters="sRGB"/></filter><g/><mask id="348f61716d"><g filter="url(#eab3c72c8d)"><rect x="-518.4" width="6220.8" fill="#000000" y="-259.2" height="3110.400001" fill-opacity="0.982"/></g></mask><clipPath id="c6d4081061"><path d="M 0.167969 1 L 1513 1 L 1513 1548.863281 L 0.167969 1548.863281 Z M 0.167969 1 " clip-rule="nonzero"/></clipPath><clipPath id="a075aad465"><rect x="0" width="1514" y="0" height="1549"/></clipPath><clipPath id="090c99b2fa"><path d="M 668 1132 L 1855 1132 L 1855 2311 L 668 2311 Z M 668 1132 " clip-rule="nonzero"/></clipPath><clipPath id="9468e98216"><path d="M 1427.851562 1130.902344 L 1857.253906 1875.9375 L 1097.28125 2313.949219 L 667.878906 1568.914062 Z M 1427.851562 1130.902344 " clip-rule="nonzero"/></clipPath><clipPath id="a8a17e1048"><path d="M 1427.851562 1130.902344 L 1857.253906 1875.9375 L 1097.28125 2313.949219 L 667.878906 1568.914062 Z M 1427.851562 1130.902344 " clip-rule="nonzero"/></clipPath><mask id="20c703fee7"><g filter="url(#eab3c72c8d)"><rect x="-518.4" width="6220.8" fill="#000000" y="-259.2" height="3110.400001" fill-opacity="0.982"/></g></mask><clipPath id="5c4e285750"><path d="M 87 170 L 1022 170 L 1022 1050 L 87 1050 Z M 87 170 " clip-rule="nonzero"/></clipPath><clipPath id="c9c3a5f07c"><path d="M 759.851562 -1.097656 L 1189.253906 743.9375 L 429.28125 1181.949219 L -0.121094 436.914062 Z M 759.851562 -1.097656 " clip-rule="nonzero"/></clipPath><clipPath id="10c655a75a"><path d="M 759.851562 -1.097656 L 1189.253906 743.9375 L 429.28125 1181.949219 L -0.121094 436.914062 Z M 759.851562 -1.097656 " clip-rule="nonzero"/></clipPath><clipPath id="a6a345b963"><rect x="0" width="1187" y="0" height="1179"/></clipPath><clipPath id="4e11e43032"><path d="M 4262 1403 L 5093 1403 L 5093 2346 L 4262 2346 Z M 4262 1403 " clip-rule="nonzero"/></clipPath><clipPath id="f2cf1ba374"><path d="M 4069.203125 1985.539062 L 4748.890625 1247.800781 L 5279.863281 1736.992188 L 4600.175781 2474.730469 Z M 4069.203125 1985.539062 " clip-rule="nonzero"/></clipPath><clipPath id="5a8d305d86"><path d="M 4069.203125 1985.539062 L 4748.890625 1247.800781 L 5279.863281 1736.992188 L 4600.175781 2474.730469 Z M 4069.203125 1985.539062 " clip-rule="nonzero"/></clipPath><mask id="23eec657df"><g filter="url(#eab3c72c8d)"><rect x="-518.4" width="6220.8" fill="#000000" y="-259.2" height="3110.400001" fill-opacity="0.17"/></g></mask><clipPath id="1b24589d7d"><path d="M 0.164062 2.53125 L 1245.28125 2.53125 L 1245.28125 195 L 0.164062 195 Z M 0.164062 2.53125 " clip-rule="nonzero"/></clipPath><clipPath id="73f4572dc8"><rect x="0" width="1246" y="0" height="198"/></clipPath></defs><path fill="#ffffff" d="M 1 0 L 5183 0 L 5183 2591 L 1 2591 Z M 1 0 " fill-opacity="1" fill-rule="nonzero"/><path fill="#fafafa" d="M 1 0 L 5183 0 L 5183 2591 L 1 2591 Z M 1 0 " fill-opacity="1" fill-rule="nonzero"/><g mask="url(#348f61716d)"><g transform="matrix(1, 0, 0, 1, 86, 356)"><g clip-path="url(#a075aad465)"><g clip-path="url(#c6d4081061)"><path fill="#e43d12" d="M 868.960938 1.292969 C 916.480469 -0.839844 958.820312 12.628906 995.964844 41.703125 C 1030.585938 72.335938 1055.597656 109.503906 1071.015625 153.210938 C 1085.3125 197.121094 1099.492188 241.074219 1113.550781 285.078125 C 1129.242188 331.648438 1146.457031 377.628906 1165.203125 423.023438 C 1201.75 506.894531 1247.125 585.285156 1301.324219 658.195312 C 1330.644531 697.578125 1361.839844 735.457031 1394.90625 771.832031 C 1407.078125 786.425781 1419.234375 801.011719 1431.367188 815.582031 C 1440.429688 827.425781 1449.34375 839.375 1458.105469 851.4375 C 1477.230469 878.953125 1492.019531 908.730469 1502.46875 940.765625 C 1518.144531 998.574219 1515.308594 1056.097656 1493.960938 1113.347656 C 1477.832031 1154.121094 1456.964844 1192.199219 1431.367188 1227.589844 C 1391.929688 1279.601562 1347.875 1327.710938 1299.199219 1371.914062 C 1247.078125 1418.050781 1188.332031 1453.703125 1122.972656 1478.867188 C 1087.375 1490.972656 1050.808594 1496.542969 1013.285156 1495.578125 C 987.957031 1494.914062 962.738281 1491.773438 937.628906 1486.160156 C 915.492188 1481.03125 893.613281 1474.953125 872 1467.929688 C 842.1875 1458.328125 812.410156 1448.605469 782.671875 1438.757812 C 749.089844 1427.949219 714.757812 1420.960938 679.667969 1417.792969 C 678.652344 1417.996094 677.644531 1418.203125 676.628906 1418.402344 C 642.855469 1414.464844 610.953125 1420.636719 580.921875 1436.9375 C 571.398438 1442.300781 562.082031 1447.972656 552.96875 1453.953125 C 526.738281 1473.902344 500.003906 1493.148438 472.753906 1511.679688 C 452.933594 1523.621094 432.070312 1533.34375 410.164062 1540.851562 C 378.195312 1549.429688 345.789062 1550.644531 312.933594 1544.496094 C 262.695312 1532.332031 225.121094 1503.667969 200.210938 1458.507812 C 187.632812 1434.546875 180.746094 1409.027344 179.546875 1381.941406 C 179.441406 1357.8125 179.140625 1333.710938 178.636719 1309.628906 C 178.621094 1298.539062 178.117188 1287.398438 177.117188 1276.207031 C 171.132812 1249.4375 163.640625 1223.105469 154.632812 1197.207031 C 119.910156 1111.683594 87.097656 1025.390625 56.1875 938.335938 C 46.300781 909.726562 36.777344 880.957031 27.628906 852.042969 C 17.671875 818.53125 9.976562 784.5 4.535156 749.953125 C -1.511719 708.28125 -1.105469 666.351562 5.75 624.164062 C 22.570312 536.464844 72.5 476.402344 155.542969 443.988281 C 168.785156 438.96875 182.152344 434.308594 195.652344 430.011719 C 226.597656 421.320312 257.589844 412.8125 288.625 404.488281 C 350.269531 387.125 403.949219 356.335938 449.660156 312.121094 C 463.910156 298.273438 477.785156 283.996094 491.289062 269.28125 C 516.152344 239.953125 541.476562 210.988281 567.246094 182.382812 C 610.179688 137.597656 656.867188 97.589844 707.316406 62.363281 C 737.703125 42.460938 770.011719 26.15625 804.242188 13.445312 C 825.3125 6.347656 846.882812 2.296875 868.960938 1.292969 Z M 876.859375 43.222656 C 925.09375 46.21875 963.878906 66.882812 993.230469 105.207031 C 1010.167969 126.917969 1023.335938 150.820312 1032.730469 176.914062 C 1048.304688 225.339844 1064.511719 273.753906 1081.34375 322.148438 C 1101.023438 378.65625 1123.507812 433.957031 1148.796875 488.042969 C 1179.535156 550.757812 1215.179688 610.308594 1255.75 666.703125 C 1270.101562 686.117188 1284.6875 705.363281 1299.503906 724.433594 C 1332.085938 763.25 1364.394531 802.34375 1396.425781 841.714844 C 1411.03125 860.265625 1424.296875 879.710938 1436.230469 900.050781 C 1472.746094 966.933594 1477.8125 1036.207031 1451.421875 1107.878906 C 1433.296875 1154.074219 1408.789062 1196.410156 1377.894531 1234.882812 C 1343.414062 1277.054688 1305.640625 1316.050781 1264.5625 1351.863281 C 1218.503906 1390.742188 1167.050781 1420.917969 1110.210938 1442.40625 C 1088.941406 1449.699219 1067.066406 1453.953125 1044.582031 1455.167969 C 1005.476562 1458.097656 966.984375 1454.449219 929.121094 1444.230469 C 880.640625 1429.894531 832.425781 1414.703125 784.492188 1398.652344 C 739.957031 1384.578125 694.378906 1377.792969 647.765625 1378.296875 C 618.261719 1379.996094 590.511719 1387.792969 564.511719 1401.691406 C 553.050781 1407.890625 541.914062 1414.574219 531.089844 1421.746094 C 504.863281 1441.695312 478.125 1460.941406 450.878906 1479.472656 C 430.96875 1491.753906 409.703125 1500.871094 387.070312 1506.820312 C 366.023438 1510.667969 344.957031 1510.875 323.871094 1507.425781 C 289.71875 1500.039062 262.675781 1482.113281 242.746094 1453.648438 C 230.984375 1437.003906 223.488281 1418.574219 220.261719 1398.347656 C 219.058594 1390.351562 218.144531 1382.347656 217.527344 1374.34375 C 217.546875 1355.648438 217.75 1337.617188 218.136719 1320.261719 C 217.554688 1299.6875 216.242188 1279.128906 214.1875 1258.582031 C 209.894531 1246.082031 206.453125 1233.320312 203.855469 1220.296875 C 191.746094 1184.371094 177.972656 1149.128906 162.53125 1114.5625 C 134.539062 1042.164062 107.394531 969.441406 81.105469 896.40625 C 68.769531 860.644531 58.035156 824.382812 48.898438 787.628906 C 37.824219 742.40625 34.585938 696.628906 39.175781 650.296875 C 43.40625 613.683594 55.5625 580.058594 75.632812 549.421875 C 98.75 519.230469 128.019531 497.050781 163.445312 482.878906 C 183.875 474.585938 204.738281 467.492188 226.035156 461.609375 C 254.898438 454.089844 283.664062 446.191406 312.324219 437.910156 C 367.71875 420.65625 416.941406 392.90625 459.992188 354.660156 C 481.6875 333.566406 502.859375 311.792969 523.496094 289.332031 C 542.1875 267.140625 561.023438 245.0625 580.007812 223.097656 C 620.800781 178.234375 665.667969 138.230469 714.609375 103.078125 C 742.777344 83.929688 772.753906 67.925781 804.546875 55.074219 C 828.15625 46.886719 852.261719 42.9375 876.859375 43.222656 Z M 876.859375 43.222656 " fill-opacity="1" fill-rule="evenodd"/></g></g></g></g><g clip-path="url(#090c99b2fa)"><g clip-path="url(#9468e98216)"><g clip-path="url(#a8a17e1048)"><g mask="url(#20c703fee7)"><g transform="matrix(1, 0, 0, 1, 668, 1132)"><g clip-path="url(#a6a345b963)"><g clip-path="url(#5c4e285750)"><g clip-path="url(#c9c3a5f07c)"><g clip-path="url(#10c655a75a)"><path fill="#ffa2b6" d="M 1004.691406 426.121094 C 1019.15625 448.804688 1024.515625 473.355469 1020.757812 499.769531 C 1015.527344 525.386719 1004.378906 548.140625 987.3125 568.039062 C 969.835938 587.445312 952.300781 606.808594 934.707031 626.128906 C 916.320312 646.96875 898.648438 668.390625 881.699219 690.398438 C 850.921875 731.996094 825.324219 776.371094 804.902344 823.519531 C 793.882812 849.011719 784.132812 874.996094 775.648438 901.472656 C 771.933594 911.5625 768.21875 921.636719 764.503906 931.699219 C 761.261719 939.484375 757.925781 947.226562 754.488281 954.925781 C 746.40625 972.070312 735.992188 987.726562 723.242188 1001.894531 C 699.34375 1025.902344 670.351562 1040.757812 636.269531 1046.464844 C 611.734375 1050.078125 587.179688 1050.609375 562.609375 1048.0625 C 525.984375 1043.425781 489.964844 1035.421875 454.558594 1024.054688 C 417.230469 1011.542969 383.167969 992.828125 352.375 967.90625 C 336.390625 953.878906 323.332031 937.535156 313.207031 918.875 C 306.378906 906.277344 300.796875 893.03125 296.457031 879.140625 C 292.71875 866.84375 289.515625 854.40625 286.855469 841.832031 C 283.136719 824.511719 279.492188 807.171875 275.917969 789.820312 C 271.730469 770.3125 265.460938 751.511719 257.101562 733.425781 C 256.714844 732.984375 256.328125 732.546875 255.945312 732.105469 C 248.335938 714.445312 236.300781 700.554688 219.832031 690.441406 C 214.511719 687.289062 209.101562 684.328125 203.597656 681.546875 C 186.414062 674.332031 169.433594 666.664062 152.65625 658.546875 C 141.207031 652.207031 130.546875 644.730469 120.683594 636.113281 C 107.449219 622.871094 97.703125 607.332031 91.4375 589.496094 C 83.210938 561.445312 86.644531 534.933594 101.734375 509.972656 C 109.925781 497.042969 120.488281 486.460938 133.421875 478.222656 C 145.214844 471.355469 156.941406 464.402344 168.597656 457.355469 C 174.03125 454.214844 179.34375 450.820312 184.546875 447.167969 C 195.976562 436.679688 206.761719 425.570312 216.910156 413.839844 C 249.011719 372.671875 282.03125 332.21875 315.960938 292.484375 C 327.1875 279.558594 338.59375 266.769531 350.179688 254.121094 C 363.789062 239.777344 378.292969 226.394531 393.683594 213.96875 C 412.398438 199.238281 433.058594 187.59375 455.667969 179.039062 C 503.394531 162.511719 546.929688 170.015625 586.265625 201.554688 C 592.464844 206.625 598.527344 211.859375 604.445312 217.261719 C 617.441406 229.972656 630.363281 242.757812 643.210938 255.613281 C 669.128906 280.914062 699.375 298.523438 733.953125 308.4375 C 744.761719 311.511719 755.679688 314.277344 766.703125 316.734375 C 788.097656 320.640625 809.441406 324.867188 830.738281 329.417969 C 864.8125 337.804688 897.601562 349.386719 929.113281 364.160156 C 947.445312 373.425781 964.5625 384.652344 980.457031 397.839844 C 989.886719 406.15625 997.964844 415.585938 1004.691406 426.121094 Z M 986.375 441.832031 C 998.527344 466.316406 999.359375 491.15625 988.867188 516.363281 C 983.011719 530.796875 975.019531 544 964.886719 555.972656 C 945.554688 577.28125 926.40625 598.898438 907.445312 620.8125 C 885.3125 646.414062 864.566406 673.050781 845.203125 700.722656 C 823.152344 733.496094 804.039062 767.78125 787.863281 803.589844 C 782.402344 816.105469 777.089844 828.6875 771.929688 841.335938 C 762.109375 868.265625 752.078125 895.140625 741.832031 921.957031 C 736.863281 934.351562 731.082031 946.34375 724.488281 957.9375 C 702.027344 994.71875 669.511719 1016.769531 626.9375 1024.078125 C 599.179688 1028.242188 571.511719 1028.1875 543.933594 1023.914062 C 513.527344 1018.929688 483.75 1011.433594 454.601562 1001.417969 C 422.542969 989.828125 393.222656 973.140625 366.636719 951.355469 C 357.058594 942.992188 348.796875 933.472656 341.847656 922.796875 C 329.371094 904.460938 320.285156 884.570312 314.601562 863.128906 C 307.933594 835.324219 301.761719 807.40625 296.085938 779.386719 C 290.40625 753.585938 280.859375 729.335938 267.445312 706.636719 C 258.28125 692.660156 246.621094 681.261719 232.46875 672.445312 C 226.195312 668.582031 219.773438 665.011719 213.203125 661.730469 C 196.019531 654.515625 179.035156 646.847656 162.257812 638.730469 C 150.617188 632.441406 140.144531 624.59375 130.835938 615.1875 C 123.007812 605.957031 116.957031 595.691406 112.691406 584.386719 C 106.664062 565.566406 107.8125 547.25 116.132812 529.445312 C 120.964844 518.980469 127.878906 510.101562 136.878906 502.808594 C 140.457031 499.960938 144.121094 497.253906 147.871094 494.691406 C 157.039062 489.417969 165.929688 484.425781 174.542969 479.710938 C 184.464844 473.617188 194.164062 467.167969 203.652344 460.355469 C 208.566406 454.726562 213.847656 449.433594 219.496094 444.480469 C 233.679688 428.402344 247.0625 411.699219 259.640625 394.371094 C 287.210938 360.203125 315.179688 326.363281 343.542969 292.851562 C 357.585938 276.707031 372.320312 261.207031 387.75 246.347656 C 406.785156 228.152344 428.300781 213.632812 452.304688 202.796875 C 471.441406 194.53125 491.351562 190.992188 512.035156 192.171875 C 533.355469 194.972656 552.492188 203.050781 569.441406 216.410156 C 579.277344 224.078125 588.644531 232.300781 597.539062 241.074219 C 609.378906 253.09375 621.371094 264.957031 633.523438 276.667969 C 657.625 298.9375 685.125 315.222656 716.027344 325.515625 C 732.488281 330.1875 749.140625 334.414062 765.972656 338.183594 C 782.128906 341.074219 798.265625 344.070312 814.394531 347.167969 C 847.898438 354.488281 880.171875 365.175781 911.21875 379.230469 C 928.558594 387.625 944.867188 397.792969 960.144531 409.746094 C 970.824219 419 979.566406 429.699219 986.375 441.832031 Z M 986.375 441.832031 " fill-opacity="1" fill-rule="evenodd"/></g></g></g></g></g></g></g></g></g><g clip-path="url(#4e11e43032)"><g clip-path="url(#f2cf1ba374)"><g clip-path="url(#5a8d305d86)"><path fill="#efb11d" d="M 4868.863281 2182.773438 C 4860.871094 2191.453125 4852.761719 2199.898438 4844.539062 2208.121094 C 4799.9375 2252.710938 4753.398438 2288.65625 4709.976562 2312.050781 C 4663.042969 2337.347656 4620.277344 2348.246094 4582.886719 2344.457031 C 4443.507812 2330.347656 4413.574219 2245.160156 4363.972656 2104.058594 C 4341.304688 2039.578125 4315.675781 1966.550781 4273.957031 1881.582031 L 4277.539062 1879.832031 L 4273.996094 1881.539062 C 4261.324219 1855.710938 4259.03125 1830.988281 4267.191406 1808.046875 C 4288.503906 1747.933594 4378.089844 1706.753906 4464.695312 1666.886719 C 4511.6875 1645.25 4560.257812 1622.917969 4595.324219 1598.421875 C 4634.285156 1571.257812 4651.921875 1545.140625 4650.945312 1516.367188 C 4649.816406 1483.488281 4662.28125 1455.574219 4686.894531 1435.699219 C 4709.457031 1417.476562 4741.3125 1406.5 4778.992188 1403.957031 C 4844.019531 1399.570312 4916.773438 1420.945312 4973.605469 1461.152344 C 5005.472656 1483.710938 5031.503906 1511.226562 5051.042969 1543.027344 C 5072.683594 1578.21875 5085.871094 1617.976562 5090.234375 1661.210938 C 5098.6875 1744.71875 5076.984375 1843.964844 5027.429688 1948.289062 C 4987.570312 2032.199219 4931.925781 2114.324219 4868.863281 2182.773438 Z M 4296.949219 1775.628906 C 4286.777344 1786.667969 4279.132812 1798.328125 4274.699219 1810.769531 C 4267.160156 1831.878906 4269.238281 1853.929688 4281.132812 1878.046875 C 4323.042969 1963.441406 4348.796875 2036.726562 4371.507812 2101.460938 C 4396.203125 2171.65625 4415.699219 2227.15625 4445.910156 2266.777344 C 4477.832031 2308.574219 4520.300781 2330.109375 4583.691406 2336.527344 C 4653.578125 2343.617188 4746.601562 2294.753906 4838.90625 2202.484375 C 4847.042969 2194.339844 4855.097656 2185.949219 4863.015625 2177.355469 C 4925.523438 2109.511719 4980.703125 2028.070312 5020.222656 1944.867188 C 5069.152344 1841.859375 5090.648438 1744.050781 5082.34375 1661.976562 C 5072.074219 1560.34375 5015.050781 1500.1875 4969.027344 1467.632812 C 4913.644531 1428.441406 4842.808594 1407.605469 4779.558594 1411.882812 C 4743.527344 1414.300781 4713.226562 1424.679688 4691.933594 1441.875 C 4669.308594 1460.128906 4657.929688 1485.757812 4658.914062 1516.089844 C 4659.980469 1547.390625 4640.671875 1576.460938 4599.894531 1604.957031 C 4564.203125 1629.894531 4515.269531 1652.421875 4467.976562 1674.183594 C 4401.496094 1704.777344 4333.265625 1736.210938 4296.949219 1775.628906 Z M 4296.949219 1775.628906 " fill-opacity="1" fill-rule="nonzero"/></g></g></g><g mask="url(#23eec657df)"><g transform="matrix(1, 0, 0, 1, 1857, 1245)"><g clip-path="url(#73f4572dc8)"><g clip-path="url(#1b24589d7d)"><path fill="#d65360" d="M 78.308594 2.527344 L 1167.132812 2.527344 C 1168.410156 2.527344 1169.683594 2.558594 1170.960938 2.621094 C 1172.234375 2.683594 1173.507812 2.777344 1174.777344 2.902344 C 1176.046875 3.027344 1177.316406 3.183594 1178.578125 3.371094 C 1179.839844 3.558594 1181.097656 3.777344 1182.351562 4.023438 C 1183.601562 4.273438 1184.847656 4.554688 1186.085938 4.863281 C 1187.324219 5.171875 1188.554688 5.515625 1189.773438 5.882812 C 1190.996094 6.253906 1192.207031 6.65625 1193.410156 7.085938 C 1194.613281 7.515625 1195.804688 7.976562 1196.984375 8.464844 C 1198.160156 8.953125 1199.328125 9.46875 1200.484375 10.015625 C 1201.636719 10.558594 1202.777344 11.132812 1203.902344 11.734375 C 1205.027344 12.335938 1206.136719 12.964844 1207.234375 13.621094 C 1208.328125 14.28125 1209.40625 14.960938 1210.46875 15.671875 C 1211.527344 16.378906 1212.574219 17.117188 1213.597656 17.875 C 1214.625 18.636719 1215.628906 19.421875 1216.617188 20.230469 C 1217.601562 21.039062 1218.570312 21.875 1219.515625 22.730469 C 1220.460938 23.589844 1221.386719 24.46875 1222.289062 25.371094 C 1223.191406 26.273438 1224.070312 27.199219 1224.929688 28.144531 C 1225.785156 29.089844 1226.617188 30.058594 1227.429688 31.042969 C 1228.238281 32.03125 1229.023438 33.035156 1229.785156 34.0625 C 1230.542969 35.085938 1231.277344 36.128906 1231.988281 37.191406 C 1232.699219 38.253906 1233.378906 39.332031 1234.035156 40.425781 C 1234.691406 41.519531 1235.320312 42.632812 1235.921875 43.757812 C 1236.527344 44.882812 1237.097656 46.023438 1237.644531 47.175781 C 1238.191406 48.332031 1238.707031 49.496094 1239.195312 50.675781 C 1239.683594 51.855469 1240.144531 53.046875 1240.574219 54.25 C 1241.003906 55.449219 1241.40625 56.664062 1241.777344 57.882812 C 1242.144531 59.105469 1242.484375 60.335938 1242.796875 61.574219 C 1243.105469 62.8125 1243.386719 64.058594 1243.636719 65.308594 C 1243.882812 66.5625 1244.101562 67.820312 1244.289062 69.082031 C 1244.476562 70.34375 1244.632812 71.609375 1244.757812 72.882812 C 1244.882812 74.152344 1244.976562 75.425781 1245.039062 76.699219 C 1245.101562 77.976562 1245.132812 79.25 1245.132812 80.527344 L 1245.132812 116.96875 C 1245.132812 118.242188 1245.101562 119.519531 1245.039062 120.792969 C 1244.976562 122.070312 1244.882812 123.34375 1244.757812 124.613281 C 1244.632812 125.882812 1244.476562 127.148438 1244.289062 128.414062 C 1244.101562 129.675781 1243.882812 130.933594 1243.636719 132.183594 C 1243.386719 133.4375 1243.105469 134.679688 1242.796875 135.917969 C 1242.488281 137.15625 1242.144531 138.386719 1241.777344 139.609375 C 1241.40625 140.832031 1241.003906 142.042969 1240.574219 143.246094 C 1240.144531 144.445312 1239.683594 145.636719 1239.195312 146.816406 C 1238.707031 147.996094 1238.191406 149.164062 1237.644531 150.316406 C 1237.097656 151.46875 1236.527344 152.609375 1235.925781 153.738281 C 1235.320312 154.863281 1234.691406 155.972656 1234.035156 157.066406 C 1233.378906 158.164062 1232.699219 159.242188 1231.988281 160.300781 C 1231.28125 161.363281 1230.542969 162.40625 1229.785156 163.433594 C 1229.023438 164.457031 1228.238281 165.464844 1227.429688 166.449219 C 1226.617188 167.4375 1225.785156 168.402344 1224.929688 169.347656 C 1224.070312 170.296875 1223.191406 171.21875 1222.289062 172.121094 C 1221.386719 173.023438 1220.460938 173.90625 1219.515625 174.761719 C 1218.570312 175.621094 1217.601562 176.453125 1216.617188 177.261719 C 1215.628906 178.074219 1214.625 178.859375 1213.597656 179.617188 C 1212.574219 180.378906 1211.527344 181.113281 1210.46875 181.824219 C 1209.40625 182.53125 1208.328125 183.214844 1207.234375 183.871094 C 1206.136719 184.527344 1205.027344 185.15625 1203.902344 185.757812 C 1202.777344 186.359375 1201.636719 186.933594 1200.484375 187.480469 C 1199.328125 188.023438 1198.160156 188.542969 1196.984375 189.03125 C 1195.804688 189.519531 1194.613281 189.980469 1193.410156 190.410156 C 1192.207031 190.839844 1190.996094 191.238281 1189.773438 191.609375 C 1188.554688 191.980469 1187.324219 192.320312 1186.085938 192.628906 C 1184.847656 192.941406 1183.601562 193.21875 1182.351562 193.46875 C 1181.097656 193.71875 1179.839844 193.9375 1178.578125 194.125 C 1177.316406 194.3125 1176.046875 194.46875 1174.777344 194.59375 C 1173.507812 194.71875 1172.234375 194.8125 1170.960938 194.875 C 1169.683594 194.9375 1168.410156 194.96875 1167.132812 194.96875 L 78.308594 194.96875 C 77.03125 194.96875 75.753906 194.9375 74.480469 194.875 C 73.207031 194.8125 71.933594 194.71875 70.664062 194.59375 C 69.390625 194.46875 68.125 194.3125 66.863281 194.125 C 65.601562 193.9375 64.34375 193.71875 63.089844 193.46875 C 61.839844 193.21875 60.59375 192.941406 59.355469 192.628906 C 58.117188 192.320312 56.886719 191.980469 55.664062 191.609375 C 54.445312 191.238281 53.230469 190.839844 52.03125 190.410156 C 50.828125 189.976562 49.636719 189.519531 48.457031 189.03125 C 47.277344 188.542969 46.113281 188.023438 44.957031 187.480469 C 43.804688 186.933594 42.664062 186.359375 41.539062 185.757812 C 40.414062 185.15625 39.300781 184.527344 38.207031 183.871094 C 37.113281 183.214844 36.035156 182.53125 34.972656 181.824219 C 33.910156 181.113281 32.867188 180.378906 31.84375 179.617188 C 30.816406 178.859375 29.8125 178.074219 28.824219 177.261719 C 27.835938 176.453125 26.871094 175.621094 25.925781 174.761719 C 24.980469 173.90625 24.054688 173.023438 23.152344 172.121094 C 22.25 171.21875 21.371094 170.296875 20.511719 169.347656 C 19.65625 168.402344 18.820312 167.4375 18.011719 166.449219 C 17.203125 165.464844 16.417969 164.457031 15.65625 163.433594 C 14.894531 162.40625 14.160156 161.363281 13.453125 160.300781 C 12.742188 159.242188 12.058594 158.164062 11.402344 157.066406 C 10.746094 155.972656 10.117188 154.863281 9.515625 153.738281 C 8.914062 152.609375 8.339844 151.472656 7.796875 150.316406 C 7.25 149.164062 6.730469 147.996094 6.242188 146.816406 C 5.753906 145.636719 5.296875 144.445312 4.867188 143.246094 C 4.4375 142.042969 4.035156 140.832031 3.664062 139.609375 C 3.292969 138.386719 2.953125 137.15625 2.644531 135.917969 C 2.332031 134.679688 2.054688 133.4375 1.804688 132.183594 C 1.554688 130.933594 1.335938 129.675781 1.152344 128.414062 C 0.964844 127.148438 0.808594 125.882812 0.683594 124.613281 C 0.558594 123.34375 0.460938 122.070312 0.398438 120.792969 C 0.335938 119.519531 0.304688 118.242188 0.304688 116.96875 L 0.304688 80.527344 C 0.304688 79.25 0.335938 77.976562 0.398438 76.699219 C 0.460938 75.425781 0.558594 74.152344 0.683594 72.882812 C 0.808594 71.609375 0.964844 70.34375 1.152344 69.082031 C 1.335938 67.820312 1.554688 66.5625 1.804688 65.308594 C 2.054688 64.058594 2.332031 62.8125 2.644531 61.574219 C 2.953125 60.335938 3.292969 59.105469 3.664062 57.882812 C 4.035156 56.664062 4.4375 55.449219 4.867188 54.25 C 5.296875 53.046875 5.753906 51.855469 6.242188 50.675781 C 6.730469 49.496094 7.25 48.332031 7.796875 47.175781 C 8.339844 46.023438 8.914062 44.882812 9.515625 43.757812 C 10.117188 42.632812 10.746094 41.519531 11.402344 40.425781 C 12.058594 39.332031 12.742188 38.253906 13.453125 37.191406 C 14.160156 36.128906 14.894531 35.085938 15.65625 34.0625 C 16.417969 33.035156 17.203125 32.03125 18.011719 31.042969 C 18.820312 30.058594 19.65625 29.089844 20.511719 28.144531 C 21.371094 27.199219 22.25 26.273438 23.152344 25.371094 C 24.054688 24.46875 24.980469 23.589844 25.925781 22.730469 C 26.871094 21.875 27.835938 21.042969 28.824219 20.230469 C 29.8125 19.421875 30.816406 18.636719 31.84375 17.875 C 32.867188 17.117188 33.910156 16.378906 34.972656 15.671875 C 36.035156 14.960938 37.113281 14.28125 38.207031 13.625 C 39.300781 12.964844 40.414062 12.335938 41.539062 11.734375 C 42.664062 11.132812 43.804688 10.558594 44.957031 10.015625 C 46.113281 9.46875 47.277344 8.953125 48.457031 8.464844 C 49.636719 7.976562 50.828125 7.515625 52.03125 7.085938 C 53.230469 6.65625 54.445312 6.253906 55.664062 5.882812 C 56.886719 5.515625 58.117188 5.171875 59.355469 4.863281 C 60.59375 4.554688 61.839844 4.273438 63.089844 4.023438 C 64.34375 3.777344 65.601562 3.558594 66.863281 3.371094 C 68.125 3.183594 69.390625 3.027344 70.664062 2.902344 C 71.933594 2.777344 73.207031 2.683594 74.480469 2.621094 C 75.753906 2.558594 77.03125 2.527344 78.308594 2.527344 Z M 78.308594 2.527344 " fill-opacity="1" fill-rule="nonzero"/></g></g></g></g><g fill="#423b3b" fill-opacity="1"><g transform="translate(1931.965098, 1370.365537)"><g><path d="M 7.109375 0 L 7.109375 -72.796875 L 49.796875 -72.796875 L 49.796875 -62.34375 L 18.671875 -62.34375 L 18.671875 -37.671875 L 45.234375 -37.671875 L 45.234375 -27.671875 L 18.671875 -27.671875 L 18.671875 0 Z M 7.109375 0 "/></g></g></g><g fill="#423b3b" fill-opacity="1"><g transform="translate(1987.537441, 1370.365537)"><g><path d="M 37.78125 0 L 37.5625 -3.890625 C 31.632812 -0.554688 26.820312 1.109375 23.125 1.109375 C 17.113281 1.109375 12.738281 -0.609375 10 -4.046875 C 7.257812 -7.492188 5.890625 -13 5.890625 -20.5625 L 5.890625 -52.796875 L 17.34375 -52.796875 L 17.34375 -21.234375 C 17.34375 -13.597656 19.820312 -9.78125 24.78125 -9.78125 C 28.707031 -9.78125 32.929688 -11.300781 37.453125 -14.34375 L 37.453125 -52.796875 L 48.90625 -52.796875 L 48.90625 0 Z M 37.78125 0 "/></g></g></g><g fill="#423b3b" fill-opacity="1"><g transform="translate(2043.109783, 1370.365537)"><g><path d="M 11 -63.90625 L 10.890625 -74.015625 L 34.5625 -74.125 L 34.5625 -10 L 47.015625 -10 L 47.015625 0 L 10.5625 0 L 10.5625 -10 L 23.125 -10 L 23.125 -64.015625 Z M 11 -63.90625 "/></g></g></g><g fill="#423b3b" fill-opacity="1"><g transform="translate(2098.682125, 1370.365537)"><g><path d="M 11 -63.90625 L 10.890625 -74.015625 L 34.5625 -74.125 L 34.5625 -10 L 47.015625 -10 L 47.015625 0 L 10.5625 0 L 10.5625 -10 L 23.125 -10 L 23.125 -64.015625 Z M 11 -63.90625 "/></g></g></g><g fill="#423b3b" fill-opacity="1"><g transform="translate(2154.254467, 1370.365537)"><g/></g></g><g fill="#423b3b" fill-opacity="1"><g transform="translate(2209.826821, 1370.365537)"><g><path d="M 4.671875 -53.34375 C 4.671875 -67.050781 12.894531 -73.90625 29.34375 -73.90625 C 35.125 -73.90625 41.71875 -72.609375 49.125 -70.015625 L 46.5625 -59.90625 C 39.007812 -62.28125 33.066406 -63.484375 28.734375 -63.515625 C 24.398438 -63.554688 21.269531 -62.832031 19.34375 -61.34375 C 17.414062 -59.863281 16.453125 -57.269531 16.453125 -53.5625 C 16.453125 -51.050781 17.523438 -48.921875 19.671875 -47.171875 C 21.816406 -45.429688 25.445312 -43.894531 30.5625 -42.5625 C 38.34375 -40.488281 43.675781 -37.820312 46.5625 -34.5625 C 49.457031 -31.300781 50.90625 -26.445312 50.90625 -20 C 50.90625 -6 42.53125 1 25.78125 1 C 20.226562 1 13.226562 -0.1875 4.78125 -2.5625 L 7.109375 -13.109375 C 7.109375 -13.035156 8.257812 -12.703125 10.5625 -12.109375 C 17.75 -10.253906 23.320312 -9.328125 27.28125 -9.328125 C 31.25 -9.328125 34.210938 -10.328125 36.171875 -12.328125 C 38.140625 -14.335938 39.125 -16.859375 39.125 -19.890625 C 39.125 -22.929688 38.289062 -25.265625 36.625 -26.890625 C 34.957031 -28.523438 31.898438 -29.972656 27.453125 -31.234375 C 19.453125 -33.453125 13.65625 -36.191406 10.0625 -39.453125 C 6.46875 -42.710938 4.671875 -47.34375 4.671875 -53.34375 Z M 4.671875 -53.34375 "/></g></g></g><g fill="#423b3b" fill-opacity="1"><g transform="translate(2265.399174, 1370.365537)"><g><path d="M 15.5625 -42.5625 L 7.109375 -42.5625 L 7.109375 -52.796875 L 15.5625 -52.796875 L 15.5625 -65.46875 L 27 -66.578125 L 27 -52.796875 L 46.796875 -52.796875 L 46.796875 -42.5625 L 27 -42.5625 L 27 -20.234375 C 27 -16.148438 27.410156 -13.296875 28.234375 -11.671875 C 29.117188 -10.035156 31.039062 -9.21875 34 -9.21875 C 36.96875 -9.21875 40.898438 -9.8125 45.796875 -11 L 47.671875 -1 C 42.046875 0.476562 37.234375 1.21875 33.234375 1.21875 C 26.117188 1.21875 21.394531 -0.367188 19.0625 -3.546875 C 16.726562 -6.734375 15.5625 -12.296875 15.5625 -20.234375 Z M 15.5625 -42.5625 "/></g></g></g><g fill="#423b3b" fill-opacity="1"><g transform="translate(2320.971528, 1370.365537)"><g><path d="M 24 -9.5625 C 26.082031 -9.5625 28.378906 -10.039062 30.890625 -11 C 33.410156 -11.96875 35.414062 -13.039062 36.90625 -14.21875 L 36.90625 -22 C 32.457031 -22.375 28.820312 -22.5625 26 -22.5625 C 19.851562 -22.5625 16.78125 -20.265625 16.78125 -15.671875 C 16.78125 -11.597656 19.1875 -9.5625 24 -9.5625 Z M 22.234375 1.21875 C 10.378906 1.21875 4.453125 -4.410156 4.453125 -15.671875 C 4.453125 -21.671875 6.359375 -25.875 10.171875 -28.28125 C 13.984375 -30.6875 19.257812 -31.890625 26 -31.890625 C 29.1875 -31.890625 32.820312 -31.707031 36.90625 -31.34375 C 36.90625 -35.789062 36.273438 -38.828125 35.015625 -40.453125 C 33.753906 -42.085938 31.566406 -42.90625 28.453125 -42.90625 C 25.335938 -42.90625 21.707031 -42.53125 17.5625 -41.78125 C 13.414062 -41.039062 10.226562 -40.300781 8 -39.5625 L 5.890625 -50.125 C 13.671875 -52.5 21.265625 -53.6875 28.671875 -53.6875 C 36.078125 -53.6875 41.207031 -52.054688 44.0625 -48.796875 C 46.914062 -45.535156 48.34375 -40.015625 48.34375 -32.234375 L 48.34375 -9.671875 L 49.5625 0.109375 L 38.125 1.21875 L 37.015625 -3.890625 C 30.785156 -0.484375 25.859375 1.21875 22.234375 1.21875 Z M 22.234375 1.21875 "/></g></g></g><g fill="#423b3b" fill-opacity="1"><g transform="translate(2376.543881, 1370.365537)"><g><path d="M 47.90625 -51.6875 L 46.234375 -41.015625 C 41.347656 -42.347656 36.609375 -43.015625 32.015625 -43.015625 C 27.421875 -43.015625 24.082031 -41.734375 22 -39.171875 C 19.925781 -36.617188 18.890625 -32.523438 18.890625 -26.890625 C 18.890625 -21.265625 19.78125 -16.953125 21.5625 -13.953125 C 23.34375 -10.953125 26.710938 -9.453125 31.671875 -9.453125 C 36.640625 -9.453125 41.492188 -10.117188 46.234375 -11.453125 L 47.90625 -0.78125 C 42.71875 0.695312 37.195312 1.4375 31.34375 1.4375 C 14.820312 1.4375 6.5625 -7.785156 6.5625 -26.234375 C 6.5625 -44.679688 14.785156 -53.90625 31.234375 -53.90625 C 37.378906 -53.90625 42.9375 -53.164062 47.90625 -51.6875 Z M 47.90625 -51.6875 "/></g></g></g><g fill="#423b3b" fill-opacity="1"><g transform="translate(2432.116235, 1370.365537)"><g><path d="M 40.5625 -52.796875 L 52.90625 -52.796875 C 44.601562 -39.304688 39.191406 -31.082031 36.671875 -28.125 C 38.078125 -26.125 39.820312 -23.453125 41.90625 -20.109375 L 53.90625 0 L 40.671875 0 L 35.453125 -9.328125 C 31.972656 -15.554688 29.414062 -19.96875 27.78125 -22.5625 L 20 -21.671875 L 20 0 L 8.5625 0 L 8.5625 -74.125 L 20 -74.125 L 20 -31.5625 L 27.5625 -32.34375 C 29.488281 -34.863281 32.117188 -38.882812 35.453125 -44.40625 C 38.785156 -49.925781 40.488281 -52.722656 40.5625 -52.796875 Z M 40.5625 -52.796875 "/></g></g></g><g fill="#423b3b" fill-opacity="1"><g transform="translate(2487.688588, 1370.365537)"><g/></g></g><g fill="#423b3b" fill-opacity="1"><g transform="translate(2543.260942, 1370.365537)"><g><path d="M 4.21875 0 L 4.21875 -72.796875 L 21.5625 -72.796875 C 27.414062 -72.796875 32.140625 -72.3125 35.734375 -71.34375 C 39.328125 -70.382812 42.378906 -68.570312 44.890625 -65.90625 C 47.410156 -63.238281 49.191406 -59.550781 50.234375 -54.84375 C 51.273438 -50.144531 51.796875 -43.476562 51.796875 -34.84375 C 51.796875 -26.207031 50.738281 -19.257812 48.625 -14 C 46.507812 -8.738281 43.335938 -5.085938 39.109375 -3.046875 C 34.890625 -1.015625 28.96875 0 21.34375 0 Z M 35.5625 -14.78125 C 37.269531 -16.707031 38.4375 -19.351562 39.0625 -22.71875 C 39.695312 -26.09375 40.015625 -30.6875 40.015625 -36.5 C 40.015625 -42.320312 39.753906 -46.898438 39.234375 -50.234375 C 38.710938 -53.566406 37.617188 -56.210938 35.953125 -58.171875 C 34.285156 -60.140625 32.226562 -61.398438 29.78125 -61.953125 C 27.34375 -62.515625 23.863281 -62.796875 19.34375 -62.796875 L 15.78125 -62.796875 L 15.78125 -10 L 19.109375 -10 C 23.410156 -10 26.800781 -10.3125 29.28125 -10.9375 C 31.769531 -11.570312 33.863281 -12.851562 35.5625 -14.78125 Z M 35.5625 -14.78125 "/></g></g></g><g fill="#423b3b" fill-opacity="1"><g transform="translate(2598.833295, 1370.365537)"><g><path d="M 5.453125 -26.34375 C 5.453125 -35.300781 7.453125 -42.097656 11.453125 -46.734375 C 15.453125 -51.367188 21.003906 -53.6875 28.109375 -53.6875 C 35.222656 -53.6875 40.722656 -51.59375 44.609375 -47.40625 C 48.503906 -43.21875 50.53125 -37.082031 50.6875 -29 L 50.234375 -20.78125 L 17.78125 -20.78125 C 18.445312 -12.78125 22.445312 -8.78125 29.78125 -8.78125 C 34.894531 -8.78125 40.304688 -9.707031 46.015625 -11.5625 L 48.34375 -1.890625 C 45.976562 -1.078125 42.90625 -0.359375 39.125 0.265625 C 35.34375 0.898438 32.226562 1.21875 29.78125 1.21875 C 13.5625 1.21875 5.453125 -7.96875 5.453125 -26.34375 Z M 28.5625 -43.34375 C 25.082031 -43.34375 22.46875 -42.320312 20.71875 -40.28125 C 18.976562 -38.25 18 -34.863281 17.78125 -30.125 L 38.34375 -30.125 C 38.34375 -38.9375 35.082031 -43.34375 28.5625 -43.34375 Z M 28.5625 -43.34375 "/></g></g></g><g fill="#423b3b" fill-opacity="1"><g transform="translate(2654.405649, 1370.365537)"><g><path d="M 3.671875 -52.796875 L 15.890625 -52.796875 L 27.125 -10.109375 L 29.125 -10.109375 L 39.90625 -52.796875 L 52.015625 -52.796875 L 37.90625 0 L 18.109375 0 Z M 3.671875 -52.796875 "/></g></g><g transform="translate(2709.977957, 1370.365537)"><g><path d="M 5.453125 -26.34375 C 5.453125 -35.300781 7.453125 -42.097656 11.453125 -46.734375 C 15.453125 -51.367188 21.003906 -53.6875 28.109375 -53.6875 C 35.222656 -53.6875 40.722656 -51.59375 44.609375 -47.40625 C 48.503906 -43.21875 50.53125 -37.082031 50.6875 -29 L 50.234375 -20.78125 L 17.78125 -20.78125 C 18.445312 -12.78125 22.445312 -8.78125 29.78125 -8.78125 C 34.894531 -8.78125 40.304688 -9.707031 46.015625 -11.5625 L 48.34375 -1.890625 C 45.976562 -1.078125 42.90625 -0.359375 39.125 0.265625 C 35.34375 0.898438 32.226562 1.21875 29.78125 1.21875 C 13.5625 1.21875 5.453125 -7.96875 5.453125 -26.34375 Z M 28.5625 -43.34375 C 25.082031 -43.34375 22.46875 -42.320312 20.71875 -40.28125 C 18.976562 -38.25 18 -34.863281 17.78125 -30.125 L 38.34375 -30.125 C 38.34375 -38.9375 35.082031 -43.34375 28.5625 -43.34375 Z M 28.5625 -43.34375 "/></g></g><g transform="translate(2765.550264, 1370.365537)"><g><path d="M 11 -63.90625 L 10.890625 -74.015625 L 34.5625 -74.125 L 34.5625 -10 L 47.015625 -10 L 47.015625 0 L 10.5625 0 L 10.5625 -10 L 23.125 -10 L 23.125 -64.015625 Z M 11 -63.90625 "/></g></g><g transform="translate(2821.122572, 1370.365537)"><g><path d="M 10.328125 -46.953125 C 14.109375 -51.441406 19.925781 -53.6875 27.78125 -53.6875 C 35.632812 -53.6875 41.453125 -51.441406 45.234375 -46.953125 C 49.015625 -42.472656 50.90625 -35.5625 50.90625 -26.21875 C 50.90625 -16.882812 49.015625 -9.941406 45.234375 -5.390625 C 41.453125 -0.835938 35.632812 1.4375 27.78125 1.4375 C 19.925781 1.4375 14.109375 -0.835938 10.328125 -5.390625 C 6.554688 -9.941406 4.671875 -16.882812 4.671875 -26.21875 C 4.671875 -35.5625 6.554688 -42.472656 10.328125 -46.953125 Z M 19.28125 -39.015625 C 17.757812 -36.421875 17 -32.160156 17 -26.234375 C 17 -20.304688 17.773438 -16.003906 19.328125 -13.328125 C 20.890625 -10.660156 23.707031 -9.328125 27.78125 -9.328125 C 31.851562 -9.328125 34.664062 -10.660156 36.21875 -13.328125 C 37.78125 -16.003906 38.5625 -20.304688 38.5625 -26.234375 C 38.5625 -32.160156 37.800781 -36.421875 36.28125 -39.015625 C 34.769531 -41.609375 31.9375 -42.90625 27.78125 -42.90625 C 23.632812 -42.90625 20.800781 -41.609375 19.28125 -39.015625 Z M 19.28125 -39.015625 "/></g></g><g transform="translate(2876.69488, 1370.365537)"><g><path d="M 6.328125 21.34375 L 6.328125 -43.234375 L 5.671875 -52.796875 L 16.78125 -53.5625 L 17.453125 -48.671875 C 22.410156 -52.015625 26.816406 -53.6875 30.671875 -53.6875 C 38.160156 -53.6875 43.660156 -51.476562 47.171875 -47.0625 C 50.691406 -42.65625 52.453125 -35.785156 52.453125 -26.453125 C 52.453125 -17.117188 50.300781 -10.171875 46 -5.609375 C 41.707031 -1.054688 35.597656 1.21875 27.671875 1.21875 C 25.003906 1.21875 21.707031 0.441406 17.78125 -1.109375 L 17.78125 21.34375 Z M 30.234375 -43.015625 C 26.828125 -43.015625 22.675781 -41.382812 17.78125 -38.125 L 17.78125 -11.671875 C 21.34375 -10.109375 24.566406 -9.328125 27.453125 -9.328125 C 35.898438 -9.328125 40.125 -14.957031 40.125 -26.21875 C 40.125 -37.488281 36.828125 -43.085938 30.234375 -43.015625 Z M 30.234375 -43.015625 "/></g></g><g transform="translate(2932.267188, 1370.365537)"><g><path d="M 5.453125 -26.34375 C 5.453125 -35.300781 7.453125 -42.097656 11.453125 -46.734375 C 15.453125 -51.367188 21.003906 -53.6875 28.109375 -53.6875 C 35.222656 -53.6875 40.722656 -51.59375 44.609375 -47.40625 C 48.503906 -43.21875 50.53125 -37.082031 50.6875 -29 L 50.234375 -20.78125 L 17.78125 -20.78125 C 18.445312 -12.78125 22.445312 -8.78125 29.78125 -8.78125 C 34.894531 -8.78125 40.304688 -9.707031 46.015625 -11.5625 L 48.34375 -1.890625 C 45.976562 -1.078125 42.90625 -0.359375 39.125 0.265625 C 35.34375 0.898438 32.226562 1.21875 29.78125 1.21875 C 13.5625 1.21875 5.453125 -7.96875 5.453125 -26.34375 Z M 28.5625 -43.34375 C 25.082031 -43.34375 22.46875 -42.320312 20.71875 -40.28125 C 18.976562 -38.25 18 -34.863281 17.78125 -30.125 L 38.34375 -30.125 C 38.34375 -38.9375 35.082031 -43.34375 28.5625 -43.34375 Z M 28.5625 -43.34375 "/></g></g><g transform="translate(2987.839496, 1370.365537)"><g><path d="M 9 -42.5625 L 9 -52.796875 L 29 -52.796875 L 29.234375 -47.453125 C 31.597656 -48.785156 34.6875 -50.0625 38.5 -51.28125 C 42.320312 -52.507812 45.863281 -53.3125 49.125 -53.6875 L 49.125 -42.5625 C 46.238281 -42.269531 42.789062 -41.492188 38.78125 -40.234375 C 34.78125 -38.972656 31.597656 -37.675781 29.234375 -36.34375 L 29.234375 -10 L 45.453125 -10 L 45.453125 0 L 9 0 L 9 -10.21875 L 17.5625 -10.21875 L 17.5625 -42.5625 Z M 9 -42.5625 "/></g></g></g><g fill="#423b3b" fill-opacity="1"><g transform="translate(3043.422972, 1370.365537)"><g/></g></g><g fill="#423b3b" fill-opacity="1"><g transform="translate(3098.995314, 1370.365537)"><g><path d="M 12.21875 -23.671875 L 12.21875 -29.671875 L 44.125 -29.671875 L 44.125 -23.671875 Z M 12.21875 -23.671875 "/></g></g></g><g fill="#423b3b" fill-opacity="1"><g transform="translate(3154.567656, 1370.365537)"><g/></g></g><g fill="#423b3b" fill-opacity="1"><g transform="translate(3210.139999, 1370.365537)"><g><path d="M 7.453125 0 L 7.453125 -72.796875 L 24.5625 -72.796875 C 32.707031 -72.796875 38.757812 -71.332031 42.71875 -68.40625 C 46.6875 -65.476562 48.671875 -60.644531 48.671875 -53.90625 C 48.671875 -45.457031 44.5625 -39.972656 36.34375 -37.453125 C 41.226562 -36.335938 44.835938 -34.484375 47.171875 -31.890625 C 49.515625 -29.296875 50.6875 -25.519531 50.6875 -20.5625 C 50.6875 -12.707031 48.460938 -7.316406 44.015625 -4.390625 C 39.566406 -1.460938 32.75 0 23.5625 0 Z M 44.234375 -20.5625 C 44.234375 -29.601562 38.082031 -34.125 25.78125 -34.125 L 13.5625 -34.125 L 13.5625 -5.453125 L 23.5625 -5.453125 C 30.445312 -5.453125 35.613281 -6.539062 39.0625 -8.71875 C 42.507812 -10.90625 44.234375 -14.851562 44.234375 -20.5625 Z M 36.453125 -65.34375 C 33.265625 -66.675781 29.300781 -67.34375 24.5625 -67.34375 L 13.5625 -67.34375 L 13.5625 -39.5625 L 25.453125 -39.5625 C 30.117188 -39.5625 34.082031 -40.617188 37.34375 -42.734375 C 40.601562 -44.847656 42.269531 -48.71875 42.34375 -54.34375 C 42.414062 -59.976562 40.453125 -63.644531 36.453125 -65.34375 Z M 36.453125 -65.34375 "/></g></g></g><g fill="#423b3b" fill-opacity="1"><g transform="translate(3265.712341, 1370.365537)"><g><path d="M 24.234375 -4.78125 C 26.972656 -4.78125 29.953125 -5.648438 33.171875 -7.390625 C 36.398438 -9.128906 38.753906 -10.738281 40.234375 -12.21875 L 40.234375 -25.453125 C 35.335938 -25.816406 30.664062 -26 26.21875 -26 C 21.78125 -26 18.445312 -25.054688 16.21875 -23.171875 C 14 -21.285156 12.890625 -18.75 12.890625 -15.5625 C 12.890625 -8.375 16.671875 -4.78125 24.234375 -4.78125 Z M 24.125 1 C 18.707031 1 14.441406 -0.382812 11.328125 -3.15625 C 8.222656 -5.9375 6.671875 -9.882812 6.671875 -15 C 6.671875 -20.113281 8.375 -24.078125 11.78125 -26.890625 C 15.1875 -29.785156 19.703125 -31.234375 25.328125 -31.234375 C 30.960938 -31.234375 35.929688 -31.007812 40.234375 -30.5625 C 40.234375 -37.15625 39.414062 -41.65625 37.78125 -44.0625 C 36.15625 -46.46875 32.859375 -47.671875 27.890625 -47.671875 C 22.929688 -47.671875 17.082031 -46.488281 10.34375 -44.125 L 8.671875 -49.6875 C 15.554688 -52.195312 21.78125 -53.453125 27.34375 -53.453125 C 34.675781 -53.453125 39.640625 -51.820312 42.234375 -48.5625 C 44.828125 -45.300781 46.125 -39.597656 46.125 -31.453125 L 46.125 -8.109375 L 47.015625 0.328125 L 41.34375 0.890625 L 40.234375 -5.78125 C 38.523438 -4.300781 36.113281 -2.800781 33 -1.28125 C 29.894531 0.238281 26.9375 1 24.125 1 Z M 24.125 1 "/></g></g></g><g fill="#423b3b" fill-opacity="1"><g transform="translate(3321.284694, 1370.365537)"><g><path d="M 17.78125 -46.453125 L 8.453125 -46.453125 L 8.453125 -52.015625 L 17.78125 -52.015625 L 17.78125 -64.796875 L 23.671875 -65.90625 L 23.671875 -52.015625 L 44.796875 -52.015625 L 44.796875 -46.453125 L 23.671875 -46.453125 L 23.671875 -20.453125 C 23.671875 -14.671875 24.242188 -10.59375 25.390625 -8.21875 C 26.546875 -5.851562 28.898438 -4.671875 32.453125 -4.671875 C 36.003906 -4.671875 39.929688 -5.375 44.234375 -6.78125 L 45.5625 -1.21875 C 41.269531 0.332031 37.269531 1.109375 33.5625 1.109375 C 29.851562 1.109375 26.941406 0.628906 24.828125 -0.328125 C 22.722656 -1.296875 21.171875 -2.832031 20.171875 -4.9375 C 19.171875 -7.050781 18.519531 -9.21875 18.21875 -11.4375 C 17.925781 -13.664062 17.78125 -16.597656 17.78125 -20.234375 Z M 17.78125 -46.453125 "/></g></g></g><g fill="#423b3b" fill-opacity="1"><g transform="translate(3376.857048, 1370.365537)"><g><path d="M 14.5625 -43.125 L 14.5625 0 L 8.671875 0 L 8.671875 -73.796875 L 14.5625 -73.796875 L 14.5625 -48.796875 C 21.519531 -51.898438 27.257812 -53.453125 31.78125 -53.453125 C 42.375 -53.453125 47.671875 -47.378906 47.671875 -35.234375 L 47.671875 0 L 41.78125 0 L 41.78125 -35.234375 C 41.78125 -39.015625 40.96875 -42.03125 39.34375 -44.28125 C 37.71875 -46.539062 34.898438 -47.671875 30.890625 -47.671875 C 26.890625 -47.671875 21.445312 -46.15625 14.5625 -43.125 Z M 14.5625 -43.125 "/></g></g></g><g fill="#423b3b" fill-opacity="1"><g transform="translate(3432.429401, 1370.365537)"><g><path d="M 19.234375 0 L 19.234375 -12.453125 L 29.78125 -12.453125 L 29.78125 -3.328125 C 29.78125 3.335938 26.929688 9.742188 21.234375 15.890625 L 18.234375 13.21875 C 21.566406 8.332031 23.378906 3.925781 23.671875 0 Z M 19.234375 0 "/></g></g></g><g fill="#423b3b" fill-opacity="1"><g transform="translate(3543.574108, 1370.365537)"><g><path d="M 25.171875 -34.953125 C 18.535156 -36.546875 13.679688 -38.878906 10.609375 -41.953125 C 7.535156 -45.023438 6 -49.488281 6 -55.34375 C 6 -61.195312 8.015625 -65.753906 12.046875 -69.015625 C 16.085938 -72.273438 21.296875 -73.90625 27.671875 -73.90625 C 34.046875 -73.90625 40.53125 -72.757812 47.125 -70.46875 L 45.5625 -64.796875 C 39.414062 -67.015625 33.765625 -68.125 28.609375 -68.125 C 23.460938 -68.125 19.519531 -67.03125 16.78125 -64.84375 C 14.039062 -62.664062 12.671875 -59.5 12.671875 -55.34375 C 12.671875 -51.195312 13.78125 -48.046875 16 -45.890625 C 18.226562 -43.742188 22.65625 -41.800781 29.28125 -40.0625 C 35.914062 -38.320312 40.710938 -36.023438 43.671875 -33.171875 C 46.640625 -30.316406 48.125 -25.722656 48.125 -19.390625 C 48.125 -13.054688 45.992188 -8.054688 41.734375 -4.390625 C 37.472656 -0.722656 31.972656 1.109375 25.234375 1.109375 C 20.191406 1.109375 13.816406 0.0351562 6.109375 -2.109375 L 7.5625 -7.78125 C 15.113281 -5.707031 21.1875 -4.671875 25.78125 -4.671875 C 30.375 -4.671875 34.148438 -5.945312 37.109375 -8.5 C 40.078125 -11.0625 41.5625 -14.640625 41.5625 -19.234375 C 41.5625 -23.828125 40.488281 -27.195312 38.34375 -29.34375 C 36.195312 -31.488281 31.804688 -33.359375 25.171875 -34.953125 Z M 25.171875 -34.953125 "/></g></g></g><g fill="#423b3b" fill-opacity="1"><g transform="translate(3599.146462, 1370.365537)"><g><path d="M 6.5625 -26.21875 C 6.5625 -44.375 13.632812 -53.453125 27.78125 -53.453125 C 41.9375 -53.453125 49.015625 -44.375 49.015625 -26.21875 C 49.015625 -8.070312 41.9375 1 27.78125 1 C 13.632812 1 6.5625 -8.070312 6.5625 -26.21875 Z M 27.78125 -47.671875 C 17.851562 -47.671875 12.890625 -40.519531 12.890625 -26.21875 C 12.890625 -11.925781 17.851562 -4.78125 27.78125 -4.78125 C 37.707031 -4.78125 42.671875 -11.925781 42.671875 -26.21875 C 42.671875 -40.519531 37.707031 -47.671875 27.78125 -47.671875 Z M 27.78125 -47.671875 "/></g></g></g><g fill="#423b3b" fill-opacity="1"><g transform="translate(3654.718815, 1370.365537)"><g><path d="M 9.453125 -52.796875 L 9.78125 -49.453125 C 13.488281 -52.117188 16.34375 -53.453125 18.34375 -53.453125 C 23.226562 -53.453125 26.597656 -51.859375 28.453125 -48.671875 C 32.597656 -51.859375 36.226562 -53.453125 39.34375 -53.453125 C 44.15625 -53.453125 47.453125 -51.96875 49.234375 -49 C 51.015625 -46.039062 51.90625 -41.488281 51.90625 -35.34375 L 51.90625 0 L 46.015625 0 L 46.015625 -35.34375 C 46.015625 -39.5625 45.566406 -42.691406 44.671875 -44.734375 C 43.785156 -46.773438 42.082031 -47.796875 39.5625 -47.796875 C 37.039062 -47.796875 33.929688 -46.609375 30.234375 -44.234375 C 30.671875 -41.710938 30.890625 -38.75 30.890625 -35.34375 L 30.890625 -16.890625 L 25 -16.890625 L 25 -35.34375 C 25 -39.5625 24.554688 -42.671875 23.671875 -44.671875 C 22.710938 -46.753906 20.972656 -47.796875 18.453125 -47.796875 C 15.929688 -47.796875 13.039062 -46.609375 9.78125 -44.234375 L 9.78125 0 L 3.890625 0 L 3.890625 -52.796875 Z M 9.453125 -52.796875 "/></g></g></g><g fill="#423b3b" fill-opacity="1"><g transform="translate(3710.291169, 1370.365537)"><g><path d="M 7.453125 -26.34375 C 7.453125 -34.863281 9.207031 -41.507812 12.71875 -46.28125 C 16.238281 -51.0625 21.367188 -53.453125 28.109375 -53.453125 C 34.859375 -53.453125 39.878906 -51.226562 43.171875 -46.78125 C 46.472656 -42.34375 48.125 -36.414062 48.125 -29 L 47.796875 -23.453125 L 13.78125 -23.453125 C 14.15625 -17.890625 15.632812 -13.382812 18.21875 -9.9375 C 20.8125 -6.5 24.382812 -4.78125 28.9375 -4.78125 C 33.5 -4.78125 38.859375 -5.851562 45.015625 -8 L 46.671875 -2.4375 C 40.671875 -0.144531 35.039062 1 29.78125 1 C 22.519531 1 16.984375 -1.425781 13.171875 -6.28125 C 9.359375 -11.132812 7.453125 -17.820312 7.453125 -26.34375 Z M 28.5625 -47.796875 C 19.226562 -47.796875 14.300781 -41.53125 13.78125 -29 L 41.78125 -29 C 41.78125 -41.53125 37.375 -47.796875 28.5625 -47.796875 Z M 28.5625 -47.796875 "/></g></g></g><g fill="#423b3b" fill-opacity="1"><g transform="translate(3765.863522, 1370.365537)"><g><path d="M 10.109375 -47.234375 L 10.109375 -52.796875 L 26.453125 -52.796875 L 26.671875 -46.34375 C 29.046875 -47.820312 32.378906 -49.300781 36.671875 -50.78125 C 40.972656 -52.269531 44.753906 -53.160156 48.015625 -53.453125 L 48.015625 -46.90625 C 44.972656 -46.675781 41.210938 -45.929688 36.734375 -44.671875 C 32.253906 -43.421875 28.898438 -42.125 26.671875 -40.78125 L 26.671875 -5.5625 L 44.453125 -5.5625 L 44.453125 0 L 10.109375 0 L 10.109375 -5.5625 L 20.5625 -5.5625 L 20.5625 -47.234375 Z M 10.109375 -47.234375 "/></g></g><g transform="translate(3821.43583, 1370.365537)"><g><path d="M 8.671875 -2.5625 L 10.109375 -8.328125 C 17.441406 -5.890625 23.109375 -4.671875 27.109375 -4.671875 C 31.117188 -4.671875 34.210938 -5.539062 36.390625 -7.28125 C 38.578125 -9.019531 39.671875 -11.332031 39.671875 -14.21875 C 39.671875 -17.113281 38.800781 -19.242188 37.0625 -20.609375 C 35.320312 -21.984375 31.707031 -23.300781 26.21875 -24.5625 C 20.738281 -25.820312 16.628906 -27.640625 13.890625 -30.015625 C 11.148438 -32.234375 9.78125 -35.5625 9.78125 -40 C 9.78125 -44.445312 11.460938 -47.835938 14.828125 -50.171875 C 18.203125 -52.515625 22.554688 -53.6875 27.890625 -53.6875 C 33.234375 -53.6875 39.015625 -52.5 45.234375 -50.125 L 43.671875 -44.90625 C 37.378906 -46.976562 32.304688 -48.015625 28.453125 -48.015625 C 24.597656 -48.015625 21.5625 -47.347656 19.34375 -46.015625 C 17.113281 -44.535156 16 -42.535156 16 -40.015625 C 16 -37.492188 16.976562 -35.53125 18.9375 -34.125 C 20.90625 -32.71875 24.703125 -31.304688 30.328125 -29.890625 C 35.960938 -28.484375 39.96875 -26.6875 42.34375 -24.5 C 44.71875 -22.320312 45.90625 -18.894531 45.90625 -14.21875 C 45.90625 -9.550781 44.3125 -5.847656 41.125 -3.109375 C 38.007812 -0.367188 33.5625 1 27.78125 1 C 22 1 15.628906 -0.1875 8.671875 -2.5625 Z M 8.671875 -2.5625 "/></g></g><g transform="translate(3877.008138, 1370.365537)"><g><path d="M 7.453125 -26.34375 C 7.453125 -34.863281 9.207031 -41.507812 12.71875 -46.28125 C 16.238281 -51.0625 21.367188 -53.453125 28.109375 -53.453125 C 34.859375 -53.453125 39.878906 -51.226562 43.171875 -46.78125 C 46.472656 -42.34375 48.125 -36.414062 48.125 -29 L 47.796875 -23.453125 L 13.78125 -23.453125 C 14.15625 -17.890625 15.632812 -13.382812 18.21875 -9.9375 C 20.8125 -6.5 24.382812 -4.78125 28.9375 -4.78125 C 33.5 -4.78125 38.859375 -5.851562 45.015625 -8 L 46.671875 -2.4375 C 40.671875 -0.144531 35.039062 1 29.78125 1 C 22.519531 1 16.984375 -1.425781 13.171875 -6.28125 C 9.359375 -11.132812 7.453125 -17.820312 7.453125 -26.34375 Z M 28.5625 -47.796875 C 19.226562 -47.796875 14.300781 -41.53125 13.78125 -29 L 41.78125 -29 C 41.78125 -41.53125 37.375 -47.796875 28.5625 -47.796875 Z M 28.5625 -47.796875 "/></g></g><g transform="translate(3932.580446, 1370.365537)"><g><path d="M 17.78125 -46.453125 L 8.453125 -46.453125 L 8.453125 -52.015625 L 17.78125 -52.015625 L 17.78125 -64.796875 L 23.671875 -65.90625 L 23.671875 -52.015625 L 44.796875 -52.015625 L 44.796875 -46.453125 L 23.671875 -46.453125 L 23.671875 -20.453125 C 23.671875 -14.671875 24.242188 -10.59375 25.390625 -8.21875 C 26.546875 -5.851562 28.898438 -4.671875 32.453125 -4.671875 C 36.003906 -4.671875 39.929688 -5.375 44.234375 -6.78125 L 45.5625 -1.21875 C 41.269531 0.332031 37.269531 1.109375 33.5625 1.109375 C 29.851562 1.109375 26.941406 0.628906 24.828125 -0.328125 C 22.722656 -1.296875 21.171875 -2.832031 20.171875 -4.9375 C 19.171875 -7.050781 18.519531 -9.21875 18.21875 -11.4375 C 17.925781 -13.664062 17.78125 -16.597656 17.78125 -20.234375 Z M 17.78125 -46.453125 "/></g></g></g><g fill="#423b3b" fill-opacity="1"><g transform="translate(3988.163952, 1370.365537)"><g/></g></g><g fill="#423b3b" fill-opacity="1"><g transform="translate(1857.114819, 1204.3726)"><g><path d="M 126.765625 0 L 94.75 0 L 44.8125 -90.484375 L 44.8125 0 L 12.796875 0 L 12.796875 -145.109375 L 44.8125 -145.109375 L 94.75 -54.625 L 94.75 -145.109375 L 126.765625 -145.109375 Z M 126.765625 0 "/></g></g></g><g fill="#423b3b" fill-opacity="1"><g transform="translate(1996.686449, 1204.3726)"><g><path d="M 11.09375 -126.34375 C 11.09375 -131.601562 12.90625 -136.046875 16.53125 -139.671875 C 20.164062 -143.296875 24.613281 -145.109375 29.875 -145.109375 C 35 -145.109375 39.410156 -143.296875 43.109375 -139.671875 C 46.804688 -136.046875 48.65625 -131.601562 48.65625 -126.34375 C 48.65625 -121.21875 46.804688 -116.804688 43.109375 -113.109375 C 39.410156 -109.410156 35 -107.5625 29.875 -107.5625 C 24.613281 -107.5625 20.164062 -109.410156 16.53125 -113.109375 C 12.90625 -116.804688 11.09375 -121.21875 11.09375 -126.34375 Z M 45.875 0 L 13.875 0 L 13.875 -94.109375 L 45.875 -94.109375 Z M 45.875 0 "/></g></g></g><g fill="#423b3b" fill-opacity="1"><g transform="translate(2056.441869, 1204.3726)"><g><path d="M 60.828125 -71.28125 C 55.984375 -71.28125 52.171875 -69.960938 49.390625 -67.328125 C 46.617188 -64.691406 44.628906 -61.488281 43.421875 -57.71875 C 42.210938 -53.957031 41.609375 -50.296875 41.609375 -46.734375 C 41.609375 -43.179688 42.175781 -39.484375 43.3125 -35.640625 C 44.457031 -31.796875 46.414062 -28.59375 49.1875 -26.03125 C 51.96875 -23.46875 55.847656 -22.1875 60.828125 -22.1875 C 65.804688 -22.1875 70 -23.253906 73.40625 -25.390625 C 76.820312 -27.523438 78.816406 -30.726562 79.390625 -35 L 110.546875 -35 C 109.546875 -28.03125 106.835938 -21.734375 102.421875 -16.109375 C 98.015625 -10.492188 92.179688 -6.046875 84.921875 -2.765625 C 77.671875 0.503906 69.28125 2.140625 59.75 2.140625 C 48.9375 2.140625 39.617188 -0.0976562 31.796875 -4.578125 C 23.972656 -9.066406 17.960938 -15.007812 13.765625 -22.40625 C 9.566406 -29.800781 7.46875 -37.984375 7.46875 -46.953125 C 7.46875 -55.910156 9.632812 -64.125 13.96875 -71.59375 C 18.3125 -79.0625 24.429688 -85.035156 32.328125 -89.515625 C 40.222656 -94.003906 49.363281 -96.25 59.75 -96.25 C 70 -96.25 78.859375 -94.429688 86.328125 -90.796875 C 93.796875 -87.171875 99.695312 -82.332031 104.03125 -76.28125 C 108.375 -70.238281 110.757812 -63.59375 111.1875 -56.34375 L 79.390625 -56.34375 C 79.242188 -60.894531 77.5 -64.519531 74.15625 -67.21875 C 70.8125 -69.925781 66.367188 -71.28125 60.828125 -71.28125 Z M 60.828125 -71.28125 "/></g></g></g><g fill="#423b3b" fill-opacity="1"><g transform="translate(2174.245475, 1204.3726)"><g><path d="M 41.828125 -58.265625 L 83.875 -58.265625 C 83.875 -58.265625 83.691406 -59.148438 83.328125 -60.921875 C 82.972656 -62.703125 82.117188 -64.726562 80.765625 -67 C 79.421875 -69.28125 77.320312 -71.3125 74.46875 -73.09375 C 71.625 -74.875 67.785156 -75.765625 62.953125 -75.765625 C 57.972656 -75.765625 54.0625 -74.875 51.21875 -73.09375 C 48.375 -71.3125 46.273438 -69.28125 44.921875 -67 C 43.566406 -64.726562 42.710938 -62.703125 42.359375 -60.921875 C 42.003906 -59.148438 41.828125 -58.265625 41.828125 -58.265625 Z M 114.59375 -49.078125 C 114.59375 -48.085938 114.554688 -47.09375 114.484375 -46.09375 C 114.421875 -45.101562 114.390625 -44.109375 114.390625 -43.109375 L 41.40625 -43.109375 C 41.40625 -39.546875 42.222656 -36.019531 43.859375 -32.53125 C 45.492188 -29.050781 47.835938 -26.207031 50.890625 -24 C 53.953125 -21.800781 57.546875 -20.703125 61.671875 -20.703125 C 67.359375 -20.703125 71.835938 -22.226562 75.109375 -25.28125 C 78.390625 -28.34375 80.097656 -31.582031 80.234375 -35 L 112.890625 -35 C 110.191406 -22.625 104.21875 -13.335938 94.96875 -7.140625 C 85.71875 -0.953125 74.832031 2.140625 62.3125 2.140625 C 51.5 2.140625 41.96875 0.113281 33.71875 -3.9375 C 25.46875 -8 19.03125 -13.691406 14.40625 -21.015625 C 9.78125 -28.347656 7.46875 -36.992188 7.46875 -46.953125 C 7.46875 -56.765625 9.847656 -65.367188 14.609375 -72.765625 C 19.378906 -80.171875 25.890625 -85.9375 34.140625 -90.0625 C 42.390625 -94.1875 51.78125 -96.25 62.3125 -96.25 C 71.84375 -96.25 80.554688 -94.398438 88.453125 -90.703125 C 96.347656 -87.003906 102.675781 -81.664062 107.4375 -74.6875 C 112.207031 -67.71875 114.59375 -59.179688 114.59375 -49.078125 Z M 114.59375 -49.078125 "/></g></g></g><g fill="#423b3b" fill-opacity="1"><g transform="translate(2296.317317, 1204.3726)"><g/></g></g><g fill="#423b3b" fill-opacity="1"><g transform="translate(2349.670373, 1204.3726)"><g><path d="M 53.140625 -69.359375 L 53.140625 0 L 21.34375 0 L 21.34375 -69.359375 L 4.265625 -69.359375 L 4.265625 -94.109375 L 21.34375 -94.109375 L 21.34375 -129.96875 L 53.140625 -129.96875 L 53.140625 -94.109375 L 70.203125 -94.109375 L 70.203125 -69.359375 Z M 53.140625 -69.359375 "/></g></g></g><g fill="#423b3b" fill-opacity="1"><g transform="translate(2424.151278, 1204.3726)"><g><path d="M 61.25 -22.1875 C 66.9375 -22.1875 71.34375 -23.394531 74.46875 -25.8125 C 77.601562 -28.238281 79.8125 -31.335938 81.09375 -35.109375 C 82.375 -38.878906 83.015625 -42.753906 83.015625 -46.734375 C 83.015625 -50.722656 82.335938 -54.566406 80.984375 -58.265625 C 79.628906 -61.960938 77.390625 -65.019531 74.265625 -67.4375 C 71.140625 -69.851562 66.800781 -71.0625 61.25 -71.0625 C 55.695312 -71.0625 51.320312 -69.851562 48.125 -67.4375 C 44.925781 -65.019531 42.648438 -61.960938 41.296875 -58.265625 C 39.941406 -54.566406 39.265625 -50.722656 39.265625 -46.734375 C 39.265625 -42.753906 39.90625 -38.878906 41.1875 -35.109375 C 42.46875 -31.335938 44.707031 -28.238281 47.90625 -25.8125 C 51.113281 -23.394531 55.5625 -22.1875 61.25 -22.1875 Z M 61.25 -96.03125 C 71.0625 -96.03125 80.019531 -93.96875 88.125 -89.84375 C 96.238281 -85.71875 102.710938 -79.988281 107.546875 -72.65625 C 112.390625 -65.332031 114.8125 -56.765625 114.8125 -46.953125 C 114.8125 -36.992188 112.425781 -28.347656 107.65625 -21.015625 C 102.894531 -13.691406 96.457031 -8.035156 88.34375 -4.046875 C 80.238281 -0.0664062 71.207031 1.921875 61.25 1.921875 C 51.289062 1.921875 42.21875 -0.0664062 34.03125 -4.046875 C 25.851562 -8.035156 19.378906 -13.691406 14.609375 -21.015625 C 9.847656 -28.347656 7.46875 -36.992188 7.46875 -46.953125 C 7.46875 -56.765625 9.882812 -65.332031 14.71875 -72.65625 C 19.5625 -79.988281 26.070312 -85.71875 34.25 -89.84375 C 42.425781 -93.96875 51.425781 -96.03125 61.25 -96.03125 Z M 61.25 -96.03125 "/></g></g></g><g fill="#423b3b" fill-opacity="1"><g transform="translate(2546.436492, 1204.3726)"><g/></g></g><g fill="#423b3b" fill-opacity="1"><g transform="translate(2599.789548, 1204.3726)"><g><path d="M 107.765625 -47.796875 L 107.765625 0 L 75.765625 0 L 75.765625 -52.078125 C 75.765625 -56.628906 74.835938 -60.820312 72.984375 -64.65625 C 71.128906 -68.5 67.5 -70.421875 62.09375 -70.421875 C 58.539062 -70.421875 55.445312 -69.101562 52.8125 -66.46875 C 50.1875 -63.84375 48.195312 -60.710938 46.84375 -57.078125 C 45.488281 -53.453125 44.8125 -50.078125 44.8125 -46.953125 L 44.8125 0 L 12.796875 0 L 12.796875 -94.109375 L 44.8125 -94.109375 L 44.8125 -82.59375 C 48.082031 -86.71875 51.921875 -90.023438 56.328125 -92.515625 C 60.742188 -95.003906 65.582031 -96.25 70.84375 -96.25 C 76.820312 -96.25 82.367188 -94.929688 87.484375 -92.296875 C 92.609375 -89.660156 96.8125 -85.640625 100.09375 -80.234375 C 104.644531 -86.066406 109.65625 -90.191406 115.125 -92.609375 C 120.601562 -95.035156 127.046875 -96.25 134.453125 -96.25 C 142.703125 -96.25 149.492188 -94.253906 154.828125 -90.265625 C 160.160156 -86.285156 164.140625 -80.953125 166.765625 -74.265625 C 169.398438 -67.578125 170.71875 -60.179688 170.71875 -52.078125 L 170.71875 0 L 138.71875 0 L 138.71875 -52.078125 C 138.71875 -56.628906 137.789062 -60.820312 135.9375 -64.65625 C 134.09375 -68.5 130.46875 -70.421875 125.0625 -70.421875 C 120.9375 -70.421875 117.59375 -69.28125 115.03125 -67 C 112.46875 -64.726562 110.613281 -61.847656 109.46875 -58.359375 C 108.332031 -54.878906 107.765625 -51.359375 107.765625 -47.796875 Z M 107.765625 -47.796875 "/></g></g></g><g fill="#423b3b" fill-opacity="1"><g transform="translate(2780.122935, 1204.3726)"><g><path d="M 41.828125 -58.265625 L 83.875 -58.265625 C 83.875 -58.265625 83.691406 -59.148438 83.328125 -60.921875 C 82.972656 -62.703125 82.117188 -64.726562 80.765625 -67 C 79.421875 -69.28125 77.320312 -71.3125 74.46875 -73.09375 C 71.625 -74.875 67.785156 -75.765625 62.953125 -75.765625 C 57.972656 -75.765625 54.0625 -74.875 51.21875 -73.09375 C 48.375 -71.3125 46.273438 -69.28125 44.921875 -67 C 43.566406 -64.726562 42.710938 -62.703125 42.359375 -60.921875 C 42.003906 -59.148438 41.828125 -58.265625 41.828125 -58.265625 Z M 114.59375 -49.078125 C 114.59375 -48.085938 114.554688 -47.09375 114.484375 -46.09375 C 114.421875 -45.101562 114.390625 -44.109375 114.390625 -43.109375 L 41.40625 -43.109375 C 41.40625 -39.546875 42.222656 -36.019531 43.859375 -32.53125 C 45.492188 -29.050781 47.835938 -26.207031 50.890625 -24 C 53.953125 -21.800781 57.546875 -20.703125 61.671875 -20.703125 C 67.359375 -20.703125 71.835938 -22.226562 75.109375 -25.28125 C 78.390625 -28.34375 80.097656 -31.582031 80.234375 -35 L 112.890625 -35 C 110.191406 -22.625 104.21875 -13.335938 94.96875 -7.140625 C 85.71875 -0.953125 74.832031 2.140625 62.3125 2.140625 C 51.5 2.140625 41.96875 0.113281 33.71875 -3.9375 C 25.46875 -8 19.03125 -13.691406 14.40625 -21.015625 C 9.78125 -28.347656 7.46875 -36.992188 7.46875 -46.953125 C 7.46875 -56.765625 9.847656 -65.367188 14.609375 -72.765625 C 19.378906 -80.171875 25.890625 -85.9375 34.140625 -90.0625 C 42.390625 -94.1875 51.78125 -96.25 62.3125 -96.25 C 71.84375 -96.25 80.554688 -94.398438 88.453125 -90.703125 C 96.347656 -87.003906 102.675781 -81.664062 107.4375 -74.6875 C 112.207031 -67.71875 114.59375 -59.179688 114.59375 -49.078125 Z M 114.59375 -49.078125 "/></g></g></g><g fill="#423b3b" fill-opacity="1"><g transform="translate(2902.194731, 1204.3726)"><g><path d="M 41.828125 -58.265625 L 83.875 -58.265625 C 83.875 -58.265625 83.691406 -59.148438 83.328125 -60.921875 C 82.972656 -62.703125 82.117188 -64.726562 80.765625 -67 C 79.421875 -69.28125 77.320312 -71.3125 74.46875 -73.09375 C 71.625 -74.875 67.785156 -75.765625 62.953125 -75.765625 C 57.972656 -75.765625 54.0625 -74.875 51.21875 -73.09375 C 48.375 -71.3125 46.273438 -69.28125 44.921875 -67 C 43.566406 -64.726562 42.710938 -62.703125 42.359375 -60.921875 C 42.003906 -59.148438 41.828125 -58.265625 41.828125 -58.265625 Z M 114.59375 -49.078125 C 114.59375 -48.085938 114.554688 -47.09375 114.484375 -46.09375 C 114.421875 -45.101562 114.390625 -44.109375 114.390625 -43.109375 L 41.40625 -43.109375 C 41.40625 -39.546875 42.222656 -36.019531 43.859375 -32.53125 C 45.492188 -29.050781 47.835938 -26.207031 50.890625 -24 C 53.953125 -21.800781 57.546875 -20.703125 61.671875 -20.703125 C 67.359375 -20.703125 71.835938 -22.226562 75.109375 -25.28125 C 78.390625 -28.34375 80.097656 -31.582031 80.234375 -35 L 112.890625 -35 C 110.191406 -22.625 104.21875 -13.335938 94.96875 -7.140625 C 85.71875 -0.953125 74.832031 2.140625 62.3125 2.140625 C 51.5 2.140625 41.96875 0.113281 33.71875 -3.9375 C 25.46875 -8 19.03125 -13.691406 14.40625 -21.015625 C 9.78125 -28.347656 7.46875 -36.992188 7.46875 -46.953125 C 7.46875 -56.765625 9.847656 -65.367188 14.609375 -72.765625 C 19.378906 -80.171875 25.890625 -85.9375 34.140625 -90.0625 C 42.390625 -94.1875 51.78125 -96.25 62.3125 -96.25 C 71.84375 -96.25 80.554688 -94.398438 88.453125 -90.703125 C 96.347656 -87.003906 102.675781 -81.664062 107.4375 -74.6875 C 112.207031 -67.71875 114.59375 -59.179688 114.59375 -49.078125 Z M 114.59375 -49.078125 "/></g></g></g><g fill="#423b3b" fill-opacity="1"><g transform="translate(3024.266527, 1204.3726)"><g><path d="M 53.140625 -69.359375 L 53.140625 0 L 21.34375 0 L 21.34375 -69.359375 L 4.265625 -69.359375 L 4.265625 -94.109375 L 21.34375 -94.109375 L 21.34375 -129.96875 L 53.140625 -129.96875 L 53.140625 -94.109375 L 70.203125 -94.109375 L 70.203125 -69.359375 Z M 53.140625 -69.359375 "/></g></g></g><g fill="#423b3b" fill-opacity="1"><g transform="translate(3098.752928, 1204.3726)"><g/></g></g><g fill="#423b3b" fill-opacity="1"><g transform="translate(3152.111228, 1204.3726)"><g><path d="M 51 53.359375 L 17.71875 53.359375 L 39.046875 0 L 33.71875 0 L -2.140625 -94.109375 L 30.09375 -94.109375 L 52.5 -26.890625 L 74.90625 -94.109375 L 107.34375 -94.109375 L 71.484375 0 Z M 51 53.359375 "/></g></g></g><g fill="#423b3b" fill-opacity="1"><g transform="translate(3257.323466, 1204.3726)"><g><path d="M 61.25 -22.1875 C 66.9375 -22.1875 71.34375 -23.394531 74.46875 -25.8125 C 77.601562 -28.238281 79.8125 -31.335938 81.09375 -35.109375 C 82.375 -38.878906 83.015625 -42.753906 83.015625 -46.734375 C 83.015625 -50.722656 82.335938 -54.566406 80.984375 -58.265625 C 79.628906 -61.960938 77.390625 -65.019531 74.265625 -67.4375 C 71.140625 -69.851562 66.800781 -71.0625 61.25 -71.0625 C 55.695312 -71.0625 51.320312 -69.851562 48.125 -67.4375 C 44.925781 -65.019531 42.648438 -61.960938 41.296875 -58.265625 C 39.941406 -54.566406 39.265625 -50.722656 39.265625 -46.734375 C 39.265625 -42.753906 39.90625 -38.878906 41.1875 -35.109375 C 42.46875 -31.335938 44.707031 -28.238281 47.90625 -25.8125 C 51.113281 -23.394531 55.5625 -22.1875 61.25 -22.1875 Z M 61.25 -96.03125 C 71.0625 -96.03125 80.019531 -93.96875 88.125 -89.84375 C 96.238281 -85.71875 102.710938 -79.988281 107.546875 -72.65625 C 112.390625 -65.332031 114.8125 -56.765625 114.8125 -46.953125 C 114.8125 -36.992188 112.425781 -28.347656 107.65625 -21.015625 C 102.894531 -13.691406 96.457031 -8.035156 88.34375 -4.046875 C 80.238281 -0.0664062 71.207031 1.921875 61.25 1.921875 C 51.289062 1.921875 42.21875 -0.0664062 34.03125 -4.046875 C 25.851562 -8.035156 19.378906 -13.691406 14.609375 -21.015625 C 9.847656 -28.347656 7.46875 -36.992188 7.46875 -46.953125 C 7.46875 -56.765625 9.882812 -65.332031 14.71875 -72.65625 C 19.5625 -79.988281 26.070312 -85.71875 34.25 -89.84375 C 42.425781 -93.96875 51.425781 -96.03125 61.25 -96.03125 Z M 61.25 -96.03125 "/></g></g></g><g fill="#423b3b" fill-opacity="1"><g transform="translate(3379.608715, 1204.3726)"><g><path d="M 10.671875 -40.546875 L 10.671875 -94.109375 L 42.6875 -94.109375 L 42.6875 -40.546875 C 42.6875 -35.140625 43.820312 -30.941406 46.09375 -27.953125 C 48.375 -24.960938 52.003906 -23.46875 56.984375 -23.46875 C 61.960938 -23.46875 66.191406 -25.816406 69.671875 -30.515625 C 73.160156 -35.210938 74.90625 -40.691406 74.90625 -46.953125 L 74.90625 -94.109375 L 106.921875 -94.109375 L 106.921875 0 L 74.90625 0 L 74.90625 -11.53125 C 71.769531 -7.539062 67.75 -4.265625 62.84375 -1.703125 C 57.9375 0.859375 52.351562 2.140625 46.09375 2.140625 C 33.570312 2.140625 24.535156 -1.804688 18.984375 -9.703125 C 13.441406 -17.597656 10.671875 -27.878906 10.671875 -40.546875 Z M 10.671875 -40.546875 "/></g></g></g><g fill="#423b3b" fill-opacity="1"><g transform="translate(3499.333043, 1204.3726)"><g><path d="M 11.09375 -16.640625 C 11.09375 -21.765625 12.90625 -26.175781 16.53125 -29.875 C 20.164062 -33.570312 24.613281 -35.421875 29.875 -35.421875 C 35 -35.421875 39.410156 -33.570312 43.109375 -29.875 C 46.804688 -26.175781 48.65625 -21.765625 48.65625 -16.640625 C 48.65625 -11.378906 46.804688 -6.929688 43.109375 -3.296875 C 39.410156 0.328125 35 2.140625 29.875 2.140625 C 24.613281 2.140625 20.164062 0.328125 16.53125 -3.296875 C 12.90625 -6.929688 11.09375 -11.378906 11.09375 -16.640625 Z M 18.140625 -48.875 L 13.875 -160.0625 L 45.875 -160.0625 L 41.609375 -48.875 Z M 18.140625 -48.875 "/></g></g></g><g fill="#423b3b" fill-opacity="1"><g transform="translate(3559.088475, 1204.3726)"><g/></g></g><g fill="#423b3b" fill-opacity="1"><g transform="translate(3612.441531, 1204.3726)"><g><path d="M 44.8125 0 L 12.796875 0 L 12.796875 -145.109375 L 44.8125 -145.109375 Z M 44.8125 0 "/></g></g></g><g fill="#423b3b" fill-opacity="1"><g transform="translate(3670.062868, 1204.3726)"><g><path d="M 55.703125 -160.0625 L 24.96875 -96.25 L 7.46875 -96.25 L 24.109375 -160.0625 Z M 55.703125 -160.0625 "/></g></g></g><g fill="#423b3b" fill-opacity="1"><g transform="translate(3727.897578, 1204.3726)"><g><path d="M 107.765625 -47.796875 L 107.765625 0 L 75.765625 0 L 75.765625 -52.078125 C 75.765625 -56.628906 74.835938 -60.820312 72.984375 -64.65625 C 71.128906 -68.5 67.5 -70.421875 62.09375 -70.421875 C 58.539062 -70.421875 55.445312 -69.101562 52.8125 -66.46875 C 50.1875 -63.84375 48.195312 -60.710938 46.84375 -57.078125 C 45.488281 -53.453125 44.8125 -50.078125 44.8125 -46.953125 L 44.8125 0 L 12.796875 0 L 12.796875 -94.109375 L 44.8125 -94.109375 L 44.8125 -82.59375 C 48.082031 -86.71875 51.921875 -90.023438 56.328125 -92.515625 C 60.742188 -95.003906 65.582031 -96.25 70.84375 -96.25 C 76.820312 -96.25 82.367188 -94.929688 87.484375 -92.296875 C 92.609375 -89.660156 96.8125 -85.640625 100.09375 -80.234375 C 104.644531 -86.066406 109.65625 -90.191406 115.125 -92.609375 C 120.601562 -95.035156 127.046875 -96.25 134.453125 -96.25 C 142.703125 -96.25 149.492188 -94.253906 154.828125 -90.265625 C 160.160156 -86.285156 164.140625 -80.953125 166.765625 -74.265625 C 169.398438 -67.578125 170.71875 -60.179688 170.71875 -52.078125 L 170.71875 0 L 138.71875 0 L 138.71875 -52.078125 C 138.71875 -56.628906 137.789062 -60.820312 135.9375 -64.65625 C 134.09375 -68.5 130.46875 -70.421875 125.0625 -70.421875 C 120.9375 -70.421875 117.59375 -69.28125 115.03125 -67 C 112.46875 -64.726562 110.613281 -61.847656 109.46875 -58.359375 C 108.332031 -54.878906 107.765625 -51.359375 107.765625 -47.796875 Z M 107.765625 -47.796875 "/></g></g></g><g fill="#423b3b" fill-opacity="1"><g transform="translate(3908.230965, 1204.3726)"><g/></g></g><g fill="#423b3b" fill-opacity="1"><g transform="translate(3961.587996, 1204.3726)"><g><path d="M 103.5 -29.015625 L 96.890625 0 L 12.796875 0 L 46.3125 -145.109375 L 130.390625 -145.109375 L 123.78125 -116.09375 L 71.703125 -116.09375 L 64.875 -87.28125 L 114.8125 -87.28125 L 108.203125 -58.265625 L 58.265625 -58.265625 L 51.4375 -29.015625 Z M 103.5 -29.015625 "/></g></g></g><g fill="#423b3b" fill-opacity="1"><g transform="translate(4071.281935, 1204.3726)"><g><path d="M 118.875 -47.796875 L 107.765625 0 L 75.765625 0 L 87.703125 -52.078125 C 88.847656 -56.628906 88.921875 -60.820312 87.921875 -64.65625 C 86.921875 -68.5 83.71875 -70.421875 78.3125 -70.421875 C 74.757812 -70.421875 71.378906 -69.101562 68.171875 -66.46875 C 64.972656 -63.84375 62.269531 -60.710938 60.0625 -57.078125 C 57.863281 -53.453125 56.410156 -50.078125 55.703125 -46.953125 L 44.8125 0 L 12.796875 0 L 34.578125 -94.109375 L 66.578125 -94.109375 L 63.8125 -82.59375 C 67.9375 -86.71875 72.523438 -90.023438 77.578125 -92.515625 C 82.628906 -95.003906 87.785156 -96.25 93.046875 -96.25 C 99.023438 -96.25 104.253906 -94.929688 108.734375 -92.296875 C 113.210938 -89.660156 116.519531 -85.640625 118.65625 -80.234375 C 124.625 -86.066406 130.597656 -90.191406 136.578125 -92.609375 C 142.554688 -95.035156 149.242188 -96.25 156.640625 -96.25 C 164.890625 -96.25 171.21875 -94.253906 175.625 -90.265625 C 180.039062 -86.285156 182.78125 -80.953125 183.84375 -74.265625 C 184.914062 -67.578125 184.523438 -60.179688 182.671875 -52.078125 L 170.71875 0 L 138.71875 0 L 150.671875 -52.078125 C 151.804688 -56.628906 151.875 -60.820312 150.875 -64.65625 C 149.882812 -68.5 146.6875 -70.421875 141.28125 -70.421875 C 137.15625 -70.421875 133.5625 -69.28125 130.5 -67 C 127.4375 -64.726562 124.910156 -61.847656 122.921875 -58.359375 C 120.929688 -54.878906 119.582031 -51.359375 118.875 -47.796875 Z M 118.875 -47.796875 "/></g></g></g><g fill="#423b3b" fill-opacity="1"><g transform="translate(4251.615337, 1204.3726)"><g><path d="M 118.875 -47.796875 L 107.765625 0 L 75.765625 0 L 87.703125 -52.078125 C 88.847656 -56.628906 88.921875 -60.820312 87.921875 -64.65625 C 86.921875 -68.5 83.71875 -70.421875 78.3125 -70.421875 C 74.757812 -70.421875 71.378906 -69.101562 68.171875 -66.46875 C 64.972656 -63.84375 62.269531 -60.710938 60.0625 -57.078125 C 57.863281 -53.453125 56.410156 -50.078125 55.703125 -46.953125 L 44.8125 0 L 12.796875 0 L 34.578125 -94.109375 L 66.578125 -94.109375 L 63.8125 -82.59375 C 67.9375 -86.71875 72.523438 -90.023438 77.578125 -92.515625 C 82.628906 -95.003906 87.785156 -96.25 93.046875 -96.25 C 99.023438 -96.25 104.253906 -94.929688 108.734375 -92.296875 C 113.210938 -89.660156 116.519531 -85.640625 118.65625 -80.234375 C 124.625 -86.066406 130.597656 -90.191406 136.578125 -92.609375 C 142.554688 -95.035156 149.242188 -96.25 156.640625 -96.25 C 164.890625 -96.25 171.21875 -94.253906 175.625 -90.265625 C 180.039062 -86.285156 182.78125 -80.953125 183.84375 -74.265625 C 184.914062 -67.578125 184.523438 -60.179688 182.671875 -52.078125 L 170.71875 0 L 138.71875 0 L 150.671875 -52.078125 C 151.804688 -56.628906 151.875 -60.820312 150.875 -64.65625 C 149.882812 -68.5 146.6875 -70.421875 141.28125 -70.421875 C 137.15625 -70.421875 133.5625 -69.28125 130.5 -67 C 127.4375 -64.726562 124.910156 -61.847656 122.921875 -58.359375 C 120.929688 -54.878906 119.582031 -51.359375 118.875 -47.796875 Z M 118.875 -47.796875 "/></g></g></g><g fill="#423b3b" fill-opacity="1"><g transform="translate(4431.948746, 1204.3726)"><g><path d="M 97.3125 -46.953125 C 98.738281 -53.210938 97.847656 -58.6875 94.640625 -63.375 C 91.441406 -68.070312 86.640625 -70.421875 80.234375 -70.421875 C 75.972656 -70.421875 71.921875 -69.316406 68.078125 -67.109375 C 64.234375 -64.910156 60.890625 -62.03125 58.046875 -58.46875 C 55.203125 -54.914062 53.351562 -51.078125 52.5 -46.953125 C 51.070312 -40.828125 51.921875 -35.378906 55.046875 -30.609375 C 58.179688 -25.847656 62.953125 -23.46875 69.359375 -23.46875 C 73.628906 -23.46875 77.71875 -24.570312 81.625 -26.78125 C 85.539062 -28.988281 88.882812 -31.867188 91.65625 -35.421875 C 94.425781 -38.984375 96.3125 -42.828125 97.3125 -46.953125 Z M 140.203125 -93.90625 L 118.4375 0 L 86.421875 0 L 88.984375 -11.3125 C 84.722656 -6.476562 79.28125 -3.023438 72.65625 -0.953125 C 66.039062 1.109375 59.75 2.140625 53.78125 2.140625 C 44.8125 2.140625 37.335938 -0.132812 31.359375 -4.6875 C 25.390625 -9.25 21.226562 -15.265625 18.875 -22.734375 C 16.53125 -30.203125 16.359375 -38.273438 18.359375 -46.953125 C 19.773438 -53.492188 22.332031 -59.71875 26.03125 -65.625 C 29.726562 -71.53125 34.242188 -76.789062 39.578125 -81.40625 C 44.921875 -86.03125 50.722656 -89.660156 56.984375 -92.296875 C 63.242188 -94.929688 69.71875 -96.25 76.40625 -96.25 C 82.375 -96.25 87.953125 -95.25 93.140625 -93.25 C 98.335938 -91.257812 102.429688 -87.707031 105.421875 -82.59375 L 108.203125 -93.90625 Z M 140.203125 -93.90625 "/></g></g></g><g fill="#e43d12" fill-opacity="1"><g transform="translate(4563.20739, 1204.3726)"><g><path d="M 14.9375 -16.4375 C 16.070312 -21.695312 18.878906 -26.140625 23.359375 -29.765625 C 27.847656 -33.398438 32.722656 -35.21875 37.984375 -35.21875 C 43.109375 -35.21875 47.09375 -33.398438 49.9375 -29.765625 C 52.78125 -26.140625 53.632812 -21.695312 52.5 -16.4375 C 51.21875 -11.3125 48.332031 -6.929688 43.84375 -3.296875 C 39.363281 0.328125 34.566406 2.140625 29.453125 2.140625 C 24.179688 2.140625 20.125 0.328125 17.28125 -3.296875 C 14.4375 -6.929688 13.65625 -11.3125 14.9375 -16.4375 Z M 14.9375 -16.4375 "/></g></g></g></svg>