<svg xmlns="http://www.w3.org/2000/svg" xmlns:xlink="http://www.w3.org/1999/xlink" width="1000" zoomAndPan="magnify" viewBox="0 0 750 149.999998" height="200" preserveAspectRatio="xMidYMid meet" version="1.0"><defs><filter x="0%" y="0%" width="100%" height="100%" id="c36260438b"><feColorMatrix values="0 0 0 0 1 0 0 0 0 1 0 0 0 0 1 0 0 0 1 0" color-interpolation-filters="sRGB"/></filter><clipPath id="f2ca744fb6"><path d="M 481 100 L 521 100 L 521 138 L 481 138 Z M 481 100 " clip-rule="nonzero"/></clipPath><clipPath id="d4274567e0"><path d="M 520.050781 108.554688 L 511.984375 138.226562 L 481.585938 129.960938 L 489.65625 100.289062 Z M 520.050781 108.554688 " clip-rule="nonzero"/></clipPath><clipPath id="b8a7d2c139"><path d="M 520.050781 108.554688 L 511.984375 138.226562 L 481.585938 129.960938 L 489.65625 100.289062 Z M 520.050781 108.554688 " clip-rule="nonzero"/></clipPath><mask id="bd35d46857"><g filter="url(#c36260438b)"><rect x="-75" width="900" fill="#000000" y="-15" height="179.999997" fill-opacity="0.982"/></g></mask><clipPath id="7b5641415f"><path d="M 4 4 L 35 4 L 35 33 L 4 33 Z M 4 4 " clip-rule="nonzero"/></clipPath><clipPath id="ca3abf8dc9"><path d="M 39.050781 8.554688 L 30.984375 38.226562 L 0.585938 29.960938 L 8.65625 0.289062 Z M 39.050781 8.554688 " clip-rule="nonzero"/></clipPath><clipPath id="5e927ff0c0"><path d="M 39.050781 8.554688 L 30.984375 38.226562 L 0.585938 29.960938 L 8.65625 0.289062 Z M 39.050781 8.554688 " clip-rule="nonzero"/></clipPath><clipPath id="01a887ffdd"><rect x="0" width="40" y="0" height="38"/></clipPath><clipPath id="136dfa7b04"><path d="M 659 99 L 688 99 L 688 139 L 659 139 Z M 659 99 " clip-rule="nonzero"/></clipPath><clipPath id="3e844169c7"><path d="M 649.074219 110.679688 L 667.960938 93.546875 L 695.675781 124.097656 L 676.789062 141.230469 Z M 649.074219 110.679688 " clip-rule="nonzero"/></clipPath><clipPath id="158c405071"><path d="M 649.074219 110.679688 L 667.960938 93.546875 L 695.675781 124.097656 L 676.789062 141.230469 Z M 649.074219 110.679688 " clip-rule="nonzero"/></clipPath><clipPath id="2e9bd58bff"><path d="M 43.898438 102.394531 L 69.398438 102.394531 L 69.398438 133.144531 L 43.898438 133.144531 Z M 43.898438 102.394531 " clip-rule="nonzero"/></clipPath><clipPath id="bbfd929490"><path d="M 193 111 L 223 111 L 223 136 L 193 136 Z M 193 111 " clip-rule="nonzero"/></clipPath><clipPath id="17c3eb016d"><path d="M 198.859375 106.722656 L 224.3125 132.179688 L 218.480469 138.011719 L 193.023438 112.554688 Z M 198.859375 106.722656 " clip-rule="nonzero"/></clipPath><clipPath id="579178841d"><path d="M 198.859375 106.722656 L 224.3125 132.179688 L 218.480469 138.011719 L 193.023438 112.554688 Z M 198.859375 106.722656 " clip-rule="nonzero"/></clipPath><clipPath id="dae43148b4"><path d="M 333.355469 122 L 373 122 L 373 136 L 333.355469 136 Z M 333.355469 122 " clip-rule="nonzero"/></clipPath></defs><rect x="-75" width="900" fill="#ffffff" y="-15" height="179.999997" fill-opacity="1"/><rect x="-75" width="900" fill="#fafafa" y="-15" height="179.999997" fill-opacity="1"/><g clip-path="url(#f2ca744fb6)"><g clip-path="url(#d4274567e0)"><g clip-path="url(#b8a7d2c139)"><g mask="url(#bd35d46857)"><g transform="matrix(1, 0, 0, 1, 481, 100)"><g clip-path="url(#01a887ffdd)"><g clip-path="url(#7b5641415f)"><g clip-path="url(#ca3abf8dc9)"><g clip-path="url(#5e927ff0c0)"><path fill="#efb11d" d="M 34.425781 25.402344 C 34.21875 26.335938 33.734375 27.082031 32.976562 27.648438 C 32.199219 28.160156 31.347656 28.445312 30.421875 28.515625 C 29.496094 28.5625 28.570312 28.605469 27.640625 28.644531 C 26.65625 28.703125 25.675781 28.796875 24.699219 28.917969 C 22.882812 29.183594 21.125 29.652344 19.429688 30.316406 C 18.511719 30.675781 17.613281 31.082031 16.734375 31.53125 C 16.386719 31.691406 16.042969 31.847656 15.695312 32.007812 C 15.417969 32.121094 15.140625 32.230469 14.859375 32.335938 C 14.226562 32.5625 13.570312 32.691406 12.898438 32.726562 C 11.695312 32.722656 10.59375 32.367188 9.597656 31.652344 C 8.894531 31.125 8.265625 30.519531 7.714844 29.835938 C 6.917969 28.800781 6.214844 27.695312 5.617188 26.519531 C 4.996094 25.265625 4.617188 23.941406 4.472656 22.542969 C 4.425781 21.789062 4.511719 21.050781 4.726562 20.328125 C 4.875 19.84375 5.066406 19.371094 5.308594 18.914062 C 5.523438 18.511719 5.757812 18.121094 6.007812 17.738281 C 6.351562 17.210938 6.695312 16.6875 7.042969 16.164062 C 7.429688 15.570312 7.746094 14.941406 7.992188 14.277344 C 7.992188 14.257812 7.992188 14.238281 7.996094 14.214844 C 8.25 13.582031 8.296875 12.933594 8.140625 12.265625 C 8.085938 12.054688 8.023438 11.84375 7.957031 11.632812 C 7.707031 11.023438 7.476562 10.402344 7.261719 9.777344 C 7.132812 9.332031 7.054688 8.875 7.027344 8.410156 C 7.027344 7.746094 7.175781 7.113281 7.46875 6.507812 C 7.96875 5.601562 8.71875 5.023438 9.726562 4.777344 C 10.257812 4.660156 10.785156 4.664062 11.316406 4.78125 C 11.785156 4.90625 12.253906 5.027344 12.722656 5.144531 C 12.9375 5.203125 13.15625 5.25 13.378906 5.292969 C 13.929688 5.316406 14.476562 5.308594 15.027344 5.273438 C 16.867188 5.050781 18.710938 4.867188 20.558594 4.730469 C 21.164062 4.6875 21.773438 4.65625 22.378906 4.628906 C 23.082031 4.613281 23.78125 4.644531 24.476562 4.71875 C 25.316406 4.824219 26.128906 5.050781 26.90625 5.40625 C 28.519531 6.191406 29.417969 7.476562 29.609375 9.253906 C 29.636719 9.539062 29.65625 9.820312 29.667969 10.105469 C 29.671875 10.75 29.675781 11.394531 29.671875 12.039062 C 29.683594 13.324219 30 14.527344 30.613281 15.644531 C 30.808594 15.996094 31.011719 16.339844 31.222656 16.675781 C 31.660156 17.3125 32.089844 17.957031 32.507812 18.605469 C 33.148438 19.671875 33.679688 20.789062 34.09375 21.949219 C 34.320312 22.644531 34.464844 23.355469 34.53125 24.085938 C 34.558594 24.53125 34.523438 24.96875 34.425781 25.402344 Z M 33.574219 25.335938 C 33.261719 26.253906 32.65625 26.894531 31.757812 27.261719 C 31.25 27.476562 30.71875 27.605469 30.164062 27.648438 C 29.144531 27.695312 28.121094 27.753906 27.09375 27.828125 C 25.894531 27.910156 24.707031 28.054688 23.527344 28.257812 C 22.148438 28.523438 20.808594 28.902344 19.503906 29.390625 C 19.050781 29.566406 18.601562 29.746094 18.15625 29.933594 C 17.230469 30.359375 16.304688 30.78125 15.375 31.191406 C 14.9375 31.378906 14.492188 31.53125 14.035156 31.65625 C 12.546875 32.011719 11.179688 31.746094 9.929688 30.855469 C 9.128906 30.261719 8.4375 29.566406 7.855469 28.761719 C 7.222656 27.875 6.664062 26.9375 6.1875 25.953125 C 5.675781 24.855469 5.363281 23.699219 5.246094 22.488281 C 5.21875 22.035156 5.25 21.589844 5.34375 21.148438 C 5.496094 20.375 5.769531 19.648438 6.164062 18.96875 C 6.699219 18.105469 7.246094 17.253906 7.808594 16.410156 C 8.316406 15.621094 8.6875 14.773438 8.921875 13.867188 C 9.046875 13.289062 9.039062 12.710938 8.910156 12.132812 C 8.847656 11.878906 8.777344 11.628906 8.695312 11.378906 C 8.449219 10.765625 8.214844 10.148438 8 9.523438 C 7.867188 9.074219 7.804688 8.613281 7.808594 8.144531 C 7.84375 7.714844 7.949219 7.304688 8.128906 6.917969 C 8.449219 6.292969 8.941406 5.863281 9.597656 5.628906 C 9.980469 5.488281 10.378906 5.441406 10.785156 5.484375 C 10.945312 5.503906 11.105469 5.527344 11.265625 5.558594 C 11.628906 5.65625 11.976562 5.753906 12.308594 5.855469 C 12.710938 5.949219 13.117188 6.035156 13.523438 6.101562 C 13.789062 6.085938 14.054688 6.085938 14.320312 6.105469 C 15.078125 6.058594 15.835938 5.976562 16.585938 5.859375 C 18.136719 5.699219 19.6875 5.554688 21.238281 5.433594 C 21.996094 5.382812 22.753906 5.363281 23.515625 5.378906 C 24.449219 5.40625 25.351562 5.582031 26.226562 5.914062 C 26.914062 6.191406 27.5 6.601562 27.988281 7.152344 C 28.449219 7.757812 28.726562 8.441406 28.8125 9.203125 C 28.867188 9.644531 28.894531 10.085938 28.894531 10.527344 C 28.890625 11.125 28.890625 11.726562 28.902344 12.324219 C 28.945312 13.488281 29.222656 14.585938 29.734375 15.621094 C 30.03125 16.152344 30.339844 16.675781 30.667969 17.195312 C 30.996094 17.675781 31.328125 18.15625 31.652344 18.640625 C 32.304688 19.664062 32.84375 20.746094 33.265625 21.878906 C 33.488281 22.523438 33.640625 23.1875 33.722656 23.871094 C 33.757812 24.371094 33.707031 24.859375 33.574219 25.335938 Z M 33.574219 25.335938 " fill-opacity="1" fill-rule="evenodd"/></g></g></g></g></g></g></g></g></g><g clip-path="url(#136dfa7b04)"><g clip-path="url(#3e844169c7)"><g clip-path="url(#158c405071)"><path fill="#ffa2b6" d="M 681.832031 115.453125 C 681.027344 115.945312 680.234375 116.457031 679.414062 116.929688 C 678.59375 117.402344 677.746094 117.816406 676.9375 118.316406 C 676.558594 118.542969 676.214844 118.855469 675.929688 119.183594 C 675.59375 119.558594 675.660156 119.875 676.121094 120.070312 C 676.585938 120.273438 677.082031 120.445312 677.582031 120.488281 C 678.441406 120.578125 679.3125 120.566406 680.179688 120.578125 C 681.320312 120.601562 682.46875 120.582031 683.613281 120.652344 C 684.148438 120.683594 684.6875 120.832031 685.1875 121.023438 C 687.117188 121.757812 687.878906 123.679688 687.011719 125.550781 C 686.453125 126.738281 685.492188 127.480469 684.25 127.878906 C 683.148438 128.230469 682.019531 128.207031 680.886719 128.128906 C 679.898438 128.0625 678.90625 127.96875 677.921875 127.945312 C 677.453125 127.9375 676.964844 128.046875 676.507812 128.167969 C 676.179688 128.257812 676.101562 128.523438 676.371094 128.765625 C 676.820312 129.171875 677.261719 129.59375 677.765625 129.914062 C 678.609375 130.457031 679.496094 130.941406 680.375 131.441406 C 681.089844 131.855469 681.769531 132.320312 682.261719 133.003906 C 683.1875 134.292969 683.023438 135.738281 681.835938 136.789062 C 680.953125 137.566406 679.910156 137.949219 678.738281 138.023438 C 676.976562 138.128906 675.3125 137.707031 673.785156 136.84375 C 672.925781 136.351562 672.136719 135.738281 671.34375 135.152344 C 671.128906 134.992188 670.949219 134.753906 670.8125 134.515625 C 670.597656 134.109375 670.703125 133.636719 671.023438 133.371094 C 671.332031 133.113281 671.773438 133.078125 672.148438 133.339844 C 672.554688 133.617188 672.933594 133.945312 673.332031 134.242188 C 674.605469 135.203125 675.992188 135.902344 677.59375 136.058594 C 678.566406 136.15625 679.519531 136.105469 680.351562 135.488281 C 681.007812 135.007812 681.089844 134.511719 680.503906 133.949219 C 680.15625 133.605469 679.71875 133.34375 679.308594 133.082031 C 678.191406 132.386719 677.03125 131.742188 675.957031 131 C 675.421875 130.628906 674.945312 130.117188 674.578125 129.582031 C 673.878906 128.566406 674.132812 127.453125 675.128906 126.726562 C 675.691406 126.308594 676.347656 126.070312 677.03125 126.058594 C 678.09375 126.035156 679.171875 126.09375 680.238281 126.128906 C 681.027344 126.152344 681.824219 126.253906 682.605469 126.207031 C 683.160156 126.171875 683.753906 126.035156 684.238281 125.761719 C 684.65625 125.535156 685.027344 125.101562 685.253906 124.675781 C 685.667969 123.898438 685.363281 123.175781 684.53125 122.867188 C 684.035156 122.683594 683.476562 122.5625 682.949219 122.539062 C 681.882812 122.492188 680.804688 122.5625 679.746094 122.523438 C 678.664062 122.484375 677.578125 122.445312 676.515625 122.242188 C 675.867188 122.125 675.214844 121.796875 674.679688 121.414062 C 673.6875 120.710938 673.496094 119.542969 674.066406 118.472656 C 674.503906 117.652344 675.183594 117.070312 675.972656 116.613281 C 676.867188 116.09375 677.800781 115.617188 678.699219 115.105469 C 679.226562 114.804688 679.75 114.496094 680.234375 114.136719 C 680.566406 113.894531 680.882812 113.59375 681.117188 113.253906 C 681.675781 112.417969 681.304688 111.398438 680.351562 111.074219 C 679.757812 110.871094 679.167969 110.925781 678.636719 111.207031 C 677.71875 111.6875 676.835938 112.230469 675.925781 112.734375 C 674.863281 113.324219 673.824219 113.996094 672.695312 114.453125 C 670.84375 115.214844 669.015625 115.015625 667.308594 113.964844 C 665.851562 113.074219 665.226562 111.605469 665.589844 109.929688 C 665.710938 109.363281 665.953125 108.8125 666.207031 108.289062 C 666.425781 107.828125 666.730469 107.414062 666.992188 106.976562 C 667.253906 106.539062 667.535156 106.105469 667.753906 105.648438 C 668.523438 104.070312 668.273438 102.847656 667.039062 101.929688 C 665.710938 100.945312 663.976562 101.003906 662.800781 102.066406 C 662.1875 102.625 661.800781 103.328125 661.515625 104.09375 C 661.070312 105.285156 660.953125 106.53125 660.941406 107.792969 C 660.933594 108.328125 660.875 108.875 660.796875 109.40625 C 660.691406 110.007812 660.292969 110.125 659.835938 109.710938 C 659.410156 109.320312 659.144531 108.820312 659.105469 108.246094 C 658.921875 105.914062 659.253906 103.671875 660.582031 101.703125 C 663.117188 97.953125 667.757812 98.996094 669.46875 101.714844 C 670.203125 102.886719 670.371094 104.132812 669.925781 105.40625 C 669.640625 106.234375 669.1875 107.007812 668.78125 107.789062 C 668.472656 108.363281 668.078125 108.886719 667.785156 109.46875 C 667.027344 110.996094 667.496094 112.109375 669.097656 112.695312 C 670.128906 113.066406 671.160156 113.058594 672.132812 112.601562 C 673.117188 112.128906 674.054688 111.539062 675.011719 111.011719 C 676.039062 110.445312 677.050781 109.835938 678.109375 109.332031 C 678.988281 108.910156 679.941406 108.90625 680.882812 109.207031 C 683.253906 109.949219 684.085938 112.726562 682.519531 114.65625 C 682.300781 114.921875 682.050781 115.148438 681.816406 115.398438 C 681.8125 115.421875 681.824219 115.4375 681.832031 115.453125 Z M 681.832031 115.453125 " fill-opacity="1" fill-rule="nonzero"/></g></g></g><g clip-path="url(#2e9bd58bff)"><path fill="#d6536d" d="M 48.367188 133.40625 C 47.945312 133.40625 47.539062 133.183594 47.328125 132.789062 C 45.683594 129.742188 44.511719 125.917969 44.117188 122.296875 C 43.902344 120.351562 43.917969 118.535156 44.15625 116.894531 C 44.582031 113.152344 47.210938 108.90625 50.769531 108.746094 C 54.472656 108.652344 57.308594 111.746094 59.835938 114.734375 C 61.1875 116.429688 65.644531 121.230469 67.070312 118.675781 C 67.398438 118.019531 66.339844 115.308594 65.921875 114.355469 C 65.042969 112.167969 64.597656 110.769531 64.574219 108.128906 C 64.617188 106.328125 65.113281 104.691406 66.085938 103.121094 C 66.429688 102.566406 67.15625 102.394531 67.710938 102.738281 C 68.265625 103.078125 68.4375 103.808594 68.09375 104.359375 C 66.445312 107.023438 66.835938 109.542969 67.5 111.875 C 67.945312 113.257812 68.84375 115.042969 69.226562 116.570312 C 69.613281 118.042969 69.570312 119.097656 69.089844 119.894531 C 68.21875 121.335938 67.042969 121.710938 66.207031 121.769531 C 64.847656 121.839844 63.550781 121.304688 61.984375 120.167969 C 60.722656 119.234375 59.347656 117.871094 58.007812 116.226562 C 55.152344 112.804688 50.886719 108.28125 47.769531 113.480469 C 44.921875 118.015625 46.738281 126.867188 49.402344 131.664062 C 49.835938 132.425781 49.234375 133.425781 48.367188 133.40625 Z M 48.367188 133.40625 " fill-opacity="1" fill-rule="nonzero"/></g><g clip-path="url(#bbfd929490)"><g clip-path="url(#17c3eb016d)"><g clip-path="url(#579178841d)"><path fill="#423b3b" d="M 220.484375 128.359375 C 220.363281 128.230469 220.226562 128.109375 220.078125 127.996094 C 219.53125 127.585938 218.875 127.460938 218.324219 127.507812 C 217.773438 127.550781 217.304688 127.714844 216.890625 127.855469 C 216.472656 127.992188 216.113281 128.105469 215.847656 128.128906 C 215.585938 128.152344 215.449219 128.132812 215.257812 127.996094 C 214.832031 127.695312 214.675781 127.042969 214.515625 126.066406 C 214.359375 125.089844 214.207031 123.796875 213.109375 122.96875 C 212.589844 122.574219 211.976562 122.449219 211.453125 122.460938 C 210.933594 122.46875 210.476562 122.585938 210.078125 122.675781 C 209.679688 122.765625 209.339844 122.824219 209.113281 122.820312 C 208.882812 122.8125 208.792969 122.785156 208.640625 122.644531 C 208.382812 122.394531 208.296875 122.148438 208.277344 121.71875 C 208.257812 121.289062 208.351562 120.71875 208.457031 120.101562 C 208.5625 119.480469 208.6875 118.816406 208.628906 118.109375 C 208.574219 117.398438 208.261719 116.609375 207.578125 116.082031 C 206.910156 115.5625 206.054688 115.488281 205.402344 115.675781 C 204.75 115.859375 204.226562 116.210938 203.746094 116.519531 C 203.265625 116.824219 202.828125 117.089844 202.511719 117.1875 C 202.195312 117.289062 202.078125 117.296875 201.8125 117.121094 C 201.636719 117 201.558594 116.875 201.484375 116.589844 C 201.40625 116.308594 201.382812 115.894531 201.363281 115.421875 C 201.347656 114.949219 201.339844 114.417969 201.214844 113.867188 C 201.089844 113.316406 200.824219 112.710938 200.292969 112.265625 C 199.21875 111.367188 197.777344 111.308594 196.597656 111.335938 C 195.417969 111.363281 194.445312 111.554688 194.445312 111.554688 C 194.207031 111.601562 194.023438 111.726562 193.890625 111.925781 C 193.753906 112.125 193.710938 112.34375 193.757812 112.582031 C 193.804688 112.816406 193.929688 113 194.128906 113.136719 C 194.328125 113.269531 194.546875 113.3125 194.78125 113.265625 C 194.78125 113.265625 195.628906 113.101562 196.636719 113.078125 C 197.648438 113.058594 198.765625 113.261719 199.171875 113.605469 C 199.347656 113.75 199.441406 113.929688 199.511719 114.246094 C 199.582031 114.566406 199.601562 115.003906 199.621094 115.484375 C 199.636719 115.964844 199.652344 116.492188 199.796875 117.039062 C 199.941406 117.585938 200.265625 118.179688 200.839844 118.566406 C 201.542969 119.039062 202.390625 119.054688 203.039062 118.851562 C 203.683594 118.648438 204.207031 118.292969 204.683594 117.988281 C 205.160156 117.683594 205.589844 117.433594 205.878906 117.351562 C 206.171875 117.269531 206.25 117.257812 206.507812 117.457031 C 206.789062 117.675781 206.859375 117.859375 206.890625 118.25 C 206.921875 118.640625 206.84375 119.191406 206.738281 119.800781 C 206.632812 120.414062 206.503906 121.085938 206.535156 121.800781 C 206.566406 122.511719 206.8125 123.3125 207.441406 123.910156 C 207.917969 124.359375 208.535156 124.546875 209.0625 124.5625 C 209.589844 124.578125 210.050781 124.46875 210.460938 124.375 C 210.871094 124.285156 211.226562 124.207031 211.492188 124.203125 C 211.753906 124.199219 211.890625 124.234375 212.054688 124.355469 C 212.476562 124.675781 212.636719 125.363281 212.796875 126.347656 C 212.957031 127.328125 213.125 128.625 214.25 129.421875 C 214.808594 129.816406 215.46875 129.917969 216.015625 129.867188 C 216.5625 129.8125 217.027344 129.648438 217.441406 129.507812 C 217.851562 129.371094 218.210938 129.265625 218.464844 129.246094 C 218.71875 129.226562 218.839844 129.246094 219.027344 129.390625 C 219.476562 129.726562 220.011719 130.9375 220.269531 132.070312 C 220.527344 133.203125 220.597656 134.199219 220.597656 134.199219 C 220.613281 134.441406 220.714844 134.640625 220.894531 134.796875 C 221.078125 134.957031 221.289062 135.027344 221.527344 135.011719 C 221.769531 134.992188 221.96875 134.894531 222.125 134.714844 C 222.285156 134.53125 222.355469 134.320312 222.339844 134.082031 C 222.339844 134.082031 222.261719 132.964844 221.96875 131.683594 C 221.714844 130.558594 221.359375 129.257812 220.484375 128.359375 Z M 220.484375 128.359375 " fill-opacity="1" fill-rule="nonzero"/></g></g></g><g clip-path="url(#dae43148b4)"><path fill="#d6536d" d="M 371.964844 131.925781 C 370.457031 131.457031 369.152344 132.171875 368.125 132.683594 C 367.09375 133.191406 366.320312 133.496094 365.816406 133.359375 C 365.34375 133.234375 364.851562 132.636719 364.242188 131.734375 C 363.632812 130.832031 362.898438 129.621094 361.429688 129.238281 C 360.121094 128.894531 359.054688 129.527344 358.25 129.9375 C 357.441406 130.34375 356.910156 130.527344 356.625 130.445312 C 356.003906 130.265625 355.449219 129.453125 354.785156 128.300781 C 354.121094 127.152344 353.335938 125.652344 351.628906 125.214844 C 349.988281 124.792969 348.660156 125.730469 347.613281 126.382812 C 347.085938 126.707031 346.605469 126.996094 346.210938 127.148438 C 345.816406 127.304688 345.558594 127.328125 345.308594 127.253906 C 345.109375 127.199219 344.941406 127.074219 344.722656 126.78125 C 344.503906 126.484375 344.273438 126.039062 344.03125 125.539062 C 343.539062 124.535156 342.960938 123.144531 341.449219 122.667969 C 339.882812 122.179688 338.265625 122.75 336.894531 123.269531 C 335.527344 123.792969 334.433594 124.394531 334.433594 124.394531 C 334.308594 124.460938 334.203125 124.554688 334.113281 124.664062 C 334.023438 124.777344 333.960938 124.898438 333.917969 125.039062 C 333.878906 125.175781 333.867188 125.3125 333.882812 125.457031 C 333.898438 125.597656 333.941406 125.730469 334.011719 125.855469 C 334.078125 125.980469 334.167969 126.089844 334.28125 126.179688 C 334.394531 126.269531 334.515625 126.332031 334.65625 126.371094 C 334.792969 126.410156 334.929688 126.425781 335.074219 126.410156 C 335.214844 126.394531 335.347656 126.351562 335.472656 126.28125 C 335.472656 126.28125 336.453125 125.746094 337.660156 125.285156 C 338.871094 124.824219 340.335938 124.578125 340.800781 124.726562 C 341.199219 124.851562 341.601562 125.480469 342.09375 126.484375 C 342.339844 126.988281 342.605469 127.542969 342.996094 128.066406 C 343.386719 128.59375 343.949219 129.105469 344.714844 129.328125 C 345.53125 129.5625 346.332031 129.414062 346.992188 129.160156 C 347.652344 128.902344 348.222656 128.539062 348.75 128.210938 C 349.804688 127.554688 350.582031 127.171875 351.097656 127.300781 C 351.714844 127.460938 352.257812 128.234375 352.917969 129.378906 C 353.578125 130.519531 354.335938 132.023438 356.019531 132.511719 C 357.328125 132.894531 358.410156 132.269531 359.222656 131.859375 C 360.035156 131.445312 360.589844 131.246094 360.886719 131.324219 C 361.359375 131.445312 361.847656 132.039062 362.457031 132.941406 C 363.066406 133.84375 363.796875 135.050781 365.261719 135.441406 C 366.777344 135.847656 368.058594 135.117188 369.078125 134.613281 C 370.097656 134.109375 370.835938 133.832031 371.328125 133.984375 C 371.464844 134.027344 371.601562 134.042969 371.746094 134.027344 C 371.886719 134.015625 372.019531 133.976562 372.148438 133.910156 C 372.273438 133.84375 372.382812 133.753906 372.472656 133.644531 C 372.566406 133.535156 372.632812 133.414062 372.675781 133.277344 C 372.71875 133.140625 372.734375 133 372.71875 132.859375 C 372.707031 132.714844 372.667969 132.582031 372.601562 132.457031 C 372.535156 132.328125 372.445312 132.21875 372.335938 132.128906 C 372.226562 132.035156 372.101562 131.96875 371.964844 131.925781 Z M 371.964844 131.925781 " fill-opacity="1" fill-rule="nonzero"/></g><path fill="#ffa2b6" d="M 373.820312 126.820312 C 372.328125 126.34375 371.019531 127 369.984375 127.464844 C 368.945312 127.925781 368.171875 128.195312 367.671875 128.050781 C 367.242188 127.925781 366.789062 127.375 366.222656 126.527344 C 365.652344 125.675781 364.972656 124.527344 363.589844 124.09375 C 362.320312 123.695312 361.214844 124.1875 360.367188 124.511719 C 359.515625 124.839844 358.917969 125 358.570312 124.898438 C 357.789062 124.664062 357.097656 123.808594 356.289062 122.6875 C 355.476562 121.5625 354.550781 120.164062 352.855469 119.652344 C 351.394531 119.210938 350.082031 119.75 349.015625 120.144531 C 347.945312 120.539062 347.105469 120.789062 346.519531 120.632812 C 346.023438 120.503906 345.484375 119.941406 344.816406 119.136719 C 344.148438 118.335938 343.339844 117.285156 341.933594 116.972656 C 340.394531 116.628906 338.757812 117.125 337.363281 117.589844 C 335.96875 118.054688 334.855469 118.585938 334.855469 118.585938 C 334.726562 118.648438 334.609375 118.730469 334.511719 118.839844 C 334.414062 118.949219 334.34375 119.070312 334.292969 119.207031 C 334.246094 119.34375 334.222656 119.488281 334.230469 119.632812 C 334.238281 119.777344 334.273438 119.914062 334.335938 120.046875 C 334.398438 120.179688 334.484375 120.292969 334.589844 120.390625 C 334.699219 120.488281 334.820312 120.5625 334.960938 120.609375 C 335.097656 120.660156 335.238281 120.679688 335.382812 120.671875 C 335.527344 120.664062 335.667969 120.628906 335.796875 120.566406 C 335.796875 120.566406 336.804688 120.089844 338.058594 119.671875 C 339.3125 119.253906 340.859375 118.980469 341.453125 119.113281 C 341.941406 119.222656 342.46875 119.75 343.128906 120.542969 C 343.789062 121.335938 344.570312 122.386719 345.953125 122.757812 C 347.421875 123.148438 348.714844 122.59375 349.777344 122.203125 C 350.835938 121.8125 351.648438 121.582031 352.222656 121.753906 C 353.003906 121.988281 353.695312 122.84375 354.503906 123.96875 C 355.316406 125.09375 356.242188 126.492188 357.9375 127 C 359.210938 127.382812 360.308594 126.886719 361.152344 126.5625 C 362 126.238281 362.589844 126.082031 362.933594 126.191406 C 363.363281 126.324219 363.824219 126.894531 364.394531 127.746094 C 364.96875 128.601562 365.660156 129.75 367.054688 130.15625 C 368.554688 130.59375 369.847656 129.929688 370.878906 129.46875 C 371.910156 129.007812 372.660156 128.753906 373.152344 128.910156 C 373.292969 128.957031 373.433594 128.972656 373.578125 128.960938 C 373.722656 128.949219 373.859375 128.910156 373.988281 128.839844 C 374.117188 128.773438 374.230469 128.6875 374.324219 128.574219 C 374.417969 128.464844 374.488281 128.339844 374.53125 128.199219 C 374.578125 128.0625 374.59375 127.917969 374.582031 127.773438 C 374.566406 127.628906 374.527344 127.492188 374.460938 127.363281 C 374.394531 127.234375 374.304688 127.121094 374.195312 127.027344 C 374.082031 126.933594 373.960938 126.863281 373.820312 126.820312 Z M 373.820312 126.820312 " fill-opacity="1" fill-rule="nonzero"/></svg>