<svg xmlns="http://www.w3.org/2000/svg" xmlns:xlink="http://www.w3.org/1999/xlink" width="6912" zoomAndPan="magnify" viewBox="0 0 5184 2592.000001" height="3456" preserveAspectRatio="xMidYMid meet" version="1.0"><defs><filter x="0%" y="0%" width="100%" height="100%" id="e94a39ae41"><feColorMatrix values="0 0 0 0 1 0 0 0 0 1 0 0 0 0 1 0 0 0 1 0" color-interpolation-filters="sRGB"/></filter><g/><mask id="9e4e3c5c21"><g filter="url(#e94a39ae41)"><rect x="-518.4" width="6220.8" fill="#000000" y="-259.2" height="3110.400001" fill-opacity="0.982"/></g></mask><clipPath id="d0211cd74e"><path d="M 0.1875 0.722656 L 1512.804688 0.722656 L 1512.804688 1548.605469 L 0.1875 1548.605469 Z M 0.1875 0.722656 " clip-rule="nonzero"/></clipPath><clipPath id="63f6a73de1"><rect x="0" width="1513" y="0" height="1549"/></clipPath><clipPath id="1ff1c343ba"><path d="M 1083 1108 L 2270 1108 L 2270 2287 L 1083 2287 Z M 1083 1108 " clip-rule="nonzero"/></clipPath><clipPath id="ef91ab5b2d"><path d="M 1842.523438 1106.785156 L 2271.925781 1851.820312 L 1511.953125 2289.832031 L 1082.550781 1544.800781 Z M 1842.523438 1106.785156 " clip-rule="nonzero"/></clipPath><clipPath id="f319918cc8"><path d="M 1842.523438 1106.785156 L 2271.925781 1851.820312 L 1511.953125 2289.832031 L 1082.550781 1544.800781 Z M 1842.523438 1106.785156 " clip-rule="nonzero"/></clipPath><mask id="6139e4e2b1"><g filter="url(#e94a39ae41)"><rect x="-518.4" width="6220.8" fill="#000000" y="-259.2" height="3110.400001" fill-opacity="0.982"/></g></mask><clipPath id="4bd2bda56b"><path d="M 86 170 L 1022 170 L 1022 1050 L 86 1050 Z M 86 170 " clip-rule="nonzero"/></clipPath><clipPath id="25dd16acc0"><path d="M 759.523438 -1.214844 L 1188.925781 743.820312 L 428.953125 1181.832031 L -0.449219 436.800781 Z M 759.523438 -1.214844 " clip-rule="nonzero"/></clipPath><clipPath id="6b03d2bd01"><path d="M 759.523438 -1.214844 L 1188.925781 743.820312 L 428.953125 1181.832031 L -0.449219 436.800781 Z M 759.523438 -1.214844 " clip-rule="nonzero"/></clipPath><clipPath id="878e99c17a"><rect x="0" width="1187" y="0" height="1179"/></clipPath><clipPath id="20c5558f4b"><path d="M 4097 1393 L 4928 1393 L 4928 2336 L 4097 2336 Z M 4097 1393 " clip-rule="nonzero"/></clipPath><clipPath id="41c3b22cf8"><path d="M 3904.261719 1975.683594 L 4583.949219 1237.945312 L 5114.925781 1727.136719 L 4435.234375 2464.875 Z M 3904.261719 1975.683594 " clip-rule="nonzero"/></clipPath><clipPath id="1d1a23e0f3"><path d="M 3904.261719 1975.683594 L 4583.949219 1237.945312 L 5114.925781 1727.136719 L 4435.234375 2464.875 Z M 3904.261719 1975.683594 " clip-rule="nonzero"/></clipPath><mask id="764c495545"><g filter="url(#e94a39ae41)"><rect x="-518.4" width="6220.8" fill="#000000" y="-259.2" height="3110.400001" fill-opacity="0.17"/></g></mask><clipPath id="8d8beb7659"><path d="M 1 2.554688 L 1048.328125 2.554688 L 1048.328125 164.492188 L 1 164.492188 Z M 1 2.554688 " clip-rule="nonzero"/></clipPath><clipPath id="a96b96e945"><rect x="0" width="1049" y="0" height="167"/></clipPath></defs><path fill="#ffffff" d="M 1 0 L 5183 0 L 5183 2591 L 1 2591 Z M 1 0 " fill-opacity="1" fill-rule="nonzero"/><path fill="#fafafa" d="M 1 0 L 5183 0 L 5183 2591 L 1 2591 Z M 1 0 " fill-opacity="1" fill-rule="nonzero"/><g mask="url(#9e4e3c5c21)"><g transform="matrix(1, 0, 0, 1, 341, 404)"><g clip-path="url(#63f6a73de1)"><g clip-path="url(#d0211cd74e)"><path fill="#e43d12" d="M 868.867188 1.125 C 916.386719 -1.007812 958.726562 12.464844 995.871094 41.535156 C 1030.492188 72.167969 1055.503906 109.335938 1070.921875 153.046875 C 1085.21875 196.953125 1099.398438 240.910156 1113.457031 284.910156 C 1129.148438 331.480469 1146.363281 377.460938 1165.109375 422.855469 C 1201.65625 506.726562 1247.03125 585.117188 1301.230469 658.027344 C 1330.550781 697.410156 1361.746094 735.289062 1394.8125 771.664062 C 1406.984375 786.257812 1419.140625 800.84375 1431.273438 815.417969 C 1440.335938 827.261719 1449.25 839.207031 1458.011719 851.269531 C 1477.136719 878.785156 1491.925781 908.5625 1502.375 940.597656 C 1518.050781 998.40625 1515.214844 1055.929688 1493.867188 1113.179688 C 1477.738281 1153.953125 1456.871094 1192.03125 1431.273438 1227.421875 C 1391.835938 1279.433594 1347.78125 1327.542969 1299.105469 1371.746094 C 1246.984375 1417.882812 1188.238281 1453.535156 1122.878906 1478.699219 C 1087.28125 1490.804688 1050.714844 1496.375 1013.191406 1495.410156 C 987.863281 1494.746094 962.644531 1491.605469 937.535156 1485.992188 C 915.398438 1480.863281 893.519531 1474.785156 871.90625 1467.761719 C 842.09375 1458.160156 812.316406 1448.4375 782.578125 1438.59375 C 748.996094 1427.78125 714.664062 1420.792969 679.574219 1417.628906 C 678.558594 1417.828125 677.550781 1418.035156 676.535156 1418.234375 C 642.761719 1414.296875 610.859375 1420.472656 580.828125 1436.769531 C 571.304688 1442.136719 561.988281 1447.804688 552.875 1453.785156 C 526.644531 1473.734375 499.910156 1492.980469 472.660156 1511.511719 C 452.839844 1523.453125 431.976562 1533.175781 410.070312 1540.683594 C 378.101562 1549.261719 345.695312 1550.476562 312.839844 1544.328125 C 262.601562 1532.164062 225.027344 1503.5 200.117188 1458.339844 C 187.539062 1434.378906 180.652344 1408.859375 179.453125 1381.773438 C 179.347656 1357.644531 179.046875 1333.542969 178.542969 1309.460938 C 178.527344 1298.371094 178.023438 1287.230469 177.023438 1276.039062 C 171.039062 1249.269531 163.546875 1222.9375 154.539062 1197.039062 C 119.816406 1111.515625 87.003906 1025.222656 56.09375 938.167969 C 46.207031 909.558594 36.683594 880.789062 27.535156 851.878906 C 17.578125 818.363281 9.882812 784.332031 4.441406 749.785156 C -1.605469 708.113281 -1.199219 666.183594 5.65625 623.996094 C 22.476562 536.296875 72.40625 476.234375 155.449219 443.820312 C 168.691406 438.800781 182.058594 434.140625 195.558594 429.84375 C 226.503906 421.152344 257.496094 412.644531 288.53125 404.320312 C 350.175781 386.957031 403.855469 356.167969 449.566406 311.953125 C 463.816406 298.105469 477.691406 283.828125 491.195312 269.113281 C 516.058594 239.785156 541.382812 210.820312 567.152344 182.214844 C 610.085938 137.429688 656.773438 97.425781 707.222656 62.195312 C 737.609375 42.292969 769.917969 25.988281 804.148438 13.277344 C 825.21875 6.179688 846.789062 2.128906 868.867188 1.125 Z M 876.765625 43.054688 C 925 46.050781 963.785156 66.714844 993.136719 105.039062 C 1010.074219 126.75 1023.242188 150.652344 1032.636719 176.746094 C 1048.210938 225.171875 1064.417969 273.585938 1081.25 321.980469 C 1100.929688 378.488281 1123.414062 433.789062 1148.703125 487.875 C 1179.441406 550.589844 1215.085938 610.140625 1255.65625 666.535156 C 1270.007812 685.949219 1284.59375 705.195312 1299.410156 724.265625 C 1331.992188 763.082031 1364.300781 802.175781 1396.332031 841.546875 C 1410.9375 860.097656 1424.203125 879.542969 1436.136719 899.882812 C 1472.652344 966.765625 1477.71875 1036.039062 1451.328125 1107.710938 C 1433.203125 1153.90625 1408.695312 1196.242188 1377.800781 1234.714844 C 1343.320312 1276.886719 1305.546875 1315.882812 1264.46875 1351.695312 C 1218.410156 1390.574219 1166.957031 1420.75 1110.117188 1442.238281 C 1088.847656 1449.53125 1066.972656 1453.785156 1044.488281 1455 C 1005.382812 1457.929688 966.890625 1454.28125 929.027344 1444.0625 C 880.546875 1429.726562 832.332031 1414.535156 784.398438 1398.484375 C 739.863281 1384.410156 694.285156 1377.625 647.671875 1378.128906 C 618.167969 1379.828125 590.417969 1387.625 564.417969 1401.523438 C 552.957031 1407.722656 541.820312 1414.40625 530.996094 1421.578125 C 504.769531 1441.527344 478.03125 1460.773438 450.785156 1479.304688 C 430.875 1491.585938 409.609375 1500.703125 386.976562 1506.652344 C 365.929688 1510.5 344.863281 1510.707031 323.777344 1507.261719 C 289.625 1499.871094 262.582031 1481.945312 242.652344 1453.480469 C 230.890625 1436.835938 223.394531 1418.40625 220.167969 1398.179688 C 218.964844 1390.183594 218.050781 1382.179688 217.433594 1374.179688 C 217.453125 1355.480469 217.65625 1337.449219 218.042969 1320.09375 C 217.460938 1299.519531 216.148438 1278.960938 214.09375 1258.414062 C 209.800781 1245.914062 206.359375 1233.152344 203.761719 1220.132812 C 191.652344 1184.203125 177.878906 1148.960938 162.4375 1114.394531 C 134.445312 1041.996094 107.300781 969.273438 81.011719 896.238281 C 68.675781 860.476562 57.941406 824.214844 48.804688 787.460938 C 37.730469 742.238281 34.492188 696.460938 39.082031 650.128906 C 43.3125 613.515625 55.46875 579.890625 75.539062 549.253906 C 98.65625 519.0625 127.925781 496.882812 163.351562 482.710938 C 183.78125 474.417969 204.644531 467.324219 225.941406 461.441406 C 254.804688 453.921875 283.570312 446.023438 312.230469 437.742188 C 367.625 420.492188 416.847656 392.738281 459.898438 354.492188 C 481.59375 333.398438 502.765625 311.625 523.402344 289.164062 C 542.09375 266.972656 560.929688 244.894531 579.914062 222.929688 C 620.707031 178.066406 665.574219 138.0625 714.515625 102.910156 C 742.683594 83.761719 772.660156 67.757812 804.453125 54.90625 C 828.0625 46.71875 852.167969 42.769531 876.765625 43.054688 Z M 876.765625 43.054688 " fill-opacity="1" fill-rule="evenodd"/></g></g></g></g><g clip-path="url(#1ff1c343ba)"><g clip-path="url(#ef91ab5b2d)"><g clip-path="url(#f319918cc8)"><g mask="url(#6139e4e2b1)"><g transform="matrix(1, 0, 0, 1, 1083, 1108)"><g clip-path="url(#878e99c17a)"><g clip-path="url(#4bd2bda56b)"><g clip-path="url(#25dd16acc0)"><g clip-path="url(#6b03d2bd01)"><path fill="#ffa2b6" d="M 1004.363281 426.003906 C 1018.828125 448.6875 1024.183594 473.238281 1020.429688 499.652344 C 1015.195312 525.269531 1004.046875 548.023438 986.980469 567.921875 C 969.503906 587.328125 951.96875 606.691406 934.378906 626.011719 C 915.988281 646.851562 898.320312 668.273438 881.371094 690.28125 C 850.589844 731.878906 824.992188 776.253906 804.574219 823.402344 C 793.554688 848.894531 783.804688 874.878906 775.316406 901.355469 C 771.601562 911.445312 767.886719 921.519531 764.175781 931.582031 C 760.929688 939.367188 757.59375 947.109375 754.15625 954.808594 C 746.074219 971.953125 735.660156 987.609375 722.914062 1001.777344 C 699.011719 1025.785156 670.023438 1040.640625 635.941406 1046.351562 C 611.402344 1049.960938 586.851562 1050.492188 562.277344 1047.945312 C 525.652344 1043.308594 489.636719 1035.304688 454.226562 1023.9375 C 416.898438 1011.425781 382.835938 992.710938 352.046875 967.789062 C 336.058594 953.761719 323.003906 937.417969 312.878906 918.757812 C 306.050781 906.160156 300.464844 892.914062 296.125 879.023438 C 292.386719 866.726562 289.1875 854.289062 286.523438 841.714844 C 282.808594 824.394531 279.164062 807.054688 275.585938 789.703125 C 271.402344 770.195312 265.128906 751.394531 256.769531 733.308594 C 256.386719 732.867188 256 732.429688 255.613281 731.988281 C 248.003906 714.328125 235.96875 700.4375 219.5 690.324219 C 214.183594 687.171875 208.773438 684.210938 203.269531 681.433594 C 186.085938 674.214844 169.101562 666.546875 152.324219 658.429688 C 140.875 652.089844 130.21875 644.613281 120.351562 635.996094 C 107.121094 622.753906 97.371094 607.214844 91.105469 589.378906 C 82.878906 561.328125 86.3125 534.820312 101.40625 509.855469 C 109.59375 496.925781 120.15625 486.34375 133.089844 478.105469 C 144.886719 471.242188 156.609375 464.285156 168.269531 457.238281 C 173.699219 454.097656 179.015625 450.703125 184.21875 447.054688 C 195.644531 436.5625 206.429688 425.453125 216.578125 413.722656 C 248.683594 372.554688 281.699219 332.101562 315.628906 292.371094 C 326.855469 279.441406 338.265625 266.652344 349.847656 254.003906 C 363.460938 239.660156 377.960938 226.277344 393.355469 213.855469 C 412.070312 199.121094 432.730469 187.476562 455.339844 178.921875 C 503.0625 162.394531 546.597656 169.898438 585.9375 201.4375 C 592.136719 206.507812 598.195312 211.742188 604.113281 217.144531 C 617.113281 229.855469 630.035156 242.640625 642.878906 255.496094 C 668.796875 280.800781 699.046875 298.40625 733.625 308.320312 C 744.433594 311.394531 755.347656 314.160156 766.375 316.621094 C 787.765625 320.523438 809.113281 324.75 830.410156 329.300781 C 864.480469 337.691406 897.269531 349.269531 928.78125 364.042969 C 947.117188 373.308594 964.230469 384.539062 980.128906 397.722656 C 989.554688 406.042969 997.632812 415.46875 1004.363281 426.003906 Z M 986.046875 441.714844 C 998.199219 466.199219 999.027344 491.039062 988.539062 516.246094 C 982.683594 530.679688 974.6875 543.882812 964.554688 555.855469 C 945.222656 577.164062 926.078125 598.78125 907.117188 620.695312 C 884.984375 646.300781 864.234375 672.933594 844.871094 700.605469 C 822.824219 733.378906 803.707031 767.667969 787.53125 803.472656 C 782.070312 815.992188 776.757812 828.574219 771.597656 841.21875 C 761.78125 868.148438 751.75 895.023438 741.5 921.839844 C 736.535156 934.234375 730.753906 946.226562 724.15625 957.820312 C 701.695312 994.601562 669.179688 1016.652344 626.605469 1023.960938 C 598.847656 1028.125 571.179688 1028.074219 543.601562 1023.800781 C 513.199219 1018.8125 483.421875 1011.316406 454.269531 1001.300781 C 422.210938 989.710938 392.890625 973.023438 366.308594 951.238281 C 356.726562 942.875 348.464844 933.355469 341.519531 922.679688 C 329.039062 904.34375 319.957031 884.453125 314.269531 863.011719 C 307.601562 835.207031 301.429688 807.289062 295.757812 779.269531 C 290.074219 753.46875 280.527344 729.21875 267.117188 706.519531 C 257.949219 692.542969 246.289062 681.144531 232.136719 672.328125 C 225.863281 668.464844 219.441406 664.894531 212.871094 661.617188 C 195.6875 654.398438 178.707031 646.730469 161.929688 638.613281 C 150.289062 632.328125 139.8125 624.476562 130.507812 615.070312 C 122.675781 605.839844 116.625 595.578125 112.359375 584.269531 C 106.335938 565.449219 107.480469 547.132812 115.800781 529.328125 C 120.636719 518.863281 127.550781 509.984375 136.550781 502.691406 C 140.128906 499.84375 143.792969 497.136719 147.539062 494.574219 C 156.707031 489.300781 165.597656 484.308594 174.214844 479.597656 C 184.132812 473.5 193.835938 467.050781 203.324219 460.242188 C 208.238281 454.609375 213.515625 449.316406 219.164062 444.367188 C 233.351562 428.285156 246.730469 411.582031 259.308594 394.253906 C 286.878906 360.085938 314.847656 326.246094 343.214844 292.734375 C 357.253906 276.589844 371.992188 261.089844 387.421875 246.234375 C 406.453125 228.035156 427.972656 213.519531 451.972656 202.679688 C 471.109375 194.414062 491.019531 190.875 511.703125 192.058594 C 533.023438 194.855469 552.160156 202.9375 569.109375 216.292969 C 578.945312 223.960938 588.3125 232.183594 597.210938 240.957031 C 609.046875 252.976562 621.042969 264.84375 633.195312 276.550781 C 657.292969 298.820312 684.792969 315.105469 715.695312 325.398438 C 732.160156 330.070312 748.808594 334.296875 765.644531 338.066406 C 781.796875 340.957031 797.9375 343.953125 814.0625 347.050781 C 847.566406 354.371094 879.84375 365.058594 910.890625 379.113281 C 928.226562 387.507812 944.535156 397.679688 959.816406 409.628906 C 970.492188 418.882812 979.238281 429.582031 986.046875 441.714844 Z M 986.046875 441.714844 " fill-opacity="1" fill-rule="evenodd"/></g></g></g></g></g></g></g></g></g><g clip-path="url(#20c5558f4b)"><g clip-path="url(#41c3b22cf8)"><g clip-path="url(#1d1a23e0f3)"><path fill="#efb11d" d="M 4703.925781 2172.917969 C 4695.929688 2181.597656 4687.820312 2190.042969 4679.597656 2198.265625 C 4635 2242.855469 4588.457031 2278.800781 4545.039062 2302.195312 C 4498.101562 2327.488281 4455.339844 2338.390625 4417.945312 2334.601562 C 4278.570312 2320.488281 4248.636719 2235.304688 4199.035156 2094.199219 C 4176.367188 2029.722656 4150.734375 1956.695312 4109.019531 1871.726562 L 4112.597656 1869.976562 L 4109.058594 1871.683594 C 4096.382812 1845.855469 4094.089844 1821.132812 4102.25 1798.191406 C 4123.566406 1738.078125 4213.148438 1696.898438 4299.757812 1657.03125 C 4346.746094 1635.394531 4395.320312 1613.0625 4430.386719 1588.566406 C 4469.347656 1561.402344 4486.984375 1535.285156 4486.007812 1506.511719 C 4484.878906 1473.632812 4497.339844 1445.71875 4521.953125 1425.839844 C 4544.519531 1407.621094 4576.371094 1396.644531 4614.054688 1394.101562 C 4679.078125 1389.714844 4751.832031 1411.089844 4808.664062 1451.296875 C 4840.53125 1473.855469 4866.5625 1501.371094 4886.105469 1533.171875 C 4907.746094 1568.363281 4920.929688 1608.121094 4925.296875 1651.355469 C 4933.746094 1734.863281 4912.042969 1834.109375 4862.492188 1938.433594 C 4822.628906 2022.339844 4766.988281 2104.46875 4703.925781 2172.917969 Z M 4132.011719 1765.773438 C 4121.839844 1776.8125 4114.191406 1788.472656 4109.761719 1800.914062 C 4102.21875 1822.023438 4104.300781 1844.074219 4116.191406 1868.191406 C 4158.101562 1953.585938 4183.855469 2026.871094 4206.570312 2091.601562 C 4231.261719 2161.800781 4250.757812 2217.300781 4280.96875 2256.917969 C 4312.890625 2298.71875 4355.363281 2320.253906 4418.75 2326.667969 C 4488.636719 2333.761719 4581.664062 2284.898438 4673.964844 2192.625 C 4682.105469 2184.484375 4690.160156 2176.09375 4698.078125 2167.5 C 4760.582031 2099.65625 4815.761719 2018.214844 4855.28125 1935.011719 C 4904.210938 1832.003906 4925.707031 1734.191406 4917.40625 1652.121094 C 4907.132812 1550.488281 4850.113281 1490.332031 4804.085938 1457.777344 C 4748.707031 1418.585938 4677.867188 1397.75 4614.621094 1402.027344 C 4578.585938 1404.445312 4548.285156 1414.824219 4526.996094 1432.019531 C 4504.371094 1450.273438 4492.992188 1475.902344 4493.976562 1506.234375 C 4495.039062 1537.535156 4475.734375 1566.605469 4434.957031 1595.101562 C 4399.265625 1620.039062 4350.328125 1642.566406 4303.039062 1664.328125 C 4236.554688 1694.921875 4168.324219 1726.355469 4132.011719 1765.773438 Z M 4132.011719 1765.773438 " fill-opacity="1" fill-rule="nonzero"/></g></g></g><g mask="url(#764c495545)"><g transform="matrix(1, 0, 0, 1, 2070, 1212)"><g clip-path="url(#a96b96e945)"><g clip-path="url(#8d8beb7659)"><path fill="#d65360" d="M 66.738281 2.550781 L 982.761719 2.550781 C 983.835938 2.550781 984.910156 2.578125 985.984375 2.628906 C 987.054688 2.683594 988.125 2.761719 989.195312 2.867188 C 990.265625 2.972656 991.328125 3.101562 992.390625 3.261719 C 993.453125 3.417969 994.511719 3.601562 995.566406 3.8125 C 996.617188 4.019531 997.664062 4.253906 998.707031 4.515625 C 999.75 4.777344 1000.785156 5.0625 1001.8125 5.375 C 1002.839844 5.6875 1003.859375 6.023438 1004.871094 6.386719 C 1005.882812 6.746094 1006.882812 7.132812 1007.875 7.546875 C 1008.867188 7.957031 1009.847656 8.390625 1010.820312 8.851562 C 1011.789062 9.308594 1012.75 9.792969 1013.695312 10.296875 C 1014.644531 10.804688 1015.578125 11.332031 1016.5 11.886719 C 1017.421875 12.4375 1018.328125 13.011719 1019.21875 13.609375 C 1020.113281 14.207031 1020.992188 14.824219 1021.855469 15.464844 C 1022.714844 16.105469 1023.5625 16.765625 1024.394531 17.445312 C 1025.222656 18.125 1026.035156 18.828125 1026.832031 19.550781 C 1027.628906 20.269531 1028.40625 21.011719 1029.164062 21.769531 C 1029.925781 22.53125 1030.664062 23.308594 1031.386719 24.101562 C 1032.105469 24.898438 1032.808594 25.710938 1033.488281 26.542969 C 1034.171875 27.371094 1034.832031 28.21875 1035.472656 29.082031 C 1036.109375 29.945312 1036.730469 30.820312 1037.324219 31.714844 C 1037.921875 32.605469 1038.496094 33.515625 1039.050781 34.4375 C 1039.601562 35.355469 1040.128906 36.289062 1040.636719 37.238281 C 1041.144531 38.183594 1041.625 39.144531 1042.085938 40.113281 C 1042.542969 41.085938 1042.980469 42.066406 1043.390625 43.058594 C 1043.800781 44.050781 1044.1875 45.054688 1044.550781 46.066406 C 1044.910156 47.074219 1045.246094 48.09375 1045.558594 49.125 C 1045.871094 50.152344 1046.15625 51.183594 1046.417969 52.226562 C 1046.679688 53.269531 1046.914062 54.316406 1047.125 55.371094 C 1047.332031 56.421875 1047.515625 57.480469 1047.675781 58.542969 C 1047.832031 59.605469 1047.964844 60.671875 1048.070312 61.738281 C 1048.175781 62.808594 1048.253906 63.878906 1048.304688 64.953125 C 1048.359375 66.023438 1048.386719 67.097656 1048.386719 68.171875 L 1048.386719 98.828125 C 1048.386719 99.902344 1048.359375 100.976562 1048.304688 102.050781 C 1048.253906 103.121094 1048.175781 104.191406 1048.070312 105.261719 C 1047.964844 106.328125 1047.832031 107.394531 1047.675781 108.457031 C 1047.515625 109.519531 1047.332031 110.578125 1047.125 111.632812 C 1046.914062 112.683594 1046.679688 113.730469 1046.417969 114.773438 C 1046.15625 115.816406 1045.871094 116.851562 1045.558594 117.878906 C 1045.246094 118.90625 1044.910156 119.925781 1044.550781 120.9375 C 1044.1875 121.949219 1043.800781 122.949219 1043.390625 123.941406 C 1042.980469 124.933594 1042.542969 125.914062 1042.085938 126.886719 C 1041.625 127.855469 1041.144531 128.816406 1040.636719 129.761719 C 1040.128906 130.710938 1039.601562 131.644531 1039.050781 132.566406 C 1038.496094 133.488281 1037.921875 134.394531 1037.324219 135.285156 C 1036.730469 136.179688 1036.109375 137.058594 1035.472656 137.921875 C 1034.832031 138.78125 1034.171875 139.628906 1033.488281 140.460938 C 1032.808594 141.289062 1032.105469 142.101562 1031.386719 142.898438 C 1030.664062 143.695312 1029.925781 144.472656 1029.164062 145.230469 C 1028.40625 145.992188 1027.628906 146.730469 1026.832031 147.453125 C 1026.035156 148.171875 1025.222656 148.875 1024.394531 149.554688 C 1023.5625 150.238281 1022.714844 150.898438 1021.855469 151.539062 C 1020.992188 152.175781 1020.113281 152.796875 1019.21875 153.390625 C 1018.328125 153.988281 1017.421875 154.5625 1016.5 155.117188 C 1015.578125 155.667969 1014.644531 156.195312 1013.695312 156.703125 C 1012.75 157.210938 1011.789062 157.691406 1010.820312 158.152344 C 1009.847656 158.609375 1008.867188 159.046875 1007.875 159.457031 C 1006.882812 159.867188 1005.882812 160.253906 1004.871094 160.617188 C 1003.859375 160.976562 1002.839844 161.3125 1001.8125 161.625 C 1000.785156 161.9375 999.75 162.222656 998.707031 162.484375 C 997.664062 162.746094 996.617188 162.980469 995.566406 163.191406 C 994.511719 163.398438 993.453125 163.582031 992.390625 163.742188 C 991.328125 163.898438 990.265625 164.03125 989.195312 164.136719 C 988.125 164.242188 987.054688 164.320312 985.984375 164.371094 C 984.910156 164.425781 983.835938 164.453125 982.761719 164.453125 L 66.738281 164.453125 C 65.664062 164.453125 64.589844 164.425781 63.515625 164.371094 C 62.445312 164.320312 61.375 164.242188 60.304688 164.136719 C 59.234375 164.03125 58.171875 163.898438 57.109375 163.742188 C 56.046875 163.582031 54.988281 163.398438 53.933594 163.191406 C 52.882812 162.980469 51.832031 162.746094 50.792969 162.484375 C 49.75 162.222656 48.714844 161.9375 47.6875 161.625 C 46.660156 161.3125 45.640625 160.976562 44.628906 160.617188 C 43.617188 160.253906 42.617188 159.867188 41.625 159.457031 C 40.632812 159.046875 39.648438 158.609375 38.679688 158.152344 C 37.707031 157.691406 36.75 157.207031 35.800781 156.703125 C 34.855469 156.195312 33.921875 155.667969 33 155.113281 C 32.078125 154.5625 31.171875 153.988281 30.277344 153.390625 C 29.386719 152.796875 28.507812 152.175781 27.644531 151.539062 C 26.78125 150.898438 25.9375 150.238281 25.105469 149.554688 C 24.277344 148.875 23.464844 148.171875 22.667969 147.453125 C 21.871094 146.730469 21.09375 145.992188 20.335938 145.230469 C 19.574219 144.472656 18.835938 143.695312 18.113281 142.898438 C 17.390625 142.101562 16.691406 141.289062 16.011719 140.460938 C 15.328125 139.628906 14.667969 138.78125 14.027344 137.921875 C 13.386719 137.058594 12.769531 136.179688 12.171875 135.285156 C 11.578125 134.394531 11.003906 133.488281 10.449219 132.566406 C 9.898438 131.644531 9.367188 130.710938 8.863281 129.761719 C 8.355469 128.816406 7.875 127.855469 7.414062 126.886719 C 6.957031 125.914062 6.519531 124.933594 6.109375 123.941406 C 5.699219 122.949219 5.3125 121.949219 4.949219 120.9375 C 4.589844 119.925781 4.25 118.90625 3.941406 117.878906 C 3.628906 116.851562 3.339844 115.816406 3.082031 114.773438 C 2.820312 113.730469 2.585938 112.683594 2.375 111.632812 C 2.164062 110.578125 1.980469 109.519531 1.824219 108.457031 C 1.667969 107.394531 1.535156 106.328125 1.429688 105.261719 C 1.324219 104.191406 1.246094 103.121094 1.191406 102.050781 C 1.140625 100.976562 1.113281 99.902344 1.113281 98.828125 L 1.113281 68.171875 C 1.113281 67.097656 1.140625 66.023438 1.191406 64.953125 C 1.246094 63.878906 1.324219 62.808594 1.429688 61.738281 C 1.535156 60.671875 1.667969 59.605469 1.824219 58.542969 C 1.980469 57.480469 2.164062 56.421875 2.375 55.371094 C 2.585938 54.316406 2.820312 53.269531 3.082031 52.226562 C 3.339844 51.183594 3.628906 50.152344 3.941406 49.125 C 4.25 48.09375 4.589844 47.074219 4.949219 46.066406 C 5.3125 45.054688 5.699219 44.050781 6.109375 43.058594 C 6.519531 42.066406 6.957031 41.085938 7.414062 40.113281 C 7.875 39.144531 8.355469 38.183594 8.863281 37.238281 C 9.367188 36.289062 9.898438 35.355469 10.449219 34.4375 C 11.003906 33.515625 11.578125 32.605469 12.171875 31.714844 C 12.769531 30.820312 13.386719 29.945312 14.027344 29.082031 C 14.667969 28.21875 15.328125 27.371094 16.011719 26.542969 C 16.691406 25.710938 17.390625 24.898438 18.113281 24.101562 C 18.835938 23.308594 19.574219 22.53125 20.335938 21.769531 C 21.09375 21.011719 21.871094 20.269531 22.667969 19.550781 C 23.464844 18.828125 24.277344 18.125 25.105469 17.445312 C 25.9375 16.765625 26.78125 16.105469 27.644531 15.464844 C 28.507812 14.824219 29.386719 14.207031 30.277344 13.609375 C 31.171875 13.011719 32.078125 12.4375 33 11.886719 C 33.921875 11.332031 34.855469 10.804688 35.800781 10.296875 C 36.75 9.792969 37.707031 9.308594 38.679688 8.851562 C 39.648438 8.390625 40.632812 7.957031 41.625 7.546875 C 42.617188 7.132812 43.617188 6.746094 44.628906 6.386719 C 45.640625 6.023438 46.660156 5.6875 47.6875 5.375 C 48.714844 5.0625 49.75 4.777344 50.792969 4.515625 C 51.832031 4.253906 52.882812 4.019531 53.933594 3.8125 C 54.988281 3.601562 56.046875 3.417969 57.109375 3.261719 C 58.171875 3.101562 59.234375 2.972656 60.304688 2.867188 C 61.375 2.761719 62.445312 2.683594 63.515625 2.628906 C 64.589844 2.578125 65.664062 2.550781 66.738281 2.550781 Z M 66.738281 2.550781 " fill-opacity="1" fill-rule="nonzero"/></g></g></g></g><g fill="#423b3b" fill-opacity="1"><g transform="translate(2117.773891, 1318.741272)"><g><path d="M 6.171875 0 L 6.171875 -63.203125 L 43.21875 -63.203125 L 43.21875 -54.125 L 16.203125 -54.125 L 16.203125 -32.703125 L 39.265625 -32.703125 L 39.265625 -24.03125 L 16.203125 -24.03125 L 16.203125 0 Z M 6.171875 0 "/></g></g></g><g fill="#423b3b" fill-opacity="1"><g transform="translate(2166.013045, 1318.741272)"><g><path d="M 32.8125 0 L 32.609375 -3.375 C 27.460938 -0.476562 23.28125 0.96875 20.0625 0.96875 C 14.851562 0.96875 11.054688 -0.523438 8.671875 -3.515625 C 6.296875 -6.515625 5.109375 -11.289062 5.109375 -17.84375 L 5.109375 -45.828125 L 15.046875 -45.828125 L 15.046875 -18.421875 C 15.046875 -11.796875 17.203125 -8.484375 21.515625 -8.484375 C 24.921875 -8.484375 28.585938 -9.804688 32.515625 -12.453125 L 32.515625 -45.828125 L 42.453125 -45.828125 L 42.453125 0 Z M 32.8125 0 "/></g></g></g><g fill="#423b3b" fill-opacity="1"><g transform="translate(2214.252199, 1318.741272)"><g><path d="M 9.546875 -55.484375 L 9.453125 -64.265625 L 30 -64.359375 L 30 -8.6875 L 40.8125 -8.6875 L 40.8125 0 L 9.171875 0 L 9.171875 -8.6875 L 20.0625 -8.6875 L 20.0625 -55.578125 Z M 9.546875 -55.484375 "/></g></g></g><g fill="#423b3b" fill-opacity="1"><g transform="translate(2262.491353, 1318.741272)"><g><path d="M 9.546875 -55.484375 L 9.453125 -64.265625 L 30 -64.359375 L 30 -8.6875 L 40.8125 -8.6875 L 40.8125 0 L 9.171875 0 L 9.171875 -8.6875 L 20.0625 -8.6875 L 20.0625 -55.578125 Z M 9.546875 -55.484375 "/></g></g></g><g fill="#423b3b" fill-opacity="1"><g transform="translate(2310.730507, 1318.741272)"><g/></g></g><g fill="#423b3b" fill-opacity="1"><g transform="translate(2358.969661, 1318.741272)"><g><path d="M 4.046875 -46.3125 C 4.046875 -58.207031 11.1875 -64.15625 25.46875 -64.15625 C 30.488281 -64.15625 36.210938 -63.03125 42.640625 -60.78125 L 40.421875 -52 C 33.859375 -54.0625 28.695312 -55.109375 24.9375 -55.140625 C 21.175781 -55.171875 18.457031 -54.539062 16.78125 -53.25 C 15.113281 -51.96875 14.28125 -49.71875 14.28125 -46.5 C 14.28125 -44.3125 15.210938 -42.460938 17.078125 -40.953125 C 18.941406 -39.441406 22.09375 -38.109375 26.53125 -36.953125 C 33.289062 -35.148438 37.921875 -32.832031 40.421875 -30 C 42.929688 -27.175781 44.1875 -22.96875 44.1875 -17.375 C 44.1875 -5.207031 36.921875 0.875 22.390625 0.875 C 17.554688 0.875 11.476562 -0.15625 4.15625 -2.21875 L 6.171875 -11.390625 C 6.171875 -11.316406 7.171875 -11.023438 9.171875 -10.515625 C 15.410156 -8.910156 20.25 -8.109375 23.6875 -8.109375 C 27.125 -8.109375 29.695312 -8.972656 31.40625 -10.703125 C 33.113281 -12.441406 33.96875 -14.628906 33.96875 -17.265625 C 33.96875 -19.910156 33.242188 -21.9375 31.796875 -23.34375 C 30.347656 -24.757812 27.691406 -26.015625 23.828125 -27.109375 C 16.878906 -29.035156 11.84375 -31.414062 8.71875 -34.25 C 5.601562 -37.082031 4.046875 -41.101562 4.046875 -46.3125 Z M 4.046875 -46.3125 "/></g></g></g><g fill="#423b3b" fill-opacity="1"><g transform="translate(2407.208815, 1318.741272)"><g><path d="M 13.515625 -36.953125 L 6.171875 -36.953125 L 6.171875 -45.828125 L 13.515625 -45.828125 L 13.515625 -56.828125 L 23.453125 -57.796875 L 23.453125 -45.828125 L 40.625 -45.828125 L 40.625 -36.953125 L 23.453125 -36.953125 L 23.453125 -17.5625 C 23.453125 -14.019531 23.800781 -11.539062 24.5 -10.125 C 25.28125 -8.71875 26.957031 -8.015625 29.53125 -8.015625 C 32.101562 -8.015625 35.507812 -8.523438 39.75 -9.546875 L 41.390625 -0.875 C 36.503906 0.414062 32.320312 1.0625 28.84375 1.0625 C 22.675781 1.0625 18.578125 -0.316406 16.546875 -3.078125 C 14.523438 -5.847656 13.515625 -10.675781 13.515625 -17.5625 Z M 13.515625 -36.953125 "/></g></g></g><g fill="#423b3b" fill-opacity="1"><g transform="translate(2455.447969, 1318.741272)"><g><path d="M 20.84375 -8.296875 C 22.644531 -8.296875 24.640625 -8.710938 26.828125 -9.546875 C 29.015625 -10.390625 30.75 -11.320312 32.03125 -12.34375 L 32.03125 -19.109375 C 28.175781 -19.429688 25.023438 -19.59375 22.578125 -19.59375 C 17.234375 -19.59375 14.5625 -17.597656 14.5625 -13.609375 C 14.5625 -10.066406 16.65625 -8.296875 20.84375 -8.296875 Z M 19.296875 1.0625 C 9.003906 1.0625 3.859375 -3.828125 3.859375 -13.609375 C 3.859375 -18.816406 5.515625 -22.460938 8.828125 -24.546875 C 12.140625 -26.640625 16.722656 -27.6875 22.578125 -27.6875 C 25.335938 -27.6875 28.488281 -27.523438 32.03125 -27.203125 C 32.03125 -31.066406 31.484375 -33.707031 30.390625 -35.125 C 29.296875 -36.539062 27.394531 -37.25 24.6875 -37.25 C 21.988281 -37.25 18.835938 -36.925781 15.234375 -36.28125 C 11.640625 -35.632812 8.878906 -34.988281 6.953125 -34.34375 L 5.109375 -43.515625 C 11.867188 -45.578125 18.460938 -46.609375 24.890625 -46.609375 C 31.328125 -46.609375 35.78125 -45.191406 38.25 -42.359375 C 40.726562 -39.523438 41.96875 -34.734375 41.96875 -27.984375 L 41.96875 -8.390625 L 43.03125 0.09375 L 33.09375 1.0625 L 32.125 -3.375 C 26.726562 -0.414062 22.453125 1.0625 19.296875 1.0625 Z M 19.296875 1.0625 "/></g></g></g><g fill="#423b3b" fill-opacity="1"><g transform="translate(2503.687123, 1318.741272)"><g><path d="M 41.578125 -44.859375 L 40.140625 -35.609375 C 35.890625 -36.765625 31.769531 -37.34375 27.78125 -37.34375 C 23.800781 -37.34375 20.910156 -36.234375 19.109375 -34.015625 C 17.304688 -31.796875 16.40625 -28.238281 16.40625 -23.34375 C 16.40625 -18.457031 17.175781 -14.710938 18.71875 -12.109375 C 20.257812 -9.503906 23.1875 -8.203125 27.5 -8.203125 C 31.8125 -8.203125 36.023438 -8.78125 40.140625 -9.9375 L 41.578125 -0.671875 C 37.078125 0.609375 32.285156 1.25 27.203125 1.25 C 12.859375 1.25 5.6875 -6.753906 5.6875 -22.765625 C 5.6875 -38.785156 12.828125 -46.796875 27.109375 -46.796875 C 32.453125 -46.796875 37.273438 -46.148438 41.578125 -44.859375 Z M 41.578125 -44.859375 "/></g></g></g><g fill="#423b3b" fill-opacity="1"><g transform="translate(2551.926277, 1318.741272)"><g><path d="M 35.21875 -45.828125 L 45.921875 -45.828125 C 38.722656 -34.117188 34.03125 -26.976562 31.84375 -24.40625 C 33.0625 -22.675781 34.570312 -20.363281 36.375 -17.46875 L 46.796875 0 L 35.3125 0 L 30.78125 -8.109375 C 27.757812 -13.503906 25.539062 -17.332031 24.125 -19.59375 L 17.375 -18.8125 L 17.375 0 L 7.421875 0 L 7.421875 -64.359375 L 17.375 -64.359375 L 17.375 -27.40625 L 23.921875 -28.078125 C 25.597656 -30.265625 27.882812 -33.753906 30.78125 -38.546875 C 33.675781 -43.335938 35.15625 -45.765625 35.21875 -45.828125 Z M 35.21875 -45.828125 "/></g></g></g><g fill="#423b3b" fill-opacity="1"><g transform="translate(2600.165431, 1318.741272)"><g/></g></g><g fill="#423b3b" fill-opacity="1"><g transform="translate(2648.404585, 1318.741272)"><g><path d="M 3.671875 0 L 3.671875 -63.203125 L 18.71875 -63.203125 C 23.800781 -63.203125 27.898438 -62.78125 31.015625 -61.9375 C 34.140625 -61.101562 36.796875 -59.523438 38.984375 -57.203125 C 41.171875 -54.890625 42.710938 -51.691406 43.609375 -47.609375 C 44.515625 -43.523438 44.96875 -37.734375 44.96875 -30.234375 C 44.96875 -22.742188 44.050781 -16.71875 42.21875 -12.15625 C 40.382812 -7.59375 37.632812 -4.425781 33.96875 -2.65625 C 30.300781 -0.882812 25.15625 0 18.53125 0 Z M 30.875 -12.828125 C 32.351562 -14.503906 33.363281 -16.804688 33.90625 -19.734375 C 34.457031 -22.660156 34.734375 -26.644531 34.734375 -31.6875 C 34.734375 -36.738281 34.507812 -40.710938 34.0625 -43.609375 C 33.613281 -46.503906 32.664062 -48.800781 31.21875 -50.5 C 29.769531 -52.207031 27.984375 -53.300781 25.859375 -53.78125 C 23.734375 -54.269531 20.707031 -54.515625 16.78125 -54.515625 L 13.703125 -54.515625 L 13.703125 -8.6875 L 16.59375 -8.6875 C 20.320312 -8.6875 23.265625 -8.957031 25.421875 -9.5 C 27.578125 -10.050781 29.394531 -11.160156 30.875 -12.828125 Z M 30.875 -12.828125 "/></g></g></g><g fill="#423b3b" fill-opacity="1"><g transform="translate(2696.643739, 1318.741272)"><g><path d="M 4.734375 -22.859375 C 4.734375 -30.648438 6.46875 -36.554688 9.9375 -40.578125 C 13.40625 -44.597656 18.226562 -46.609375 24.40625 -46.609375 C 30.582031 -46.609375 35.359375 -44.789062 38.734375 -41.15625 C 42.109375 -37.519531 43.863281 -32.195312 44 -25.1875 L 43.609375 -18.046875 L 15.4375 -18.046875 C 16.019531 -11.097656 19.492188 -7.625 25.859375 -7.625 C 30.296875 -7.625 34.988281 -8.425781 39.9375 -10.03125 L 41.96875 -1.640625 C 39.914062 -0.929688 37.25 -0.304688 33.96875 0.234375 C 30.6875 0.785156 27.984375 1.0625 25.859375 1.0625 C 11.773438 1.0625 4.734375 -6.910156 4.734375 -22.859375 Z M 24.796875 -37.625 C 21.773438 -37.625 19.507812 -36.738281 18 -34.96875 C 16.488281 -33.207031 15.632812 -30.265625 15.4375 -26.140625 L 33.28125 -26.140625 C 33.28125 -33.796875 30.453125 -37.625 24.796875 -37.625 Z M 24.796875 -37.625 "/></g></g></g><g fill="#423b3b" fill-opacity="1"><g transform="translate(2744.882893, 1318.741272)"><g><path d="M 3.1875 -45.828125 L 13.796875 -45.828125 L 23.546875 -8.78125 L 25.28125 -8.78125 L 34.640625 -45.828125 L 45.15625 -45.828125 L 32.90625 0 L 15.734375 0 Z M 3.1875 -45.828125 "/></g></g></g><g fill="#423b3b" fill-opacity="1"><g transform="translate(2793.122047, 1318.741272)"><g><path d="M 4.734375 -22.859375 C 4.734375 -30.648438 6.46875 -36.554688 9.9375 -40.578125 C 13.40625 -44.597656 18.226562 -46.609375 24.40625 -46.609375 C 30.582031 -46.609375 35.359375 -44.789062 38.734375 -41.15625 C 42.109375 -37.519531 43.863281 -32.195312 44 -25.1875 L 43.609375 -18.046875 L 15.4375 -18.046875 C 16.019531 -11.097656 19.492188 -7.625 25.859375 -7.625 C 30.296875 -7.625 34.988281 -8.425781 39.9375 -10.03125 L 41.96875 -1.640625 C 39.914062 -0.929688 37.25 -0.304688 33.96875 0.234375 C 30.6875 0.785156 27.984375 1.0625 25.859375 1.0625 C 11.773438 1.0625 4.734375 -6.910156 4.734375 -22.859375 Z M 24.796875 -37.625 C 21.773438 -37.625 19.507812 -36.738281 18 -34.96875 C 16.488281 -33.207031 15.632812 -30.265625 15.4375 -26.140625 L 33.28125 -26.140625 C 33.28125 -33.796875 30.453125 -37.625 24.796875 -37.625 Z M 24.796875 -37.625 "/></g></g></g><g fill="#423b3b" fill-opacity="1"><g transform="translate(2841.361201, 1318.741272)"><g><path d="M 9.546875 -55.484375 L 9.453125 -64.265625 L 30 -64.359375 L 30 -8.6875 L 40.8125 -8.6875 L 40.8125 0 L 9.171875 0 L 9.171875 -8.6875 L 20.0625 -8.6875 L 20.0625 -55.578125 Z M 9.546875 -55.484375 "/></g></g></g><g fill="#423b3b" fill-opacity="1"><g transform="translate(2889.600355, 1318.741272)"><g><path d="M 8.96875 -40.765625 C 12.25 -44.660156 17.296875 -46.609375 24.109375 -46.609375 C 30.929688 -46.609375 35.984375 -44.660156 39.265625 -40.765625 C 42.546875 -36.867188 44.1875 -30.867188 44.1875 -22.765625 C 44.1875 -14.660156 42.546875 -8.628906 39.265625 -4.671875 C 35.984375 -0.722656 30.929688 1.25 24.109375 1.25 C 17.296875 1.25 12.25 -0.722656 8.96875 -4.671875 C 5.6875 -8.628906 4.046875 -14.660156 4.046875 -22.765625 C 4.046875 -30.867188 5.6875 -36.867188 8.96875 -40.765625 Z M 16.734375 -33.859375 C 15.421875 -31.609375 14.765625 -27.910156 14.765625 -22.765625 C 14.765625 -17.617188 15.4375 -13.890625 16.78125 -11.578125 C 18.132812 -9.265625 20.578125 -8.109375 24.109375 -8.109375 C 27.648438 -8.109375 30.097656 -9.265625 31.453125 -11.578125 C 32.804688 -13.890625 33.484375 -17.617188 33.484375 -22.765625 C 33.484375 -27.910156 32.820312 -31.609375 31.5 -33.859375 C 30.1875 -36.117188 27.726562 -37.25 24.125 -37.25 C 20.519531 -37.25 18.054688 -36.117188 16.734375 -33.859375 Z M 16.734375 -33.859375 "/></g></g></g><g fill="#423b3b" fill-opacity="1"><g transform="translate(2937.839554, 1318.741272)"><g><path d="M 5.5 18.53125 L 5.5 -37.53125 L 4.921875 -45.828125 L 14.5625 -46.5 L 15.140625 -42.265625 C 19.453125 -45.160156 23.28125 -46.609375 26.625 -46.609375 C 33.125 -46.609375 37.898438 -44.691406 40.953125 -40.859375 C 44.015625 -37.035156 45.546875 -31.070312 45.546875 -22.96875 C 45.546875 -14.863281 43.675781 -8.832031 39.9375 -4.875 C 36.207031 -0.914062 30.90625 1.0625 24.03125 1.0625 C 21.707031 1.0625 18.84375 0.382812 15.4375 -0.96875 L 15.4375 18.53125 Z M 26.25 -37.34375 C 23.289062 -37.34375 19.6875 -35.925781 15.4375 -33.09375 L 15.4375 -10.125 C 18.519531 -8.78125 21.316406 -8.109375 23.828125 -8.109375 C 31.160156 -8.109375 34.828125 -12.992188 34.828125 -22.765625 C 34.828125 -32.546875 31.96875 -37.40625 26.25 -37.34375 Z M 26.25 -37.34375 "/></g></g></g><g fill="#423b3b" fill-opacity="1"><g transform="translate(2986.078754, 1318.741272)"><g><path d="M 4.734375 -22.859375 C 4.734375 -30.648438 6.46875 -36.554688 9.9375 -40.578125 C 13.40625 -44.597656 18.226562 -46.609375 24.40625 -46.609375 C 30.582031 -46.609375 35.359375 -44.789062 38.734375 -41.15625 C 42.109375 -37.519531 43.863281 -32.195312 44 -25.1875 L 43.609375 -18.046875 L 15.4375 -18.046875 C 16.019531 -11.097656 19.492188 -7.625 25.859375 -7.625 C 30.296875 -7.625 34.988281 -8.425781 39.9375 -10.03125 L 41.96875 -1.640625 C 39.914062 -0.929688 37.25 -0.304688 33.96875 0.234375 C 30.6875 0.785156 27.984375 1.0625 25.859375 1.0625 C 11.773438 1.0625 4.734375 -6.910156 4.734375 -22.859375 Z M 24.796875 -37.625 C 21.773438 -37.625 19.507812 -36.738281 18 -34.96875 C 16.488281 -33.207031 15.632812 -30.265625 15.4375 -26.140625 L 33.28125 -26.140625 C 33.28125 -33.796875 30.453125 -37.625 24.796875 -37.625 Z M 24.796875 -37.625 "/></g></g></g><g fill="#423b3b" fill-opacity="1"><g transform="translate(3034.317954, 1318.741272)"><g><path d="M 7.8125 -36.953125 L 7.8125 -45.828125 L 25.1875 -45.828125 L 25.375 -41.203125 C 27.4375 -42.359375 30.125 -43.46875 33.4375 -44.53125 C 36.75 -45.59375 39.816406 -46.285156 42.640625 -46.609375 L 42.640625 -36.953125 C 40.140625 -36.691406 37.148438 -36.015625 33.671875 -34.921875 C 30.203125 -33.828125 27.4375 -32.703125 25.375 -31.546875 L 25.375 -8.6875 L 39.46875 -8.6875 L 39.46875 0 L 7.8125 0 L 7.8125 -8.875 L 15.25 -8.875 L 15.25 -36.953125 Z M 7.8125 -36.953125 "/></g></g></g><g fill="#423b3b" fill-opacity="1"><g transform="translate(3082.557885, 1318.741272)"><g/></g></g><g fill="#423b3b" fill-opacity="1"><g transform="translate(3130.797039, 1318.741272)"><g><path d="M 10.609375 -20.546875 L 10.609375 -25.765625 L 38.296875 -25.765625 L 38.296875 -20.546875 Z M 10.609375 -20.546875 "/></g></g></g><g fill="#423b3b" fill-opacity="1"><g transform="translate(3179.036193, 1318.741272)"><g/></g></g><g fill="#423b3b" fill-opacity="1"><g transform="translate(3227.275347, 1318.741272)"><g><path d="M 6.46875 0 L 6.46875 -63.203125 L 21.328125 -63.203125 C 28.398438 -63.203125 33.65625 -61.929688 37.09375 -59.390625 C 40.539062 -56.847656 42.265625 -52.648438 42.265625 -46.796875 C 42.265625 -39.460938 38.691406 -34.703125 31.546875 -32.515625 C 35.796875 -31.546875 38.929688 -29.9375 40.953125 -27.6875 C 42.984375 -25.4375 44 -22.15625 44 -17.84375 C 44 -11.03125 42.066406 -6.351562 38.203125 -3.8125 C 34.347656 -1.269531 28.429688 0 20.453125 0 Z M 38.40625 -17.84375 C 38.40625 -25.695312 33.066406 -29.625 22.390625 -29.625 L 11.765625 -29.625 L 11.765625 -4.734375 L 20.453125 -4.734375 C 26.429688 -4.734375 30.914062 -5.679688 33.90625 -7.578125 C 36.90625 -9.472656 38.40625 -12.894531 38.40625 -17.84375 Z M 31.640625 -56.734375 C 28.878906 -57.890625 25.441406 -58.46875 21.328125 -58.46875 L 11.765625 -58.46875 L 11.765625 -34.34375 L 22.09375 -34.34375 C 26.144531 -34.34375 29.585938 -35.257812 32.421875 -37.09375 C 35.253906 -38.925781 36.703125 -42.285156 36.765625 -47.171875 C 36.828125 -52.066406 35.117188 -55.253906 31.640625 -56.734375 Z M 31.640625 -56.734375 "/></g></g></g><g fill="#423b3b" fill-opacity="1"><g transform="translate(3275.514501, 1318.741272)"><g><path d="M 21.03125 -4.15625 C 23.414062 -4.15625 26.003906 -4.910156 28.796875 -6.421875 C 31.597656 -7.929688 33.640625 -9.328125 34.921875 -10.609375 L 34.921875 -22.09375 C 30.679688 -22.414062 26.628906 -22.578125 22.765625 -22.578125 C 18.910156 -22.578125 16.015625 -21.753906 14.078125 -20.109375 C 12.148438 -18.472656 11.1875 -16.273438 11.1875 -13.515625 C 11.1875 -7.273438 14.46875 -4.15625 21.03125 -4.15625 Z M 20.9375 0.875 C 16.238281 0.875 12.539062 -0.332031 9.84375 -2.75 C 7.144531 -5.164062 5.796875 -8.59375 5.796875 -13.03125 C 5.796875 -17.46875 7.273438 -20.90625 10.234375 -23.34375 C 13.191406 -25.851562 17.113281 -27.109375 22 -27.109375 C 26.882812 -27.109375 31.191406 -26.914062 34.921875 -26.53125 C 34.921875 -32.257812 34.210938 -36.164062 32.796875 -38.25 C 31.390625 -40.34375 28.53125 -41.390625 24.21875 -41.390625 C 19.90625 -41.390625 14.820312 -40.359375 8.96875 -38.296875 L 7.53125 -43.125 C 13.507812 -45.3125 18.910156 -46.40625 23.734375 -46.40625 C 30.097656 -46.40625 34.40625 -44.988281 36.65625 -42.15625 C 38.914062 -39.332031 40.046875 -34.382812 40.046875 -27.3125 L 40.046875 -7.046875 L 40.8125 0.296875 L 35.890625 0.765625 L 34.921875 -5.015625 C 33.441406 -3.734375 31.351562 -2.429688 28.65625 -1.109375 C 25.957031 0.210938 23.382812 0.875 20.9375 0.875 Z M 20.9375 0.875 "/></g></g></g><g fill="#423b3b" fill-opacity="1"><g transform="translate(3323.753655, 1318.741272)"><g><path d="M 15.4375 -40.328125 L 7.328125 -40.328125 L 7.328125 -45.15625 L 15.4375 -45.15625 L 15.4375 -56.25 L 20.546875 -57.21875 L 20.546875 -45.15625 L 38.890625 -45.15625 L 38.890625 -40.328125 L 20.546875 -40.328125 L 20.546875 -17.75 C 20.546875 -12.738281 21.046875 -9.203125 22.046875 -7.140625 C 23.046875 -5.078125 25.085938 -4.046875 28.171875 -4.046875 C 31.265625 -4.046875 34.675781 -4.660156 38.40625 -5.890625 L 39.5625 -1.0625 C 35.832031 0.289062 32.359375 0.96875 29.140625 0.96875 C 25.921875 0.96875 23.394531 0.550781 21.5625 -0.28125 C 19.726562 -1.125 18.375 -2.460938 17.5 -4.296875 C 16.632812 -6.128906 16.070312 -8.007812 15.8125 -9.9375 C 15.5625 -11.863281 15.4375 -14.40625 15.4375 -17.5625 Z M 15.4375 -40.328125 "/></g></g></g><g fill="#423b3b" fill-opacity="1"><g transform="translate(3371.992809, 1318.741272)"><g><path d="M 12.640625 -37.4375 L 12.640625 0 L 7.53125 0 L 7.53125 -64.0625 L 12.640625 -64.0625 L 12.640625 -42.359375 C 18.679688 -45.054688 23.664062 -46.40625 27.59375 -46.40625 C 36.789062 -46.40625 41.390625 -41.128906 41.390625 -30.578125 L 41.390625 0 L 36.28125 0 L 36.28125 -30.578125 C 36.28125 -33.859375 35.570312 -36.476562 34.15625 -38.4375 C 32.738281 -40.40625 30.289062 -41.390625 26.8125 -41.390625 C 23.34375 -41.390625 18.617188 -40.070312 12.640625 -37.4375 Z M 12.640625 -37.4375 "/></g></g></g><g fill="#423b3b" fill-opacity="1"><g transform="translate(3420.231963, 1318.741272)"><g><path d="M 16.6875 0 L 16.6875 -10.8125 L 25.859375 -10.8125 L 25.859375 -2.890625 C 25.859375 2.898438 23.378906 8.460938 18.421875 13.796875 L 15.828125 11.484375 C 18.722656 7.234375 20.296875 3.40625 20.546875 0 Z M 16.6875 0 "/></g></g></g><g fill="#423b3b" fill-opacity="1"><g transform="translate(3468.471117, 1318.741272)"><g/></g></g><g fill="#423b3b" fill-opacity="1"><g transform="translate(3516.710271, 1318.741272)"><g><path d="M 21.84375 -30.34375 C 16.09375 -31.726562 11.878906 -33.753906 9.203125 -36.421875 C 6.535156 -39.085938 5.203125 -42.960938 5.203125 -48.046875 C 5.203125 -53.128906 6.957031 -57.082031 10.46875 -59.90625 C 13.976562 -62.738281 18.5 -64.15625 24.03125 -64.15625 C 29.5625 -64.15625 35.1875 -63.160156 40.90625 -61.171875 L 39.5625 -56.25 C 34.21875 -58.175781 29.3125 -59.140625 24.84375 -59.140625 C 20.375 -59.140625 16.945312 -58.191406 14.5625 -56.296875 C 12.1875 -54.398438 11 -51.648438 11 -48.046875 C 11 -44.441406 11.960938 -41.707031 13.890625 -39.84375 C 15.816406 -37.976562 19.660156 -36.289062 25.421875 -34.78125 C 31.179688 -33.269531 35.347656 -31.273438 37.921875 -28.796875 C 40.492188 -26.328125 41.78125 -22.34375 41.78125 -16.84375 C 41.78125 -11.34375 39.929688 -7 36.234375 -3.8125 C 32.535156 -0.625 27.757812 0.96875 21.90625 0.96875 C 17.53125 0.96875 12 0.0351562 5.3125 -1.828125 L 6.5625 -6.75 C 13.125 -4.945312 18.394531 -4.046875 22.375 -4.046875 C 26.363281 -4.046875 29.644531 -5.15625 32.21875 -7.375 C 34.789062 -9.59375 36.078125 -12.695312 36.078125 -16.6875 C 36.078125 -20.675781 35.144531 -23.601562 33.28125 -25.46875 C 31.414062 -27.332031 27.601562 -28.957031 21.84375 -30.34375 Z M 21.84375 -30.34375 "/></g></g></g><g fill="#423b3b" fill-opacity="1"><g transform="translate(3564.949425, 1318.741272)"><g><path d="M 5.6875 -22.765625 C 5.6875 -38.523438 11.828125 -46.40625 24.109375 -46.40625 C 36.398438 -46.40625 42.546875 -38.523438 42.546875 -22.765625 C 42.546875 -7.003906 36.398438 0.875 24.109375 0.875 C 11.828125 0.875 5.6875 -7.003906 5.6875 -22.765625 Z M 24.109375 -41.390625 C 15.492188 -41.390625 11.1875 -35.179688 11.1875 -22.765625 C 11.1875 -10.359375 15.492188 -4.15625 24.109375 -4.15625 C 32.734375 -4.15625 37.046875 -10.359375 37.046875 -22.765625 C 37.046875 -35.179688 32.734375 -41.390625 24.109375 -41.390625 Z M 24.109375 -41.390625 "/></g></g></g><g fill="#423b3b" fill-opacity="1"><g transform="translate(3613.188579, 1318.741272)"><g><path d="M 8.203125 -45.828125 L 8.484375 -42.9375 C 11.703125 -45.25 14.179688 -46.40625 15.921875 -46.40625 C 20.160156 -46.40625 23.085938 -45.023438 24.703125 -42.265625 C 28.304688 -45.023438 31.457031 -46.40625 34.15625 -46.40625 C 38.332031 -46.40625 41.191406 -45.117188 42.734375 -42.546875 C 44.285156 -39.972656 45.0625 -36.019531 45.0625 -30.6875 L 45.0625 0 L 39.9375 0 L 39.9375 -30.6875 C 39.9375 -34.351562 39.550781 -37.066406 38.78125 -38.828125 C 38.007812 -40.597656 36.53125 -41.484375 34.34375 -41.484375 C 32.15625 -41.484375 29.457031 -40.457031 26.25 -38.40625 C 26.632812 -36.21875 26.828125 -33.644531 26.828125 -30.6875 L 26.828125 -14.671875 L 21.703125 -14.671875 L 21.703125 -30.6875 C 21.703125 -34.351562 21.316406 -37.050781 20.546875 -38.78125 C 19.710938 -40.582031 18.203125 -41.484375 16.015625 -41.484375 C 13.828125 -41.484375 11.316406 -40.457031 8.484375 -38.40625 L 8.484375 0 L 3.375 0 L 3.375 -45.828125 Z M 8.203125 -45.828125 "/></g></g></g><g fill="#423b3b" fill-opacity="1"><g transform="translate(3661.427733, 1318.741272)"><g><path d="M 6.46875 -22.859375 C 6.46875 -30.265625 7.992188 -36.039062 11.046875 -40.1875 C 14.097656 -44.332031 18.550781 -46.40625 24.40625 -46.40625 C 30.257812 -46.40625 34.617188 -44.472656 37.484375 -40.609375 C 40.347656 -36.753906 41.78125 -31.613281 41.78125 -25.1875 L 41.484375 -20.359375 L 11.96875 -20.359375 C 12.289062 -15.535156 13.578125 -11.628906 15.828125 -8.640625 C 18.078125 -5.648438 21.175781 -4.15625 25.125 -4.15625 C 29.082031 -4.15625 33.734375 -5.085938 39.078125 -6.953125 L 40.53125 -2.125 C 35.3125 -0.125 30.421875 0.875 25.859375 0.875 C 19.554688 0.875 14.75 -1.226562 11.4375 -5.4375 C 8.125 -9.65625 6.46875 -15.460938 6.46875 -22.859375 Z M 24.796875 -41.484375 C 16.691406 -41.484375 12.414062 -36.050781 11.96875 -25.1875 L 36.28125 -25.1875 C 36.28125 -36.050781 32.453125 -41.484375 24.796875 -41.484375 Z M 24.796875 -41.484375 "/></g></g></g><g fill="#423b3b" fill-opacity="1"><g transform="translate(3709.666887, 1318.741272)"><g><path d="M 8.78125 -41 L 8.78125 -45.828125 L 22.96875 -45.828125 L 23.15625 -40.234375 C 25.21875 -41.515625 28.113281 -42.796875 31.84375 -44.078125 C 35.570312 -45.367188 38.851562 -46.144531 41.6875 -46.40625 L 41.6875 -40.71875 C 39.039062 -40.519531 35.769531 -39.875 31.875 -38.78125 C 27.988281 -37.6875 25.082031 -36.5625 23.15625 -35.40625 L 23.15625 -4.828125 L 38.59375 -4.828125 L 38.59375 0 L 8.78125 0 L 8.78125 -4.828125 L 17.84375 -4.828125 L 17.84375 -41 Z M 8.78125 -41 "/></g></g></g><g fill="#423b3b" fill-opacity="1"><g transform="translate(3757.906041, 1318.741272)"><g><path d="M 7.53125 -2.21875 L 8.78125 -7.234375 C 15.144531 -5.109375 20.0625 -4.046875 23.53125 -4.046875 C 27.007812 -4.046875 29.695312 -4.800781 31.59375 -6.3125 C 33.488281 -7.832031 34.4375 -9.84375 34.4375 -12.34375 C 34.4375 -14.851562 33.679688 -16.703125 32.171875 -17.890625 C 30.660156 -19.085938 27.523438 -20.234375 22.765625 -21.328125 C 18.003906 -22.421875 14.4375 -23.992188 12.0625 -26.046875 C 9.675781 -27.984375 8.484375 -30.878906 8.484375 -34.734375 C 8.484375 -38.597656 9.945312 -41.539062 12.875 -43.5625 C 15.800781 -45.59375 19.582031 -46.609375 24.21875 -46.609375 C 28.851562 -46.609375 33.867188 -45.578125 39.265625 -43.515625 L 37.921875 -38.984375 C 32.453125 -40.785156 28.046875 -41.6875 24.703125 -41.6875 C 21.359375 -41.6875 18.71875 -41.101562 16.78125 -39.9375 C 14.851562 -38.65625 13.890625 -36.921875 13.890625 -34.734375 C 13.890625 -32.546875 14.738281 -30.835938 16.4375 -29.609375 C 18.144531 -28.390625 21.441406 -27.171875 26.328125 -25.953125 C 31.222656 -24.734375 34.695312 -23.171875 36.75 -21.265625 C 38.8125 -19.367188 39.84375 -16.394531 39.84375 -12.34375 C 39.84375 -8.289062 38.460938 -5.078125 35.703125 -2.703125 C 32.992188 -0.316406 29.128906 0.875 24.109375 0.875 C 19.097656 0.875 13.570312 -0.15625 7.53125 -2.21875 Z M 7.53125 -2.21875 "/></g></g></g><g fill="#423b3b" fill-opacity="1"><g transform="translate(3806.145195, 1318.741272)"><g><path d="M 6.46875 -22.859375 C 6.46875 -30.265625 7.992188 -36.039062 11.046875 -40.1875 C 14.097656 -44.332031 18.550781 -46.40625 24.40625 -46.40625 C 30.257812 -46.40625 34.617188 -44.472656 37.484375 -40.609375 C 40.347656 -36.753906 41.78125 -31.613281 41.78125 -25.1875 L 41.484375 -20.359375 L 11.96875 -20.359375 C 12.289062 -15.535156 13.578125 -11.628906 15.828125 -8.640625 C 18.078125 -5.648438 21.175781 -4.15625 25.125 -4.15625 C 29.082031 -4.15625 33.734375 -5.085938 39.078125 -6.953125 L 40.53125 -2.125 C 35.3125 -0.125 30.421875 0.875 25.859375 0.875 C 19.554688 0.875 14.75 -1.226562 11.4375 -5.4375 C 8.125 -9.65625 6.46875 -15.460938 6.46875 -22.859375 Z M 24.796875 -41.484375 C 16.691406 -41.484375 12.414062 -36.050781 11.96875 -25.1875 L 36.28125 -25.1875 C 36.28125 -36.050781 32.453125 -41.484375 24.796875 -41.484375 Z M 24.796875 -41.484375 "/></g></g></g><g fill="#423b3b" fill-opacity="1"><g transform="translate(3854.384349, 1318.741272)"><g><path d="M 15.4375 -40.328125 L 7.328125 -40.328125 L 7.328125 -45.15625 L 15.4375 -45.15625 L 15.4375 -56.25 L 20.546875 -57.21875 L 20.546875 -45.15625 L 38.890625 -45.15625 L 38.890625 -40.328125 L 20.546875 -40.328125 L 20.546875 -17.75 C 20.546875 -12.738281 21.046875 -9.203125 22.046875 -7.140625 C 23.046875 -5.078125 25.085938 -4.046875 28.171875 -4.046875 C 31.265625 -4.046875 34.675781 -4.660156 38.40625 -5.890625 L 39.5625 -1.0625 C 35.832031 0.289062 32.359375 0.96875 29.140625 0.96875 C 25.921875 0.96875 23.394531 0.550781 21.5625 -0.28125 C 19.726562 -1.125 18.375 -2.460938 17.5 -4.296875 C 16.632812 -6.128906 16.070312 -8.007812 15.8125 -9.9375 C 15.5625 -11.863281 15.4375 -14.40625 15.4375 -17.5625 Z M 15.4375 -40.328125 "/></g></g></g><g fill="#423b3b" fill-opacity="1"><g transform="translate(3902.624318, 1318.741272)"><g/></g></g><g fill="#423b3b" fill-opacity="1"><g transform="translate(2116.19832, 1160.763403)"><g><path d="M 91.75 0 L 68.578125 0 L 32.4375 -65.484375 L 32.4375 0 L 9.265625 0 L 9.265625 -105.03125 L 32.4375 -105.03125 L 68.578125 -39.546875 L 68.578125 -105.03125 L 91.75 -105.03125 Z M 91.75 0 "/></g></g></g><g fill="#423b3b" fill-opacity="1"><g transform="translate(2217.202393, 1160.763403)"><g><path d="M 8.03125 -91.4375 C 8.03125 -95.25 9.34375 -98.46875 11.96875 -101.09375 C 14.59375 -103.71875 17.8125 -105.03125 21.625 -105.03125 C 25.332031 -105.03125 28.523438 -103.71875 31.203125 -101.09375 C 33.878906 -98.46875 35.21875 -95.25 35.21875 -91.4375 C 35.21875 -87.726562 33.878906 -84.535156 31.203125 -81.859375 C 28.523438 -79.179688 25.332031 -77.84375 21.625 -77.84375 C 17.8125 -77.84375 14.59375 -79.179688 11.96875 -81.859375 C 9.34375 -84.535156 8.03125 -87.726562 8.03125 -91.4375 Z M 33.203125 0 L 10.046875 0 L 10.046875 -68.109375 L 33.203125 -68.109375 Z M 33.203125 0 "/></g></g></g><g fill="#423b3b" fill-opacity="1"><g transform="translate(2260.445725, 1160.763403)"><g><path d="M 44.015625 -51.59375 C 40.515625 -51.59375 37.757812 -50.640625 35.75 -48.734375 C 33.75 -46.828125 32.3125 -44.507812 31.4375 -41.78125 C 30.5625 -39.050781 30.125 -36.398438 30.125 -33.828125 C 30.125 -31.253906 30.535156 -28.578125 31.359375 -25.796875 C 32.179688 -23.015625 33.59375 -20.695312 35.59375 -18.84375 C 37.601562 -16.988281 40.410156 -16.0625 44.015625 -16.0625 C 47.617188 -16.0625 50.65625 -16.832031 53.125 -18.375 C 55.601562 -19.925781 57.046875 -22.242188 57.453125 -25.328125 L 80 -25.328125 C 79.28125 -20.285156 77.320312 -15.726562 74.125 -11.65625 C 70.9375 -7.59375 66.71875 -4.375 61.46875 -2 C 56.21875 0.363281 50.144531 1.546875 43.25 1.546875 C 35.425781 1.546875 28.679688 -0.0703125 23.015625 -3.3125 C 17.347656 -6.5625 12.992188 -10.863281 9.953125 -16.21875 C 6.921875 -21.570312 5.40625 -27.492188 5.40625 -33.984375 C 5.40625 -40.460938 6.972656 -46.40625 10.109375 -51.8125 C 13.253906 -57.21875 17.679688 -61.539062 23.390625 -64.78125 C 29.109375 -68.03125 35.726562 -69.65625 43.25 -69.65625 C 50.664062 -69.65625 57.070312 -68.34375 62.46875 -65.71875 C 67.875 -63.09375 72.144531 -59.59375 75.28125 -55.21875 C 78.425781 -50.84375 80.15625 -46.03125 80.46875 -40.78125 L 57.453125 -40.78125 C 57.347656 -44.070312 56.085938 -46.695312 53.671875 -48.65625 C 51.253906 -50.613281 48.035156 -51.59375 44.015625 -51.59375 Z M 44.015625 -51.59375 "/></g></g></g><g fill="#423b3b" fill-opacity="1"><g transform="translate(2345.696882, 1160.763403)"><g><path d="M 30.265625 -42.171875 L 60.703125 -42.171875 C 60.703125 -42.171875 60.570312 -42.8125 60.3125 -44.09375 C 60.050781 -45.382812 59.429688 -46.851562 58.453125 -48.5 C 57.484375 -50.144531 55.96875 -51.609375 53.90625 -52.890625 C 51.84375 -54.179688 49.0625 -54.828125 45.5625 -54.828125 C 41.957031 -54.828125 39.125 -54.179688 37.0625 -52.890625 C 35.007812 -51.609375 33.492188 -50.144531 32.515625 -48.5 C 31.535156 -46.851562 30.914062 -45.382812 30.65625 -44.09375 C 30.394531 -42.8125 30.265625 -42.171875 30.265625 -42.171875 Z M 82.9375 -35.53125 C 82.9375 -34.800781 82.910156 -34.078125 82.859375 -33.359375 C 82.804688 -32.640625 82.78125 -31.921875 82.78125 -31.203125 L 29.96875 -31.203125 C 29.96875 -28.628906 30.554688 -26.078125 31.734375 -23.546875 C 32.921875 -21.023438 34.617188 -18.96875 36.828125 -17.375 C 39.046875 -15.78125 41.648438 -14.984375 44.640625 -14.984375 C 48.753906 -14.984375 51.992188 -16.085938 54.359375 -18.296875 C 56.734375 -20.515625 57.972656 -22.859375 58.078125 -25.328125 L 81.703125 -25.328125 C 79.742188 -16.367188 75.414062 -9.648438 68.71875 -5.171875 C 62.03125 -0.691406 54.15625 1.546875 45.09375 1.546875 C 37.269531 1.546875 30.367188 0.078125 24.390625 -2.859375 C 18.421875 -5.796875 13.765625 -9.914062 10.421875 -15.21875 C 7.078125 -20.519531 5.40625 -26.773438 5.40625 -33.984375 C 5.40625 -41.085938 7.128906 -47.316406 10.578125 -52.671875 C 14.023438 -58.023438 18.734375 -62.191406 24.703125 -65.171875 C 30.679688 -68.160156 37.476562 -69.65625 45.09375 -69.65625 C 52 -69.65625 58.304688 -68.316406 64.015625 -65.640625 C 69.734375 -62.960938 74.316406 -59.097656 77.765625 -54.046875 C 81.210938 -49.003906 82.9375 -42.832031 82.9375 -35.53125 Z M 82.9375 -35.53125 "/></g></g></g><g fill="#423b3b" fill-opacity="1"><g transform="translate(2434.03682, 1160.763403)"><g/></g></g><g fill="#423b3b" fill-opacity="1"><g transform="translate(2472.646922, 1160.763403)"><g><path d="M 38.453125 -50.203125 L 38.453125 0 L 15.4375 0 L 15.4375 -50.203125 L 3.09375 -50.203125 L 3.09375 -68.109375 L 15.4375 -68.109375 L 15.4375 -94.0625 L 38.453125 -94.0625 L 38.453125 -68.109375 L 50.8125 -68.109375 L 50.8125 -50.203125 Z M 38.453125 -50.203125 "/></g></g></g><g fill="#423b3b" fill-opacity="1"><g transform="translate(2526.546658, 1160.763403)"><g><path d="M 44.328125 -16.0625 C 48.441406 -16.0625 51.628906 -16.9375 53.890625 -18.6875 C 56.160156 -20.4375 57.757812 -22.675781 58.6875 -25.40625 C 59.613281 -28.132812 60.078125 -30.941406 60.078125 -33.828125 C 60.078125 -36.710938 59.585938 -39.492188 58.609375 -42.171875 C 57.628906 -44.847656 56.007812 -47.0625 53.75 -48.8125 C 51.488281 -50.5625 48.347656 -51.4375 44.328125 -51.4375 C 40.304688 -51.4375 37.140625 -50.5625 34.828125 -48.8125 C 32.515625 -47.0625 30.867188 -44.847656 29.890625 -42.171875 C 28.910156 -39.492188 28.421875 -36.710938 28.421875 -33.828125 C 28.421875 -30.941406 28.882812 -28.132812 29.8125 -25.40625 C 30.738281 -22.675781 32.359375 -20.4375 34.671875 -18.6875 C 36.992188 -16.9375 40.210938 -16.0625 44.328125 -16.0625 Z M 44.328125 -69.5 C 51.429688 -69.5 57.914062 -68.003906 63.78125 -65.015625 C 69.65625 -62.035156 74.34375 -57.894531 77.84375 -52.59375 C 81.34375 -47.289062 83.09375 -41.085938 83.09375 -33.984375 C 83.09375 -26.773438 81.367188 -20.519531 77.921875 -15.21875 C 74.472656 -9.914062 69.8125 -5.820312 63.9375 -2.9375 C 58.070312 -0.0507812 51.535156 1.390625 44.328125 1.390625 C 37.117188 1.390625 30.550781 -0.0507812 24.625 -2.9375 C 18.707031 -5.820312 14.023438 -9.914062 10.578125 -15.21875 C 7.128906 -20.519531 5.40625 -26.773438 5.40625 -33.984375 C 5.40625 -41.085938 7.15625 -47.289062 10.65625 -52.59375 C 14.15625 -57.894531 18.863281 -62.035156 24.78125 -65.015625 C 30.707031 -68.003906 37.222656 -69.5 44.328125 -69.5 Z M 44.328125 -69.5 "/></g></g></g><g fill="#423b3b" fill-opacity="1"><g transform="translate(2615.041032, 1160.763403)"><g/></g></g><g fill="#423b3b" fill-opacity="1"><g transform="translate(2653.651134, 1160.763403)"><g><path d="M 78 -34.59375 L 78 0 L 54.828125 0 L 54.828125 -37.6875 C 54.828125 -40.976562 54.15625 -44.015625 52.8125 -46.796875 C 51.476562 -49.578125 48.859375 -50.96875 44.953125 -50.96875 C 42.367188 -50.96875 40.125 -50.015625 38.21875 -48.109375 C 36.320312 -46.203125 34.882812 -43.9375 33.90625 -41.3125 C 32.925781 -38.6875 32.4375 -36.242188 32.4375 -33.984375 L 32.4375 0 L 9.265625 0 L 9.265625 -68.109375 L 32.4375 -68.109375 L 32.4375 -59.765625 C 34.800781 -62.753906 37.578125 -65.148438 40.765625 -66.953125 C 43.960938 -68.753906 47.46875 -69.65625 51.28125 -69.65625 C 55.601562 -69.65625 59.617188 -68.703125 63.328125 -66.796875 C 67.035156 -64.890625 70.070312 -61.984375 72.4375 -58.078125 C 75.726562 -62.296875 79.359375 -65.28125 83.328125 -67.03125 C 87.296875 -68.78125 91.957031 -69.65625 97.3125 -69.65625 C 103.28125 -69.65625 108.191406 -68.210938 112.046875 -65.328125 C 115.910156 -62.453125 118.796875 -58.59375 120.703125 -53.75 C 122.609375 -48.90625 123.5625 -43.550781 123.5625 -37.6875 L 123.5625 0 L 100.390625 0 L 100.390625 -37.6875 C 100.390625 -40.976562 99.71875 -44.015625 98.375 -46.796875 C 97.039062 -49.578125 94.421875 -50.96875 90.515625 -50.96875 C 87.523438 -50.96875 85.101562 -50.144531 83.25 -48.5 C 81.394531 -46.851562 80.054688 -44.765625 79.234375 -42.234375 C 78.410156 -39.710938 78 -37.164062 78 -34.59375 Z M 78 -34.59375 "/></g></g></g><g fill="#423b3b" fill-opacity="1"><g transform="translate(2784.153333, 1160.763403)"><g><path d="M 30.265625 -42.171875 L 60.703125 -42.171875 C 60.703125 -42.171875 60.570312 -42.8125 60.3125 -44.09375 C 60.050781 -45.382812 59.429688 -46.851562 58.453125 -48.5 C 57.484375 -50.144531 55.96875 -51.609375 53.90625 -52.890625 C 51.84375 -54.179688 49.0625 -54.828125 45.5625 -54.828125 C 41.957031 -54.828125 39.125 -54.179688 37.0625 -52.890625 C 35.007812 -51.609375 33.492188 -50.144531 32.515625 -48.5 C 31.535156 -46.851562 30.914062 -45.382812 30.65625 -44.09375 C 30.394531 -42.8125 30.265625 -42.171875 30.265625 -42.171875 Z M 82.9375 -35.53125 C 82.9375 -34.800781 82.910156 -34.078125 82.859375 -33.359375 C 82.804688 -32.640625 82.78125 -31.921875 82.78125 -31.203125 L 29.96875 -31.203125 C 29.96875 -28.628906 30.554688 -26.078125 31.734375 -23.546875 C 32.921875 -21.023438 34.617188 -18.96875 36.828125 -17.375 C 39.046875 -15.78125 41.648438 -14.984375 44.640625 -14.984375 C 48.753906 -14.984375 51.992188 -16.085938 54.359375 -18.296875 C 56.734375 -20.515625 57.972656 -22.859375 58.078125 -25.328125 L 81.703125 -25.328125 C 79.742188 -16.367188 75.414062 -9.648438 68.71875 -5.171875 C 62.03125 -0.691406 54.15625 1.546875 45.09375 1.546875 C 37.269531 1.546875 30.367188 0.078125 24.390625 -2.859375 C 18.421875 -5.796875 13.765625 -9.914062 10.421875 -15.21875 C 7.078125 -20.519531 5.40625 -26.773438 5.40625 -33.984375 C 5.40625 -41.085938 7.128906 -47.316406 10.578125 -52.671875 C 14.023438 -58.023438 18.734375 -62.191406 24.703125 -65.171875 C 30.679688 -68.160156 37.476562 -69.65625 45.09375 -69.65625 C 52 -69.65625 58.304688 -68.316406 64.015625 -65.640625 C 69.734375 -62.960938 74.316406 -59.097656 77.765625 -54.046875 C 81.210938 -49.003906 82.9375 -42.832031 82.9375 -35.53125 Z M 82.9375 -35.53125 "/></g></g></g><g fill="#423b3b" fill-opacity="1"><g transform="translate(2872.493271, 1160.763403)"><g><path d="M 30.265625 -42.171875 L 60.703125 -42.171875 C 60.703125 -42.171875 60.570312 -42.8125 60.3125 -44.09375 C 60.050781 -45.382812 59.429688 -46.851562 58.453125 -48.5 C 57.484375 -50.144531 55.96875 -51.609375 53.90625 -52.890625 C 51.84375 -54.179688 49.0625 -54.828125 45.5625 -54.828125 C 41.957031 -54.828125 39.125 -54.179688 37.0625 -52.890625 C 35.007812 -51.609375 33.492188 -50.144531 32.515625 -48.5 C 31.535156 -46.851562 30.914062 -45.382812 30.65625 -44.09375 C 30.394531 -42.8125 30.265625 -42.171875 30.265625 -42.171875 Z M 82.9375 -35.53125 C 82.9375 -34.800781 82.910156 -34.078125 82.859375 -33.359375 C 82.804688 -32.640625 82.78125 -31.921875 82.78125 -31.203125 L 29.96875 -31.203125 C 29.96875 -28.628906 30.554688 -26.078125 31.734375 -23.546875 C 32.921875 -21.023438 34.617188 -18.96875 36.828125 -17.375 C 39.046875 -15.78125 41.648438 -14.984375 44.640625 -14.984375 C 48.753906 -14.984375 51.992188 -16.085938 54.359375 -18.296875 C 56.734375 -20.515625 57.972656 -22.859375 58.078125 -25.328125 L 81.703125 -25.328125 C 79.742188 -16.367188 75.414062 -9.648438 68.71875 -5.171875 C 62.03125 -0.691406 54.15625 1.546875 45.09375 1.546875 C 37.269531 1.546875 30.367188 0.078125 24.390625 -2.859375 C 18.421875 -5.796875 13.765625 -9.914062 10.421875 -15.21875 C 7.078125 -20.519531 5.40625 -26.773438 5.40625 -33.984375 C 5.40625 -41.085938 7.128906 -47.316406 10.578125 -52.671875 C 14.023438 -58.023438 18.734375 -62.191406 24.703125 -65.171875 C 30.679688 -68.160156 37.476562 -69.65625 45.09375 -69.65625 C 52 -69.65625 58.304688 -68.316406 64.015625 -65.640625 C 69.734375 -62.960938 74.316406 -59.097656 77.765625 -54.046875 C 81.210938 -49.003906 82.9375 -42.832031 82.9375 -35.53125 Z M 82.9375 -35.53125 "/></g></g></g><g fill="#423b3b" fill-opacity="1"><g transform="translate(2960.833209, 1160.763403)"><g><path d="M 38.453125 -50.203125 L 38.453125 0 L 15.4375 0 L 15.4375 -50.203125 L 3.09375 -50.203125 L 3.09375 -68.109375 L 15.4375 -68.109375 L 15.4375 -94.0625 L 38.453125 -94.0625 L 38.453125 -68.109375 L 50.8125 -68.109375 L 50.8125 -50.203125 Z M 38.453125 -50.203125 "/></g></g></g><g fill="#423b3b" fill-opacity="1"><g transform="translate(3014.738347, 1160.763403)"><g/></g></g><g fill="#423b3b" fill-opacity="1"><g transform="translate(3053.36016, 1160.763403)"><g><path d="M 36.921875 38.609375 L 12.8125 38.609375 L 28.265625 0 L 24.40625 0 L -1.546875 -68.109375 L 21.78125 -68.109375 L 38 -19.46875 L 54.21875 -68.109375 L 77.6875 -68.109375 L 51.734375 0 Z M 36.921875 38.609375 "/></g></g></g><g fill="#423b3b" fill-opacity="1"><g transform="translate(3129.499315, 1160.763403)"><g><path d="M 44.328125 -16.0625 C 48.441406 -16.0625 51.628906 -16.9375 53.890625 -18.6875 C 56.160156 -20.4375 57.757812 -22.675781 58.6875 -25.40625 C 59.613281 -28.132812 60.078125 -30.941406 60.078125 -33.828125 C 60.078125 -36.710938 59.585938 -39.492188 58.609375 -42.171875 C 57.628906 -44.847656 56.007812 -47.0625 53.75 -48.8125 C 51.488281 -50.5625 48.347656 -51.4375 44.328125 -51.4375 C 40.304688 -51.4375 37.140625 -50.5625 34.828125 -48.8125 C 32.515625 -47.0625 30.867188 -44.847656 29.890625 -42.171875 C 28.910156 -39.492188 28.421875 -36.710938 28.421875 -33.828125 C 28.421875 -30.941406 28.882812 -28.132812 29.8125 -25.40625 C 30.738281 -22.675781 32.359375 -20.4375 34.671875 -18.6875 C 36.992188 -16.9375 40.210938 -16.0625 44.328125 -16.0625 Z M 44.328125 -69.5 C 51.429688 -69.5 57.914062 -68.003906 63.78125 -65.015625 C 69.65625 -62.035156 74.34375 -57.894531 77.84375 -52.59375 C 81.34375 -47.289062 83.09375 -41.085938 83.09375 -33.984375 C 83.09375 -26.773438 81.367188 -20.519531 77.921875 -15.21875 C 74.472656 -9.914062 69.8125 -5.820312 63.9375 -2.9375 C 58.070312 -0.0507812 51.535156 1.390625 44.328125 1.390625 C 37.117188 1.390625 30.550781 -0.0507812 24.625 -2.9375 C 18.707031 -5.820312 14.023438 -9.914062 10.578125 -15.21875 C 7.128906 -20.519531 5.40625 -26.773438 5.40625 -33.984375 C 5.40625 -41.085938 7.15625 -47.289062 10.65625 -52.59375 C 14.15625 -57.894531 18.863281 -62.035156 24.78125 -65.015625 C 30.707031 -68.003906 37.222656 -69.5 44.328125 -69.5 Z M 44.328125 -69.5 "/></g></g></g><g fill="#423b3b" fill-opacity="1"><g transform="translate(3217.993711, 1160.763403)"><g><path d="M 7.71875 -29.34375 L 7.71875 -68.109375 L 30.890625 -68.109375 L 30.890625 -29.34375 C 30.890625 -25.4375 31.710938 -22.398438 33.359375 -20.234375 C 35.003906 -18.066406 37.628906 -16.984375 41.234375 -16.984375 C 44.835938 -16.984375 47.898438 -18.679688 50.421875 -22.078125 C 52.953125 -25.484375 54.21875 -29.453125 54.21875 -33.984375 L 54.21875 -68.109375 L 77.375 -68.109375 L 77.375 0 L 54.21875 0 L 54.21875 -8.34375 C 51.945312 -5.457031 49.035156 -3.085938 45.484375 -1.234375 C 41.929688 0.617188 37.890625 1.546875 33.359375 1.546875 C 24.296875 1.546875 17.753906 -1.304688 13.734375 -7.015625 C 9.722656 -12.734375 7.71875 -20.175781 7.71875 -29.34375 Z M 7.71875 -29.34375 "/></g></g></g><g fill="#423b3b" fill-opacity="1"><g transform="translate(3304.634834, 1160.763403)"><g><path d="M 8.03125 -12.046875 C 8.03125 -15.753906 9.34375 -18.945312 11.96875 -21.625 C 14.59375 -24.300781 17.8125 -25.640625 21.625 -25.640625 C 25.332031 -25.640625 28.523438 -24.300781 31.203125 -21.625 C 33.878906 -18.945312 35.21875 -15.753906 35.21875 -12.046875 C 35.21875 -8.234375 33.878906 -5.015625 31.203125 -2.390625 C 28.523438 0.234375 25.332031 1.546875 21.625 1.546875 C 17.8125 1.546875 14.59375 0.234375 11.96875 -2.390625 C 9.34375 -5.015625 8.03125 -8.234375 8.03125 -12.046875 Z M 13.125 -35.375 L 10.046875 -115.84375 L 33.203125 -115.84375 L 30.125 -35.375 Z M 13.125 -35.375 "/></g></g></g><g fill="#423b3b" fill-opacity="1"><g transform="translate(3347.878166, 1160.763403)"><g/></g></g><g fill="#423b3b" fill-opacity="1"><g transform="translate(3386.488292, 1160.763403)"><g><path d="M 32.4375 0 L 9.265625 0 L 9.265625 -105.03125 L 32.4375 -105.03125 Z M 32.4375 0 "/></g></g></g><g fill="#423b3b" fill-opacity="1"><g transform="translate(3428.187222, 1160.763403)"><g><path d="M 40.3125 -115.84375 L 18.078125 -69.65625 L 5.40625 -69.65625 L 17.453125 -115.84375 Z M 40.3125 -115.84375 "/></g></g></g><g fill="#423b3b" fill-opacity="1"><g transform="translate(3470.040588, 1160.763403)"><g><path d="M 78 -34.59375 L 78 0 L 54.828125 0 L 54.828125 -37.6875 C 54.828125 -40.976562 54.15625 -44.015625 52.8125 -46.796875 C 51.476562 -49.578125 48.859375 -50.96875 44.953125 -50.96875 C 42.367188 -50.96875 40.125 -50.015625 38.21875 -48.109375 C 36.320312 -46.203125 34.882812 -43.9375 33.90625 -41.3125 C 32.925781 -38.6875 32.4375 -36.242188 32.4375 -33.984375 L 32.4375 0 L 9.265625 0 L 9.265625 -68.109375 L 32.4375 -68.109375 L 32.4375 -59.765625 C 34.800781 -62.753906 37.578125 -65.148438 40.765625 -66.953125 C 43.960938 -68.753906 47.46875 -69.65625 51.28125 -69.65625 C 55.601562 -69.65625 59.617188 -68.703125 63.328125 -66.796875 C 67.035156 -64.890625 70.070312 -61.984375 72.4375 -58.078125 C 75.726562 -62.296875 79.359375 -65.28125 83.328125 -67.03125 C 87.296875 -68.78125 91.957031 -69.65625 97.3125 -69.65625 C 103.28125 -69.65625 108.191406 -68.210938 112.046875 -65.328125 C 115.910156 -62.453125 118.796875 -58.59375 120.703125 -53.75 C 122.609375 -48.90625 123.5625 -43.550781 123.5625 -37.6875 L 123.5625 0 L 100.390625 0 L 100.390625 -37.6875 C 100.390625 -40.976562 99.71875 -44.015625 98.375 -46.796875 C 97.039062 -49.578125 94.421875 -50.96875 90.515625 -50.96875 C 87.523438 -50.96875 85.101562 -50.144531 83.25 -48.5 C 81.394531 -46.851562 80.054688 -44.765625 79.234375 -42.234375 C 78.410156 -39.710938 78 -37.164062 78 -34.59375 Z M 78 -34.59375 "/></g></g></g><g fill="#423b3b" fill-opacity="1"><g transform="translate(3600.542787, 1160.763403)"><g/></g></g><g fill="#423b3b" fill-opacity="1"><g transform="translate(3639.153647, 1160.763403)"><g><path d="M 74.90625 -21 L 70.125 0 L 9.265625 0 L 33.515625 -105.03125 L 94.375 -105.03125 L 89.578125 -84.015625 L 51.890625 -84.015625 L 46.953125 -63.171875 L 83.09375 -63.171875 L 78.3125 -42.171875 L 42.171875 -42.171875 L 37.21875 -21 Z M 74.90625 -21 "/></g></g></g><g fill="#423b3b" fill-opacity="1"><g transform="translate(3718.536054, 1160.763403)"><g><path d="M 86.03125 -34.59375 L 78 0 L 54.828125 0 L 63.484375 -37.6875 C 64.304688 -40.976562 64.351562 -44.015625 63.625 -46.796875 C 62.90625 -49.578125 60.59375 -50.96875 56.6875 -50.96875 C 54.113281 -50.96875 51.664062 -50.015625 49.34375 -48.109375 C 47.03125 -46.203125 45.070312 -43.9375 43.46875 -41.3125 C 41.875 -38.6875 40.820312 -36.242188 40.3125 -33.984375 L 32.4375 0 L 9.265625 0 L 25.015625 -68.109375 L 48.1875 -68.109375 L 46.1875 -59.765625 C 49.164062 -62.753906 52.484375 -65.148438 56.140625 -66.953125 C 59.796875 -68.753906 63.53125 -69.65625 67.34375 -69.65625 C 71.664062 -69.65625 75.445312 -68.703125 78.6875 -66.796875 C 81.9375 -64.890625 84.332031 -61.984375 85.875 -58.078125 C 90.195312 -62.296875 94.519531 -65.28125 98.84375 -67.03125 C 103.175781 -68.78125 108.019531 -69.65625 113.375 -69.65625 C 119.34375 -69.65625 123.921875 -68.210938 127.109375 -65.328125 C 130.304688 -62.453125 132.289062 -58.59375 133.0625 -53.75 C 133.832031 -48.90625 133.550781 -43.550781 132.21875 -37.6875 L 123.5625 0 L 100.390625 0 L 109.046875 -37.6875 C 109.867188 -40.976562 109.914062 -44.015625 109.1875 -46.796875 C 108.46875 -49.578125 106.15625 -50.96875 102.25 -50.96875 C 99.257812 -50.96875 96.65625 -50.144531 94.4375 -48.5 C 92.226562 -46.851562 90.398438 -44.765625 88.953125 -42.234375 C 87.515625 -39.710938 86.539062 -37.164062 86.03125 -34.59375 Z M 86.03125 -34.59375 "/></g></g></g><g fill="#423b3b" fill-opacity="1"><g transform="translate(3849.038238, 1160.763403)"><g><path d="M 86.03125 -34.59375 L 78 0 L 54.828125 0 L 63.484375 -37.6875 C 64.304688 -40.976562 64.351562 -44.015625 63.625 -46.796875 C 62.90625 -49.578125 60.59375 -50.96875 56.6875 -50.96875 C 54.113281 -50.96875 51.664062 -50.015625 49.34375 -48.109375 C 47.03125 -46.203125 45.070312 -43.9375 43.46875 -41.3125 C 41.875 -38.6875 40.820312 -36.242188 40.3125 -33.984375 L 32.4375 0 L 9.265625 0 L 25.015625 -68.109375 L 48.1875 -68.109375 L 46.1875 -59.765625 C 49.164062 -62.753906 52.484375 -65.148438 56.140625 -66.953125 C 59.796875 -68.753906 63.53125 -69.65625 67.34375 -69.65625 C 71.664062 -69.65625 75.445312 -68.703125 78.6875 -66.796875 C 81.9375 -64.890625 84.332031 -61.984375 85.875 -58.078125 C 90.195312 -62.296875 94.519531 -65.28125 98.84375 -67.03125 C 103.175781 -68.78125 108.019531 -69.65625 113.375 -69.65625 C 119.34375 -69.65625 123.921875 -68.210938 127.109375 -65.328125 C 130.304688 -62.453125 132.289062 -58.59375 133.0625 -53.75 C 133.832031 -48.90625 133.550781 -43.550781 132.21875 -37.6875 L 123.5625 0 L 100.390625 0 L 109.046875 -37.6875 C 109.867188 -40.976562 109.914062 -44.015625 109.1875 -46.796875 C 108.46875 -49.578125 106.15625 -50.96875 102.25 -50.96875 C 99.257812 -50.96875 96.65625 -50.144531 94.4375 -48.5 C 92.226562 -46.851562 90.398438 -44.765625 88.953125 -42.234375 C 87.515625 -39.710938 86.539062 -37.164062 86.03125 -34.59375 Z M 86.03125 -34.59375 "/></g></g></g><g fill="#423b3b" fill-opacity="1"><g transform="translate(3979.540437, 1160.763403)"><g><path d="M 70.4375 -33.984375 C 71.457031 -38.515625 70.8125 -42.476562 68.5 -45.875 C 66.1875 -49.269531 62.710938 -50.96875 58.078125 -50.96875 C 54.984375 -50.96875 52.046875 -50.171875 49.265625 -48.578125 C 46.484375 -46.984375 44.0625 -44.894531 42 -42.3125 C 39.945312 -39.738281 38.613281 -36.960938 38 -33.984375 C 36.96875 -29.554688 37.582031 -25.613281 39.84375 -22.15625 C 42.113281 -18.707031 45.566406 -16.984375 50.203125 -16.984375 C 53.285156 -16.984375 56.242188 -17.78125 59.078125 -19.375 C 61.910156 -20.976562 64.328125 -23.066406 66.328125 -25.640625 C 68.335938 -28.210938 69.707031 -30.992188 70.4375 -33.984375 Z M 101.46875 -67.953125 L 85.71875 0 L 62.546875 0 L 64.40625 -8.1875 C 61.3125 -4.6875 57.367188 -2.1875 52.578125 -0.6875 C 47.796875 0.800781 43.242188 1.546875 38.921875 1.546875 C 32.429688 1.546875 27.023438 -0.0976562 22.703125 -3.390625 C 18.378906 -6.691406 15.367188 -11.046875 13.671875 -16.453125 C 11.972656 -21.859375 11.84375 -27.703125 13.28125 -33.984375 C 14.3125 -38.710938 16.164062 -43.210938 18.84375 -47.484375 C 21.519531 -51.765625 24.785156 -55.578125 28.640625 -58.921875 C 32.503906 -62.265625 36.703125 -64.890625 41.234375 -66.796875 C 45.765625 -68.703125 50.453125 -69.65625 55.296875 -69.65625 C 59.617188 -69.65625 63.660156 -68.929688 67.421875 -67.484375 C 71.179688 -66.046875 74.140625 -63.472656 76.296875 -59.765625 L 78.3125 -67.953125 Z M 101.46875 -67.953125 "/></g></g></g><g fill="#423b3b" fill-opacity="1"><g transform="translate(4074.521337, 1160.763403)"><g><path d="M 10.8125 -11.890625 C 11.632812 -15.703125 13.664062 -18.921875 16.90625 -21.546875 C 20.15625 -24.171875 23.6875 -25.484375 27.5 -25.484375 C 31.195312 -25.484375 34.078125 -24.171875 36.140625 -21.546875 C 38.203125 -18.921875 38.820312 -15.703125 38 -11.890625 C 37.070312 -8.179688 34.984375 -5.015625 31.734375 -2.390625 C 28.492188 0.234375 25.019531 1.546875 21.3125 1.546875 C 17.5 1.546875 14.5625 0.234375 12.5 -2.390625 C 10.445312 -5.015625 9.882812 -8.179688 10.8125 -11.890625 Z M 10.8125 -11.890625 "/></g></g></g></svg>