<svg xmlns="http://www.w3.org/2000/svg" xmlns:xlink="http://www.w3.org/1999/xlink" width="1000" zoomAndPan="magnify" viewBox="0 0 750 225" height="300" preserveAspectRatio="xMidYMid meet" version="1.0"><defs><filter x="0%" y="0%" width="100%" height="100%" id="b7e555a411"><feColorMatrix values="0 0 0 0 1 0 0 0 0 1 0 0 0 0 1 0 0 0 1 0" color-interpolation-filters="sRGB"/></filter><g/><mask id="0f5d2d7aae"><g filter="url(#b7e555a411)"><rect x="-75" width="900" fill="#000000" y="-22.5" height="270" fill-opacity="0.41"/></g></mask><clipPath id="0a3400934b"><path d="M 1 0.929688 L 183.25 0.929688 L 183.25 29.429688 L 1 29.429688 Z M 1 0.929688 " clip-rule="nonzero"/></clipPath><clipPath id="94bbed3e5a"><rect x="0" width="184" y="0" height="30"/></clipPath><clipPath id="9488392307"><path d="M 621.644531 146 L 641.753906 146 L 641.753906 206.390625 L 621.644531 206.390625 Z M 621.644531 146 " clip-rule="nonzero"/></clipPath><clipPath id="0237c84dc0"><path d="M 15 0 L 126 0 L 126 103 L 15 103 Z M 15 0 " clip-rule="nonzero"/></clipPath><clipPath id="cf800ad1db"><path d="M 15.6875 50.761719 L 66.421875 -7.492188 L 125.808594 44.230469 L 75.074219 102.484375 Z M 15.6875 50.761719 " clip-rule="nonzero"/></clipPath><clipPath id="201ca37c3f"><path d="M 15.6875 50.761719 L 66.421875 -7.492188 L 125.808594 44.230469 L 75.074219 102.484375 Z M 15.6875 50.761719 " clip-rule="nonzero"/></clipPath><mask id="feaac6a9ad"><g filter="url(#b7e555a411)"><rect x="-75" width="900" fill="#000000" y="-22.5" height="270" fill-opacity="0.982"/></g></mask><clipPath id="a3528d5a93"><path d="M 22 13 L 97 13 L 97 92 L 22 92 Z M 22 13 " clip-rule="nonzero"/></clipPath><clipPath id="02c71d838b"><path d="M 0.6875 50.761719 L 51.421875 -7.492188 L 110.808594 44.230469 L 60.074219 102.484375 Z M 0.6875 50.761719 " clip-rule="nonzero"/></clipPath><clipPath id="55a830577c"><path d="M 0.6875 50.761719 L 51.421875 -7.492188 L 110.808594 44.230469 L 60.074219 102.484375 Z M 0.6875 50.761719 " clip-rule="nonzero"/></clipPath><clipPath id="7eab6165c0"><rect x="0" width="111" y="0" height="103"/></clipPath><clipPath id="168a2fed3e"><path d="M 91 125 L 146 125 L 146 180 L 91 180 Z M 91 125 " clip-rule="nonzero"/></clipPath><clipPath id="203161d1d7"><path d="M 126.152344 125.035156 L 146 159.476562 L 110.910156 179.699219 L 91.0625 145.261719 Z M 126.152344 125.035156 " clip-rule="nonzero"/></clipPath><clipPath id="c3c51b7acc"><path d="M 126.152344 125.035156 L 146 159.476562 L 110.910156 179.699219 L 91.0625 145.261719 Z M 126.152344 125.035156 " clip-rule="nonzero"/></clipPath><mask id="5656fabab1"><g filter="url(#b7e555a411)"><rect x="-75" width="900" fill="#000000" y="-22.5" height="270" fill-opacity="0.982"/></g></mask><clipPath id="fd14edda25"><path d="M 3 8 L 48 8 L 48 49 L 3 49 Z M 3 8 " clip-rule="nonzero"/></clipPath><clipPath id="5ecc76432f"><path d="M 35.152344 0.0351562 L 55 34.476562 L 19.910156 54.699219 L 0.0625 20.261719 Z M 35.152344 0.0351562 " clip-rule="nonzero"/></clipPath><clipPath id="66defe458d"><path d="M 35.152344 0.0351562 L 55 34.476562 L 19.910156 54.699219 L 0.0625 20.261719 Z M 35.152344 0.0351562 " clip-rule="nonzero"/></clipPath><clipPath id="9f6cc7b9e3"><rect x="0" width="55" y="0" height="55"/></clipPath></defs><rect x="-75" width="900" fill="#ffffff" y="-22.5" height="270" fill-opacity="1"/><rect x="-75" width="900" fill="#fafafa" y="-22.5" height="270" fill-opacity="1"/><g mask="url(#0f5d2d7aae)"><g transform="matrix(1, 0, 0, 1, 374, 110)"><g clip-path="url(#94bbed3e5a)"><g clip-path="url(#0a3400934b)"><path fill="#efb11d" d="M 12.464844 0.929688 L 172.066406 0.929688 C 172.816406 0.929688 173.5625 1.003906 174.296875 1.148438 C 175.035156 1.296875 175.75 1.511719 176.441406 1.800781 C 177.136719 2.089844 177.796875 2.441406 178.417969 2.855469 C 179.042969 3.273438 179.621094 3.75 180.152344 4.277344 C 180.683594 4.808594 181.15625 5.386719 181.574219 6.011719 C 181.992188 6.636719 182.34375 7.296875 182.632812 7.988281 C 182.917969 8.683594 183.136719 9.398438 183.28125 10.132812 C 183.429688 10.871094 183.5 11.613281 183.5 12.363281 L 183.5 17.707031 C 183.5 18.457031 183.429688 19.199219 183.28125 19.9375 C 183.136719 20.671875 182.917969 21.386719 182.632812 22.082031 C 182.34375 22.773438 181.992188 23.433594 181.574219 24.058594 C 181.15625 24.683594 180.683594 25.257812 180.152344 25.789062 C 179.621094 26.320312 179.042969 26.796875 178.417969 27.210938 C 177.796875 27.628906 177.136719 27.980469 176.441406 28.269531 C 175.75 28.554688 175.035156 28.773438 174.296875 28.917969 C 173.5625 29.066406 172.816406 29.140625 172.066406 29.140625 L 12.464844 29.140625 C 11.714844 29.140625 10.96875 29.066406 10.234375 28.917969 C 9.496094 28.773438 8.78125 28.554688 8.089844 28.269531 C 7.394531 27.980469 6.734375 27.628906 6.113281 27.210938 C 5.488281 26.796875 4.910156 26.320312 4.378906 25.789062 C 3.847656 25.257812 3.375 24.683594 2.957031 24.058594 C 2.539062 23.433594 2.1875 22.773438 1.898438 22.082031 C 1.613281 21.386719 1.394531 20.671875 1.25 19.9375 C 1.101562 19.199219 1.03125 18.457031 1.03125 17.707031 L 1.03125 12.363281 C 1.03125 11.613281 1.101562 10.871094 1.25 10.132812 C 1.394531 9.398438 1.613281 8.683594 1.898438 7.988281 C 2.1875 7.296875 2.539062 6.636719 2.957031 6.011719 C 3.375 5.386719 3.847656 4.808594 4.378906 4.277344 C 4.910156 3.75 5.488281 3.273438 6.113281 2.855469 C 6.734375 2.441406 7.394531 2.089844 8.089844 1.800781 C 8.78125 1.511719 9.496094 1.296875 10.234375 1.148438 C 10.96875 1.003906 11.714844 0.929688 12.464844 0.929688 Z M 12.464844 0.929688 " fill-opacity="1" fill-rule="nonzero"/></g></g></g></g><g clip-path="url(#9488392307)"><path fill="#423b3b" d="M 622.65625 191.96875 C 623.652344 195.378906 624.125 198.90625 624.023438 202.449219 C 629.796875 197.183594 634.285156 190.539062 637.128906 183.269531 C 640.097656 175.6875 641.417969 167.253906 640.382812 159.144531 C 639.820312 154.75 638.40625 150.191406 634.878906 147.269531 C 634.417969 146.882812 634.449219 145.703125 635.15625 146.289062 C 638.378906 148.964844 640.117188 152.910156 640.957031 156.9375 C 641.820312 161.085938 641.890625 165.4375 641.515625 169.648438 C 640.746094 178.183594 637.855469 186.503906 633.195312 193.691406 C 630.929688 197.195312 628.234375 200.402344 625.1875 203.242188 C 629.710938 203.152344 634.230469 203.804688 638.550781 205.171875 C 638.867188 205.273438 639.105469 205.605469 639.160156 205.929688 C 639.203125 206.164062 639.113281 206.539062 638.789062 206.4375 C 633.964844 204.90625 628.90625 204.28125 623.855469 204.597656 C 623.796875 204.601562 623.734375 204.589844 623.679688 204.566406 C 623.316406 204.679688 622.902344 203.878906 622.921875 203.617188 C 623.234375 199.722656 622.863281 195.800781 621.765625 192.050781 C 621.507812 191.160156 622.449219 191.265625 622.65625 191.96875 Z M 622.65625 191.96875 " fill-opacity="1" fill-rule="nonzero"/></g><g fill="#423b3b" fill-opacity="1"><g transform="translate(183.802727, 129.692465)"><g><path d="M 10.125 -15.78125 L 10.125 0 L 5.765625 0 L 5.765625 -15.78125 L 0.140625 -15.78125 L 0.140625 -19.71875 L 15.75 -19.71875 L 15.75 -15.78125 Z M 10.125 -15.78125 "/></g></g></g><g fill="#423b3b" fill-opacity="1"><g transform="translate(199.690444, 129.692465)"><g><path d="M 11.75 -6.375 C 11.75 -6.9375 11.613281 -7.457031 11.34375 -7.9375 C 11.070312 -8.425781 10.707031 -8.816406 10.25 -9.109375 C 9.789062 -9.410156 9.273438 -9.5625 8.703125 -9.5625 C 8.117188 -9.5625 7.597656 -9.410156 7.140625 -9.109375 C 6.691406 -8.816406 6.332031 -8.425781 6.0625 -7.9375 C 5.789062 -7.457031 5.65625 -6.9375 5.65625 -6.375 C 5.65625 -5.8125 5.789062 -5.289062 6.0625 -4.8125 C 6.332031 -4.332031 6.691406 -3.941406 7.140625 -3.640625 C 7.597656 -3.335938 8.117188 -3.1875 8.703125 -3.1875 C 9.273438 -3.1875 9.789062 -3.335938 10.25 -3.640625 C 10.707031 -3.941406 11.070312 -4.332031 11.34375 -4.8125 C 11.613281 -5.289062 11.75 -5.8125 11.75 -6.375 Z M 16.09375 -12.765625 L 16.09375 0 L 11.75 0 L 11.75 -1.53125 C 11.320312 -0.875 10.6875 -0.40625 9.84375 -0.125 C 9 0.15625 8.171875 0.296875 7.359375 0.296875 C 6.160156 0.296875 5.078125 -0.0078125 4.109375 -0.625 C 3.148438 -1.25 2.394531 -2.066406 1.84375 -3.078125 C 1.289062 -4.097656 1.015625 -5.195312 1.015625 -6.375 C 1.015625 -7.5625 1.289062 -8.660156 1.84375 -9.671875 C 2.394531 -10.679688 3.148438 -11.5 4.109375 -12.125 C 5.078125 -12.757812 6.160156 -13.078125 7.359375 -13.078125 C 8.171875 -13.078125 8.960938 -12.941406 9.734375 -12.671875 C 10.515625 -12.398438 11.1875 -11.914062 11.75 -11.21875 L 11.75 -12.765625 Z M 16.09375 -12.765625 "/></g></g></g><g fill="#423b3b" fill-opacity="1"><g transform="translate(217.520636, 129.692465)"><g><path d="M 6.09375 -5.65625 L 6.09375 0 L 1.734375 0 L 1.734375 -21.75 L 6.09375 -21.75 L 6.09375 -7.71875 L 10.171875 -12.78125 L 15.578125 -12.78125 L 10.0625 -6.703125 L 16.15625 0 L 10.578125 0 Z M 6.09375 -5.65625 "/></g></g></g><g fill="#423b3b" fill-opacity="1"><g transform="translate(232.799516, 129.692465)"><g><path d="M 5.6875 -7.921875 L 11.390625 -7.921875 C 11.390625 -7.921875 11.363281 -8.039062 11.3125 -8.28125 C 11.269531 -8.519531 11.15625 -8.789062 10.96875 -9.09375 C 10.789062 -9.40625 10.507812 -9.679688 10.125 -9.921875 C 9.738281 -10.171875 9.21875 -10.296875 8.5625 -10.296875 C 7.882812 -10.296875 7.347656 -10.171875 6.953125 -9.921875 C 6.566406 -9.679688 6.28125 -9.40625 6.09375 -9.09375 C 5.914062 -8.789062 5.800781 -8.519531 5.75 -8.28125 C 5.707031 -8.039062 5.6875 -7.921875 5.6875 -7.921875 Z M 15.578125 -6.671875 C 15.578125 -6.535156 15.570312 -6.398438 15.5625 -6.265625 C 15.550781 -6.128906 15.546875 -5.992188 15.546875 -5.859375 L 5.625 -5.859375 C 5.625 -5.378906 5.734375 -4.898438 5.953125 -4.421875 C 6.179688 -3.953125 6.503906 -3.566406 6.921875 -3.265625 C 7.335938 -2.960938 7.820312 -2.8125 8.375 -2.8125 C 9.15625 -2.8125 9.765625 -3.019531 10.203125 -3.4375 C 10.648438 -3.851562 10.882812 -4.289062 10.90625 -4.75 L 15.34375 -4.75 C 14.976562 -3.070312 14.164062 -1.8125 12.90625 -0.96875 C 11.644531 -0.125 10.164062 0.296875 8.46875 0.296875 C 7 0.296875 5.703125 0.0195312 4.578125 -0.53125 C 3.460938 -1.082031 2.585938 -1.851562 1.953125 -2.84375 C 1.328125 -3.84375 1.015625 -5.019531 1.015625 -6.375 C 1.015625 -7.707031 1.335938 -8.875 1.984375 -9.875 C 2.628906 -10.882812 3.515625 -11.671875 4.640625 -12.234375 C 5.765625 -12.796875 7.039062 -13.078125 8.46875 -13.078125 C 9.757812 -13.078125 10.941406 -12.828125 12.015625 -12.328125 C 13.085938 -11.828125 13.945312 -11.101562 14.59375 -10.15625 C 15.25 -9.207031 15.578125 -8.046875 15.578125 -6.671875 Z M 15.578125 -6.671875 "/></g></g></g><g fill="#423b3b" fill-opacity="1"><g transform="translate(249.383046, 129.692465)"><g/></g></g><g fill="#423b3b" fill-opacity="1"><g transform="translate(256.631093, 129.692465)"><g><path d="M 11.75 -6.375 C 11.75 -6.9375 11.613281 -7.457031 11.34375 -7.9375 C 11.070312 -8.425781 10.707031 -8.816406 10.25 -9.109375 C 9.789062 -9.410156 9.273438 -9.5625 8.703125 -9.5625 C 8.117188 -9.5625 7.597656 -9.410156 7.140625 -9.109375 C 6.691406 -8.816406 6.332031 -8.425781 6.0625 -7.9375 C 5.789062 -7.457031 5.65625 -6.9375 5.65625 -6.375 C 5.65625 -5.8125 5.789062 -5.289062 6.0625 -4.8125 C 6.332031 -4.332031 6.691406 -3.941406 7.140625 -3.640625 C 7.597656 -3.335938 8.117188 -3.1875 8.703125 -3.1875 C 9.273438 -3.1875 9.789062 -3.335938 10.25 -3.640625 C 10.707031 -3.941406 11.070312 -4.332031 11.34375 -4.8125 C 11.613281 -5.289062 11.75 -5.8125 11.75 -6.375 Z M 16.09375 -12.765625 L 16.09375 0 L 11.75 0 L 11.75 -1.53125 C 11.320312 -0.875 10.6875 -0.40625 9.84375 -0.125 C 9 0.15625 8.171875 0.296875 7.359375 0.296875 C 6.160156 0.296875 5.078125 -0.0078125 4.109375 -0.625 C 3.148438 -1.25 2.394531 -2.066406 1.84375 -3.078125 C 1.289062 -4.097656 1.015625 -5.195312 1.015625 -6.375 C 1.015625 -7.5625 1.289062 -8.660156 1.84375 -9.671875 C 2.394531 -10.679688 3.148438 -11.5 4.109375 -12.125 C 5.078125 -12.757812 6.160156 -13.078125 7.359375 -13.078125 C 8.171875 -13.078125 8.960938 -12.941406 9.734375 -12.671875 C 10.515625 -12.398438 11.1875 -11.914062 11.75 -11.21875 L 11.75 -12.765625 Z M 16.09375 -12.765625 "/></g></g></g><g fill="#423b3b" fill-opacity="1"><g transform="translate(274.461284, 129.692465)"><g/></g></g><g fill="#423b3b" fill-opacity="1"><g transform="translate(281.709331, 129.692465)"><g><path d="M 6.09375 0 L 1.734375 0 L 1.734375 -21.75 L 6.09375 -21.75 Z M 6.09375 0 "/></g></g></g><g fill="#423b3b" fill-opacity="1"><g transform="translate(289.537215, 129.692465)"><g><path d="M 8.328125 -3.015625 C 9.097656 -3.015625 9.695312 -3.175781 10.125 -3.5 C 10.550781 -3.832031 10.847656 -4.253906 11.015625 -4.765625 C 11.191406 -5.273438 11.28125 -5.800781 11.28125 -6.34375 C 11.28125 -6.882812 11.1875 -7.40625 11 -7.90625 C 10.820312 -8.414062 10.519531 -8.832031 10.09375 -9.15625 C 9.664062 -9.488281 9.078125 -9.65625 8.328125 -9.65625 C 7.566406 -9.65625 6.96875 -9.488281 6.53125 -9.15625 C 6.101562 -8.832031 5.796875 -8.414062 5.609375 -7.90625 C 5.429688 -7.40625 5.34375 -6.882812 5.34375 -6.34375 C 5.34375 -5.800781 5.425781 -5.273438 5.59375 -4.765625 C 5.769531 -4.253906 6.070312 -3.832031 6.5 -3.5 C 6.9375 -3.175781 7.546875 -3.015625 8.328125 -3.015625 Z M 8.328125 -13.046875 C 9.660156 -13.046875 10.875 -12.765625 11.96875 -12.203125 C 13.070312 -11.648438 13.953125 -10.875 14.609375 -9.875 C 15.273438 -8.875 15.609375 -7.707031 15.609375 -6.375 C 15.609375 -5.019531 15.28125 -3.84375 14.625 -2.84375 C 13.976562 -1.851562 13.101562 -1.085938 12 -0.546875 C 10.90625 -0.00390625 9.679688 0.265625 8.328125 0.265625 C 6.972656 0.265625 5.738281 -0.00390625 4.625 -0.546875 C 3.507812 -1.085938 2.628906 -1.851562 1.984375 -2.84375 C 1.335938 -3.84375 1.015625 -5.019531 1.015625 -6.375 C 1.015625 -7.707031 1.34375 -8.875 2 -9.875 C 2.65625 -10.875 3.539062 -11.648438 4.65625 -12.203125 C 5.769531 -12.765625 6.992188 -13.046875 8.328125 -13.046875 Z M 8.328125 -13.046875 "/></g></g></g><g fill="#423b3b" fill-opacity="1"><g transform="translate(306.149733, 129.692465)"><g><path d="M 8.328125 -3.015625 C 9.097656 -3.015625 9.695312 -3.175781 10.125 -3.5 C 10.550781 -3.832031 10.847656 -4.253906 11.015625 -4.765625 C 11.191406 -5.273438 11.28125 -5.800781 11.28125 -6.34375 C 11.28125 -6.882812 11.1875 -7.40625 11 -7.90625 C 10.820312 -8.414062 10.519531 -8.832031 10.09375 -9.15625 C 9.664062 -9.488281 9.078125 -9.65625 8.328125 -9.65625 C 7.566406 -9.65625 6.96875 -9.488281 6.53125 -9.15625 C 6.101562 -8.832031 5.796875 -8.414062 5.609375 -7.90625 C 5.429688 -7.40625 5.34375 -6.882812 5.34375 -6.34375 C 5.34375 -5.800781 5.425781 -5.273438 5.59375 -4.765625 C 5.769531 -4.253906 6.070312 -3.832031 6.5 -3.5 C 6.9375 -3.175781 7.546875 -3.015625 8.328125 -3.015625 Z M 8.328125 -13.046875 C 9.660156 -13.046875 10.875 -12.765625 11.96875 -12.203125 C 13.070312 -11.648438 13.953125 -10.875 14.609375 -9.875 C 15.273438 -8.875 15.609375 -7.707031 15.609375 -6.375 C 15.609375 -5.019531 15.28125 -3.84375 14.625 -2.84375 C 13.976562 -1.851562 13.101562 -1.085938 12 -0.546875 C 10.90625 -0.00390625 9.679688 0.265625 8.328125 0.265625 C 6.972656 0.265625 5.738281 -0.00390625 4.625 -0.546875 C 3.507812 -1.085938 2.628906 -1.851562 1.984375 -2.84375 C 1.335938 -3.84375 1.015625 -5.019531 1.015625 -6.375 C 1.015625 -7.707031 1.34375 -8.875 2 -9.875 C 2.65625 -10.875 3.539062 -11.648438 4.65625 -12.203125 C 5.769531 -12.765625 6.992188 -13.046875 8.328125 -13.046875 Z M 8.328125 -13.046875 "/></g></g></g><g fill="#423b3b" fill-opacity="1"><g transform="translate(322.76225, 129.692465)"><g><path d="M 6.09375 -5.65625 L 6.09375 0 L 1.734375 0 L 1.734375 -21.75 L 6.09375 -21.75 L 6.09375 -7.71875 L 10.171875 -12.78125 L 15.578125 -12.78125 L 10.0625 -6.703125 L 16.15625 0 L 10.578125 0 Z M 6.09375 -5.65625 "/></g></g></g><g fill="#423b3b" fill-opacity="1"><g transform="translate(338.04113, 129.692465)"><g/></g></g><g fill="#423b3b" fill-opacity="1"><g transform="translate(345.289177, 129.692465)"><g><path d="M 11.75 -6.375 C 11.75 -6.9375 11.613281 -7.457031 11.34375 -7.9375 C 11.070312 -8.425781 10.707031 -8.816406 10.25 -9.109375 C 9.789062 -9.410156 9.273438 -9.5625 8.703125 -9.5625 C 8.117188 -9.5625 7.597656 -9.410156 7.140625 -9.109375 C 6.691406 -8.816406 6.332031 -8.425781 6.0625 -7.9375 C 5.789062 -7.457031 5.65625 -6.9375 5.65625 -6.375 C 5.65625 -5.8125 5.789062 -5.289062 6.0625 -4.8125 C 6.332031 -4.332031 6.691406 -3.941406 7.140625 -3.640625 C 7.597656 -3.335938 8.117188 -3.1875 8.703125 -3.1875 C 9.273438 -3.1875 9.789062 -3.335938 10.25 -3.640625 C 10.707031 -3.941406 11.070312 -4.332031 11.34375 -4.8125 C 11.613281 -5.289062 11.75 -5.8125 11.75 -6.375 Z M 16.09375 -12.765625 L 16.09375 0 L 11.75 0 L 11.75 -1.53125 C 11.320312 -0.875 10.6875 -0.40625 9.84375 -0.125 C 9 0.15625 8.171875 0.296875 7.359375 0.296875 C 6.160156 0.296875 5.078125 -0.0078125 4.109375 -0.625 C 3.148438 -1.25 2.394531 -2.066406 1.84375 -3.078125 C 1.289062 -4.097656 1.015625 -5.195312 1.015625 -6.375 C 1.015625 -7.5625 1.289062 -8.660156 1.84375 -9.671875 C 2.394531 -10.679688 3.148438 -11.5 4.109375 -12.125 C 5.078125 -12.757812 6.160156 -13.078125 7.359375 -13.078125 C 8.171875 -13.078125 8.960938 -12.941406 9.734375 -12.671875 C 10.515625 -12.398438 11.1875 -11.914062 11.75 -11.21875 L 11.75 -12.765625 Z M 16.09375 -12.765625 "/></g></g></g><g fill="#423b3b" fill-opacity="1"><g transform="translate(363.119368, 129.692465)"><g><path d="M 7.21875 -9.421875 L 7.21875 0 L 2.90625 0 L 2.90625 -9.421875 L 0.578125 -9.421875 L 0.578125 -12.78125 L 2.90625 -12.78125 L 2.90625 -17.65625 L 7.21875 -17.65625 L 7.21875 -12.78125 L 9.546875 -12.78125 L 9.546875 -9.421875 Z M 7.21875 -9.421875 "/></g></g></g><g fill="#423b3b" fill-opacity="1"><g transform="translate(373.237639, 129.692465)"><g/></g></g><g fill="#423b3b" fill-opacity="1"><g transform="translate(380.485685, 129.692465)"><g><path d="M 14.640625 -6.5 L 14.640625 0 L 10.296875 0 L 10.296875 -7.078125 C 10.296875 -7.691406 10.171875 -8.257812 9.921875 -8.78125 C 9.671875 -9.300781 9.175781 -9.5625 8.4375 -9.5625 C 7.957031 -9.5625 7.535156 -9.382812 7.171875 -9.03125 C 6.816406 -8.675781 6.546875 -8.25 6.359375 -7.75 C 6.179688 -7.257812 6.09375 -6.800781 6.09375 -6.375 L 6.09375 0 L 1.734375 0 L 1.734375 -12.78125 L 6.09375 -12.78125 L 6.09375 -11.21875 C 6.53125 -11.78125 7.050781 -12.226562 7.65625 -12.5625 C 8.257812 -12.90625 8.914062 -13.078125 9.625 -13.078125 C 10.4375 -13.078125 11.191406 -12.894531 11.890625 -12.53125 C 12.585938 -12.175781 13.15625 -11.632812 13.59375 -10.90625 C 14.21875 -11.695312 14.898438 -12.253906 15.640625 -12.578125 C 16.390625 -12.910156 17.265625 -13.078125 18.265625 -13.078125 C 19.390625 -13.078125 20.3125 -12.804688 21.03125 -12.265625 C 21.757812 -11.722656 22.300781 -11 22.65625 -10.09375 C 23.019531 -9.1875 23.203125 -8.179688 23.203125 -7.078125 L 23.203125 0 L 18.84375 0 L 18.84375 -7.078125 C 18.84375 -7.691406 18.71875 -8.257812 18.46875 -8.78125 C 18.21875 -9.300781 17.726562 -9.5625 17 -9.5625 C 16.4375 -9.5625 15.976562 -9.40625 15.625 -9.09375 C 15.28125 -8.789062 15.03125 -8.398438 14.875 -7.921875 C 14.71875 -7.453125 14.640625 -6.976562 14.640625 -6.5 Z M 14.640625 -6.5 "/></g></g></g><g fill="#423b3b" fill-opacity="1"><g transform="translate(404.984074, 129.692465)"><g><path d="M 6.9375 7.25 L 2.40625 7.25 L 5.3125 0 L 4.578125 0 L -0.296875 -12.78125 L 4.09375 -12.78125 L 7.140625 -3.65625 L 10.171875 -12.78125 L 14.59375 -12.78125 L 9.71875 0 Z M 6.9375 7.25 "/></g></g></g><g fill="#423b3b" fill-opacity="1"><g transform="translate(419.277218, 129.692465)"><g/></g></g><g fill="#423b3b" fill-opacity="1"><g transform="translate(426.525265, 129.692465)"><g><path d="M 6.09375 -6.375 C 6.09375 -5.8125 6.226562 -5.289062 6.5 -4.8125 C 6.769531 -4.332031 7.128906 -3.941406 7.578125 -3.640625 C 8.035156 -3.335938 8.554688 -3.1875 9.140625 -3.1875 C 9.710938 -3.1875 10.226562 -3.335938 10.6875 -3.640625 C 11.144531 -3.941406 11.507812 -4.332031 11.78125 -4.8125 C 12.050781 -5.289062 12.1875 -5.8125 12.1875 -6.375 C 12.1875 -6.9375 12.050781 -7.457031 11.78125 -7.9375 C 11.507812 -8.425781 11.144531 -8.816406 10.6875 -9.109375 C 10.226562 -9.410156 9.710938 -9.5625 9.140625 -9.5625 C 8.554688 -9.5625 8.035156 -9.410156 7.578125 -9.109375 C 7.128906 -8.816406 6.769531 -8.425781 6.5 -7.9375 C 6.226562 -7.457031 6.09375 -6.9375 6.09375 -6.375 Z M 6.09375 7.25 L 1.734375 7.25 L 1.734375 -12.78125 L 6.09375 -12.78125 L 6.09375 -11.21875 C 6.65625 -11.914062 7.316406 -12.398438 8.078125 -12.671875 C 8.835938 -12.941406 9.632812 -13.078125 10.46875 -13.078125 C 11.6875 -13.078125 12.773438 -12.757812 13.734375 -12.125 C 14.691406 -11.5 15.441406 -10.679688 15.984375 -9.671875 C 16.535156 -8.660156 16.8125 -7.5625 16.8125 -6.375 C 16.8125 -5.195312 16.535156 -4.097656 15.984375 -3.078125 C 15.441406 -2.066406 14.691406 -1.25 13.734375 -0.625 C 12.773438 -0.0078125 11.6875 0.296875 10.46875 0.296875 C 9.632812 0.296875 8.804688 0.15625 7.984375 -0.125 C 7.160156 -0.40625 6.53125 -0.875 6.09375 -1.53125 Z M 6.09375 7.25 "/></g></g></g><g fill="#423b3b" fill-opacity="1"><g transform="translate(444.355457, 129.692465)"><g><path d="M 8.328125 -3.015625 C 9.097656 -3.015625 9.695312 -3.175781 10.125 -3.5 C 10.550781 -3.832031 10.847656 -4.253906 11.015625 -4.765625 C 11.191406 -5.273438 11.28125 -5.800781 11.28125 -6.34375 C 11.28125 -6.882812 11.1875 -7.40625 11 -7.90625 C 10.820312 -8.414062 10.519531 -8.832031 10.09375 -9.15625 C 9.664062 -9.488281 9.078125 -9.65625 8.328125 -9.65625 C 7.566406 -9.65625 6.96875 -9.488281 6.53125 -9.15625 C 6.101562 -8.832031 5.796875 -8.414062 5.609375 -7.90625 C 5.429688 -7.40625 5.34375 -6.882812 5.34375 -6.34375 C 5.34375 -5.800781 5.425781 -5.273438 5.59375 -4.765625 C 5.769531 -4.253906 6.070312 -3.832031 6.5 -3.5 C 6.9375 -3.175781 7.546875 -3.015625 8.328125 -3.015625 Z M 8.328125 -13.046875 C 9.660156 -13.046875 10.875 -12.765625 11.96875 -12.203125 C 13.070312 -11.648438 13.953125 -10.875 14.609375 -9.875 C 15.273438 -8.875 15.609375 -7.707031 15.609375 -6.375 C 15.609375 -5.019531 15.28125 -3.84375 14.625 -2.84375 C 13.976562 -1.851562 13.101562 -1.085938 12 -0.546875 C 10.90625 -0.00390625 9.679688 0.265625 8.328125 0.265625 C 6.972656 0.265625 5.738281 -0.00390625 4.625 -0.546875 C 3.507812 -1.085938 2.628906 -1.851562 1.984375 -2.84375 C 1.335938 -3.84375 1.015625 -5.019531 1.015625 -6.375 C 1.015625 -7.707031 1.34375 -8.875 2 -9.875 C 2.65625 -10.875 3.539062 -11.648438 4.65625 -12.203125 C 5.769531 -12.765625 6.992188 -13.046875 8.328125 -13.046875 Z M 8.328125 -13.046875 "/></g></g></g><g fill="#423b3b" fill-opacity="1"><g transform="translate(460.967974, 129.692465)"><g><path d="M 8.96875 -9.5625 C 8.425781 -9.5625 7.9375 -9.398438 7.5 -9.078125 C 7.0625 -8.765625 6.71875 -8.363281 6.46875 -7.875 C 6.21875 -7.394531 6.09375 -6.894531 6.09375 -6.375 L 6.09375 0 L 1.734375 0 L 1.734375 -12.78125 L 6.09375 -12.78125 L 6.09375 -11.21875 C 6.414062 -11.707031 6.859375 -12.140625 7.421875 -12.515625 C 7.984375 -12.890625 8.660156 -13.078125 9.453125 -13.078125 C 9.648438 -13.078125 9.875 -13.050781 10.125 -13 C 10.375 -12.957031 10.585938 -12.882812 10.765625 -12.78125 L 10.765625 -8.84375 L 10.703125 -8.84375 C 10.484375 -9.113281 10.21875 -9.300781 9.90625 -9.40625 C 9.601562 -9.507812 9.289062 -9.5625 8.96875 -9.5625 Z M 8.96875 -9.5625 "/></g></g></g><g fill="#423b3b" fill-opacity="1"><g transform="translate(472.013994, 129.692465)"><g><path d="M 7.21875 -9.421875 L 7.21875 0 L 2.90625 0 L 2.90625 -9.421875 L 0.578125 -9.421875 L 0.578125 -12.78125 L 2.90625 -12.78125 L 2.90625 -17.65625 L 7.21875 -17.65625 L 7.21875 -12.78125 L 9.546875 -12.78125 L 9.546875 -9.421875 Z M 7.21875 -9.421875 "/></g></g></g><g fill="#423b3b" fill-opacity="1"><g transform="translate(482.132264, 129.692465)"><g><path d="M 6.8125 -21.75 L 10.03125 -21.75 L 10.03125 -18.359375 L 8.171875 -18.359375 C 7.734375 -18.359375 7.4375 -18.222656 7.28125 -17.953125 C 7.125 -17.679688 7.046875 -17.234375 7.046875 -16.609375 L 7.046875 -12.78125 L 10.03125 -12.78125 L 10.03125 -9.421875 L 7.046875 -9.421875 L 7.046875 0 L 2.703125 0 L 2.703125 -9.421875 L 0.875 -9.421875 L 0.875 -12.78125 L 2.703125 -12.78125 L 2.703125 -17.140625 C 2.703125 -18.722656 3.097656 -19.882812 3.890625 -20.625 C 4.679688 -21.375 5.65625 -21.75 6.8125 -21.75 Z M 6.8125 -21.75 "/></g></g></g><g fill="#423b3b" fill-opacity="1"><g transform="translate(492.656411, 129.692465)"><g><path d="M 8.328125 -3.015625 C 9.097656 -3.015625 9.695312 -3.175781 10.125 -3.5 C 10.550781 -3.832031 10.847656 -4.253906 11.015625 -4.765625 C 11.191406 -5.273438 11.28125 -5.800781 11.28125 -6.34375 C 11.28125 -6.882812 11.1875 -7.40625 11 -7.90625 C 10.820312 -8.414062 10.519531 -8.832031 10.09375 -9.15625 C 9.664062 -9.488281 9.078125 -9.65625 8.328125 -9.65625 C 7.566406 -9.65625 6.96875 -9.488281 6.53125 -9.15625 C 6.101562 -8.832031 5.796875 -8.414062 5.609375 -7.90625 C 5.429688 -7.40625 5.34375 -6.882812 5.34375 -6.34375 C 5.34375 -5.800781 5.425781 -5.273438 5.59375 -4.765625 C 5.769531 -4.253906 6.070312 -3.832031 6.5 -3.5 C 6.9375 -3.175781 7.546875 -3.015625 8.328125 -3.015625 Z M 8.328125 -13.046875 C 9.660156 -13.046875 10.875 -12.765625 11.96875 -12.203125 C 13.070312 -11.648438 13.953125 -10.875 14.609375 -9.875 C 15.273438 -8.875 15.609375 -7.707031 15.609375 -6.375 C 15.609375 -5.019531 15.28125 -3.84375 14.625 -2.84375 C 13.976562 -1.851562 13.101562 -1.085938 12 -0.546875 C 10.90625 -0.00390625 9.679688 0.265625 8.328125 0.265625 C 6.972656 0.265625 5.738281 -0.00390625 4.625 -0.546875 C 3.507812 -1.085938 2.628906 -1.851562 1.984375 -2.84375 C 1.335938 -3.84375 1.015625 -5.019531 1.015625 -6.375 C 1.015625 -7.707031 1.34375 -8.875 2 -9.875 C 2.65625 -10.875 3.539062 -11.648438 4.65625 -12.203125 C 5.769531 -12.765625 6.992188 -13.046875 8.328125 -13.046875 Z M 8.328125 -13.046875 "/></g></g></g><g fill="#423b3b" fill-opacity="1"><g transform="translate(509.268928, 129.692465)"><g><path d="M 6.09375 0 L 1.734375 0 L 1.734375 -21.75 L 6.09375 -21.75 Z M 6.09375 0 "/></g></g></g><g fill="#423b3b" fill-opacity="1"><g transform="translate(517.096824, 129.692465)"><g><path d="M 1.515625 -17.171875 C 1.515625 -17.878906 1.757812 -18.476562 2.25 -18.96875 C 2.738281 -19.46875 3.34375 -19.71875 4.0625 -19.71875 C 4.757812 -19.71875 5.359375 -19.46875 5.859375 -18.96875 C 6.359375 -18.476562 6.609375 -17.878906 6.609375 -17.171875 C 6.609375 -16.472656 6.359375 -15.867188 5.859375 -15.359375 C 5.359375 -14.859375 4.757812 -14.609375 4.0625 -14.609375 C 3.34375 -14.609375 2.738281 -14.859375 2.25 -15.359375 C 1.757812 -15.867188 1.515625 -16.472656 1.515625 -17.171875 Z M 6.234375 0 L 1.890625 0 L 1.890625 -12.78125 L 6.234375 -12.78125 Z M 6.234375 0 "/></g></g></g><g fill="#423b3b" fill-opacity="1"><g transform="translate(525.214622, 129.692465)"><g><path d="M 8.328125 -3.015625 C 9.097656 -3.015625 9.695312 -3.175781 10.125 -3.5 C 10.550781 -3.832031 10.847656 -4.253906 11.015625 -4.765625 C 11.191406 -5.273438 11.28125 -5.800781 11.28125 -6.34375 C 11.28125 -6.882812 11.1875 -7.40625 11 -7.90625 C 10.820312 -8.414062 10.519531 -8.832031 10.09375 -9.15625 C 9.664062 -9.488281 9.078125 -9.65625 8.328125 -9.65625 C 7.566406 -9.65625 6.96875 -9.488281 6.53125 -9.15625 C 6.101562 -8.832031 5.796875 -8.414062 5.609375 -7.90625 C 5.429688 -7.40625 5.34375 -6.882812 5.34375 -6.34375 C 5.34375 -5.800781 5.425781 -5.273438 5.59375 -4.765625 C 5.769531 -4.253906 6.070312 -3.832031 6.5 -3.5 C 6.9375 -3.175781 7.546875 -3.015625 8.328125 -3.015625 Z M 8.328125 -13.046875 C 9.660156 -13.046875 10.875 -12.765625 11.96875 -12.203125 C 13.070312 -11.648438 13.953125 -10.875 14.609375 -9.875 C 15.273438 -8.875 15.609375 -7.707031 15.609375 -6.375 C 15.609375 -5.019531 15.28125 -3.84375 14.625 -2.84375 C 13.976562 -1.851562 13.101562 -1.085938 12 -0.546875 C 10.90625 -0.00390625 9.679688 0.265625 8.328125 0.265625 C 6.972656 0.265625 5.738281 -0.00390625 4.625 -0.546875 C 3.507812 -1.085938 2.628906 -1.851562 1.984375 -2.84375 C 1.335938 -3.84375 1.015625 -5.019531 1.015625 -6.375 C 1.015625 -7.707031 1.34375 -8.875 2 -9.875 C 2.65625 -10.875 3.539062 -11.648438 4.65625 -12.203125 C 5.769531 -12.765625 6.992188 -13.046875 8.328125 -13.046875 Z M 8.328125 -13.046875 "/></g></g></g><g fill="#423b3b" fill-opacity="1"><g transform="translate(541.827139, 129.692465)"><g><path d="M 1.515625 -2.234375 C 1.515625 -2.953125 1.757812 -3.554688 2.25 -4.046875 C 2.738281 -4.535156 3.34375 -4.78125 4.0625 -4.78125 C 4.757812 -4.78125 5.359375 -4.535156 5.859375 -4.046875 C 6.359375 -3.554688 6.609375 -2.953125 6.609375 -2.234375 C 6.609375 -1.535156 6.359375 -0.9375 5.859375 -0.4375 C 5.359375 0.0507812 4.757812 0.296875 4.0625 0.296875 C 3.34375 0.296875 2.738281 0.0507812 2.25 -0.4375 C 1.757812 -0.9375 1.515625 -1.535156 1.515625 -2.234375 Z M 1.515625 -2.234375 "/></g></g></g><g fill="#423b3b" fill-opacity="1"><g transform="translate(549.944936, 129.692465)"><g><path d="M 1.515625 -2.234375 C 1.515625 -2.953125 1.757812 -3.554688 2.25 -4.046875 C 2.738281 -4.535156 3.34375 -4.78125 4.0625 -4.78125 C 4.757812 -4.78125 5.359375 -4.535156 5.859375 -4.046875 C 6.359375 -3.554688 6.609375 -2.953125 6.609375 -2.234375 C 6.609375 -1.535156 6.359375 -0.9375 5.859375 -0.4375 C 5.359375 0.0507812 4.757812 0.296875 4.0625 0.296875 C 3.34375 0.296875 2.738281 0.0507812 2.25 -0.4375 C 1.757812 -0.9375 1.515625 -1.535156 1.515625 -2.234375 Z M 1.515625 -2.234375 "/></g></g></g><g fill="#423b3b" fill-opacity="1"><g transform="translate(558.062734, 129.692465)"><g><path d="M 1.515625 -2.234375 C 1.515625 -2.953125 1.757812 -3.554688 2.25 -4.046875 C 2.738281 -4.535156 3.34375 -4.78125 4.0625 -4.78125 C 4.757812 -4.78125 5.359375 -4.535156 5.859375 -4.046875 C 6.359375 -3.554688 6.609375 -2.953125 6.609375 -2.234375 C 6.609375 -1.535156 6.359375 -0.9375 5.859375 -0.4375 C 5.359375 0.0507812 4.757812 0.296875 4.0625 0.296875 C 3.34375 0.296875 2.738281 0.0507812 2.25 -0.4375 C 1.757812 -0.9375 1.515625 -1.535156 1.515625 -2.234375 Z M 1.515625 -2.234375 "/></g></g></g><g clip-path="url(#0237c84dc0)"><g clip-path="url(#cf800ad1db)"><g clip-path="url(#201ca37c3f)"><g mask="url(#feaac6a9ad)"><g transform="matrix(1, 0, 0, 1, 15, -0.000000000000008531)"><g clip-path="url(#7eab6165c0)"><g clip-path="url(#a3528d5a93)"><g clip-path="url(#02c71d838b)"><g clip-path="url(#55a830577c)"><path fill="#e43d12" d="M 29.847656 17.445312 C 31.355469 15.550781 33.285156 14.378906 35.640625 13.925781 C 37.972656 13.621094 40.234375 13.902344 42.425781 14.769531 C 44.585938 15.6875 46.746094 16.613281 48.902344 17.542969 C 51.210938 18.496094 53.550781 19.375 55.917969 20.171875 C 60.355469 21.570312 64.875 22.449219 69.484375 22.804688 C 71.972656 22.996094 74.46875 23.066406 76.96875 23.011719 C 77.933594 23.03125 78.898438 23.054688 79.863281 23.074219 C 80.621094 23.121094 81.375 23.179688 82.128906 23.246094 C 83.824219 23.433594 85.460938 23.859375 87.039062 24.53125 C 89.777344 25.859375 91.890625 27.890625 93.371094 30.621094 C 94.398438 32.601562 95.160156 34.671875 95.664062 36.835938 C 96.339844 40.085938 96.714844 43.382812 96.785156 46.726562 C 96.8125 50.265625 96.21875 53.710938 95 57.054688 C 94.273438 58.824219 93.265625 60.414062 91.976562 61.820312 C 91.105469 62.769531 90.140625 63.632812 89.089844 64.40625 C 88.152344 65.085938 87.1875 65.722656 86.195312 66.316406 C 84.832031 67.136719 83.464844 67.957031 82.09375 68.765625 C 80.558594 69.695312 79.144531 70.777344 77.851562 72.015625 C 77.824219 72.0625 77.796875 72.109375 77.773438 72.152344 C 76.492188 73.316406 75.664062 74.746094 75.285156 76.445312 C 75.175781 76.988281 75.082031 77.535156 75.003906 78.085938 C 74.894531 79.757812 74.738281 81.425781 74.539062 83.089844 C 74.335938 84.246094 74.011719 85.371094 73.566406 86.464844 C 72.828125 87.976562 71.792969 89.257812 70.460938 90.3125 C 68.316406 91.835938 65.960938 92.316406 63.398438 91.765625 C 62.058594 91.445312 60.847656 90.859375 59.769531 90 C 58.84375 89.199219 57.90625 88.40625 56.96875 87.621094 C 56.542969 87.25 56.097656 86.898438 55.632812 86.5625 C 54.40625 85.898438 53.148438 85.304688 51.855469 84.785156 C 47.414062 83.261719 43.007812 81.636719 38.636719 79.914062 C 37.210938 79.335938 35.789062 78.742188 34.375 78.128906 C 32.757812 77.390625 31.195312 76.546875 29.6875 75.601562 C 27.886719 74.441406 26.292969 73.027344 24.90625 71.355469 C 22.101562 67.78125 21.46875 63.859375 22.996094 59.59375 C 23.246094 58.917969 23.515625 58.25 23.800781 57.585938 C 24.503906 56.109375 25.210938 54.636719 25.929688 53.167969 C 27.320312 50.226562 27.933594 47.136719 27.765625 43.90625 C 27.710938 42.898438 27.625 41.890625 27.511719 40.878906 C 27.21875 38.949219 26.953125 37.007812 26.714844 35.066406 C 26.433594 31.921875 26.457031 28.796875 26.792969 25.683594 C 27.042969 23.855469 27.496094 22.070312 28.152344 20.332031 C 28.585938 19.289062 29.148438 18.324219 29.847656 17.445312 Z M 31.722656 18.542969 C 33.445312 16.792969 35.535156 15.996094 37.984375 16.148438 C 39.382812 16.226562 40.738281 16.519531 42.054688 17.03125 C 44.433594 18.050781 46.828125 19.046875 49.246094 20.015625 C 52.070312 21.148438 54.945312 22.136719 57.863281 22.972656 C 61.292969 23.886719 64.769531 24.507812 68.285156 24.835938 C 69.511719 24.933594 70.734375 25.019531 71.960938 25.085938 C 74.539062 25.132812 77.117188 25.199219 79.699219 25.289062 C 80.898438 25.347656 82.085938 25.488281 83.265625 25.710938 C 87.050781 26.542969 89.875 28.664062 91.742188 32.070312 C 92.910156 34.308594 93.714844 36.660156 94.15625 39.128906 C 94.621094 41.863281 94.855469 44.613281 94.859375 47.382812 C 94.808594 50.449219 94.25 53.429688 93.175781 56.328125 C 92.742188 57.386719 92.175781 58.367188 91.472656 59.269531 C 90.277344 60.867188 88.851562 62.222656 87.195312 63.332031 C 85.027344 64.714844 82.832031 66.054688 80.617188 67.359375 C 78.589844 68.597656 76.808594 70.117188 75.269531 71.921875 C 74.351562 73.109375 73.722656 74.433594 73.386719 75.894531 C 73.242188 76.542969 73.125 77.191406 73.039062 77.847656 C 72.929688 79.519531 72.773438 81.1875 72.574219 82.851562 C 72.378906 84.027344 72.019531 85.144531 71.492188 86.210938 C 70.9375 87.148438 70.238281 87.960938 69.402344 88.65625 C 67.980469 89.71875 66.390625 90.15625 64.632812 89.972656 C 63.601562 89.867188 62.644531 89.539062 61.761719 88.988281 C 61.414062 88.765625 61.074219 88.53125 60.75 88.289062 C 60.03125 87.664062 59.347656 87.054688 58.695312 86.460938 C 57.886719 85.792969 57.054688 85.160156 56.195312 84.550781 C 55.574219 84.296875 54.96875 84.003906 54.382812 83.667969 C 52.601562 82.933594 50.789062 82.285156 48.949219 81.722656 C 45.238281 80.378906 41.542969 78.988281 37.863281 77.558594 C 36.078125 76.835938 34.328125 76.035156 32.613281 75.160156 C 30.511719 74.074219 28.648438 72.667969 27.023438 70.945312 C 25.761719 69.558594 24.875 67.972656 24.371094 66.179688 C 23.988281 64.28125 24.113281 62.417969 24.753906 60.585938 C 25.117188 59.527344 25.542969 58.492188 26.027344 57.476562 C 26.703125 56.117188 27.363281 54.753906 28 53.375 C 29.191406 50.675781 29.769531 47.859375 29.742188 44.933594 C 29.65625 43.394531 29.527344 41.855469 29.355469 40.316406 C 29.128906 38.855469 28.914062 37.398438 28.703125 35.933594 C 28.347656 32.871094 28.308594 29.816406 28.597656 26.765625 C 28.804688 25.042969 29.191406 23.359375 29.761719 21.710938 C 30.234375 20.535156 30.886719 19.476562 31.722656 18.542969 Z M 31.722656 18.542969 " fill-opacity="1" fill-rule="evenodd"/></g></g></g></g></g></g></g></g></g><g clip-path="url(#168a2fed3e)"><g clip-path="url(#203161d1d7)"><g clip-path="url(#c3c51b7acc)"><g mask="url(#5656fabab1)"><g transform="matrix(1, 0, 0, 1, 91, 125)"><g clip-path="url(#9f6cc7b9e3)"><g clip-path="url(#fd14edda25)"><g clip-path="url(#5ecc76432f)"><g clip-path="url(#66defe458d)"><path fill="#ffa2b6" d="M 46.546875 19.921875 C 47.21875 20.976562 47.46875 22.117188 47.292969 23.347656 C 47.050781 24.539062 46.53125 25.597656 45.738281 26.523438 C 44.925781 27.429688 44.109375 28.328125 43.289062 29.230469 C 42.433594 30.199219 41.613281 31.195312 40.824219 32.21875 C 39.390625 34.15625 38.199219 36.222656 37.25 38.414062 C 36.734375 39.601562 36.28125 40.8125 35.886719 42.042969 C 35.714844 42.511719 35.539062 42.980469 35.367188 43.449219 C 35.21875 43.8125 35.0625 44.171875 34.902344 44.53125 C 34.527344 45.328125 34.042969 46.058594 33.449219 46.71875 C 32.335938 47.835938 30.984375 48.527344 29.398438 48.792969 C 28.257812 48.960938 27.117188 48.984375 25.972656 48.867188 C 24.265625 48.648438 22.589844 48.277344 20.941406 47.75 C 19.207031 47.167969 17.621094 46.296875 16.1875 45.136719 C 15.441406 44.484375 14.835938 43.722656 14.363281 42.851562 C 14.046875 42.265625 13.785156 41.652344 13.585938 41.003906 C 13.410156 40.433594 13.261719 39.851562 13.136719 39.269531 C 12.964844 38.460938 12.796875 37.65625 12.628906 36.847656 C 12.433594 35.9375 12.140625 35.0625 11.753906 34.222656 C 11.734375 34.203125 11.71875 34.179688 11.699219 34.160156 C 11.34375 33.339844 10.785156 32.691406 10.019531 32.222656 C 9.769531 32.074219 9.519531 31.9375 9.261719 31.808594 C 8.464844 31.472656 7.671875 31.113281 6.890625 30.738281 C 6.359375 30.441406 5.863281 30.09375 5.402344 29.691406 C 4.789062 29.078125 4.335938 28.355469 4.042969 27.523438 C 3.660156 26.21875 3.820312 24.984375 4.523438 23.824219 C 4.902344 23.222656 5.394531 22.726562 5.996094 22.34375 C 6.546875 22.023438 7.089844 21.703125 7.632812 21.375 C 7.886719 21.226562 8.132812 21.070312 8.375 20.898438 C 8.90625 20.410156 9.410156 19.894531 9.882812 19.347656 C 11.375 17.433594 12.914062 15.550781 14.492188 13.699219 C 15.015625 13.097656 15.546875 12.503906 16.085938 11.914062 C 16.71875 11.246094 17.394531 10.625 18.109375 10.046875 C 18.980469 9.359375 19.941406 8.820312 20.996094 8.421875 C 23.214844 7.652344 25.242188 8 27.074219 9.46875 C 27.359375 9.703125 27.644531 9.949219 27.917969 10.199219 C 28.523438 10.792969 29.125 11.386719 29.722656 11.984375 C 30.929688 13.160156 32.335938 13.980469 33.945312 14.441406 C 34.449219 14.585938 34.957031 14.714844 35.46875 14.828125 C 36.464844 15.011719 37.460938 15.207031 38.449219 15.417969 C 40.035156 15.808594 41.5625 16.347656 43.027344 17.035156 C 43.882812 17.46875 44.679688 17.988281 45.417969 18.605469 C 45.859375 18.992188 46.234375 19.429688 46.546875 19.921875 Z M 45.695312 20.652344 C 46.261719 21.789062 46.296875 22.945312 45.808594 24.121094 C 45.539062 24.792969 45.164062 25.40625 44.695312 25.964844 C 43.792969 26.957031 42.902344 27.960938 42.019531 28.980469 C 40.992188 30.171875 40.023438 31.414062 39.125 32.699219 C 38.097656 34.226562 37.207031 35.820312 36.457031 37.488281 C 36.199219 38.070312 35.953125 38.65625 35.714844 39.246094 C 35.257812 40.496094 34.789062 41.75 34.3125 42.996094 C 34.082031 43.574219 33.8125 44.132812 33.503906 44.671875 C 32.460938 46.382812 30.945312 47.410156 28.964844 47.75 C 27.671875 47.945312 26.386719 47.941406 25.101562 47.742188 C 23.6875 47.511719 22.300781 47.160156 20.945312 46.695312 C 19.453125 46.15625 18.089844 45.378906 16.851562 44.363281 C 16.40625 43.976562 16.019531 43.53125 15.699219 43.035156 C 15.117188 42.183594 14.695312 41.257812 14.429688 40.257812 C 14.117188 38.964844 13.832031 37.664062 13.566406 36.363281 C 13.304688 35.160156 12.859375 34.03125 12.234375 32.976562 C 11.808594 32.324219 11.265625 31.792969 10.605469 31.382812 C 10.316406 31.203125 10.015625 31.039062 9.710938 30.886719 C 8.910156 30.550781 8.121094 30.191406 7.339844 29.816406 C 6.796875 29.523438 6.308594 29.15625 5.875 28.71875 C 5.511719 28.289062 5.230469 27.8125 5.03125 27.285156 C 4.75 26.410156 4.804688 25.558594 5.191406 24.730469 C 5.417969 24.242188 5.738281 23.828125 6.15625 23.488281 C 6.324219 23.355469 6.496094 23.230469 6.667969 23.109375 C 7.097656 22.867188 7.511719 22.632812 7.910156 22.414062 C 8.371094 22.128906 8.824219 21.832031 9.265625 21.511719 C 9.496094 21.25 9.738281 21.003906 10.003906 20.773438 C 10.664062 20.027344 11.285156 19.25 11.871094 18.441406 C 13.15625 16.851562 14.457031 15.277344 15.777344 13.71875 C 16.429688 12.964844 17.117188 12.246094 17.832031 11.554688 C 18.71875 10.707031 19.722656 10.03125 20.839844 9.527344 C 21.730469 9.140625 22.65625 8.976562 23.617188 9.03125 C 24.609375 9.164062 25.5 9.539062 26.289062 10.160156 C 26.746094 10.515625 27.183594 10.898438 27.597656 11.308594 C 28.148438 11.867188 28.707031 12.417969 29.273438 12.964844 C 30.394531 14 31.671875 14.757812 33.113281 15.238281 C 33.878906 15.457031 34.652344 15.652344 35.4375 15.828125 C 36.1875 15.960938 36.941406 16.101562 37.691406 16.246094 C 39.25 16.585938 40.75 17.082031 42.195312 17.738281 C 43.003906 18.128906 43.761719 18.601562 44.472656 19.15625 C 44.96875 19.589844 45.378906 20.085938 45.695312 20.652344 Z M 45.695312 20.652344 " fill-opacity="1" fill-rule="evenodd"/></g></g></g></g></g></g></g></g></g></svg>