<svg xmlns="http://www.w3.org/2000/svg" xmlns:xlink="http://www.w3.org/1999/xlink" width="1000" zoomAndPan="magnify" viewBox="0 0 750 225" height="300" preserveAspectRatio="xMidYMid meet" version="1.0"><defs><filter x="0%" y="0%" width="100%" height="100%" id="4869a652cc"><feColorMatrix values="0 0 0 0 1 0 0 0 0 1 0 0 0 0 1 0 0 0 1 0" color-interpolation-filters="sRGB"/></filter><g/><mask id="6b4527aba6"><g filter="url(#4869a652cc)"><rect x="-75" width="900" fill="#000000" y="-22.5" height="270" fill-opacity="0.41"/></g></mask><clipPath id="55c2ee26b3"><path d="M 1 0.929688 L 183.25 0.929688 L 183.25 29.429688 L 1 29.429688 Z M 1 0.929688 " clip-rule="nonzero"/></clipPath><clipPath id="4550516f70"><rect x="0" width="184" y="0" height="30"/></clipPath><clipPath id="010b80a75f"><path d="M 621.644531 146 L 641.753906 146 L 641.753906 206.390625 L 621.644531 206.390625 Z M 621.644531 146 " clip-rule="nonzero"/></clipPath><clipPath id="68341ddce5"><path d="M 35 136 L 116 136 L 116 216 L 35 216 Z M 35 136 " clip-rule="nonzero"/></clipPath><clipPath id="c010b75284"><path d="M 87.15625 136.226562 L 115.996094 186.261719 L 64.660156 215.847656 L 35.824219 165.8125 Z M 87.15625 136.226562 " clip-rule="nonzero"/></clipPath><clipPath id="53506f7854"><path d="M 87.15625 136.226562 L 115.996094 186.261719 L 64.660156 215.847656 L 35.824219 165.8125 Z M 87.15625 136.226562 " clip-rule="nonzero"/></clipPath><mask id="6c81a47b05"><g filter="url(#4869a652cc)"><rect x="-75" width="900" fill="#000000" y="-22.5" height="270" fill-opacity="0.982"/></g></mask><clipPath id="76e7f30971"><path d="M 6 11 L 70 11 L 70 72 L 6 72 Z M 6 11 " clip-rule="nonzero"/></clipPath><clipPath id="d5a26bd03d"><path d="M 52.15625 0.226562 L 80.996094 50.261719 L 29.660156 79.847656 L 0.824219 29.8125 Z M 52.15625 0.226562 " clip-rule="nonzero"/></clipPath><clipPath id="802c9a2075"><path d="M 52.15625 0.226562 L 80.996094 50.261719 L 29.660156 79.847656 L 0.824219 29.8125 Z M 52.15625 0.226562 " clip-rule="nonzero"/></clipPath><clipPath id="eb0f6c4e26"><rect x="0" width="81" y="0" height="80"/></clipPath><clipPath id="30f117702f"><path d="M 103.550781 63 L 129 63 L 129 102.808594 L 103.550781 102.808594 Z M 103.550781 63 " clip-rule="nonzero"/></clipPath><clipPath id="cb6bbedfed"><path d="M 311.667969 22.5 L 340.917969 22.5 L 340.917969 57.75 L 311.667969 57.75 Z M 311.667969 22.5 " clip-rule="nonzero"/></clipPath><clipPath id="db04c2935b"><path d="M 452 145.640625 L 518.703125 145.640625 L 518.703125 159.890625 L 452 159.890625 Z M 452 145.640625 " clip-rule="nonzero"/></clipPath></defs><rect x="-75" width="900" fill="#ffffff" y="-22.5" height="270" fill-opacity="1"/><rect x="-75" width="900" fill="#fafafa" y="-22.5" height="270" fill-opacity="1"/><g mask="url(#6b4527aba6)"><g transform="matrix(1, 0, 0, 1, 374, 110)"><g clip-path="url(#4550516f70)"><g clip-path="url(#55c2ee26b3)"><path fill="#efb11d" d="M 12.464844 0.929688 L 172.066406 0.929688 C 172.816406 0.929688 173.5625 1.003906 174.296875 1.148438 C 175.035156 1.296875 175.75 1.511719 176.441406 1.800781 C 177.136719 2.089844 177.796875 2.441406 178.417969 2.855469 C 179.042969 3.273438 179.621094 3.75 180.152344 4.277344 C 180.683594 4.808594 181.15625 5.386719 181.574219 6.011719 C 181.992188 6.636719 182.34375 7.296875 182.632812 7.988281 C 182.917969 8.683594 183.136719 9.398438 183.28125 10.132812 C 183.429688 10.871094 183.5 11.613281 183.5 12.363281 L 183.5 17.707031 C 183.5 18.457031 183.429688 19.199219 183.28125 19.9375 C 183.136719 20.671875 182.917969 21.386719 182.632812 22.082031 C 182.34375 22.773438 181.992188 23.433594 181.574219 24.058594 C 181.15625 24.683594 180.683594 25.257812 180.152344 25.789062 C 179.621094 26.320312 179.042969 26.796875 178.417969 27.210938 C 177.796875 27.628906 177.136719 27.980469 176.441406 28.269531 C 175.75 28.554688 175.035156 28.773438 174.296875 28.917969 C 173.5625 29.066406 172.816406 29.140625 172.066406 29.140625 L 12.464844 29.140625 C 11.714844 29.140625 10.96875 29.066406 10.234375 28.917969 C 9.496094 28.773438 8.78125 28.554688 8.089844 28.269531 C 7.394531 27.980469 6.734375 27.628906 6.113281 27.210938 C 5.488281 26.796875 4.910156 26.320312 4.378906 25.789062 C 3.847656 25.257812 3.375 24.683594 2.957031 24.058594 C 2.539062 23.433594 2.1875 22.773438 1.898438 22.082031 C 1.613281 21.386719 1.394531 20.671875 1.25 19.9375 C 1.101562 19.199219 1.03125 18.457031 1.03125 17.707031 L 1.03125 12.363281 C 1.03125 11.613281 1.101562 10.871094 1.25 10.132812 C 1.394531 9.398438 1.613281 8.683594 1.898438 7.988281 C 2.1875 7.296875 2.539062 6.636719 2.957031 6.011719 C 3.375 5.386719 3.847656 4.808594 4.378906 4.277344 C 4.910156 3.75 5.488281 3.273438 6.113281 2.855469 C 6.734375 2.441406 7.394531 2.089844 8.089844 1.800781 C 8.78125 1.511719 9.496094 1.296875 10.234375 1.148438 C 10.96875 1.003906 11.714844 0.929688 12.464844 0.929688 Z M 12.464844 0.929688 " fill-opacity="1" fill-rule="nonzero"/></g></g></g></g><g clip-path="url(#010b80a75f)"><path fill="#423b3b" d="M 622.65625 191.96875 C 623.652344 195.378906 624.125 198.90625 624.023438 202.449219 C 629.796875 197.183594 634.285156 190.539062 637.128906 183.269531 C 640.097656 175.6875 641.417969 167.253906 640.382812 159.144531 C 639.820312 154.75 638.40625 150.191406 634.878906 147.269531 C 634.417969 146.882812 634.449219 145.703125 635.15625 146.289062 C 638.378906 148.964844 640.117188 152.910156 640.957031 156.9375 C 641.820312 161.085938 641.890625 165.4375 641.515625 169.648438 C 640.746094 178.183594 637.855469 186.503906 633.195312 193.691406 C 630.929688 197.195312 628.234375 200.402344 625.1875 203.242188 C 629.710938 203.152344 634.230469 203.804688 638.550781 205.171875 C 638.867188 205.273438 639.105469 205.605469 639.160156 205.929688 C 639.203125 206.164062 639.113281 206.539062 638.789062 206.4375 C 633.964844 204.90625 628.90625 204.28125 623.855469 204.597656 C 623.796875 204.601562 623.734375 204.589844 623.679688 204.566406 C 623.316406 204.679688 622.902344 203.878906 622.921875 203.617188 C 623.234375 199.722656 622.863281 195.800781 621.765625 192.050781 C 621.507812 191.160156 622.449219 191.265625 622.65625 191.96875 Z M 622.65625 191.96875 " fill-opacity="1" fill-rule="nonzero"/></g><g clip-path="url(#68341ddce5)"><g clip-path="url(#c010b75284)"><g clip-path="url(#53506f7854)"><g mask="url(#6c81a47b05)"><g transform="matrix(1, 0, 0, 1, 35, 136)"><g clip-path="url(#eb0f6c4e26)"><g clip-path="url(#76e7f30971)"><g clip-path="url(#d5a26bd03d)"><g clip-path="url(#802c9a2075)"><path fill="#423b3b" d="M 68.671875 29.042969 C 69.648438 30.574219 70.011719 32.230469 69.757812 34.011719 C 69.402344 35.738281 68.652344 37.273438 67.5 38.617188 C 66.320312 39.925781 65.140625 41.230469 63.953125 42.535156 C 62.710938 43.941406 61.519531 45.386719 60.375 46.871094 C 58.300781 49.675781 56.574219 52.667969 55.195312 55.851562 C 54.453125 57.570312 53.796875 59.320312 53.222656 61.109375 C 52.972656 61.789062 52.722656 62.46875 52.472656 63.148438 C 52.253906 63.671875 52.027344 64.195312 51.796875 64.714844 C 51.25 65.871094 50.546875 66.925781 49.6875 67.882812 C 48.074219 69.5 46.121094 70.503906 43.820312 70.890625 C 42.167969 71.132812 40.511719 71.167969 38.851562 70.996094 C 36.382812 70.683594 33.953125 70.144531 31.5625 69.378906 C 29.046875 68.53125 26.75 67.269531 24.671875 65.589844 C 23.59375 64.644531 22.710938 63.539062 22.03125 62.28125 C 21.570312 61.433594 21.191406 60.539062 20.898438 59.601562 C 20.648438 58.773438 20.429688 57.933594 20.25 57.085938 C 20 55.917969 19.753906 54.746094 19.515625 53.578125 C 19.230469 52.261719 18.808594 50.992188 18.246094 49.773438 C 18.21875 49.742188 18.191406 49.714844 18.167969 49.683594 C 17.652344 48.492188 16.839844 47.554688 15.730469 46.875 C 15.371094 46.660156 15.007812 46.460938 14.636719 46.273438 C 13.476562 45.785156 12.332031 45.269531 11.199219 44.722656 C 10.425781 44.292969 9.707031 43.789062 9.042969 43.207031 C 8.148438 42.316406 7.492188 41.265625 7.070312 40.0625 C 6.515625 38.171875 6.746094 36.382812 7.765625 34.699219 C 8.316406 33.828125 9.03125 33.113281 9.902344 32.558594 C 10.699219 32.09375 11.488281 31.625 12.273438 31.152344 C 12.640625 30.9375 13 30.710938 13.351562 30.464844 C 14.121094 29.753906 14.847656 29.007812 15.535156 28.214844 C 17.699219 25.4375 19.925781 22.710938 22.214844 20.03125 C 22.972656 19.15625 23.742188 18.292969 24.523438 17.441406 C 25.441406 16.472656 26.417969 15.570312 27.457031 14.734375 C 28.71875 13.738281 30.113281 12.953125 31.640625 12.375 C 34.859375 11.261719 37.796875 11.769531 40.449219 13.894531 C 40.867188 14.238281 41.277344 14.589844 41.675781 14.957031 C 42.550781 15.8125 43.421875 16.675781 44.289062 17.542969 C 46.039062 19.25 48.078125 20.4375 50.410156 21.105469 C 51.140625 21.3125 51.875 21.5 52.621094 21.664062 C 54.0625 21.929688 55.503906 22.214844 56.941406 22.519531 C 59.238281 23.085938 61.449219 23.867188 63.574219 24.863281 C 64.8125 25.488281 65.964844 26.246094 67.039062 27.136719 C 67.675781 27.695312 68.21875 28.332031 68.671875 29.042969 Z M 67.4375 30.105469 C 68.257812 31.753906 68.3125 33.429688 67.605469 35.132812 C 67.210938 36.105469 66.671875 36.996094 65.988281 37.804688 C 64.683594 39.238281 63.394531 40.699219 62.113281 42.175781 C 60.621094 43.902344 59.222656 45.699219 57.914062 47.566406 C 56.425781 49.777344 55.136719 52.089844 54.046875 54.503906 C 53.679688 55.351562 53.320312 56.199219 52.972656 57.050781 C 52.308594 58.867188 51.632812 60.679688 50.941406 62.488281 C 50.605469 63.324219 50.21875 64.136719 49.773438 64.917969 C 48.257812 67.398438 46.0625 68.886719 43.191406 69.378906 C 41.320312 69.660156 39.453125 69.65625 37.59375 69.367188 C 35.542969 69.03125 33.535156 68.527344 31.566406 67.851562 C 29.40625 67.070312 27.425781 65.941406 25.632812 64.472656 C 24.988281 63.910156 24.429688 63.265625 23.960938 62.546875 C 23.121094 61.308594 22.507812 59.96875 22.125 58.523438 C 21.671875 56.644531 21.257812 54.761719 20.875 52.871094 C 20.492188 51.132812 19.847656 49.496094 18.941406 47.964844 C 18.324219 47.023438 17.539062 46.253906 16.582031 45.660156 C 16.160156 45.398438 15.726562 45.15625 15.285156 44.9375 C 14.125 44.449219 12.980469 43.933594 11.847656 43.386719 C 11.0625 42.960938 10.355469 42.433594 9.726562 41.796875 C 9.199219 41.175781 8.792969 40.480469 8.503906 39.71875 C 8.097656 38.449219 8.175781 37.214844 8.734375 36.011719 C 9.0625 35.308594 9.527344 34.707031 10.136719 34.214844 C 10.375 34.023438 10.625 33.84375 10.875 33.667969 C 11.496094 33.3125 12.09375 32.976562 12.675781 32.660156 C 13.34375 32.246094 14 31.8125 14.640625 31.351562 C 14.972656 30.972656 15.328125 30.617188 15.707031 30.28125 C 16.664062 29.199219 17.566406 28.070312 18.417969 26.902344 C 20.277344 24.597656 22.164062 22.316406 24.074219 20.054688 C 25.023438 18.964844 26.015625 17.917969 27.058594 16.917969 C 28.34375 15.691406 29.792969 14.710938 31.414062 13.980469 C 32.703125 13.421875 34.046875 13.183594 35.441406 13.261719 C 36.878906 13.453125 38.171875 13.996094 39.3125 14.898438 C 39.976562 15.414062 40.609375 15.96875 41.210938 16.5625 C 42.007812 17.371094 42.816406 18.171875 43.636719 18.960938 C 45.261719 20.464844 47.117188 21.5625 49.203125 22.257812 C 50.3125 22.574219 51.433594 22.859375 52.570312 23.113281 C 53.660156 23.308594 54.75 23.507812 55.835938 23.71875 C 58.097656 24.210938 60.273438 24.933594 62.367188 25.878906 C 63.539062 26.445312 64.636719 27.132812 65.667969 27.9375 C 66.390625 28.5625 66.980469 29.285156 67.4375 30.105469 Z M 67.4375 30.105469 " fill-opacity="1" fill-rule="evenodd"/></g></g></g></g></g></g></g></g></g><g clip-path="url(#30f117702f)"><path fill="#ffbe0c" d="M 124.355469 87.3125 C 123.441406 87.140625 122.519531 86.988281 121.609375 86.792969 C 120.695312 86.59375 119.796875 86.339844 118.875 86.167969 C 118.445312 86.082031 117.988281 86.082031 117.558594 86.132812 C 117.066406 86.183594 116.902344 86.457031 117.109375 86.902344 C 117.316406 87.355469 117.566406 87.808594 117.902344 88.164062 C 118.472656 88.796875 119.117188 89.359375 119.746094 89.941406 C 120.566406 90.707031 121.417969 91.453125 122.210938 92.253906 C 122.582031 92.628906 122.875 93.089844 123.117188 93.558594 C 124.039062 95.359375 123.320312 97.253906 121.445312 98.039062 C 120.246094 98.535156 119.050781 98.441406 117.878906 97.914062 C 116.835938 97.441406 116.027344 96.683594 115.25 95.882812 C 114.570312 95.179688 113.90625 94.464844 113.199219 93.796875 C 112.863281 93.484375 112.433594 93.242188 112.019531 93.03125 C 111.71875 92.875 111.484375 93.023438 111.519531 93.371094 C 111.582031 93.960938 111.625 94.558594 111.777344 95.121094 C 112.035156 96.070312 112.363281 97.007812 112.675781 97.945312 C 112.925781 98.714844 113.113281 99.5 113.019531 100.320312 C 112.839844 101.863281 111.761719 102.804688 110.191406 102.785156 C 109.03125 102.769531 108.011719 102.359375 107.109375 101.640625 C 105.746094 100.558594 104.808594 99.160156 104.265625 97.527344 C 103.964844 96.605469 103.792969 95.640625 103.601562 94.695312 C 103.550781 94.4375 103.578125 94.148438 103.636719 93.882812 C 103.75 93.449219 104.136719 93.175781 104.550781 93.191406 C 104.945312 93.210938 105.292969 93.472656 105.394531 93.910156 C 105.507812 94.378906 105.566406 94.867188 105.660156 95.34375 C 105.953125 96.878906 106.507812 98.296875 107.574219 99.464844 C 108.21875 100.175781 108.953125 100.761719 109.96875 100.867188 C 110.769531 100.949219 111.15625 100.644531 111.105469 99.851562 C 111.082031 99.371094 110.933594 98.894531 110.804688 98.433594 C 110.453125 97.195312 110.03125 95.964844 109.738281 94.71875 C 109.589844 94.097656 109.582031 93.414062 109.667969 92.78125 C 109.832031 91.589844 110.753906 90.949219 111.96875 91.074219 C 112.65625 91.144531 113.292969 91.398438 113.804688 91.84375 C 114.59375 92.527344 115.34375 93.277344 116.101562 94.003906 C 116.664062 94.542969 117.179688 95.136719 117.78125 95.617188 C 118.214844 95.957031 118.738281 96.25 119.273438 96.367188 C 119.730469 96.480469 120.289062 96.410156 120.738281 96.25 C 121.554688 95.957031 121.816406 95.234375 121.410156 94.464844 C 121.167969 94.003906 120.839844 93.550781 120.46875 93.183594 C 119.722656 92.449219 118.886719 91.792969 118.136719 91.066406 C 117.371094 90.324219 116.601562 89.582031 115.957031 88.738281 C 115.558594 88.226562 115.300781 87.558594 115.164062 86.929688 C 114.90625 85.765625 115.542969 84.792969 116.671875 84.394531 C 117.53125 84.085938 118.421875 84.109375 119.300781 84.300781 C 120.296875 84.511719 121.296875 84.777344 122.296875 85 C 122.882812 85.128906 123.46875 85.246094 124.0625 85.304688 C 124.46875 85.347656 124.898438 85.339844 125.296875 85.246094 C 126.261719 85.007812 126.664062 84.027344 126.183594 83.164062 C 125.878906 82.625 125.414062 82.277344 124.839844 82.132812 C 123.847656 81.875 122.839844 81.6875 121.839844 81.457031 C 120.667969 81.183594 119.460938 80.988281 118.335938 80.578125 C 116.472656 79.910156 115.265625 78.5625 114.714844 76.675781 C 114.242188 75.074219 114.757812 73.597656 116.136719 72.625 C 116.601562 72.289062 117.144531 72.050781 117.679688 71.835938 C 118.144531 71.648438 118.644531 71.546875 119.125 71.402344 C 119.609375 71.257812 120.101562 71.128906 120.566406 70.941406 C 122.175781 70.300781 122.804688 69.25 122.511719 67.773438 C 122.195312 66.1875 120.882812 65.085938 119.316406 65.085938 C 118.496094 65.085938 117.75 65.34375 117.035156 65.710938 C 115.914062 66.28125 115 67.109375 114.15625 68.015625 C 113.792969 68.398438 113.390625 68.757812 112.976562 69.089844 C 112.5 69.457031 112.132812 69.277344 112.070312 68.679688 C 112.019531 68.117188 112.15625 67.578125 112.511719 67.136719 C 113.921875 65.324219 115.65625 63.917969 117.9375 63.363281 C 122.28125 62.3125 124.984375 66.121094 124.433594 69.21875 C 124.191406 70.550781 123.484375 71.566406 122.3125 72.195312 C 121.554688 72.605469 120.710938 72.871094 119.894531 73.167969 C 119.289062 73.382812 118.652344 73.503906 118.050781 73.734375 C 116.480469 74.339844 116.085938 75.457031 116.871094 76.933594 C 117.378906 77.878906 118.136719 78.554688 119.152344 78.863281 C 120.1875 79.167969 121.261719 79.355469 122.3125 79.605469 C 123.441406 79.871094 124.589844 80.089844 125.699219 80.425781 C 126.621094 80.699219 127.320312 81.320312 127.8125 82.15625 C 129.050781 84.257812 127.820312 86.816406 125.390625 87.183594 C 125.054688 87.234375 124.71875 87.234375 124.382812 87.261719 C 124.363281 87.277344 124.363281 87.292969 124.355469 87.3125 Z M 124.355469 87.3125 " fill-opacity="1" fill-rule="nonzero"/></g><g clip-path="url(#cb6bbedfed)"><path fill="#d6536d" d="M 316.785156 58.054688 C 316.304688 58.054688 315.839844 57.800781 315.59375 57.347656 C 313.710938 53.855469 312.367188 49.46875 311.914062 45.316406 C 311.671875 43.089844 311.6875 41.007812 311.960938 39.125 C 312.445312 34.835938 315.464844 29.96875 319.539062 29.785156 C 323.789062 29.675781 327.039062 33.21875 329.9375 36.648438 C 331.484375 38.59375 336.597656 44.097656 338.230469 41.164062 C 338.609375 40.414062 337.390625 37.304688 336.914062 36.214844 C 335.90625 33.707031 335.398438 32.101562 335.367188 29.074219 C 335.421875 27.011719 335.988281 25.132812 337.105469 23.332031 C 337.496094 22.695312 338.332031 22.5 338.96875 22.894531 C 339.601562 23.285156 339.796875 24.121094 339.40625 24.753906 C 337.515625 27.804688 337.964844 30.699219 338.726562 33.371094 C 339.238281 34.957031 340.265625 37 340.703125 38.753906 C 341.148438 40.441406 341.097656 41.652344 340.546875 42.5625 C 339.550781 44.21875 338.199219 44.644531 337.242188 44.710938 C 335.683594 44.796875 334.199219 44.183594 332.402344 42.878906 C 330.953125 41.808594 329.378906 40.246094 327.839844 38.359375 C 324.570312 34.4375 319.675781 29.25 316.105469 35.210938 C 312.839844 40.410156 314.917969 50.558594 317.976562 56.058594 C 318.472656 56.933594 317.785156 58.078125 316.785156 58.054688 Z M 316.785156 58.054688 " fill-opacity="1" fill-rule="nonzero"/></g><g clip-path="url(#db04c2935b)"><path fill="#ffa2b6" d="M 508.242188 145.652344 C 507.914062 145.644531 507.582031 145.664062 507.246094 145.710938 C 505.996094 145.886719 504.980469 146.585938 504.320312 147.355469 C 503.664062 148.128906 503.269531 148.957031 502.90625 149.675781 C 502.546875 150.398438 502.222656 151.011719 501.910156 151.386719 C 501.601562 151.761719 501.398438 151.910156 500.96875 151.984375 C 500.027344 152.144531 498.972656 151.5 497.492188 150.4375 C 496.015625 149.371094 494.136719 147.890625 491.628906 148.234375 C 490.441406 148.398438 489.480469 149.035156 488.816406 149.726562 C 488.152344 150.417969 487.707031 151.164062 487.304688 151.800781 C 486.902344 152.433594 486.539062 152.957031 486.234375 153.246094 C 485.929688 153.53125 485.777344 153.617188 485.394531 153.628906 C 484.734375 153.644531 484.304688 153.433594 483.71875 152.898438 C 483.132812 152.363281 482.507812 151.503906 481.84375 150.558594 C 481.179688 149.617188 480.476562 148.585938 479.476562 147.742188 C 478.480469 146.894531 477.050781 146.273438 475.472656 146.472656 C 473.925781 146.664062 472.71875 147.683594 472.109375 148.773438 C 471.503906 149.867188 471.28125 151.003906 471.054688 152.027344 C 470.828125 153.050781 470.601562 153.964844 470.320312 154.507812 C 470.039062 155.046875 469.894531 155.210938 469.320312 155.324219 C 468.933594 155.402344 468.671875 155.339844 468.203125 155.066406 C 467.738281 154.796875 467.164062 154.292969 466.527344 153.699219 C 465.890625 153.105469 465.191406 152.429688 464.308594 151.871094 C 463.429688 151.3125 462.296875 150.878906 461.03125 150.988281 C 458.460938 151.214844 456.511719 153.015625 455.007812 154.585938 C 453.507812 156.152344 452.492188 157.671875 452.492188 157.671875 C 452.375 157.851562 452.296875 158.042969 452.253906 158.25 C 452.210938 158.460938 452.210938 158.667969 452.253906 158.878906 C 452.292969 159.085938 452.371094 159.28125 452.492188 159.457031 C 452.609375 159.632812 452.757812 159.78125 452.933594 159.898438 C 453.109375 160.019531 453.304688 160.097656 453.511719 160.140625 C 453.71875 160.183594 453.929688 160.183594 454.136719 160.140625 C 454.347656 160.101562 454.539062 160.019531 454.71875 159.902344 C 454.894531 159.785156 455.042969 159.636719 455.160156 159.460938 C 455.160156 159.460938 456.042969 158.148438 457.328125 156.804688 C 458.613281 155.460938 460.332031 154.273438 461.3125 154.1875 C 461.726562 154.152344 462.082031 154.261719 462.589844 154.582031 C 463.101562 154.90625 463.691406 155.445312 464.339844 156.050781 C 464.988281 156.652344 465.691406 157.320312 466.59375 157.84375 C 467.496094 158.367188 468.6875 158.722656 469.941406 158.476562 C 471.46875 158.175781 472.59375 157.09375 473.167969 155.988281 C 473.746094 154.878906 473.964844 153.734375 474.1875 152.71875 C 474.414062 151.703125 474.644531 150.820312 474.917969 150.335938 C 475.1875 149.847656 475.277344 149.730469 475.871094 149.65625 C 476.515625 149.574219 476.851562 149.722656 477.402344 150.1875 C 477.949219 150.652344 478.5625 151.472656 479.21875 152.40625 C 479.878906 153.339844 480.582031 154.382812 481.554688 155.269531 C 482.527344 156.15625 483.886719 156.878906 485.480469 156.835938 C 486.683594 156.804688 487.734375 156.246094 488.4375 155.578125 C 489.144531 154.914062 489.601562 154.167969 490.015625 153.515625 C 490.429688 152.863281 490.796875 152.300781 491.132812 151.953125 C 491.46875 151.601562 491.691406 151.46875 492.066406 151.417969 C 493.03125 151.285156 494.128906 151.96875 495.617188 153.042969 C 497.105469 154.113281 499.011719 155.578125 501.511719 155.148438 C 502.753906 154.933594 503.742188 154.210938 504.386719 153.433594 C 505.03125 152.652344 505.421875 151.828125 505.777344 151.113281 C 506.136719 150.398438 506.460938 149.796875 506.765625 149.4375 C 507.070312 149.082031 507.253906 148.953125 507.6875 148.890625 C 508.710938 148.75 510.980469 149.625 512.792969 150.765625 C 514.601562 151.902344 515.992188 153.109375 515.992188 153.109375 C 516.152344 153.25 516.332031 153.351562 516.535156 153.417969 C 516.738281 153.488281 516.945312 153.515625 517.15625 153.5 C 517.367188 153.484375 517.570312 153.429688 517.761719 153.335938 C 517.953125 153.238281 518.117188 153.113281 518.257812 152.953125 C 518.394531 152.792969 518.5 152.609375 518.566406 152.410156 C 518.636719 152.207031 518.660156 152 518.648438 151.789062 C 518.632812 151.574219 518.578125 151.375 518.484375 151.183594 C 518.386719 150.992188 518.261719 150.828125 518.097656 150.6875 C 518.097656 150.6875 516.550781 149.335938 514.5 148.046875 C 512.703125 146.917969 510.550781 145.691406 508.242188 145.652344 Z M 508.242188 145.652344 " fill-opacity="1" fill-rule="nonzero"/></g><g fill="#423b3b" fill-opacity="1"><g transform="translate(183.802727, 129.692465)"><g><path d="M 10.125 -15.78125 L 10.125 0 L 5.765625 0 L 5.765625 -15.78125 L 0.140625 -15.78125 L 0.140625 -19.71875 L 15.75 -19.71875 L 15.75 -15.78125 Z M 10.125 -15.78125 "/></g></g></g><g fill="#423b3b" fill-opacity="1"><g transform="translate(199.690444, 129.692465)"><g><path d="M 11.75 -6.375 C 11.75 -6.9375 11.613281 -7.457031 11.34375 -7.9375 C 11.070312 -8.425781 10.707031 -8.816406 10.25 -9.109375 C 9.789062 -9.410156 9.273438 -9.5625 8.703125 -9.5625 C 8.117188 -9.5625 7.597656 -9.410156 7.140625 -9.109375 C 6.691406 -8.816406 6.332031 -8.425781 6.0625 -7.9375 C 5.789062 -7.457031 5.65625 -6.9375 5.65625 -6.375 C 5.65625 -5.8125 5.789062 -5.289062 6.0625 -4.8125 C 6.332031 -4.332031 6.691406 -3.941406 7.140625 -3.640625 C 7.597656 -3.335938 8.117188 -3.1875 8.703125 -3.1875 C 9.273438 -3.1875 9.789062 -3.335938 10.25 -3.640625 C 10.707031 -3.941406 11.070312 -4.332031 11.34375 -4.8125 C 11.613281 -5.289062 11.75 -5.8125 11.75 -6.375 Z M 16.09375 -12.765625 L 16.09375 0 L 11.75 0 L 11.75 -1.53125 C 11.320312 -0.875 10.6875 -0.40625 9.84375 -0.125 C 9 0.15625 8.171875 0.296875 7.359375 0.296875 C 6.160156 0.296875 5.078125 -0.0078125 4.109375 -0.625 C 3.148438 -1.25 2.394531 -2.066406 1.84375 -3.078125 C 1.289062 -4.097656 1.015625 -5.195312 1.015625 -6.375 C 1.015625 -7.5625 1.289062 -8.660156 1.84375 -9.671875 C 2.394531 -10.679688 3.148438 -11.5 4.109375 -12.125 C 5.078125 -12.757812 6.160156 -13.078125 7.359375 -13.078125 C 8.171875 -13.078125 8.960938 -12.941406 9.734375 -12.671875 C 10.515625 -12.398438 11.1875 -11.914062 11.75 -11.21875 L 11.75 -12.765625 Z M 16.09375 -12.765625 "/></g></g></g><g fill="#423b3b" fill-opacity="1"><g transform="translate(217.520636, 129.692465)"><g><path d="M 6.09375 -5.65625 L 6.09375 0 L 1.734375 0 L 1.734375 -21.75 L 6.09375 -21.75 L 6.09375 -7.71875 L 10.171875 -12.78125 L 15.578125 -12.78125 L 10.0625 -6.703125 L 16.15625 0 L 10.578125 0 Z M 6.09375 -5.65625 "/></g></g></g><g fill="#423b3b" fill-opacity="1"><g transform="translate(232.799516, 129.692465)"><g><path d="M 5.6875 -7.921875 L 11.390625 -7.921875 C 11.390625 -7.921875 11.363281 -8.039062 11.3125 -8.28125 C 11.269531 -8.519531 11.15625 -8.789062 10.96875 -9.09375 C 10.789062 -9.40625 10.507812 -9.679688 10.125 -9.921875 C 9.738281 -10.171875 9.21875 -10.296875 8.5625 -10.296875 C 7.882812 -10.296875 7.347656 -10.171875 6.953125 -9.921875 C 6.566406 -9.679688 6.28125 -9.40625 6.09375 -9.09375 C 5.914062 -8.789062 5.800781 -8.519531 5.75 -8.28125 C 5.707031 -8.039062 5.6875 -7.921875 5.6875 -7.921875 Z M 15.578125 -6.671875 C 15.578125 -6.535156 15.570312 -6.398438 15.5625 -6.265625 C 15.550781 -6.128906 15.546875 -5.992188 15.546875 -5.859375 L 5.625 -5.859375 C 5.625 -5.378906 5.734375 -4.898438 5.953125 -4.421875 C 6.179688 -3.953125 6.503906 -3.566406 6.921875 -3.265625 C 7.335938 -2.960938 7.820312 -2.8125 8.375 -2.8125 C 9.15625 -2.8125 9.765625 -3.019531 10.203125 -3.4375 C 10.648438 -3.851562 10.882812 -4.289062 10.90625 -4.75 L 15.34375 -4.75 C 14.976562 -3.070312 14.164062 -1.8125 12.90625 -0.96875 C 11.644531 -0.125 10.164062 0.296875 8.46875 0.296875 C 7 0.296875 5.703125 0.0195312 4.578125 -0.53125 C 3.460938 -1.082031 2.585938 -1.851562 1.953125 -2.84375 C 1.328125 -3.84375 1.015625 -5.019531 1.015625 -6.375 C 1.015625 -7.707031 1.335938 -8.875 1.984375 -9.875 C 2.628906 -10.882812 3.515625 -11.671875 4.640625 -12.234375 C 5.765625 -12.796875 7.039062 -13.078125 8.46875 -13.078125 C 9.757812 -13.078125 10.941406 -12.828125 12.015625 -12.328125 C 13.085938 -11.828125 13.945312 -11.101562 14.59375 -10.15625 C 15.25 -9.207031 15.578125 -8.046875 15.578125 -6.671875 Z M 15.578125 -6.671875 "/></g></g></g><g fill="#423b3b" fill-opacity="1"><g transform="translate(249.383046, 129.692465)"><g/></g></g><g fill="#423b3b" fill-opacity="1"><g transform="translate(256.631093, 129.692465)"><g><path d="M 11.75 -6.375 C 11.75 -6.9375 11.613281 -7.457031 11.34375 -7.9375 C 11.070312 -8.425781 10.707031 -8.816406 10.25 -9.109375 C 9.789062 -9.410156 9.273438 -9.5625 8.703125 -9.5625 C 8.117188 -9.5625 7.597656 -9.410156 7.140625 -9.109375 C 6.691406 -8.816406 6.332031 -8.425781 6.0625 -7.9375 C 5.789062 -7.457031 5.65625 -6.9375 5.65625 -6.375 C 5.65625 -5.8125 5.789062 -5.289062 6.0625 -4.8125 C 6.332031 -4.332031 6.691406 -3.941406 7.140625 -3.640625 C 7.597656 -3.335938 8.117188 -3.1875 8.703125 -3.1875 C 9.273438 -3.1875 9.789062 -3.335938 10.25 -3.640625 C 10.707031 -3.941406 11.070312 -4.332031 11.34375 -4.8125 C 11.613281 -5.289062 11.75 -5.8125 11.75 -6.375 Z M 16.09375 -12.765625 L 16.09375 0 L 11.75 0 L 11.75 -1.53125 C 11.320312 -0.875 10.6875 -0.40625 9.84375 -0.125 C 9 0.15625 8.171875 0.296875 7.359375 0.296875 C 6.160156 0.296875 5.078125 -0.0078125 4.109375 -0.625 C 3.148438 -1.25 2.394531 -2.066406 1.84375 -3.078125 C 1.289062 -4.097656 1.015625 -5.195312 1.015625 -6.375 C 1.015625 -7.5625 1.289062 -8.660156 1.84375 -9.671875 C 2.394531 -10.679688 3.148438 -11.5 4.109375 -12.125 C 5.078125 -12.757812 6.160156 -13.078125 7.359375 -13.078125 C 8.171875 -13.078125 8.960938 -12.941406 9.734375 -12.671875 C 10.515625 -12.398438 11.1875 -11.914062 11.75 -11.21875 L 11.75 -12.765625 Z M 16.09375 -12.765625 "/></g></g></g><g fill="#423b3b" fill-opacity="1"><g transform="translate(274.461284, 129.692465)"><g/></g></g><g fill="#423b3b" fill-opacity="1"><g transform="translate(281.709331, 129.692465)"><g><path d="M 6.09375 0 L 1.734375 0 L 1.734375 -21.75 L 6.09375 -21.75 Z M 6.09375 0 "/></g></g></g><g fill="#423b3b" fill-opacity="1"><g transform="translate(289.537215, 129.692465)"><g><path d="M 8.328125 -3.015625 C 9.097656 -3.015625 9.695312 -3.175781 10.125 -3.5 C 10.550781 -3.832031 10.847656 -4.253906 11.015625 -4.765625 C 11.191406 -5.273438 11.28125 -5.800781 11.28125 -6.34375 C 11.28125 -6.882812 11.1875 -7.40625 11 -7.90625 C 10.820312 -8.414062 10.519531 -8.832031 10.09375 -9.15625 C 9.664062 -9.488281 9.078125 -9.65625 8.328125 -9.65625 C 7.566406 -9.65625 6.96875 -9.488281 6.53125 -9.15625 C 6.101562 -8.832031 5.796875 -8.414062 5.609375 -7.90625 C 5.429688 -7.40625 5.34375 -6.882812 5.34375 -6.34375 C 5.34375 -5.800781 5.425781 -5.273438 5.59375 -4.765625 C 5.769531 -4.253906 6.070312 -3.832031 6.5 -3.5 C 6.9375 -3.175781 7.546875 -3.015625 8.328125 -3.015625 Z M 8.328125 -13.046875 C 9.660156 -13.046875 10.875 -12.765625 11.96875 -12.203125 C 13.070312 -11.648438 13.953125 -10.875 14.609375 -9.875 C 15.273438 -8.875 15.609375 -7.707031 15.609375 -6.375 C 15.609375 -5.019531 15.28125 -3.84375 14.625 -2.84375 C 13.976562 -1.851562 13.101562 -1.085938 12 -0.546875 C 10.90625 -0.00390625 9.679688 0.265625 8.328125 0.265625 C 6.972656 0.265625 5.738281 -0.00390625 4.625 -0.546875 C 3.507812 -1.085938 2.628906 -1.851562 1.984375 -2.84375 C 1.335938 -3.84375 1.015625 -5.019531 1.015625 -6.375 C 1.015625 -7.707031 1.34375 -8.875 2 -9.875 C 2.65625 -10.875 3.539062 -11.648438 4.65625 -12.203125 C 5.769531 -12.765625 6.992188 -13.046875 8.328125 -13.046875 Z M 8.328125 -13.046875 "/></g></g></g><g fill="#423b3b" fill-opacity="1"><g transform="translate(306.149733, 129.692465)"><g><path d="M 8.328125 -3.015625 C 9.097656 -3.015625 9.695312 -3.175781 10.125 -3.5 C 10.550781 -3.832031 10.847656 -4.253906 11.015625 -4.765625 C 11.191406 -5.273438 11.28125 -5.800781 11.28125 -6.34375 C 11.28125 -6.882812 11.1875 -7.40625 11 -7.90625 C 10.820312 -8.414062 10.519531 -8.832031 10.09375 -9.15625 C 9.664062 -9.488281 9.078125 -9.65625 8.328125 -9.65625 C 7.566406 -9.65625 6.96875 -9.488281 6.53125 -9.15625 C 6.101562 -8.832031 5.796875 -8.414062 5.609375 -7.90625 C 5.429688 -7.40625 5.34375 -6.882812 5.34375 -6.34375 C 5.34375 -5.800781 5.425781 -5.273438 5.59375 -4.765625 C 5.769531 -4.253906 6.070312 -3.832031 6.5 -3.5 C 6.9375 -3.175781 7.546875 -3.015625 8.328125 -3.015625 Z M 8.328125 -13.046875 C 9.660156 -13.046875 10.875 -12.765625 11.96875 -12.203125 C 13.070312 -11.648438 13.953125 -10.875 14.609375 -9.875 C 15.273438 -8.875 15.609375 -7.707031 15.609375 -6.375 C 15.609375 -5.019531 15.28125 -3.84375 14.625 -2.84375 C 13.976562 -1.851562 13.101562 -1.085938 12 -0.546875 C 10.90625 -0.00390625 9.679688 0.265625 8.328125 0.265625 C 6.972656 0.265625 5.738281 -0.00390625 4.625 -0.546875 C 3.507812 -1.085938 2.628906 -1.851562 1.984375 -2.84375 C 1.335938 -3.84375 1.015625 -5.019531 1.015625 -6.375 C 1.015625 -7.707031 1.34375 -8.875 2 -9.875 C 2.65625 -10.875 3.539062 -11.648438 4.65625 -12.203125 C 5.769531 -12.765625 6.992188 -13.046875 8.328125 -13.046875 Z M 8.328125 -13.046875 "/></g></g></g><g fill="#423b3b" fill-opacity="1"><g transform="translate(322.76225, 129.692465)"><g><path d="M 6.09375 -5.65625 L 6.09375 0 L 1.734375 0 L 1.734375 -21.75 L 6.09375 -21.75 L 6.09375 -7.71875 L 10.171875 -12.78125 L 15.578125 -12.78125 L 10.0625 -6.703125 L 16.15625 0 L 10.578125 0 Z M 6.09375 -5.65625 "/></g></g></g><g fill="#423b3b" fill-opacity="1"><g transform="translate(338.04113, 129.692465)"><g/></g></g><g fill="#423b3b" fill-opacity="1"><g transform="translate(345.289177, 129.692465)"><g><path d="M 11.75 -6.375 C 11.75 -6.9375 11.613281 -7.457031 11.34375 -7.9375 C 11.070312 -8.425781 10.707031 -8.816406 10.25 -9.109375 C 9.789062 -9.410156 9.273438 -9.5625 8.703125 -9.5625 C 8.117188 -9.5625 7.597656 -9.410156 7.140625 -9.109375 C 6.691406 -8.816406 6.332031 -8.425781 6.0625 -7.9375 C 5.789062 -7.457031 5.65625 -6.9375 5.65625 -6.375 C 5.65625 -5.8125 5.789062 -5.289062 6.0625 -4.8125 C 6.332031 -4.332031 6.691406 -3.941406 7.140625 -3.640625 C 7.597656 -3.335938 8.117188 -3.1875 8.703125 -3.1875 C 9.273438 -3.1875 9.789062 -3.335938 10.25 -3.640625 C 10.707031 -3.941406 11.070312 -4.332031 11.34375 -4.8125 C 11.613281 -5.289062 11.75 -5.8125 11.75 -6.375 Z M 16.09375 -12.765625 L 16.09375 0 L 11.75 0 L 11.75 -1.53125 C 11.320312 -0.875 10.6875 -0.40625 9.84375 -0.125 C 9 0.15625 8.171875 0.296875 7.359375 0.296875 C 6.160156 0.296875 5.078125 -0.0078125 4.109375 -0.625 C 3.148438 -1.25 2.394531 -2.066406 1.84375 -3.078125 C 1.289062 -4.097656 1.015625 -5.195312 1.015625 -6.375 C 1.015625 -7.5625 1.289062 -8.660156 1.84375 -9.671875 C 2.394531 -10.679688 3.148438 -11.5 4.109375 -12.125 C 5.078125 -12.757812 6.160156 -13.078125 7.359375 -13.078125 C 8.171875 -13.078125 8.960938 -12.941406 9.734375 -12.671875 C 10.515625 -12.398438 11.1875 -11.914062 11.75 -11.21875 L 11.75 -12.765625 Z M 16.09375 -12.765625 "/></g></g></g><g fill="#423b3b" fill-opacity="1"><g transform="translate(363.119368, 129.692465)"><g><path d="M 7.21875 -9.421875 L 7.21875 0 L 2.90625 0 L 2.90625 -9.421875 L 0.578125 -9.421875 L 0.578125 -12.78125 L 2.90625 -12.78125 L 2.90625 -17.65625 L 7.21875 -17.65625 L 7.21875 -12.78125 L 9.546875 -12.78125 L 9.546875 -9.421875 Z M 7.21875 -9.421875 "/></g></g></g><g fill="#423b3b" fill-opacity="1"><g transform="translate(373.237639, 129.692465)"><g/></g></g><g fill="#423b3b" fill-opacity="1"><g transform="translate(380.485685, 129.692465)"><g><path d="M 14.640625 -6.5 L 14.640625 0 L 10.296875 0 L 10.296875 -7.078125 C 10.296875 -7.691406 10.171875 -8.257812 9.921875 -8.78125 C 9.671875 -9.300781 9.175781 -9.5625 8.4375 -9.5625 C 7.957031 -9.5625 7.535156 -9.382812 7.171875 -9.03125 C 6.816406 -8.675781 6.546875 -8.25 6.359375 -7.75 C 6.179688 -7.257812 6.09375 -6.800781 6.09375 -6.375 L 6.09375 0 L 1.734375 0 L 1.734375 -12.78125 L 6.09375 -12.78125 L 6.09375 -11.21875 C 6.53125 -11.78125 7.050781 -12.226562 7.65625 -12.5625 C 8.257812 -12.90625 8.914062 -13.078125 9.625 -13.078125 C 10.4375 -13.078125 11.191406 -12.894531 11.890625 -12.53125 C 12.585938 -12.175781 13.15625 -11.632812 13.59375 -10.90625 C 14.21875 -11.695312 14.898438 -12.253906 15.640625 -12.578125 C 16.390625 -12.910156 17.265625 -13.078125 18.265625 -13.078125 C 19.390625 -13.078125 20.3125 -12.804688 21.03125 -12.265625 C 21.757812 -11.722656 22.300781 -11 22.65625 -10.09375 C 23.019531 -9.1875 23.203125 -8.179688 23.203125 -7.078125 L 23.203125 0 L 18.84375 0 L 18.84375 -7.078125 C 18.84375 -7.691406 18.71875 -8.257812 18.46875 -8.78125 C 18.21875 -9.300781 17.726562 -9.5625 17 -9.5625 C 16.4375 -9.5625 15.976562 -9.40625 15.625 -9.09375 C 15.28125 -8.789062 15.03125 -8.398438 14.875 -7.921875 C 14.71875 -7.453125 14.640625 -6.976562 14.640625 -6.5 Z M 14.640625 -6.5 "/></g></g></g><g fill="#423b3b" fill-opacity="1"><g transform="translate(404.984074, 129.692465)"><g><path d="M 6.9375 7.25 L 2.40625 7.25 L 5.3125 0 L 4.578125 0 L -0.296875 -12.78125 L 4.09375 -12.78125 L 7.140625 -3.65625 L 10.171875 -12.78125 L 14.59375 -12.78125 L 9.71875 0 Z M 6.9375 7.25 "/></g></g></g><g fill="#423b3b" fill-opacity="1"><g transform="translate(419.277218, 129.692465)"><g/></g></g><g fill="#423b3b" fill-opacity="1"><g transform="translate(426.525265, 129.692465)"><g><path d="M 6.09375 -6.375 C 6.09375 -5.8125 6.226562 -5.289062 6.5 -4.8125 C 6.769531 -4.332031 7.128906 -3.941406 7.578125 -3.640625 C 8.035156 -3.335938 8.554688 -3.1875 9.140625 -3.1875 C 9.710938 -3.1875 10.226562 -3.335938 10.6875 -3.640625 C 11.144531 -3.941406 11.507812 -4.332031 11.78125 -4.8125 C 12.050781 -5.289062 12.1875 -5.8125 12.1875 -6.375 C 12.1875 -6.9375 12.050781 -7.457031 11.78125 -7.9375 C 11.507812 -8.425781 11.144531 -8.816406 10.6875 -9.109375 C 10.226562 -9.410156 9.710938 -9.5625 9.140625 -9.5625 C 8.554688 -9.5625 8.035156 -9.410156 7.578125 -9.109375 C 7.128906 -8.816406 6.769531 -8.425781 6.5 -7.9375 C 6.226562 -7.457031 6.09375 -6.9375 6.09375 -6.375 Z M 6.09375 7.25 L 1.734375 7.25 L 1.734375 -12.78125 L 6.09375 -12.78125 L 6.09375 -11.21875 C 6.65625 -11.914062 7.316406 -12.398438 8.078125 -12.671875 C 8.835938 -12.941406 9.632812 -13.078125 10.46875 -13.078125 C 11.6875 -13.078125 12.773438 -12.757812 13.734375 -12.125 C 14.691406 -11.5 15.441406 -10.679688 15.984375 -9.671875 C 16.535156 -8.660156 16.8125 -7.5625 16.8125 -6.375 C 16.8125 -5.195312 16.535156 -4.097656 15.984375 -3.078125 C 15.441406 -2.066406 14.691406 -1.25 13.734375 -0.625 C 12.773438 -0.0078125 11.6875 0.296875 10.46875 0.296875 C 9.632812 0.296875 8.804688 0.15625 7.984375 -0.125 C 7.160156 -0.40625 6.53125 -0.875 6.09375 -1.53125 Z M 6.09375 7.25 "/></g></g></g><g fill="#423b3b" fill-opacity="1"><g transform="translate(444.355457, 129.692465)"><g><path d="M 8.328125 -3.015625 C 9.097656 -3.015625 9.695312 -3.175781 10.125 -3.5 C 10.550781 -3.832031 10.847656 -4.253906 11.015625 -4.765625 C 11.191406 -5.273438 11.28125 -5.800781 11.28125 -6.34375 C 11.28125 -6.882812 11.1875 -7.40625 11 -7.90625 C 10.820312 -8.414062 10.519531 -8.832031 10.09375 -9.15625 C 9.664062 -9.488281 9.078125 -9.65625 8.328125 -9.65625 C 7.566406 -9.65625 6.96875 -9.488281 6.53125 -9.15625 C 6.101562 -8.832031 5.796875 -8.414062 5.609375 -7.90625 C 5.429688 -7.40625 5.34375 -6.882812 5.34375 -6.34375 C 5.34375 -5.800781 5.425781 -5.273438 5.59375 -4.765625 C 5.769531 -4.253906 6.070312 -3.832031 6.5 -3.5 C 6.9375 -3.175781 7.546875 -3.015625 8.328125 -3.015625 Z M 8.328125 -13.046875 C 9.660156 -13.046875 10.875 -12.765625 11.96875 -12.203125 C 13.070312 -11.648438 13.953125 -10.875 14.609375 -9.875 C 15.273438 -8.875 15.609375 -7.707031 15.609375 -6.375 C 15.609375 -5.019531 15.28125 -3.84375 14.625 -2.84375 C 13.976562 -1.851562 13.101562 -1.085938 12 -0.546875 C 10.90625 -0.00390625 9.679688 0.265625 8.328125 0.265625 C 6.972656 0.265625 5.738281 -0.00390625 4.625 -0.546875 C 3.507812 -1.085938 2.628906 -1.851562 1.984375 -2.84375 C 1.335938 -3.84375 1.015625 -5.019531 1.015625 -6.375 C 1.015625 -7.707031 1.34375 -8.875 2 -9.875 C 2.65625 -10.875 3.539062 -11.648438 4.65625 -12.203125 C 5.769531 -12.765625 6.992188 -13.046875 8.328125 -13.046875 Z M 8.328125 -13.046875 "/></g></g></g><g fill="#423b3b" fill-opacity="1"><g transform="translate(460.967974, 129.692465)"><g><path d="M 8.96875 -9.5625 C 8.425781 -9.5625 7.9375 -9.398438 7.5 -9.078125 C 7.0625 -8.765625 6.71875 -8.363281 6.46875 -7.875 C 6.21875 -7.394531 6.09375 -6.894531 6.09375 -6.375 L 6.09375 0 L 1.734375 0 L 1.734375 -12.78125 L 6.09375 -12.78125 L 6.09375 -11.21875 C 6.414062 -11.707031 6.859375 -12.140625 7.421875 -12.515625 C 7.984375 -12.890625 8.660156 -13.078125 9.453125 -13.078125 C 9.648438 -13.078125 9.875 -13.050781 10.125 -13 C 10.375 -12.957031 10.585938 -12.882812 10.765625 -12.78125 L 10.765625 -8.84375 L 10.703125 -8.84375 C 10.484375 -9.113281 10.21875 -9.300781 9.90625 -9.40625 C 9.601562 -9.507812 9.289062 -9.5625 8.96875 -9.5625 Z M 8.96875 -9.5625 "/></g></g></g><g fill="#423b3b" fill-opacity="1"><g transform="translate(472.013994, 129.692465)"><g><path d="M 7.21875 -9.421875 L 7.21875 0 L 2.90625 0 L 2.90625 -9.421875 L 0.578125 -9.421875 L 0.578125 -12.78125 L 2.90625 -12.78125 L 2.90625 -17.65625 L 7.21875 -17.65625 L 7.21875 -12.78125 L 9.546875 -12.78125 L 9.546875 -9.421875 Z M 7.21875 -9.421875 "/></g></g></g><g fill="#423b3b" fill-opacity="1"><g transform="translate(482.132264, 129.692465)"><g><path d="M 6.8125 -21.75 L 10.03125 -21.75 L 10.03125 -18.359375 L 8.171875 -18.359375 C 7.734375 -18.359375 7.4375 -18.222656 7.28125 -17.953125 C 7.125 -17.679688 7.046875 -17.234375 7.046875 -16.609375 L 7.046875 -12.78125 L 10.03125 -12.78125 L 10.03125 -9.421875 L 7.046875 -9.421875 L 7.046875 0 L 2.703125 0 L 2.703125 -9.421875 L 0.875 -9.421875 L 0.875 -12.78125 L 2.703125 -12.78125 L 2.703125 -17.140625 C 2.703125 -18.722656 3.097656 -19.882812 3.890625 -20.625 C 4.679688 -21.375 5.65625 -21.75 6.8125 -21.75 Z M 6.8125 -21.75 "/></g></g></g><g fill="#423b3b" fill-opacity="1"><g transform="translate(492.656411, 129.692465)"><g><path d="M 8.328125 -3.015625 C 9.097656 -3.015625 9.695312 -3.175781 10.125 -3.5 C 10.550781 -3.832031 10.847656 -4.253906 11.015625 -4.765625 C 11.191406 -5.273438 11.28125 -5.800781 11.28125 -6.34375 C 11.28125 -6.882812 11.1875 -7.40625 11 -7.90625 C 10.820312 -8.414062 10.519531 -8.832031 10.09375 -9.15625 C 9.664062 -9.488281 9.078125 -9.65625 8.328125 -9.65625 C 7.566406 -9.65625 6.96875 -9.488281 6.53125 -9.15625 C 6.101562 -8.832031 5.796875 -8.414062 5.609375 -7.90625 C 5.429688 -7.40625 5.34375 -6.882812 5.34375 -6.34375 C 5.34375 -5.800781 5.425781 -5.273438 5.59375 -4.765625 C 5.769531 -4.253906 6.070312 -3.832031 6.5 -3.5 C 6.9375 -3.175781 7.546875 -3.015625 8.328125 -3.015625 Z M 8.328125 -13.046875 C 9.660156 -13.046875 10.875 -12.765625 11.96875 -12.203125 C 13.070312 -11.648438 13.953125 -10.875 14.609375 -9.875 C 15.273438 -8.875 15.609375 -7.707031 15.609375 -6.375 C 15.609375 -5.019531 15.28125 -3.84375 14.625 -2.84375 C 13.976562 -1.851562 13.101562 -1.085938 12 -0.546875 C 10.90625 -0.00390625 9.679688 0.265625 8.328125 0.265625 C 6.972656 0.265625 5.738281 -0.00390625 4.625 -0.546875 C 3.507812 -1.085938 2.628906 -1.851562 1.984375 -2.84375 C 1.335938 -3.84375 1.015625 -5.019531 1.015625 -6.375 C 1.015625 -7.707031 1.34375 -8.875 2 -9.875 C 2.65625 -10.875 3.539062 -11.648438 4.65625 -12.203125 C 5.769531 -12.765625 6.992188 -13.046875 8.328125 -13.046875 Z M 8.328125 -13.046875 "/></g></g></g><g fill="#423b3b" fill-opacity="1"><g transform="translate(509.268928, 129.692465)"><g><path d="M 6.09375 0 L 1.734375 0 L 1.734375 -21.75 L 6.09375 -21.75 Z M 6.09375 0 "/></g></g></g><g fill="#423b3b" fill-opacity="1"><g transform="translate(517.096824, 129.692465)"><g><path d="M 1.515625 -17.171875 C 1.515625 -17.878906 1.757812 -18.476562 2.25 -18.96875 C 2.738281 -19.46875 3.34375 -19.71875 4.0625 -19.71875 C 4.757812 -19.71875 5.359375 -19.46875 5.859375 -18.96875 C 6.359375 -18.476562 6.609375 -17.878906 6.609375 -17.171875 C 6.609375 -16.472656 6.359375 -15.867188 5.859375 -15.359375 C 5.359375 -14.859375 4.757812 -14.609375 4.0625 -14.609375 C 3.34375 -14.609375 2.738281 -14.859375 2.25 -15.359375 C 1.757812 -15.867188 1.515625 -16.472656 1.515625 -17.171875 Z M 6.234375 0 L 1.890625 0 L 1.890625 -12.78125 L 6.234375 -12.78125 Z M 6.234375 0 "/></g></g></g><g fill="#423b3b" fill-opacity="1"><g transform="translate(525.214622, 129.692465)"><g><path d="M 8.328125 -3.015625 C 9.097656 -3.015625 9.695312 -3.175781 10.125 -3.5 C 10.550781 -3.832031 10.847656 -4.253906 11.015625 -4.765625 C 11.191406 -5.273438 11.28125 -5.800781 11.28125 -6.34375 C 11.28125 -6.882812 11.1875 -7.40625 11 -7.90625 C 10.820312 -8.414062 10.519531 -8.832031 10.09375 -9.15625 C 9.664062 -9.488281 9.078125 -9.65625 8.328125 -9.65625 C 7.566406 -9.65625 6.96875 -9.488281 6.53125 -9.15625 C 6.101562 -8.832031 5.796875 -8.414062 5.609375 -7.90625 C 5.429688 -7.40625 5.34375 -6.882812 5.34375 -6.34375 C 5.34375 -5.800781 5.425781 -5.273438 5.59375 -4.765625 C 5.769531 -4.253906 6.070312 -3.832031 6.5 -3.5 C 6.9375 -3.175781 7.546875 -3.015625 8.328125 -3.015625 Z M 8.328125 -13.046875 C 9.660156 -13.046875 10.875 -12.765625 11.96875 -12.203125 C 13.070312 -11.648438 13.953125 -10.875 14.609375 -9.875 C 15.273438 -8.875 15.609375 -7.707031 15.609375 -6.375 C 15.609375 -5.019531 15.28125 -3.84375 14.625 -2.84375 C 13.976562 -1.851562 13.101562 -1.085938 12 -0.546875 C 10.90625 -0.00390625 9.679688 0.265625 8.328125 0.265625 C 6.972656 0.265625 5.738281 -0.00390625 4.625 -0.546875 C 3.507812 -1.085938 2.628906 -1.851562 1.984375 -2.84375 C 1.335938 -3.84375 1.015625 -5.019531 1.015625 -6.375 C 1.015625 -7.707031 1.34375 -8.875 2 -9.875 C 2.65625 -10.875 3.539062 -11.648438 4.65625 -12.203125 C 5.769531 -12.765625 6.992188 -13.046875 8.328125 -13.046875 Z M 8.328125 -13.046875 "/></g></g></g><g fill="#423b3b" fill-opacity="1"><g transform="translate(541.827139, 129.692465)"><g><path d="M 1.515625 -2.234375 C 1.515625 -2.953125 1.757812 -3.554688 2.25 -4.046875 C 2.738281 -4.535156 3.34375 -4.78125 4.0625 -4.78125 C 4.757812 -4.78125 5.359375 -4.535156 5.859375 -4.046875 C 6.359375 -3.554688 6.609375 -2.953125 6.609375 -2.234375 C 6.609375 -1.535156 6.359375 -0.9375 5.859375 -0.4375 C 5.359375 0.0507812 4.757812 0.296875 4.0625 0.296875 C 3.34375 0.296875 2.738281 0.0507812 2.25 -0.4375 C 1.757812 -0.9375 1.515625 -1.535156 1.515625 -2.234375 Z M 1.515625 -2.234375 "/></g></g></g><g fill="#423b3b" fill-opacity="1"><g transform="translate(549.944936, 129.692465)"><g><path d="M 1.515625 -2.234375 C 1.515625 -2.953125 1.757812 -3.554688 2.25 -4.046875 C 2.738281 -4.535156 3.34375 -4.78125 4.0625 -4.78125 C 4.757812 -4.78125 5.359375 -4.535156 5.859375 -4.046875 C 6.359375 -3.554688 6.609375 -2.953125 6.609375 -2.234375 C 6.609375 -1.535156 6.359375 -0.9375 5.859375 -0.4375 C 5.359375 0.0507812 4.757812 0.296875 4.0625 0.296875 C 3.34375 0.296875 2.738281 0.0507812 2.25 -0.4375 C 1.757812 -0.9375 1.515625 -1.535156 1.515625 -2.234375 Z M 1.515625 -2.234375 "/></g></g></g><g fill="#423b3b" fill-opacity="1"><g transform="translate(558.062734, 129.692465)"><g><path d="M 1.515625 -2.234375 C 1.515625 -2.953125 1.757812 -3.554688 2.25 -4.046875 C 2.738281 -4.535156 3.34375 -4.78125 4.0625 -4.78125 C 4.757812 -4.78125 5.359375 -4.535156 5.859375 -4.046875 C 6.359375 -3.554688 6.609375 -2.953125 6.609375 -2.234375 C 6.609375 -1.535156 6.359375 -0.9375 5.859375 -0.4375 C 5.359375 0.0507812 4.757812 0.296875 4.0625 0.296875 C 3.34375 0.296875 2.738281 0.0507812 2.25 -0.4375 C 1.757812 -0.9375 1.515625 -1.535156 1.515625 -2.234375 Z M 1.515625 -2.234375 "/></g></g></g></svg>