<svg xmlns="http://www.w3.org/2000/svg" xmlns:xlink="http://www.w3.org/1999/xlink" width="1000" zoomAndPan="magnify" viewBox="0 0 750 225" height="300" preserveAspectRatio="xMidYMid meet" version="1.0"><defs><filter x="0%" y="0%" width="100%" height="100%" id="23b832c84b"><feColorMatrix values="0 0 0 0 1 0 0 0 0 1 0 0 0 0 1 0 0 0 1 0" color-interpolation-filters="sRGB"/></filter><g/><mask id="e2aa83e9bd"><g filter="url(#23b832c84b)"><rect x="-75" width="900" fill="#000000" y="-22.5" height="270" fill-opacity="0.41"/></g></mask><clipPath id="f0df536430"><path d="M 1 0.929688 L 225.25 0.929688 L 225.25 35.429688 L 1 35.429688 Z M 1 0.929688 " clip-rule="nonzero"/></clipPath><clipPath id="43ec579da4"><rect x="0" width="226" y="0" height="37"/></clipPath><clipPath id="20d09db43a"><path d="M 9.914062 145.640625 L 81 145.640625 L 81 218.390625 L 9.914062 218.390625 Z M 9.914062 145.640625 " clip-rule="nonzero"/></clipPath><mask id="1b8e562360"><g filter="url(#23b832c84b)"><rect x="-75" width="900" fill="#000000" y="-22.5" height="270" fill-opacity="0.982"/></g></mask><clipPath id="091271e999"><path d="M 1 0.679688 L 71.878906 0.679688 L 71.878906 73.390625 L 1 73.390625 Z M 1 0.679688 " clip-rule="nonzero"/></clipPath><clipPath id="954986ca01"><rect x="0" width="72" y="0" height="74"/></clipPath><clipPath id="9fd7128f46"><path d="M 207.167969 165 L 219 165 L 219 167.125 L 207.167969 167.125 Z M 207.167969 165 " clip-rule="nonzero"/></clipPath><clipPath id="fe9de6cb09"><path d="M 222 164.875 L 234 164.875 L 234 167.125 L 222 167.125 Z M 222 164.875 " clip-rule="nonzero"/></clipPath><clipPath id="813a119377"><path d="M 237 164.875 L 249 164.875 L 249 167.125 L 237 167.125 Z M 237 164.875 " clip-rule="nonzero"/></clipPath><clipPath id="ebc5df08b2"><path d="M 252 164.875 L 265 164.875 L 265 167.125 L 252 167.125 Z M 252 164.875 " clip-rule="nonzero"/></clipPath><clipPath id="10f7908022"><path d="M 267 164.875 L 280 164.875 L 280 167 L 267 167 Z M 267 164.875 " clip-rule="nonzero"/></clipPath><clipPath id="de7a0af9b4"><path d="M 298 165 L 310 165 L 310 167.125 L 298 167.125 Z M 298 165 " clip-rule="nonzero"/></clipPath><clipPath id="ec203f0584"><path d="M 313 165 L 325 165 L 325 167.125 L 313 167.125 Z M 313 165 " clip-rule="nonzero"/></clipPath><clipPath id="0caeca3785"><path d="M 328 165 L 341 165 L 341 167.125 L 328 167.125 Z M 328 165 " clip-rule="nonzero"/></clipPath><clipPath id="4f4dc81b28"><path d="M 343 164.875 L 356 164.875 L 356 167.125 L 343 167.125 Z M 343 164.875 " clip-rule="nonzero"/></clipPath><clipPath id="9a1343dc94"><path d="M 358 165 L 371 165 L 371 167.125 L 358 167.125 Z M 358 165 " clip-rule="nonzero"/></clipPath><clipPath id="af809f51a7"><path d="M 374 165 L 386 165 L 386 167.125 L 374 167.125 Z M 374 165 " clip-rule="nonzero"/></clipPath><clipPath id="9b29083950"><path d="M 389 165 L 401 165 L 401 167.125 L 389 167.125 Z M 389 165 " clip-rule="nonzero"/></clipPath><clipPath id="00eda6c412"><path d="M 404 165 L 417 165 L 417 167.125 L 404 167.125 Z M 404 165 " clip-rule="nonzero"/></clipPath><clipPath id="e27b6b841e"><path d="M 419 164.875 L 432 164.875 L 432 167 L 419 167 Z M 419 164.875 " clip-rule="nonzero"/></clipPath><clipPath id="5bb31fc5f8"><path d="M 450 165 L 462 165 L 462 167.125 L 450 167.125 Z M 450 165 " clip-rule="nonzero"/></clipPath><clipPath id="96aa0ff2b7"><path d="M 434 165 L 447 165 L 447 167.125 L 434 167.125 Z M 434 165 " clip-rule="nonzero"/></clipPath><clipPath id="0f05e1de6e"><path d="M 480 164.875 L 492 164.875 L 492 167 L 480 167 Z M 480 164.875 " clip-rule="nonzero"/></clipPath><clipPath id="eeb02be3df"><path d="M 495 165 L 507.167969 165 L 507.167969 167 L 495 167 Z M 495 165 " clip-rule="nonzero"/></clipPath><clipPath id="190e4f5d4e"><path d="M 621.644531 146 L 641.753906 146 L 641.753906 206.390625 L 621.644531 206.390625 Z M 621.644531 146 " clip-rule="nonzero"/></clipPath></defs><rect x="-75" width="900" fill="#ffffff" y="-22.5" height="270" fill-opacity="1"/><rect x="-75" width="900" fill="#fafafa" y="-22.5" height="270" fill-opacity="1"/><g mask="url(#e2aa83e9bd)"><g transform="matrix(1, 0, 0, 1, 374, 110)"><g clip-path="url(#43ec579da4)"><g clip-path="url(#f0df536430)"><path fill="#efb11d" d="M 15.097656 0.929688 L 211.503906 0.929688 C 212.425781 0.929688 213.34375 1.019531 214.25 1.199219 C 215.152344 1.378906 216.035156 1.648438 216.886719 2 C 217.742188 2.355469 218.550781 2.789062 219.320312 3.300781 C 220.089844 3.816406 220.800781 4.398438 221.453125 5.050781 C 222.105469 5.703125 222.6875 6.414062 223.203125 7.183594 C 223.714844 7.953125 224.148438 8.761719 224.503906 9.617188 C 224.855469 10.46875 225.121094 11.347656 225.304688 12.253906 C 225.484375 13.160156 225.574219 14.078125 225.574219 15 L 225.574219 21.574219 C 225.574219 22.496094 225.484375 23.414062 225.304688 24.316406 C 225.121094 25.222656 224.855469 26.105469 224.503906 26.957031 C 224.148438 27.8125 223.714844 28.621094 223.203125 29.390625 C 222.6875 30.160156 222.105469 30.867188 221.453125 31.523438 C 220.800781 32.175781 220.089844 32.757812 219.320312 33.273438 C 218.550781 33.785156 217.742188 34.21875 216.886719 34.574219 C 216.035156 34.925781 215.152344 35.191406 214.25 35.375 C 213.34375 35.554688 212.425781 35.644531 211.503906 35.644531 L 15.097656 35.644531 C 14.175781 35.644531 13.257812 35.554688 12.351562 35.375 C 11.445312 35.191406 10.566406 34.925781 9.714844 34.574219 C 8.859375 34.21875 8.050781 33.785156 7.28125 33.273438 C 6.511719 32.757812 5.800781 32.175781 5.148438 31.523438 C 4.496094 30.867188 3.914062 30.160156 3.398438 29.390625 C 2.886719 28.621094 2.453125 27.8125 2.097656 26.957031 C 1.746094 26.105469 1.480469 25.222656 1.296875 24.316406 C 1.117188 23.414062 1.027344 22.496094 1.027344 21.574219 L 1.027344 15 C 1.027344 14.078125 1.117188 13.160156 1.296875 12.253906 C 1.480469 11.347656 1.746094 10.46875 2.097656 9.617188 C 2.453125 8.761719 2.886719 7.953125 3.398438 7.183594 C 3.914062 6.414062 4.496094 5.703125 5.148438 5.050781 C 5.800781 4.398438 6.511719 3.816406 7.28125 3.300781 C 8.050781 2.789062 8.859375 2.355469 9.714844 2 C 10.566406 1.648438 11.445312 1.378906 12.351562 1.199219 C 13.257812 1.019531 14.175781 0.929688 15.097656 0.929688 Z M 15.097656 0.929688 " fill-opacity="1" fill-rule="nonzero"/></g></g></g></g><g clip-path="url(#20d09db43a)"><g mask="url(#1b8e562360)"><g transform="matrix(1, 0, 0, 1, 9, 145)"><g clip-path="url(#954986ca01)"><g clip-path="url(#091271e999)"><path fill="#d65360" d="M 41.671875 0.742188 C 43.894531 0.640625 45.878906 1.273438 47.617188 2.632812 C 49.238281 4.066406 50.410156 5.808594 51.128906 7.855469 C 51.800781 9.910156 52.464844 11.96875 53.121094 14.027344 C 53.855469 16.207031 54.664062 18.359375 55.539062 20.484375 C 57.25 24.410156 59.375 28.082031 61.914062 31.496094 C 63.285156 33.339844 64.746094 35.113281 66.292969 36.816406 C 66.863281 37.5 67.433594 38.179688 68 38.863281 C 68.425781 39.417969 68.84375 39.976562 69.253906 40.542969 C 70.148438 41.832031 70.839844 43.222656 71.328125 44.722656 C 72.0625 47.429688 71.929688 50.125 70.929688 52.804688 C 70.175781 54.710938 69.199219 56.496094 68 58.152344 C 66.15625 60.585938 64.09375 62.839844 61.8125 64.910156 C 59.371094 67.066406 56.621094 68.738281 53.5625 69.914062 C 51.894531 70.480469 50.183594 70.742188 48.429688 70.699219 C 47.242188 70.667969 46.0625 70.519531 44.886719 70.257812 C 43.847656 70.015625 42.824219 69.730469 41.8125 69.402344 C 40.417969 68.953125 39.023438 68.5 37.632812 68.039062 C 36.058594 67.53125 34.453125 67.203125 32.808594 67.054688 C 32.761719 67.066406 32.714844 67.074219 32.667969 67.085938 C 31.085938 66.902344 29.59375 67.191406 28.1875 67.953125 C 27.742188 68.203125 27.304688 68.46875 26.878906 68.75 C 25.648438 69.683594 24.398438 70.585938 23.121094 71.453125 C 22.195312 72.011719 21.21875 72.464844 20.191406 72.816406 C 18.695312 73.21875 17.179688 73.277344 15.640625 72.988281 C 13.289062 72.417969 11.53125 71.078125 10.363281 68.960938 C 9.773438 67.839844 9.453125 66.644531 9.394531 65.378906 C 9.390625 64.25 9.375 63.121094 9.351562 61.992188 C 9.351562 61.472656 9.328125 60.953125 9.28125 60.429688 C 9.003906 59.175781 8.652344 57.941406 8.230469 56.730469 C 6.605469 52.726562 5.066406 48.6875 3.621094 44.609375 C 3.15625 43.269531 2.710938 41.925781 2.285156 40.570312 C 1.816406 39 1.457031 37.410156 1.203125 35.792969 C 0.917969 33.839844 0.9375 31.878906 1.257812 29.902344 C 2.046875 25.796875 4.382812 22.984375 8.273438 21.46875 C 8.890625 21.230469 9.519531 21.015625 10.148438 20.8125 C 11.597656 20.40625 13.050781 20.007812 14.503906 19.617188 C 17.386719 18.804688 19.902344 17.363281 22.042969 15.292969 C 22.707031 14.644531 23.359375 13.976562 23.992188 13.289062 C 25.15625 11.914062 26.339844 10.558594 27.546875 9.21875 C 29.554688 7.125 31.742188 5.25 34.105469 3.601562 C 35.527344 2.667969 37.039062 1.90625 38.640625 1.3125 C 39.628906 0.980469 40.636719 0.789062 41.671875 0.742188 Z M 42.042969 2.703125 C 44.300781 2.84375 46.113281 3.8125 47.488281 5.605469 C 48.28125 6.625 48.898438 7.742188 49.339844 8.964844 C 50.066406 11.230469 50.824219 13.496094 51.613281 15.761719 C 52.535156 18.410156 53.589844 20.996094 54.773438 23.53125 C 56.210938 26.464844 57.878906 29.253906 59.777344 31.894531 C 60.449219 32.800781 61.132812 33.703125 61.828125 34.597656 C 63.351562 36.414062 64.867188 38.242188 66.363281 40.085938 C 67.046875 40.957031 67.667969 41.867188 68.226562 42.816406 C 69.9375 45.949219 70.175781 49.191406 68.941406 52.546875 C 68.089844 54.710938 66.945312 56.691406 65.496094 58.492188 C 63.882812 60.46875 62.113281 62.292969 60.191406 63.96875 C 58.035156 65.789062 55.625 67.203125 52.964844 68.207031 C 51.96875 68.550781 50.945312 68.75 49.894531 68.804688 C 48.0625 68.941406 46.261719 68.773438 44.488281 68.292969 C 42.21875 67.621094 39.960938 66.910156 37.71875 66.160156 C 35.632812 65.5 33.5 65.183594 31.316406 65.207031 C 29.933594 65.285156 28.636719 65.652344 27.417969 66.300781 C 26.882812 66.59375 26.359375 66.90625 25.855469 67.242188 C 24.625 68.175781 23.375 69.078125 22.097656 69.945312 C 21.167969 70.519531 20.171875 70.945312 19.109375 71.222656 C 18.125 71.402344 17.140625 71.414062 16.152344 71.253906 C 14.554688 70.90625 13.289062 70.066406 12.355469 68.734375 C 11.804688 67.957031 11.453125 67.09375 11.300781 66.144531 C 11.246094 65.773438 11.203125 65.398438 11.175781 65.023438 C 11.175781 64.148438 11.183594 63.304688 11.203125 62.492188 C 11.175781 61.527344 11.113281 60.566406 11.019531 59.601562 C 10.816406 59.015625 10.65625 58.421875 10.535156 57.808594 C 9.96875 56.128906 9.324219 54.480469 8.597656 52.859375 C 7.289062 49.472656 6.019531 46.066406 4.789062 42.648438 C 4.210938 40.972656 3.707031 39.277344 3.28125 37.554688 C 2.761719 35.4375 2.609375 33.292969 2.824219 31.125 C 3.023438 29.410156 3.589844 27.835938 4.53125 26.402344 C 5.613281 24.988281 6.984375 23.953125 8.640625 23.289062 C 9.597656 22.898438 10.574219 22.566406 11.574219 22.292969 C 12.921875 21.941406 14.269531 21.570312 15.613281 21.183594 C 18.207031 20.375 20.507812 19.074219 22.523438 17.285156 C 23.539062 16.296875 24.53125 15.277344 25.5 14.226562 C 26.375 13.1875 27.253906 12.152344 28.144531 11.125 C 30.054688 9.027344 32.152344 7.152344 34.445312 5.507812 C 35.765625 4.609375 37.167969 3.863281 38.65625 3.261719 C 39.761719 2.875 40.890625 2.691406 42.042969 2.703125 Z M 42.042969 2.703125 " fill-opacity="1" fill-rule="evenodd"/></g></g></g></g></g><g clip-path="url(#9fd7128f46)"><path fill="#d65360" d="M 207.28125 166.109375 C 207.15625 166.089844 207.230469 166.214844 207.261719 166.332031 C 207.324219 166.121094 207.226562 165.886719 207.472656 165.820312 C 207.507812 165.910156 207.699219 165.859375 207.898438 165.839844 C 207.988281 165.765625 207.839844 165.800781 207.859375 165.679688 C 207.988281 165.589844 208.160156 165.707031 208.292969 165.566406 C 208.496094 165.617188 208.765625 165.484375 209.101562 165.5 C 209.003906 165.421875 208.933594 165.511719 208.917969 165.367188 C 209.605469 165.378906 210.328125 165.40625 211.1875 165.328125 C 211.167969 165.417969 211.253906 165.472656 211.449219 165.453125 C 211.441406 165.46875 211.542969 165.351562 211.734375 165.40625 C 211.839844 165.332031 212.042969 165.40625 212.09375 165.34375 C 212.605469 165.40625 212.980469 165.253906 213.449219 165.222656 C 213.558594 165.261719 213.765625 165.273438 214.054688 165.335938 C 213.976562 165.253906 214.011719 165.296875 214.113281 165.191406 C 214.050781 165.265625 214.082031 165.160156 214.1875 165.046875 C 214.105469 165.160156 214.136719 165.292969 214.046875 165.15625 C 214.246094 165.320312 214.390625 165.210938 214.621094 165.371094 C 214.632812 165.285156 214.769531 165.390625 214.917969 165.5 C 215.289062 165.414062 215.664062 165.472656 215.902344 165.394531 C 216.234375 165.378906 216.480469 165.25 216.636719 165.246094 C 217.066406 165.277344 217.40625 165.328125 217.75 165.371094 C 217.847656 165.179688 217.972656 165.035156 218.015625 165.074219 C 218.21875 165.054688 218.320312 165.304688 218.464844 165.085938 C 218.574219 165.320312 218.574219 165.394531 218.753906 165.316406 C 218.71875 165.703125 218.589844 165.640625 218.488281 165.640625 C 218.488281 166 218.4375 166.136719 218.503906 166.207031 C 218.144531 166.324219 217.949219 166.414062 217.707031 166.507812 C 217.550781 166.660156 217.5 166.644531 217.332031 166.5 C 217.257812 166.601562 217.21875 166.691406 217.128906 166.867188 C 217 166.730469 216.816406 166.585938 216.527344 166.457031 C 216.5625 166.609375 216.464844 166.707031 216.386719 166.808594 C 216.316406 166.742188 216.261719 166.675781 216.332031 166.84375 C 216.175781 166.703125 216.15625 166.800781 216.21875 166.835938 C 216.046875 166.8125 215.96875 166.734375 215.953125 166.761719 C 215.804688 166.773438 215.714844 166.875 215.546875 166.714844 C 215.445312 166.902344 215.265625 166.785156 214.972656 166.78125 C 214.6875 166.753906 214.273438 166.800781 214.015625 166.777344 C 213.230469 166.742188 212.574219 166.878906 211.816406 166.8125 C 211.742188 166.96875 211.523438 166.898438 211.140625 166.78125 C 210.832031 167.039062 210.261719 166.890625 209.613281 167.078125 C 209.066406 166.980469 208.359375 166.824219 207.679688 166.578125 C 207.503906 166.5 207.304688 166.546875 207.28125 166.109375 " fill-opacity="1" fill-rule="evenodd"/></g><g clip-path="url(#fe9de6cb09)"><path fill="#d65360" d="M 222.316406 166.363281 C 222.335938 166.089844 222.410156 166.214844 222.46875 166.117188 C 222.503906 166.121094 222.410156 165.886719 222.636719 165.972656 C 222.691406 165.910156 222.882812 165.859375 222.957031 165.890625 C 223.167969 165.765625 223.023438 165.800781 223.15625 165.566406 C 223.167969 165.589844 223.339844 165.707031 223.554688 165.511719 C 223.675781 165.617188 223.949219 165.484375 224.242188 165.675781 C 224.183594 165.421875 224.113281 165.511719 223.929688 165.570312 C 224.785156 165.378906 225.507812 165.40625 226.132812 165.34375 C 226.347656 165.417969 226.4375 165.472656 226.652344 165.402344 C 226.625 165.46875 226.722656 165.351562 226.929688 165.3125 C 227.019531 165.332031 227.222656 165.40625 227.539062 165.457031 C 227.785156 165.40625 228.160156 165.253906 228.367188 165.347656 C 228.742188 165.261719 228.949219 165.273438 229.121094 165.09375 C 229.15625 165.253906 229.195312 165.296875 229.066406 165.261719 C 229.234375 165.265625 229.261719 165.160156 229.175781 164.996094 C 229.289062 165.160156 229.320312 165.292969 229.488281 165.355469 C 229.425781 165.320312 229.574219 165.210938 229.542969 165.140625 C 229.8125 165.285156 229.953125 165.390625 230.109375 165.375 C 230.472656 165.414062 230.84375 165.472656 231.210938 165.316406 C 231.417969 165.378906 231.664062 165.25 231.804688 165.152344 C 232.25 165.277344 232.589844 165.328125 232.972656 165.222656 C 233.027344 165.179688 233.152344 165.035156 233.332031 165.011719 C 233.398438 165.054688 233.5 165.304688 233.785156 165.089844 C 233.753906 165.320312 233.757812 165.394531 233.910156 165.175781 C 233.902344 165.703125 233.773438 165.640625 233.609375 165.734375 C 233.667969 166 233.617188 166.136719 233.421875 166.375 C 233.324219 166.324219 233.132812 166.414062 232.988281 166.503906 C 232.734375 166.660156 232.679688 166.644531 232.621094 166.664062 C 232.4375 166.601562 232.398438 166.691406 232.359375 166.707031 C 232.179688 166.730469 232 166.585938 231.855469 166.769531 C 231.742188 166.609375 231.644531 166.707031 231.527344 166.730469 C 231.5 166.742188 231.441406 166.675781 231.480469 166.796875 C 231.359375 166.703125 231.335938 166.800781 231.472656 166.65625 C 231.226562 166.8125 231.148438 166.734375 230.980469 166.648438 C 230.984375 166.773438 230.894531 166.875 230.757812 166.820312 C 230.628906 166.902344 230.445312 166.785156 230.203125 166.792969 C 229.871094 166.753906 229.457031 166.800781 229.054688 166.917969 C 228.414062 166.742188 227.757812 166.878906 227.117188 166.886719 C 226.921875 166.96875 226.703125 166.898438 226.339844 166.988281 C 226.011719 167.039062 225.441406 166.890625 225.050781 167.019531 C 224.25 166.980469 223.539062 166.824219 222.925781 166.609375 C 222.6875 166.5 222.484375 166.546875 222.316406 166.363281 " fill-opacity="1" fill-rule="evenodd"/></g><g clip-path="url(#813a119377)"><path fill="#d65360" d="M 237.363281 166.183594 C 237.519531 166.089844 237.59375 166.214844 237.78125 166.082031 C 237.683594 166.121094 237.589844 165.886719 237.695312 165.964844 C 237.871094 165.910156 238.0625 165.859375 238.121094 165.828125 C 238.351562 165.765625 238.203125 165.800781 238.21875 165.769531 C 238.351562 165.589844 238.519531 165.707031 238.703125 165.730469 C 238.855469 165.617188 239.128906 165.484375 239.390625 165.640625 C 239.367188 165.421875 239.292969 165.511719 239.160156 165.507812 C 239.96875 165.378906 240.691406 165.40625 241.40625 165.378906 C 241.527344 165.417969 241.617188 165.472656 241.714844 165.464844 C 241.804688 165.46875 241.902344 165.351562 242.171875 165.480469 C 242.203125 165.332031 242.402344 165.40625 242.59375 165.527344 C 242.96875 165.40625 243.339844 165.253906 243.542969 165.328125 C 243.921875 165.261719 244.128906 165.273438 244.40625 165.144531 C 244.339844 165.253906 244.375 165.296875 244.386719 165.253906 C 244.414062 165.265625 244.441406 165.160156 244.402344 165.152344 C 244.46875 165.160156 244.5 165.292969 244.503906 165.355469 C 244.609375 165.320312 244.753906 165.210938 244.960938 165.199219 C 244.992188 165.285156 245.132812 165.390625 245.207031 165.40625 C 245.652344 165.414062 246.027344 165.472656 246.351562 165.46875 C 246.597656 165.378906 246.84375 165.25 247.125 165.429688 C 247.429688 165.277344 247.769531 165.328125 248.113281 165.273438 C 248.210938 165.179688 248.332031 165.035156 248.597656 164.945312 C 248.582031 165.054688 248.683594 165.304688 248.8125 164.96875 C 248.933594 165.320312 248.9375 165.394531 248.929688 165.25 C 249.082031 165.703125 248.953125 165.640625 248.882812 165.878906 C 248.851562 166 248.796875 166.136719 248.6875 166.375 C 248.507812 166.324219 248.3125 166.414062 247.984375 166.597656 C 247.914062 166.660156 247.859375 166.644531 247.683594 166.6875 C 247.621094 166.601562 247.582031 166.691406 247.390625 166.691406 C 247.359375 166.730469 247.179688 166.585938 247.058594 166.488281 C 246.925781 166.609375 246.828125 166.707031 246.886719 166.570312 C 246.679688 166.742188 246.621094 166.675781 246.667969 166.757812 C 246.539062 166.703125 246.515625 166.800781 246.628906 166.804688 C 246.410156 166.8125 246.332031 166.734375 246.34375 166.671875 C 246.167969 166.773438 246.074219 166.875 246.074219 166.742188 C 245.808594 166.902344 245.628906 166.785156 245.355469 166.652344 C 245.050781 166.753906 244.636719 166.800781 244.234375 166.792969 C 243.59375 166.742188 242.9375 166.878906 242.476562 167.046875 C 242.101562 166.96875 241.882812 166.898438 241.699219 166.871094 C 241.195312 167.039062 240.625 166.890625 239.960938 167.089844 C 239.429688 166.980469 238.71875 166.824219 238.097656 166.757812 C 237.867188 166.5 237.667969 166.546875 237.363281 166.183594 " fill-opacity="1" fill-rule="evenodd"/></g><g clip-path="url(#ebc5df08b2)"><path fill="#d65360" d="M 252.652344 166.328125 C 252.699219 166.089844 252.773438 166.214844 252.789062 166.257812 C 252.867188 166.121094 252.773438 165.886719 252.917969 165.871094 C 253.050781 165.910156 253.246094 165.859375 253.597656 165.867188 C 253.53125 165.765625 253.382812 165.800781 253.441406 165.546875 C 253.53125 165.589844 253.703125 165.707031 253.839844 165.558594 C 254.039062 165.617188 254.3125 165.484375 254.445312 165.714844 C 254.546875 165.421875 254.476562 165.511719 254.292969 165.34375 C 255.148438 165.378906 255.871094 165.40625 256.726562 165.53125 C 256.710938 165.417969 256.796875 165.472656 256.742188 165.5 C 256.984375 165.46875 257.085938 165.351562 257.320312 165.222656 C 257.382812 165.332031 257.585938 165.40625 257.871094 165.296875 C 258.148438 165.40625 258.523438 165.253906 258.882812 165.136719 C 259.101562 165.261719 259.308594 165.273438 259.378906 165.421875 C 259.519531 165.253906 259.554688 165.296875 259.632812 165.300781 C 259.59375 165.265625 259.621094 165.160156 259.753906 165.128906 C 259.652344 165.160156 259.683594 165.292969 259.574219 165.335938 C 259.789062 165.320312 259.9375 165.210938 260.140625 165.351562 C 260.175781 165.285156 260.3125 165.390625 260.507812 165.496094 C 260.835938 165.414062 261.207031 165.472656 261.667969 165.441406 C 261.777344 165.378906 262.023438 165.25 262.296875 165.179688 C 262.613281 165.277344 262.949219 165.328125 263.242188 165.070312 C 263.390625 165.179688 263.515625 165.035156 263.566406 164.882812 C 263.761719 165.054688 263.863281 165.304688 264.171875 165.035156 C 264.117188 165.320312 264.117188 165.394531 264.300781 165.285156 C 264.261719 165.703125 264.132812 165.640625 264.160156 165.777344 C 264.03125 166 263.980469 166.136719 263.867188 166.15625 C 263.6875 166.324219 263.492188 166.414062 263.1875 166.683594 C 263.09375 166.660156 263.042969 166.644531 262.976562 166.726562 C 262.800781 166.601562 262.761719 166.691406 262.78125 166.789062 C 262.542969 166.730469 262.363281 166.585938 262.316406 166.699219 C 262.105469 166.609375 262.007812 166.707031 262.054688 166.683594 C 261.859375 166.742188 261.804688 166.675781 261.691406 166.679688 C 261.71875 166.703125 261.695312 166.800781 261.527344 166.886719 C 261.589844 166.8125 261.511719 166.734375 261.488281 166.734375 C 261.347656 166.773438 261.257812 166.875 261.234375 166.933594 C 260.992188 166.902344 260.808594 166.785156 260.632812 166.609375 C 260.234375 166.753906 259.816406 166.800781 259.53125 166.746094 C 258.773438 166.742188 258.121094 166.878906 257.414062 167.058594 C 257.285156 166.96875 257.066406 166.898438 256.730469 166.949219 C 256.375 167.039062 255.804688 166.890625 255.191406 166.871094 C 254.609375 166.980469 253.902344 166.824219 253.171875 166.730469 C 253.046875 166.5 252.847656 166.546875 252.652344 166.328125 " fill-opacity="1" fill-rule="evenodd"/></g><g clip-path="url(#10f7908022)"><path fill="#d65360" d="M 267.878906 166.09375 C 267.878906 166.089844 267.953125 166.214844 268.144531 166.285156 C 268.046875 166.121094 267.953125 165.886719 268.082031 166.015625 C 268.234375 165.910156 268.425781 165.859375 268.484375 165.734375 C 268.710938 165.765625 268.566406 165.800781 268.734375 165.636719 C 268.710938 165.589844 268.882812 165.707031 269.105469 165.746094 C 269.21875 165.617188 269.492188 165.484375 269.859375 165.640625 C 269.730469 165.421875 269.65625 165.511719 269.730469 165.460938 C 270.328125 165.378906 271.054688 165.40625 271.902344 165.535156 C 271.890625 165.417969 271.980469 165.472656 272.195312 165.589844 C 272.167969 165.46875 272.265625 165.351562 272.4375 165.195312 C 272.5625 165.332031 272.765625 165.40625 272.878906 165.246094 C 273.332031 165.40625 273.703125 165.253906 274.042969 165.316406 C 274.285156 165.261719 274.492188 165.273438 274.753906 165.425781 C 274.699219 165.253906 274.738281 165.296875 274.792969 165.15625 C 274.777344 165.265625 274.804688 165.160156 274.945312 164.992188 C 274.832031 165.160156 274.863281 165.292969 274.894531 165.425781 C 274.96875 165.320312 275.117188 165.210938 275.296875 165.257812 C 275.355469 165.285156 275.492188 165.390625 275.714844 165.359375 C 276.015625 165.414062 276.390625 165.472656 276.546875 165.269531 C 276.960938 165.378906 277.207031 165.25 277.339844 165.136719 C 277.792969 165.277344 278.132812 165.328125 278.445312 165.277344 C 278.574219 165.179688 278.695312 165.035156 278.832031 165.09375 C 278.945312 165.054688 279.042969 165.304688 279.253906 165.085938 C 279.296875 165.320312 279.300781 165.394531 279.5625 165.238281 C 279.445312 165.703125 279.316406 165.640625 279.417969 165.917969 C 279.214844 166 279.160156 166.136719 279.058594 166.40625 C 278.871094 166.324219 278.675781 166.414062 278.378906 166.667969 C 278.277344 166.660156 278.222656 166.644531 277.871094 166.511719 C 277.980469 166.601562 277.945312 166.691406 277.847656 166.628906 C 277.722656 166.730469 277.542969 166.585938 277.542969 166.4375 C 277.289062 166.609375 277.191406 166.707031 277.128906 166.796875 C 277.042969 166.742188 276.984375 166.675781 276.820312 166.582031 C 276.902344 166.703125 276.878906 166.800781 276.96875 166.957031 C 276.769531 166.8125 276.695312 166.734375 276.667969 166.800781 C 276.527344 166.773438 276.4375 166.875 276.285156 166.910156 C 276.171875 166.902344 275.988281 166.785156 275.824219 166.6875 C 275.414062 166.753906 274.996094 166.800781 274.742188 166.65625 C 273.953125 166.742188 273.300781 166.878906 272.671875 166.820312 C 272.464844 166.96875 272.246094 166.898438 271.996094 166.875 C 271.558594 167.039062 270.988281 166.890625 270.429688 166.804688 C 269.789062 166.980469 269.082031 166.824219 268.5 166.632812 C 268.226562 166.5 268.03125 166.546875 267.878906 166.09375 " fill-opacity="1" fill-rule="evenodd"/></g><path fill="#d65360" d="M 282.886719 166.359375 C 283.0625 166.089844 283.136719 166.214844 283.273438 166.128906 C 283.230469 166.121094 283.136719 165.886719 283.167969 165.863281 C 283.414062 165.910156 283.609375 165.859375 283.664062 165.929688 C 283.894531 165.765625 283.746094 165.800781 283.722656 165.730469 C 283.894531 165.589844 284.066406 165.707031 284.152344 165.8125 C 284.402344 165.617188 284.671875 165.484375 284.984375 165.628906 C 284.910156 165.421875 284.839844 165.511719 284.789062 165.476562 C 285.511719 165.378906 286.234375 165.40625 286.925781 165.304688 C 287.074219 165.417969 287.160156 165.472656 287.097656 165.625 C 287.347656 165.46875 287.449219 165.351562 287.589844 165.28125 C 287.742188 165.332031 287.945312 165.40625 288.136719 165.492188 C 288.511719 165.40625 288.886719 165.253906 289.105469 165.300781 C 289.464844 165.261719 289.671875 165.273438 289.867188 165.117188 C 289.882812 165.253906 289.917969 165.296875 289.839844 165.195312 C 289.957031 165.265625 289.984375 165.160156 290.125 165.191406 C 290.011719 165.160156 290.042969 165.292969 290.042969 165.332031 C 290.152344 165.320312 290.296875 165.210938 290.5 165.382812 C 290.535156 165.285156 290.675781 165.390625 291.03125 165.324219 C 291.199219 165.414062 291.570312 165.472656 291.894531 165.5625 C 292.140625 165.378906 292.386719 165.25 292.605469 165.277344 C 292.976562 165.277344 293.3125 165.328125 293.679688 165.164062 C 293.753906 165.179688 293.878906 165.035156 294.035156 165.179688 C 294.125 165.054688 294.226562 165.304688 294.261719 165.140625 C 294.476562 165.320312 294.480469 165.394531 294.738281 165.148438 C 294.625 165.703125 294.496094 165.640625 294.523438 165.765625 C 294.394531 166 294.34375 166.136719 294.359375 166.347656 C 294.050781 166.324219 293.855469 166.414062 293.632812 166.582031 C 293.457031 166.660156 293.40625 166.644531 293.179688 166.496094 C 293.164062 166.601562 293.125 166.691406 293.140625 166.8125 C 292.902344 166.730469 292.722656 166.585938 292.527344 166.433594 C 292.46875 166.609375 292.371094 166.707031 292.378906 166.6875 C 292.222656 166.742188 292.164062 166.675781 292.066406 166.816406 C 292.082031 166.703125 292.058594 166.800781 292.105469 166.707031 C 291.953125 166.8125 291.875 166.734375 291.679688 166.613281 C 291.710938 166.773438 291.621094 166.875 291.660156 166.910156 C 291.351562 166.902344 291.171875 166.785156 291.078125 166.847656 C 290.59375 166.753906 290.179688 166.800781 289.667969 166.90625 C 289.136719 166.742188 288.480469 166.878906 287.992188 166.835938 C 287.644531 166.96875 287.429688 166.898438 287.148438 166.851562 C 286.738281 167.039062 286.167969 166.890625 285.585938 166.984375 C 284.972656 166.980469 284.265625 166.824219 283.730469 166.445312 C 283.410156 166.5 283.210938 166.546875 282.886719 166.359375 " fill-opacity="1" fill-rule="evenodd"/><g clip-path="url(#de7a0af9b4)"><path fill="#d65360" d="M 298.109375 166.378906 C 298.242188 166.089844 298.316406 166.214844 298.429688 166.066406 C 298.410156 166.121094 298.316406 165.886719 298.554688 166.007812 C 298.597656 165.910156 298.789062 165.859375 299.160156 165.820312 C 299.074219 165.765625 298.925781 165.800781 299.101562 165.773438 C 299.074219 165.589844 299.246094 165.707031 299.453125 165.773438 C 299.582031 165.617188 299.855469 165.484375 300.078125 165.605469 C 300.089844 165.421875 300.019531 165.511719 299.832031 165.507812 C 300.691406 165.378906 301.414062 165.40625 302.21875 165.421875 C 302.253906 165.417969 302.339844 165.472656 302.429688 165.535156 C 302.53125 165.46875 302.628906 165.351562 302.570312 165.308594 C 302.925781 165.332031 303.128906 165.40625 303.1875 165.285156 C 303.691406 165.40625 304.066406 165.253906 304.492188 165.238281 C 304.644531 165.261719 304.855469 165.273438 305.039062 165.140625 C 305.0625 165.253906 305.101562 165.296875 305 165.304688 C 305.136719 165.265625 305.167969 165.160156 305.320312 165.097656 C 305.191406 165.160156 305.226562 165.292969 305.277344 165.257812 C 305.332031 165.320312 305.480469 165.210938 305.441406 165.296875 C 305.71875 165.285156 305.855469 165.390625 305.933594 165.25 C 306.378906 165.414062 306.75 165.472656 306.992188 165.476562 C 307.324219 165.378906 307.570312 165.25 307.765625 165.34375 C 308.15625 165.277344 308.496094 165.328125 308.984375 165.183594 C 308.9375 165.179688 309.058594 165.035156 309.316406 165.152344 C 309.304688 165.054688 309.40625 165.304688 309.636719 165.082031 C 309.660156 165.320312 309.664062 165.394531 309.78125 165.304688 C 309.808594 165.703125 309.679688 165.640625 309.640625 165.683594 C 309.574219 166 309.523438 166.136719 309.578125 166.441406 C 309.230469 166.324219 309.035156 166.414062 308.882812 166.664062 C 308.640625 166.660156 308.585938 166.644531 308.398438 166.539062 C 308.34375 166.601562 308.304688 166.691406 308.324219 166.605469 C 308.085938 166.730469 307.90625 166.585938 307.648438 166.457031 C 307.648438 166.609375 307.550781 166.707031 307.367188 166.808594 C 307.40625 166.742188 307.347656 166.675781 307.324219 166.65625 C 307.261719 166.703125 307.242188 166.800781 307.332031 166.859375 C 307.132812 166.8125 307.054688 166.734375 307.019531 166.601562 C 306.890625 166.773438 306.800781 166.875 306.871094 166.835938 C 306.535156 166.902344 306.351562 166.785156 306.316406 166.695312 C 305.777344 166.753906 305.359375 166.800781 304.917969 166.738281 C 304.316406 166.742188 303.664062 166.878906 303.011719 167.070312 C 302.828125 166.96875 302.609375 166.898438 302.386719 167.054688 C 301.921875 167.039062 301.351562 166.890625 300.800781 167.070312 C 300.152344 166.980469 299.445312 166.824219 298.972656 166.585938 C 298.589844 166.5 298.390625 166.546875 298.109375 166.378906 " fill-opacity="1" fill-rule="evenodd"/></g><g clip-path="url(#ec203f0584)"><path fill="#d65360" d="M 313.40625 166.316406 C 313.425781 166.089844 313.496094 166.214844 313.371094 166.273438 C 313.59375 166.121094 313.496094 165.886719 313.59375 165.746094 C 313.777344 165.910156 313.96875 165.859375 314.171875 165.855469 C 314.253906 165.765625 314.109375 165.800781 314.074219 165.71875 C 314.257812 165.589844 314.429688 165.707031 314.542969 165.519531 C 314.761719 165.617188 315.035156 165.484375 315.363281 165.679688 C 315.273438 165.421875 315.203125 165.511719 315.144531 165.503906 C 315.871094 165.378906 316.597656 165.40625 317.507812 165.582031 C 317.433594 165.417969 317.523438 165.472656 317.507812 165.542969 C 317.710938 165.46875 317.808594 165.351562 317.917969 165.460938 C 318.105469 165.332031 318.308594 165.40625 318.488281 165.335938 C 318.875 165.40625 319.246094 165.253906 319.539062 165.328125 C 319.828125 165.261719 320.035156 165.273438 320.304688 165.363281 C 320.246094 165.253906 320.28125 165.296875 320.277344 165.363281 C 320.320312 165.265625 320.347656 165.160156 320.214844 165.035156 C 320.375 165.160156 320.40625 165.292969 320.535156 165.210938 C 320.515625 165.320312 320.660156 165.210938 320.824219 165.105469 C 320.898438 165.285156 321.039062 165.390625 321.070312 165.550781 C 321.558594 165.414062 321.933594 165.472656 322.339844 165.320312 C 322.503906 165.378906 322.75 165.25 323 165.25 C 323.335938 165.277344 323.675781 165.328125 323.871094 165.261719 C 324.117188 165.179688 324.242188 165.035156 324.453125 165.121094 C 324.488281 165.054688 324.589844 165.304688 324.808594 165.210938 C 324.839844 165.320312 324.84375 165.394531 324.925781 165.21875 C 324.988281 165.703125 324.859375 165.640625 324.667969 165.941406 C 324.757812 166 324.703125 166.136719 324.785156 166.15625 C 324.414062 166.324219 324.21875 166.414062 323.839844 166.660156 C 323.820312 166.660156 323.769531 166.644531 323.613281 166.550781 C 323.527344 166.601562 323.488281 166.691406 323.453125 166.867188 C 323.265625 166.730469 323.085938 166.585938 322.800781 166.730469 C 322.832031 166.609375 322.734375 166.707031 322.6875 166.800781 C 322.585938 166.742188 322.527344 166.675781 322.542969 166.824219 C 322.445312 166.703125 322.421875 166.800781 322.308594 166.929688 C 322.3125 166.8125 322.238281 166.734375 322.207031 166.582031 C 322.070312 166.773438 321.980469 166.875 321.761719 166.824219 C 321.714844 166.902344 321.53125 166.785156 321.339844 166.898438 C 320.957031 166.753906 320.542969 166.800781 320.132812 166.878906 C 319.5 166.742188 318.84375 166.878906 318.136719 166.847656 C 318.007812 166.96875 317.792969 166.898438 317.507812 166.992188 C 317.101562 167.039062 316.53125 166.890625 315.902344 167.085938 C 315.335938 166.980469 314.625 166.824219 313.910156 166.703125 C 313.773438 166.5 313.574219 166.546875 313.40625 166.316406 " fill-opacity="1" fill-rule="evenodd"/></g><g clip-path="url(#0caeca3785)"><path fill="#d65360" d="M 328.730469 166.378906 C 328.605469 166.089844 328.679688 166.214844 328.863281 166.289062 C 328.773438 166.121094 328.679688 165.886719 328.820312 165.886719 C 328.957031 165.910156 329.148438 165.859375 329.234375 165.828125 C 329.4375 165.765625 329.289062 165.800781 329.464844 165.78125 C 329.4375 165.589844 329.609375 165.707031 329.902344 165.726562 C 329.941406 165.617188 330.21875 165.484375 330.40625 165.542969 C 330.453125 165.421875 330.382812 165.511719 330.464844 165.351562 C 331.054688 165.378906 331.777344 165.40625 332.550781 165.449219 C 332.617188 165.417969 332.703125 165.472656 332.714844 165.609375 C 332.894531 165.46875 332.992188 165.351562 333.15625 165.484375 C 333.289062 165.332031 333.492188 165.40625 333.734375 165.5 C 334.054688 165.40625 334.429688 165.253906 334.722656 165.316406 C 335.007812 165.261719 335.21875 165.273438 335.253906 165.402344 C 335.425781 165.253906 335.464844 165.296875 335.425781 165.425781 C 335.5 165.265625 335.53125 165.160156 335.421875 165.101562 C 335.554688 165.160156 335.589844 165.292969 335.460938 165.347656 C 335.695312 165.320312 335.839844 165.210938 336.0625 165.390625 C 336.082031 165.285156 336.21875 165.390625 336.472656 165.394531 C 336.742188 165.414062 337.113281 165.472656 337.394531 165.253906 C 337.683594 165.378906 337.929688 165.25 338.191406 165.378906 C 338.515625 165.277344 338.855469 165.328125 339.011719 165.375 C 339.296875 165.179688 339.421875 165.035156 339.53125 165 C 339.667969 165.054688 339.769531 165.304688 340.003906 165.253906 C 340.023438 165.320312 340.023438 165.394531 340.125 165.347656 C 340.171875 165.703125 340.039062 165.640625 339.871094 165.664062 C 339.9375 166 339.886719 166.136719 339.703125 166.371094 C 339.59375 166.324219 339.398438 166.414062 339.0625 166.671875 C 339 166.660156 338.949219 166.644531 338.929688 166.742188 C 338.707031 166.601562 338.667969 166.691406 338.550781 166.785156 C 338.445312 166.730469 338.265625 166.585938 337.957031 166.683594 C 338.011719 166.609375 337.914062 166.707031 337.65625 166.609375 C 337.769531 166.742188 337.710938 166.675781 337.804688 166.644531 C 337.625 166.703125 337.601562 166.800781 337.648438 166.722656 C 337.496094 166.8125 337.417969 166.734375 337.234375 166.832031 C 337.253906 166.773438 337.164062 166.875 336.976562 167.054688 C 336.894531 166.902344 336.714844 166.785156 336.628906 166.8125 C 336.136719 166.753906 335.722656 166.800781 335.402344 166.753906 C 334.679688 166.742188 334.023438 166.878906 333.488281 166.933594 C 333.191406 166.96875 332.972656 166.898438 332.824219 166.839844 C 332.28125 167.039062 331.710938 166.890625 331.277344 166.988281 C 330.515625 166.980469 329.808594 166.824219 329.03125 166.492188 C 328.953125 166.5 328.753906 166.546875 328.730469 166.378906 " fill-opacity="1" fill-rule="evenodd"/></g><g clip-path="url(#4f4dc81b28)"><path fill="#d65360" d="M 343.929688 166.269531 C 343.785156 166.089844 343.859375 166.214844 344.007812 166.34375 C 343.953125 166.121094 343.859375 165.886719 343.835938 165.824219 C 344.140625 165.910156 344.332031 165.859375 344.441406 165.792969 C 344.617188 165.765625 344.472656 165.800781 344.507812 165.542969 C 344.621094 165.589844 344.789062 165.707031 344.957031 165.585938 C 345.125 165.617188 345.398438 165.484375 345.707031 165.511719 C 345.636719 165.421875 345.5625 165.511719 345.609375 165.34375 C 346.234375 165.378906 346.960938 165.40625 347.546875 165.550781 C 347.796875 165.417969 347.886719 165.472656 347.863281 165.496094 C 348.074219 165.46875 348.171875 165.351562 348.386719 165.371094 C 348.46875 165.332031 348.671875 165.40625 348.84375 165.574219 C 349.238281 165.40625 349.609375 165.253906 349.851562 165.300781 C 350.191406 165.261719 350.398438 165.273438 350.5 165.351562 C 350.605469 165.253906 350.644531 165.296875 350.828125 165.136719 C 350.683594 165.265625 350.710938 165.160156 350.800781 165.039062 C 350.738281 165.160156 350.769531 165.292969 350.851562 165.421875 C 350.875 165.320312 351.023438 165.210938 351.191406 165.097656 C 351.261719 165.285156 351.402344 165.390625 351.566406 165.433594 C 351.921875 165.414062 352.292969 165.472656 352.453125 165.359375 C 352.867188 165.378906 353.109375 165.25 353.3125 165.164062 C 353.699219 165.277344 354.039062 165.328125 354.21875 165.105469 C 354.480469 165.179688 354.601562 165.035156 354.71875 164.933594 C 354.847656 165.054688 354.953125 165.304688 355.210938 165.203125 C 355.203125 165.320312 355.203125 165.394531 355.394531 165.261719 C 355.351562 165.703125 355.222656 165.640625 355.082031 165.878906 C 355.117188 166 355.066406 166.136719 355.007812 166.210938 C 354.777344 166.324219 354.582031 166.414062 354.464844 166.417969 C 354.183594 166.660156 354.128906 166.644531 353.777344 166.53125 C 353.886719 166.601562 353.847656 166.691406 353.75 166.8125 C 353.628906 166.730469 353.449219 166.585938 353.304688 166.511719 C 353.195312 166.609375 353.09375 166.707031 353.171875 166.71875 C 352.949219 166.742188 352.890625 166.675781 352.683594 166.558594 C 352.804688 166.703125 352.785156 166.800781 352.921875 166.890625 C 352.675781 166.8125 352.597656 166.734375 352.605469 166.617188 C 352.433594 166.773438 352.34375 166.875 352.347656 167.027344 C 352.078125 166.902344 351.894531 166.785156 351.792969 166.945312 C 351.320312 166.753906 350.90625 166.800781 350.632812 166.847656 C 349.863281 166.742188 349.207031 166.878906 348.550781 166.9375 C 348.371094 166.96875 348.152344 166.898438 347.914062 166.929688 C 347.464844 167.039062 346.894531 166.890625 346.441406 166.878906 C 345.699219 166.980469 344.988281 166.824219 344.316406 166.644531 C 344.136719 166.5 343.933594 166.546875 343.929688 166.269531 " fill-opacity="1" fill-rule="evenodd"/></g><g clip-path="url(#9a1343dc94)"><path fill="#d65360" d="M 358.992188 166.074219 C 358.96875 166.089844 359.042969 166.214844 358.9375 166.085938 C 359.136719 166.121094 359.039062 165.886719 359.175781 165.902344 C 359.320312 165.910156 359.511719 165.859375 359.625 165.664062 C 359.796875 165.765625 359.652344 165.800781 359.6875 165.65625 C 359.800781 165.589844 359.972656 165.707031 359.988281 165.746094 C 360.304688 165.617188 360.578125 165.484375 360.789062 165.523438 C 360.816406 165.421875 360.746094 165.511719 360.875 165.617188 C 361.414062 165.378906 362.140625 165.40625 363.0625 165.535156 C 362.976562 165.417969 363.066406 165.472656 363.308594 165.570312 C 363.253906 165.46875 363.355469 165.351562 363.476562 165.25 C 363.652344 165.332031 363.855469 165.40625 363.988281 165.414062 C 364.417969 165.40625 364.792969 165.253906 365.261719 165.089844 C 365.371094 165.261719 365.578125 165.273438 365.71875 165.371094 C 365.789062 165.253906 365.824219 165.296875 365.808594 165.3125 C 365.863281 165.265625 365.894531 165.160156 365.828125 165.164062 C 365.917969 165.160156 365.949219 165.292969 366.101562 165.382812 C 366.058594 165.320312 366.203125 165.210938 366.257812 165.375 C 366.441406 165.285156 366.582031 165.390625 366.628906 165.398438 C 367.101562 165.414062 367.476562 165.472656 367.675781 165.523438 C 368.046875 165.378906 368.292969 165.25 368.539062 165.375 C 368.878906 165.277344 369.21875 165.328125 369.59375 165.050781 C 369.660156 165.179688 369.78125 165.035156 369.871094 165.109375 C 370.03125 165.054688 370.132812 165.304688 370.277344 165.175781 C 370.386719 165.320312 370.386719 165.394531 370.636719 165.363281 C 370.53125 165.703125 370.402344 165.640625 370.234375 165.933594 C 370.300781 166 370.25 166.136719 370.113281 166.304688 C 369.957031 166.324219 369.761719 166.414062 369.527344 166.667969 C 369.363281 166.660156 369.3125 166.644531 369.203125 166.503906 C 369.070312 166.601562 369.03125 166.691406 368.929688 166.691406 C 368.808594 166.730469 368.628906 166.585938 368.328125 166.484375 C 368.375 166.609375 368.277344 166.707031 368.324219 166.785156 C 368.128906 166.742188 368.074219 166.675781 367.976562 166.695312 C 367.988281 166.703125 367.964844 166.800781 367.839844 166.640625 C 367.859375 166.8125 367.78125 166.734375 367.6875 166.859375 C 367.613281 166.773438 367.527344 166.875 367.441406 167.015625 C 367.257812 166.902344 367.078125 166.785156 366.757812 166.703125 C 366.5 166.753906 366.085938 166.800781 365.570312 166.902344 C 365.042969 166.742188 364.386719 166.878906 363.609375 166.996094 C 363.554688 166.96875 363.335938 166.898438 363.074219 167.027344 C 362.644531 167.039062 362.074219 166.890625 361.472656 167.039062 C 360.878906 166.980469 360.171875 166.824219 359.539062 166.636719 C 359.316406 166.5 359.117188 166.546875 358.992188 166.074219 " fill-opacity="1" fill-rule="evenodd"/></g><g clip-path="url(#af809f51a7)"><path fill="#d65360" d="M 374.167969 166.179688 C 374.148438 166.089844 374.222656 166.214844 374.234375 166.085938 C 374.316406 166.121094 374.222656 165.886719 374.203125 165.816406 C 374.503906 165.910156 374.695312 165.859375 374.90625 165.964844 C 374.980469 165.765625 374.835938 165.800781 375.007812 165.765625 C 374.980469 165.589844 375.152344 165.707031 375.277344 165.59375 C 375.488281 165.617188 375.761719 165.484375 375.980469 165.523438 C 375.996094 165.421875 375.925781 165.511719 376.019531 165.472656 C 376.597656 165.378906 377.320312 165.40625 378.234375 165.296875 C 378.160156 165.417969 378.25 165.472656 378.257812 165.4375 C 378.4375 165.46875 378.535156 165.351562 378.566406 165.429688 C 378.832031 165.332031 379.035156 165.40625 379.390625 165.308594 C 379.597656 165.40625 379.972656 165.253906 380.351562 165.242188 C 380.550781 165.261719 380.761719 165.273438 380.855469 165.359375 C 380.96875 165.253906 381.007812 165.296875 380.980469 165.414062 C 381.042969 165.265625 381.074219 165.160156 380.984375 165.1875 C 381.101562 165.160156 381.132812 165.292969 381.101562 165.4375 C 381.238281 165.320312 381.386719 165.210938 381.429688 165.390625 C 381.625 165.285156 381.761719 165.390625 381.964844 165.261719 C 382.285156 165.414062 382.65625 165.472656 382.992188 165.515625 C 383.226562 165.378906 383.472656 165.25 383.851562 165.292969 C 384.0625 165.277344 384.402344 165.328125 384.847656 165.054688 C 384.839844 165.179688 384.964844 165.035156 384.964844 165.011719 C 385.210938 165.054688 385.3125 165.304688 385.503906 165.269531 C 385.566406 165.320312 385.566406 165.394531 385.683594 165.425781 C 385.714844 165.703125 385.582031 165.640625 385.378906 165.9375 C 385.480469 166 385.429688 166.136719 385.269531 166.175781 C 385.136719 166.324219 384.945312 166.414062 384.5625 166.554688 C 384.542969 166.660156 384.492188 166.644531 384.304688 166.714844 C 384.25 166.601562 384.210938 166.691406 384.085938 166.792969 C 383.992188 166.730469 383.8125 166.585938 383.539062 166.710938 C 383.554688 166.609375 383.457031 166.707031 383.402344 166.71875 C 383.308594 166.742188 383.253906 166.675781 383.347656 166.78125 C 383.167969 166.703125 383.148438 166.800781 383.039062 166.808594 C 383.039062 166.8125 382.960938 166.734375 382.835938 166.613281 C 382.796875 166.773438 382.707031 166.875 382.621094 166.859375 C 382.4375 166.902344 382.257812 166.785156 382.042969 166.679688 C 381.683594 166.753906 381.269531 166.800781 380.691406 166.8125 C 380.226562 166.742188 379.570312 166.878906 378.871094 166.878906 C 378.734375 166.96875 378.515625 166.898438 378.457031 167.0625 C 377.824219 167.039062 377.253906 166.890625 376.828125 166.984375 C 376.058594 166.980469 375.351562 166.824219 374.613281 166.589844 C 374.496094 166.5 374.296875 166.546875 374.167969 166.179688 " fill-opacity="1" fill-rule="evenodd"/></g><g clip-path="url(#9b29083950)"><path fill="#d65360" d="M 389.171875 166.28125 C 389.332031 166.089844 389.40625 166.214844 389.410156 166.28125 C 389.5 166.121094 389.402344 165.886719 389.386719 166 C 389.683594 165.910156 389.875 165.859375 389.96875 165.8125 C 390.160156 165.765625 390.015625 165.800781 390.15625 165.742188 C 390.164062 165.589844 390.332031 165.707031 390.65625 165.613281 C 390.667969 165.617188 390.941406 165.484375 391.023438 165.546875 C 391.179688 165.421875 391.105469 165.511719 390.941406 165.335938 C 391.777344 165.378906 392.503906 165.40625 393.351562 165.53125 C 393.339844 165.417969 393.429688 165.472656 393.417969 165.570312 C 393.617188 165.46875 393.714844 165.351562 393.894531 165.378906 C 394.011719 165.332031 394.214844 165.40625 394.386719 165.261719 C 394.777344 165.40625 395.152344 165.253906 395.476562 165.367188 C 395.734375 165.261719 395.941406 165.273438 396.125 165.386719 C 396.152344 165.253906 396.1875 165.296875 396.257812 165.28125 C 396.226562 165.265625 396.253906 165.160156 396.203125 165.046875 C 396.28125 165.160156 396.3125 165.292969 396.214844 165.296875 C 396.421875 165.320312 396.566406 165.210938 396.746094 165.386719 C 396.804688 165.285156 396.945312 165.390625 397.195312 165.417969 C 397.464844 165.414062 397.839844 165.472656 398.117188 165.457031 C 398.410156 165.378906 398.65625 165.25 398.777344 165.417969 C 399.242188 165.277344 399.582031 165.328125 399.976562 165.238281 C 400.023438 165.179688 400.144531 165.035156 400.402344 165.195312 C 400.390625 165.054688 400.492188 165.304688 400.773438 165.078125 C 400.746094 165.320312 400.75 165.394531 400.863281 165.378906 C 400.894531 165.703125 400.765625 165.640625 400.855469 165.894531 C 400.664062 166 400.609375 166.136719 400.496094 166.410156 C 400.320312 166.324219 400.125 166.414062 399.757812 166.699219 C 399.726562 166.660156 399.671875 166.644531 399.382812 166.734375 C 399.429688 166.601562 399.394531 166.691406 399.429688 166.839844 C 399.171875 166.730469 398.992188 166.585938 398.796875 166.445312 C 398.738281 166.609375 398.640625 166.707031 398.539062 166.726562 C 398.492188 166.742188 398.433594 166.675781 398.335938 166.597656 C 398.351562 166.703125 398.328125 166.800781 398.425781 166.972656 C 398.222656 166.8125 398.140625 166.734375 398.152344 166.777344 C 397.976562 166.773438 397.886719 166.875 397.667969 166.839844 C 397.621094 166.902344 397.441406 166.785156 397.3125 166.929688 C 396.863281 166.753906 396.449219 166.800781 395.894531 166.625 C 395.40625 166.742188 394.75 166.878906 394.054688 167.089844 C 393.914062 166.96875 393.695312 166.898438 393.40625 166.90625 C 393.007812 167.039062 392.4375 166.890625 391.921875 166.800781 C 391.242188 166.980469 390.53125 166.824219 390.019531 166.597656 C 389.679688 166.5 389.480469 166.546875 389.171875 166.28125 " fill-opacity="1" fill-rule="evenodd"/></g><g clip-path="url(#00eda6c412)"><path fill="#d65360" d="M 404.648438 166.257812 C 404.511719 166.089844 404.585938 166.214844 404.453125 166.070312 C 404.679688 166.121094 404.585938 165.886719 404.589844 165.78125 C 404.863281 165.910156 405.054688 165.859375 405.257812 165.722656 C 405.34375 165.765625 405.195312 165.800781 405.34375 165.609375 C 405.34375 165.589844 405.515625 165.707031 405.554688 165.683594 C 405.851562 165.617188 406.125 165.484375 406.34375 165.570312 C 406.359375 165.421875 406.289062 165.511719 406.40625 165.429688 C 406.960938 165.378906 407.683594 165.40625 408.304688 165.433594 C 408.523438 165.417969 408.609375 165.472656 408.582031 165.300781 C 408.796875 165.46875 408.898438 165.351562 408.925781 165.332031 C 409.195312 165.332031 409.398438 165.40625 409.484375 165.414062 C 409.960938 165.40625 410.335938 165.253906 410.535156 165.210938 C 410.914062 165.261719 411.121094 165.273438 411.308594 165.136719 C 411.332031 165.253906 411.367188 165.296875 411.300781 165.230469 C 411.40625 165.265625 411.433594 165.160156 411.597656 165.191406 C 411.460938 165.160156 411.496094 165.292969 411.652344 165.339844 C 411.601562 165.320312 411.746094 165.210938 411.804688 165.347656 C 411.988281 165.285156 412.125 165.390625 412.378906 165.414062 C 412.648438 165.414062 413.019531 165.472656 413.292969 165.398438 C 413.589844 165.378906 413.835938 165.25 413.992188 165.429688 C 414.425781 165.277344 414.761719 165.328125 414.953125 165.386719 C 415.203125 165.179688 415.328125 165.035156 415.402344 165.121094 C 415.574219 165.054688 415.675781 165.304688 415.746094 165.09375 C 415.929688 165.320312 415.929688 165.394531 416.105469 165.367188 C 416.074219 165.703125 415.945312 165.640625 415.746094 165.644531 C 415.84375 166 415.792969 166.136719 415.773438 166.4375 C 415.5 166.324219 415.304688 166.414062 415.125 166.433594 C 414.90625 166.660156 414.855469 166.644531 414.644531 166.554688 C 414.613281 166.601562 414.574219 166.691406 414.667969 166.816406 C 414.355469 166.730469 414.171875 166.585938 413.960938 166.640625 C 413.917969 166.609375 413.820312 166.707031 413.828125 166.605469 C 413.671875 166.742188 413.617188 166.675781 413.421875 166.816406 C 413.53125 166.703125 413.507812 166.800781 413.332031 166.785156 C 413.402344 166.8125 413.324219 166.734375 413.261719 166.660156 C 413.160156 166.773438 413.070312 166.875 413.128906 166.769531 C 412.800781 166.902344 412.621094 166.785156 412.460938 166.859375 C 412.042969 166.753906 411.628906 166.800781 411.230469 166.742188 C 410.585938 166.742188 409.929688 166.878906 409.386719 167.089844 C 409.097656 166.96875 408.878906 166.898438 408.746094 167.109375 C 408.1875 167.039062 407.617188 166.890625 407.261719 166.851562 C 406.421875 166.980469 405.714844 166.824219 405.128906 166.582031 C 404.859375 166.5 404.660156 166.546875 404.648438 166.257812 " fill-opacity="1" fill-rule="evenodd"/></g><g clip-path="url(#e27b6b841e)"><path fill="#d65360" d="M 419.722656 166.140625 C 419.691406 166.089844 419.765625 166.214844 419.960938 166.023438 C 419.859375 166.121094 419.765625 165.886719 419.742188 165.945312 C 420.042969 165.910156 420.238281 165.859375 420.402344 165.757812 C 420.523438 165.765625 420.378906 165.800781 420.597656 165.753906 C 420.523438 165.589844 420.695312 165.707031 420.96875 165.628906 C 421.03125 165.617188 421.304688 165.484375 421.546875 165.460938 C 421.539062 165.421875 421.46875 165.511719 421.3125 165.589844 C 422.140625 165.378906 422.863281 165.40625 423.742188 165.371094 C 423.703125 165.417969 423.792969 165.472656 423.765625 165.429688 C 423.980469 165.46875 424.078125 165.351562 424.25 165.175781 C 424.375 165.332031 424.578125 165.40625 424.824219 165.296875 C 425.140625 165.40625 425.515625 165.253906 425.910156 165.421875 C 426.097656 165.261719 426.304688 165.273438 426.410156 165.335938 C 426.511719 165.253906 426.550781 165.296875 426.71875 165.332031 C 426.589844 165.265625 426.617188 165.160156 426.492188 165.328125 C 426.644531 165.160156 426.675781 165.292969 426.597656 165.3125 C 426.78125 165.320312 426.929688 165.210938 427.007812 165.375 C 427.167969 165.285156 427.304688 165.390625 427.574219 165.4375 C 427.828125 165.414062 428.203125 165.472656 428.585938 165.46875 C 428.773438 165.378906 429.019531 165.25 429.324219 165.375 C 429.605469 165.277344 429.941406 165.328125 430.269531 165.050781 C 430.382812 165.179688 430.507812 165.035156 430.761719 164.992188 C 430.753906 165.054688 430.855469 165.304688 431.152344 165.257812 C 431.109375 165.320312 431.113281 165.394531 431.296875 165.414062 C 431.257812 165.703125 431.128906 165.640625 431.152344 165.785156 C 431.027344 166 430.972656 166.136719 430.851562 166.414062 C 430.679688 166.324219 430.488281 166.414062 430.148438 166.71875 C 430.089844 166.660156 430.035156 166.644531 429.847656 166.554688 C 429.792969 166.601562 429.757812 166.691406 429.597656 166.558594 C 429.535156 166.730469 429.355469 166.585938 429.214844 166.644531 C 429.097656 166.609375 429.003906 166.707031 429.054688 166.664062 C 428.855469 166.742188 428.796875 166.675781 428.664062 166.707031 C 428.714844 166.703125 428.691406 166.800781 428.554688 166.667969 C 428.582031 166.8125 428.503906 166.734375 428.550781 166.84375 C 428.339844 166.773438 428.25 166.875 428.113281 166.757812 C 427.984375 166.902344 427.800781 166.785156 427.703125 166.90625 C 427.226562 166.753906 426.808594 166.800781 426.347656 166.8125 C 425.765625 166.742188 425.113281 166.878906 424.386719 166.917969 C 424.277344 166.96875 424.058594 166.898438 423.6875 166.886719 C 423.367188 167.039062 422.800781 166.890625 422.289062 166.800781 C 421.601562 166.980469 420.894531 166.824219 420.15625 166.566406 C 420.039062 166.5 419.84375 166.546875 419.722656 166.140625 " fill-opacity="1" fill-rule="evenodd"/></g><g clip-path="url(#5bb31fc5f8)"><path fill="#d65360" d="M 450.0625 166.367188 C 450.054688 166.089844 450.128906 166.214844 450.203125 166.035156 C 450.222656 166.121094 450.128906 165.886719 450.117188 165.757812 C 450.40625 165.910156 450.601562 165.859375 450.953125 165.746094 C 450.886719 165.765625 450.738281 165.800781 450.902344 165.558594 C 450.886719 165.589844 451.058594 165.707031 451.195312 165.707031 C 451.394531 165.617188 451.667969 165.484375 451.773438 165.414062 C 451.902344 165.421875 451.832031 165.511719 451.816406 165.449219 C 452.503906 165.378906 453.226562 165.40625 453.992188 165.371094 C 454.066406 165.417969 454.152344 165.472656 454.070312 165.332031 C 454.339844 165.46875 454.441406 165.351562 454.511719 165.324219 C 454.738281 165.332031 454.941406 165.40625 455.300781 165.484375 C 455.503906 165.40625 455.878906 165.253906 456.332031 165.402344 C 456.457031 165.261719 456.667969 165.273438 456.957031 165.371094 C 456.875 165.253906 456.910156 165.296875 456.78125 165.1875 C 456.949219 165.265625 456.980469 165.160156 457.058594 165.003906 C 457.003906 165.160156 457.039062 165.292969 457.042969 165.375 C 457.144531 165.320312 457.289062 165.210938 457.3125 165.265625 C 457.53125 165.285156 457.667969 165.390625 457.699219 165.484375 C 458.191406 165.414062 458.5625 165.472656 458.996094 165.398438 C 459.136719 165.378906 459.378906 165.25 459.542969 165.253906 C 459.96875 165.277344 460.304688 165.328125 460.546875 165.285156 C 460.746094 165.179688 460.871094 165.035156 461.125 165.019531 C 461.117188 165.054688 461.21875 165.304688 461.394531 165.011719 C 461.472656 165.320312 461.476562 165.394531 461.707031 165.421875 C 461.621094 165.703125 461.492188 165.640625 461.304688 165.914062 C 461.386719 166 461.335938 166.136719 461.160156 166.148438 C 461.042969 166.324219 460.847656 166.414062 460.71875 166.683594 C 460.453125 166.660156 460.398438 166.644531 460.144531 166.691406 C 460.15625 166.601562 460.117188 166.691406 459.921875 166.675781 C 459.894531 166.730469 459.71875 166.585938 459.519531 166.59375 C 459.460938 166.609375 459.363281 166.707031 459.195312 166.730469 C 459.21875 166.742188 459.160156 166.675781 458.988281 166.683594 C 459.074219 166.703125 459.054688 166.800781 459.101562 166.875 C 458.945312 166.8125 458.867188 166.734375 458.894531 166.65625 C 458.703125 166.773438 458.613281 166.875 458.527344 166.746094 C 458.347656 166.902344 458.164062 166.785156 457.949219 166.789062 C 457.589844 166.753906 457.171875 166.800781 456.664062 166.746094 C 456.128906 166.742188 455.476562 166.878906 454.984375 167.058594 C 454.640625 166.96875 454.421875 166.898438 454.132812 167.066406 C 453.730469 167.039062 453.160156 166.890625 452.652344 166.785156 C 451.964844 166.980469 451.257812 166.824219 450.730469 166.726562 C 450.402344 166.5 450.203125 166.546875 450.0625 166.367188 " fill-opacity="1" fill-rule="evenodd"/></g><g clip-path="url(#96aa0ff2b7)"><path fill="#d65360" d="M 434.71875 166.128906 C 434.875 166.089844 434.949219 166.214844 434.902344 166.292969 C 435.042969 166.121094 434.945312 165.886719 435.019531 165.820312 C 435.226562 165.910156 435.417969 165.859375 435.582031 165.820312 C 435.707031 165.765625 435.558594 165.800781 435.644531 165.824219 C 435.707031 165.589844 435.878906 165.707031 436.199219 165.800781 C 436.214844 165.617188 436.484375 165.484375 436.730469 165.578125 C 436.722656 165.421875 436.652344 165.511719 436.785156 165.339844 C 437.324219 165.378906 438.046875 165.40625 438.796875 165.25 C 438.886719 165.417969 438.972656 165.472656 438.929688 165.324219 C 439.160156 165.46875 439.261719 165.351562 439.292969 165.304688 C 439.554688 165.332031 439.757812 165.40625 440.101562 165.542969 C 440.324219 165.40625 440.699219 165.253906 441.167969 165.332031 C 441.277344 165.261719 441.484375 165.273438 441.554688 165.148438 C 441.695312 165.253906 441.730469 165.296875 441.753906 165.335938 C 441.769531 165.265625 441.796875 165.160156 441.785156 165.175781 C 441.824219 165.160156 441.855469 165.292969 442.039062 165.378906 C 441.964844 165.320312 442.109375 165.210938 442.207031 165.386719 C 442.347656 165.285156 442.488281 165.390625 442.664062 165.25 C 443.007812 165.414062 443.382812 165.472656 443.726562 165.511719 C 443.953125 165.378906 444.199219 165.25 444.347656 165.125 C 444.785156 165.277344 445.125 165.328125 445.277344 165.15625 C 445.566406 165.179688 445.6875 165.035156 445.707031 165.054688 C 445.9375 165.054688 446.039062 165.304688 446.320312 165.128906 C 446.289062 165.320312 446.292969 165.394531 446.390625 165.171875 C 446.4375 165.703125 446.308594 165.640625 446.140625 165.808594 C 446.207031 166 446.15625 166.136719 446.054688 166.207031 C 445.863281 166.324219 445.667969 166.414062 445.59375 166.488281 C 445.269531 166.660156 445.21875 166.644531 444.925781 166.511719 C 444.976562 166.601562 444.9375 166.691406 444.890625 166.71875 C 444.714844 166.730469 444.535156 166.585938 444.53125 166.730469 C 444.28125 166.609375 444.183594 166.707031 444.164062 166.683594 C 444.035156 166.742188 443.976562 166.675781 443.832031 166.832031 C 443.894531 166.703125 443.871094 166.800781 443.734375 166.769531 C 443.765625 166.8125 443.6875 166.734375 443.570312 166.632812 C 443.523438 166.773438 443.433594 166.875 443.289062 166.921875 C 443.164062 166.902344 442.984375 166.785156 442.683594 166.660156 C 442.40625 166.753906 441.992188 166.800781 441.464844 166.632812 C 440.949219 166.742188 440.292969 166.878906 439.753906 166.992188 C 439.457031 166.96875 439.242188 166.898438 439.15625 167.078125 C 438.550781 167.039062 437.980469 166.890625 437.613281 166.980469 C 436.785156 166.980469 436.074219 166.824219 435.582031 166.683594 C 435.222656 166.5 435.023438 166.546875 434.71875 166.128906 " fill-opacity="1" fill-rule="evenodd"/></g><path fill="#d65360" d="M 465.128906 166.160156 C 465.234375 166.089844 465.308594 166.214844 465.316406 166.027344 C 465.40625 166.121094 465.308594 165.886719 465.433594 165.78125 C 465.589844 165.910156 465.78125 165.859375 466.085938 165.824219 C 466.066406 165.765625 465.921875 165.800781 466.15625 165.542969 C 466.066406 165.589844 466.238281 165.707031 466.496094 165.824219 C 466.574219 165.617188 466.847656 165.484375 467.125 165.519531 C 467.085938 165.421875 467.011719 165.511719 466.933594 165.386719 C 467.683594 165.378906 468.410156 165.40625 469.140625 165.40625 C 469.246094 165.417969 469.335938 165.472656 469.585938 165.421875 C 469.523438 165.46875 469.621094 165.351562 469.671875 165.425781 C 469.917969 165.332031 470.121094 165.40625 470.355469 165.328125 C 470.6875 165.40625 471.058594 165.253906 471.300781 165.3125 C 471.640625 165.261719 471.847656 165.273438 471.988281 165.109375 C 472.054688 165.253906 472.09375 165.296875 471.972656 165.117188 C 472.132812 165.265625 472.160156 165.160156 472.097656 165.046875 C 472.1875 165.160156 472.21875 165.292969 472.289062 165.234375 C 472.324219 165.320312 472.472656 165.210938 472.691406 165.28125 C 472.710938 165.285156 472.847656 165.390625 473.078125 165.507812 C 473.371094 165.414062 473.746094 165.472656 474.042969 165.304688 C 474.316406 165.378906 474.5625 165.25 474.699219 165.101562 C 475.148438 165.277344 475.488281 165.328125 475.777344 165.308594 C 475.929688 165.179688 476.050781 165.035156 476.304688 165.101562 C 476.296875 165.054688 476.402344 165.304688 476.6875 165.125 C 476.652344 165.320312 476.65625 165.394531 476.660156 165.449219 C 476.800781 165.703125 476.671875 165.640625 476.570312 165.824219 C 476.570312 166 476.515625 166.136719 476.476562 166.378906 C 476.226562 166.324219 476.03125 166.414062 475.664062 166.726562 C 475.632812 166.660156 475.578125 166.644531 475.46875 166.527344 C 475.335938 166.601562 475.300781 166.691406 475.359375 166.621094 C 475.078125 166.730469 474.898438 166.585938 474.605469 166.699219 C 474.644531 166.609375 474.546875 166.707031 474.40625 166.679688 C 474.398438 166.742188 474.339844 166.675781 474.386719 166.863281 C 474.257812 166.703125 474.234375 166.800781 474.167969 166.855469 C 474.125 166.8125 474.050781 166.734375 474.058594 166.683594 C 473.882812 166.773438 473.792969 166.875 473.820312 166.824219 C 473.527344 166.902344 473.34375 166.785156 473.121094 166.921875 C 472.769531 166.753906 472.355469 166.800781 471.882812 166.660156 C 471.3125 166.742188 470.65625 166.878906 469.863281 166.816406 C 469.820312 166.96875 469.605469 166.898438 469.300781 166.828125 C 468.914062 167.039062 468.34375 166.890625 467.847656 166.960938 C 467.148438 166.980469 466.4375 166.824219 465.769531 166.542969 C 465.585938 166.5 465.386719 166.546875 465.128906 166.160156 " fill-opacity="1" fill-rule="evenodd"/><g clip-path="url(#0f05e1de6e)"><path fill="#d65360" d="M 480.5625 166.308594 C 480.417969 166.089844 480.492188 166.214844 480.425781 166.269531 C 480.585938 166.121094 480.492188 165.886719 480.667969 165.902344 C 480.769531 165.910156 480.960938 165.859375 481.277344 165.664062 C 481.25 165.765625 481.101562 165.800781 481.175781 165.609375 C 481.25 165.589844 481.421875 165.707031 481.75 165.757812 C 481.753906 165.617188 482.027344 165.484375 482.15625 165.660156 C 482.265625 165.421875 482.195312 165.511719 482.222656 165.539062 C 482.867188 165.378906 483.589844 165.40625 484.414062 165.523438 C 484.429688 165.417969 484.515625 165.472656 484.699219 165.5 C 484.703125 165.46875 484.804688 165.351562 484.945312 165.5 C 485.101562 165.332031 485.300781 165.40625 485.585938 165.554688 C 485.867188 165.40625 486.242188 165.253906 486.710938 165.351562 C 486.820312 165.261719 487.027344 165.273438 487.257812 165.28125 C 487.238281 165.253906 487.273438 165.296875 487.195312 165.292969 C 487.3125 165.265625 487.339844 165.160156 487.300781 165.316406 C 487.367188 165.160156 487.398438 165.292969 487.523438 165.285156 C 487.507812 165.320312 487.652344 165.210938 487.855469 165.15625 C 487.894531 165.285156 488.03125 165.390625 488.175781 165.53125 C 488.554688 165.414062 488.925781 165.472656 489.40625 165.425781 C 489.496094 165.378906 489.742188 165.25 490.015625 165.183594 C 490.328125 165.277344 490.667969 165.328125 490.96875 165.117188 C 491.109375 165.179688 491.234375 165.035156 491.511719 164.882812 C 491.480469 165.054688 491.582031 165.304688 491.5625 165.105469 C 491.835938 165.320312 491.835938 165.394531 491.816406 165.445312 C 491.984375 165.703125 491.851562 165.640625 491.878906 165.699219 C 491.75 166 491.699219 166.136719 491.613281 166.125 C 491.40625 166.324219 491.210938 166.414062 490.960938 166.546875 C 490.8125 166.660156 490.761719 166.644531 490.554688 166.707031 C 490.519531 166.601562 490.480469 166.691406 490.476562 166.636719 C 490.257812 166.730469 490.078125 166.585938 489.925781 166.625 C 489.824219 166.609375 489.726562 166.707031 489.578125 166.761719 C 489.578125 166.742188 489.523438 166.675781 489.457031 166.570312 C 489.4375 166.703125 489.414062 166.800781 489.347656 166.789062 C 489.308594 166.8125 489.230469 166.734375 489.203125 166.59375 C 489.0625 166.773438 488.976562 166.875 488.992188 166.90625 C 488.707031 166.902344 488.527344 166.785156 488.390625 166.929688 C 487.949219 166.753906 487.535156 166.800781 487.289062 166.847656 C 486.492188 166.742188 485.835938 166.878906 485.097656 166.941406 C 485.003906 166.96875 484.785156 166.898438 484.660156 166.925781 C 484.09375 167.039062 483.523438 166.890625 483.035156 166.9375 C 482.328125 166.980469 481.621094 166.824219 481.125 166.734375 C 480.765625 166.5 480.566406 166.546875 480.5625 166.308594 " fill-opacity="1" fill-rule="evenodd"/></g><g clip-path="url(#eeb02be3df)"><path fill="#d65360" d="M 495.527344 166.226562 C 495.597656 166.089844 495.671875 166.214844 495.636719 166.21875 C 495.765625 166.121094 495.671875 165.886719 495.875 165.933594 C 495.953125 165.910156 496.144531 165.859375 496.421875 165.746094 C 496.429688 165.765625 496.285156 165.800781 496.339844 165.59375 C 496.429688 165.589844 496.601562 165.707031 496.707031 165.746094 C 496.9375 165.617188 497.210938 165.484375 497.289062 165.5625 C 497.445312 165.421875 497.375 165.511719 497.464844 165.421875 C 498.046875 165.378906 498.769531 165.40625 499.652344 165.433594 C 499.609375 165.417969 499.699219 165.472656 499.667969 165.523438 C 499.886719 165.46875 499.984375 165.351562 499.980469 165.40625 C 500.28125 165.332031 500.484375 165.40625 500.714844 165.421875 C 501.046875 165.40625 501.421875 165.253906 501.804688 165.285156 C 502.003906 165.261719 502.210938 165.273438 502.558594 165.375 C 502.417969 165.253906 502.457031 165.296875 502.601562 165.191406 C 502.496094 165.265625 502.523438 165.160156 502.582031 165.101562 C 502.550781 165.160156 502.582031 165.292969 502.679688 165.402344 C 502.6875 165.320312 502.835938 165.210938 502.933594 165.355469 C 503.074219 165.285156 503.210938 165.390625 503.230469 165.46875 C 503.734375 165.414062 504.105469 165.472656 504.585938 165.398438 C 504.675781 165.378906 504.921875 165.25 505.246094 165.414062 C 505.511719 165.277344 505.851562 165.328125 506.203125 165.109375 C 506.292969 165.179688 506.414062 165.035156 506.574219 165.050781 C 506.660156 165.054688 506.761719 165.304688 506.917969 165.128906 C 507.015625 165.320312 507.015625 165.394531 507.164062 165.4375 C 507.164062 165.703125 507.03125 165.640625 507.019531 165.921875 C 506.929688 166 506.878906 166.136719 506.839844 166.160156 C 506.589844 166.324219 506.394531 166.414062 505.992188 166.433594 C 505.996094 166.660156 505.941406 166.644531 505.828125 166.691406 C 505.699219 166.601562 505.660156 166.691406 505.480469 166.703125 C 505.441406 166.730469 505.261719 166.585938 505.191406 166.496094 C 505.007812 166.609375 504.90625 166.707031 504.816406 166.71875 C 504.761719 166.742188 504.703125 166.675781 504.53125 166.761719 C 504.617188 166.703125 504.597656 166.800781 504.550781 166.722656 C 504.488281 166.8125 504.410156 166.734375 504.222656 166.714844 C 504.246094 166.773438 504.15625 166.875 504.027344 166.980469 C 503.890625 166.902344 503.707031 166.785156 503.648438 166.8125 C 503.132812 166.753906 502.71875 166.800781 502.242188 166.652344 C 501.671875 166.742188 501.015625 166.878906 500.410156 166.8125 C 500.183594 166.96875 499.964844 166.898438 499.644531 166.867188 C 499.277344 167.039062 498.707031 166.890625 498.351562 166.824219 C 497.511719 166.980469 496.800781 166.824219 496.183594 166.730469 C 495.949219 166.5 495.746094 166.546875 495.527344 166.226562 " fill-opacity="1" fill-rule="evenodd"/></g><g clip-path="url(#190e4f5d4e)"><path fill="#000000" d="M 622.789062 191.808594 C 623.777344 195.207031 624.246094 198.722656 624.148438 202.25 C 629.882812 197.007812 634.339844 190.382812 637.164062 183.140625 C 640.109375 175.585938 641.421875 167.179688 640.394531 159.097656 C 639.832031 154.71875 638.429688 150.175781 634.929688 147.261719 C 634.46875 146.878906 634.5 145.703125 635.203125 146.289062 C 638.402344 148.953125 640.128906 152.886719 640.960938 156.898438 C 641.820312 161.03125 641.890625 165.371094 641.515625 169.566406 C 640.757812 178.070312 637.882812 186.363281 633.253906 193.527344 C 631.003906 197.015625 628.328125 200.210938 625.304688 203.042969 C 629.796875 202.953125 634.285156 203.601562 638.574219 204.964844 C 638.886719 205.066406 639.125 205.398438 639.179688 205.71875 C 639.21875 205.953125 639.132812 206.328125 638.808594 206.226562 C 634.019531 204.699219 628.996094 204.078125 623.980469 204.394531 C 623.921875 204.398438 623.859375 204.386719 623.804688 204.359375 C 623.441406 204.476562 623.03125 203.675781 623.050781 203.417969 C 623.363281 199.539062 622.992188 195.628906 621.90625 191.890625 C 621.648438 191.003906 622.585938 191.105469 622.789062 191.808594 Z M 622.789062 191.808594 " fill-opacity="1" fill-rule="nonzero"/></g><g fill="#423b3b" fill-opacity="1"><g transform="translate(137.595697, 136.492476)"><g><path d="M 12.5625 -19.578125 L 12.5625 0 L 7.15625 0 L 7.15625 -19.578125 L 0.1875 -19.578125 L 0.1875 -24.484375 L 19.546875 -24.484375 L 19.546875 -19.578125 Z M 12.5625 -19.578125 "/></g></g></g><g fill="#423b3b" fill-opacity="1"><g transform="translate(157.323732, 136.492476)"><g><path d="M 14.578125 -7.921875 C 14.578125 -8.617188 14.410156 -9.265625 14.078125 -9.859375 C 13.742188 -10.460938 13.289062 -10.945312 12.71875 -11.3125 C 12.15625 -11.6875 11.515625 -11.875 10.796875 -11.875 C 10.078125 -11.875 9.4375 -11.6875 8.875 -11.3125 C 8.3125 -10.945312 7.859375 -10.460938 7.515625 -9.859375 C 7.179688 -9.265625 7.015625 -8.617188 7.015625 -7.921875 C 7.015625 -7.222656 7.179688 -6.570312 7.515625 -5.96875 C 7.859375 -5.375 8.3125 -4.890625 8.875 -4.515625 C 9.4375 -4.140625 10.078125 -3.953125 10.796875 -3.953125 C 11.515625 -3.953125 12.15625 -4.140625 12.71875 -4.515625 C 13.289062 -4.890625 13.742188 -5.375 14.078125 -5.96875 C 14.410156 -6.570312 14.578125 -7.222656 14.578125 -7.921875 Z M 19.984375 -15.84375 L 19.984375 0 L 14.578125 0 L 14.578125 -1.90625 C 14.046875 -1.09375 13.257812 -0.507812 12.21875 -0.15625 C 11.175781 0.1875 10.148438 0.359375 9.140625 0.359375 C 7.648438 0.359375 6.304688 -0.0195312 5.109375 -0.78125 C 3.910156 -1.550781 2.96875 -2.566406 2.28125 -3.828125 C 1.601562 -5.085938 1.265625 -6.453125 1.265625 -7.921875 C 1.265625 -9.378906 1.601562 -10.738281 2.28125 -12 C 2.96875 -13.257812 3.910156 -14.28125 5.109375 -15.0625 C 6.304688 -15.84375 7.648438 -16.234375 9.140625 -16.234375 C 10.148438 -16.234375 11.132812 -16.066406 12.09375 -15.734375 C 13.050781 -15.398438 13.878906 -14.800781 14.578125 -13.9375 L 14.578125 -15.84375 Z M 19.984375 -15.84375 "/></g></g></g><g fill="#423b3b" fill-opacity="1"><g transform="translate(179.46378, 136.492476)"><g><path d="M 7.5625 -7.015625 L 7.5625 0 L 2.15625 0 L 2.15625 -27 L 7.5625 -27 L 7.5625 -9.578125 L 12.640625 -15.875 L 19.328125 -15.875 L 12.484375 -8.3125 L 20.046875 0 L 13.140625 0 Z M 7.5625 -7.015625 "/></g></g></g><g fill="#423b3b" fill-opacity="1"><g transform="translate(198.435817, 136.492476)"><g><path d="M 7.0625 -9.828125 L 14.140625 -9.828125 C 14.140625 -9.828125 14.109375 -9.976562 14.046875 -10.28125 C 13.992188 -10.582031 13.851562 -10.921875 13.625 -11.296875 C 13.394531 -11.679688 13.039062 -12.023438 12.5625 -12.328125 C 12.082031 -12.628906 11.4375 -12.78125 10.625 -12.78125 C 9.78125 -12.78125 9.117188 -12.628906 8.640625 -12.328125 C 8.160156 -12.023438 7.804688 -11.679688 7.578125 -11.296875 C 7.347656 -10.921875 7.203125 -10.582031 7.140625 -10.28125 C 7.085938 -9.976562 7.0625 -9.828125 7.0625 -9.828125 Z M 19.328125 -8.28125 C 19.328125 -8.113281 19.320312 -7.945312 19.3125 -7.78125 C 19.300781 -7.613281 19.296875 -7.441406 19.296875 -7.265625 L 6.984375 -7.265625 C 6.984375 -6.671875 7.117188 -6.078125 7.390625 -5.484375 C 7.671875 -4.898438 8.066406 -4.421875 8.578125 -4.046875 C 9.097656 -3.671875 9.707031 -3.484375 10.40625 -3.484375 C 11.363281 -3.484375 12.117188 -3.742188 12.671875 -4.265625 C 13.222656 -4.785156 13.507812 -5.332031 13.53125 -5.90625 L 19.046875 -5.90625 C 18.585938 -3.8125 17.578125 -2.242188 16.015625 -1.203125 C 14.460938 -0.160156 12.628906 0.359375 10.515625 0.359375 C 8.691406 0.359375 7.082031 0.0195312 5.6875 -0.65625 C 4.289062 -1.34375 3.203125 -2.304688 2.421875 -3.546875 C 1.648438 -4.785156 1.265625 -6.242188 1.265625 -7.921875 C 1.265625 -9.578125 1.664062 -11.023438 2.46875 -12.265625 C 3.269531 -13.515625 4.363281 -14.488281 5.75 -15.1875 C 7.144531 -15.882812 8.734375 -16.234375 10.515625 -16.234375 C 12.117188 -16.234375 13.585938 -15.921875 14.921875 -15.296875 C 16.253906 -14.671875 17.320312 -13.769531 18.125 -12.59375 C 18.925781 -11.425781 19.328125 -9.988281 19.328125 -8.28125 Z M 19.328125 -8.28125 "/></g></g></g><g fill="#423b3b" fill-opacity="1"><g transform="translate(219.027858, 136.492476)"><g/></g></g><g fill="#423b3b" fill-opacity="1"><g transform="translate(228.02788, 136.492476)"><g><path d="M 14.578125 -7.921875 C 14.578125 -8.617188 14.410156 -9.265625 14.078125 -9.859375 C 13.742188 -10.460938 13.289062 -10.945312 12.71875 -11.3125 C 12.15625 -11.6875 11.515625 -11.875 10.796875 -11.875 C 10.078125 -11.875 9.4375 -11.6875 8.875 -11.3125 C 8.3125 -10.945312 7.859375 -10.460938 7.515625 -9.859375 C 7.179688 -9.265625 7.015625 -8.617188 7.015625 -7.921875 C 7.015625 -7.222656 7.179688 -6.570312 7.515625 -5.96875 C 7.859375 -5.375 8.3125 -4.890625 8.875 -4.515625 C 9.4375 -4.140625 10.078125 -3.953125 10.796875 -3.953125 C 11.515625 -3.953125 12.15625 -4.140625 12.71875 -4.515625 C 13.289062 -4.890625 13.742188 -5.375 14.078125 -5.96875 C 14.410156 -6.570312 14.578125 -7.222656 14.578125 -7.921875 Z M 19.984375 -15.84375 L 19.984375 0 L 14.578125 0 L 14.578125 -1.90625 C 14.046875 -1.09375 13.257812 -0.507812 12.21875 -0.15625 C 11.175781 0.1875 10.148438 0.359375 9.140625 0.359375 C 7.648438 0.359375 6.304688 -0.0195312 5.109375 -0.78125 C 3.910156 -1.550781 2.96875 -2.566406 2.28125 -3.828125 C 1.601562 -5.085938 1.265625 -6.453125 1.265625 -7.921875 C 1.265625 -9.378906 1.601562 -10.738281 2.28125 -12 C 2.96875 -13.257812 3.910156 -14.28125 5.109375 -15.0625 C 6.304688 -15.84375 7.648438 -16.234375 9.140625 -16.234375 C 10.148438 -16.234375 11.132812 -16.066406 12.09375 -15.734375 C 13.050781 -15.398438 13.878906 -14.800781 14.578125 -13.9375 L 14.578125 -15.84375 Z M 19.984375 -15.84375 "/></g></g></g><g fill="#423b3b" fill-opacity="1"><g transform="translate(250.167928, 136.492476)"><g/></g></g><g fill="#423b3b" fill-opacity="1"><g transform="translate(259.16795, 136.492476)"><g><path d="M 7.5625 0 L 2.15625 0 L 2.15625 -27 L 7.5625 -27 Z M 7.5625 0 "/></g></g></g><g fill="#423b3b" fill-opacity="1"><g transform="translate(268.887966, 136.492476)"><g><path d="M 10.328125 -3.75 C 11.285156 -3.75 12.03125 -3.953125 12.5625 -4.359375 C 13.09375 -4.765625 13.460938 -5.285156 13.671875 -5.921875 C 13.890625 -6.554688 14 -7.210938 14 -7.890625 C 14 -8.554688 13.882812 -9.203125 13.65625 -9.828125 C 13.425781 -10.453125 13.046875 -10.96875 12.515625 -11.375 C 11.992188 -11.78125 11.265625 -11.984375 10.328125 -11.984375 C 9.390625 -11.984375 8.648438 -11.78125 8.109375 -11.375 C 7.578125 -10.96875 7.195312 -10.453125 6.96875 -9.828125 C 6.738281 -9.203125 6.625 -8.554688 6.625 -7.890625 C 6.625 -7.210938 6.726562 -6.554688 6.9375 -5.921875 C 7.15625 -5.285156 7.535156 -4.765625 8.078125 -4.359375 C 8.617188 -3.953125 9.367188 -3.75 10.328125 -3.75 Z M 10.328125 -16.203125 C 11.984375 -16.203125 13.492188 -15.851562 14.859375 -15.15625 C 16.234375 -14.457031 17.328125 -13.488281 18.140625 -12.25 C 18.960938 -11.019531 19.375 -9.578125 19.375 -7.921875 C 19.375 -6.242188 18.96875 -4.785156 18.15625 -3.546875 C 17.351562 -2.304688 16.269531 -1.347656 14.90625 -0.671875 C 13.539062 -0.00390625 12.015625 0.328125 10.328125 0.328125 C 8.648438 0.328125 7.117188 -0.00390625 5.734375 -0.671875 C 4.359375 -1.347656 3.269531 -2.304688 2.46875 -3.546875 C 1.664062 -4.785156 1.265625 -6.242188 1.265625 -7.921875 C 1.265625 -9.578125 1.671875 -11.019531 2.484375 -12.25 C 3.296875 -13.488281 4.390625 -14.457031 5.765625 -15.15625 C 7.148438 -15.851562 8.671875 -16.203125 10.328125 -16.203125 Z M 10.328125 -16.203125 "/></g></g></g><g fill="#423b3b" fill-opacity="1"><g transform="translate(289.51601, 136.492476)"><g><path d="M 10.328125 -3.75 C 11.285156 -3.75 12.03125 -3.953125 12.5625 -4.359375 C 13.09375 -4.765625 13.460938 -5.285156 13.671875 -5.921875 C 13.890625 -6.554688 14 -7.210938 14 -7.890625 C 14 -8.554688 13.882812 -9.203125 13.65625 -9.828125 C 13.425781 -10.453125 13.046875 -10.96875 12.515625 -11.375 C 11.992188 -11.78125 11.265625 -11.984375 10.328125 -11.984375 C 9.390625 -11.984375 8.648438 -11.78125 8.109375 -11.375 C 7.578125 -10.96875 7.195312 -10.453125 6.96875 -9.828125 C 6.738281 -9.203125 6.625 -8.554688 6.625 -7.890625 C 6.625 -7.210938 6.726562 -6.554688 6.9375 -5.921875 C 7.15625 -5.285156 7.535156 -4.765625 8.078125 -4.359375 C 8.617188 -3.953125 9.367188 -3.75 10.328125 -3.75 Z M 10.328125 -16.203125 C 11.984375 -16.203125 13.492188 -15.851562 14.859375 -15.15625 C 16.234375 -14.457031 17.328125 -13.488281 18.140625 -12.25 C 18.960938 -11.019531 19.375 -9.578125 19.375 -7.921875 C 19.375 -6.242188 18.96875 -4.785156 18.15625 -3.546875 C 17.351562 -2.304688 16.269531 -1.347656 14.90625 -0.671875 C 13.539062 -0.00390625 12.015625 0.328125 10.328125 0.328125 C 8.648438 0.328125 7.117188 -0.00390625 5.734375 -0.671875 C 4.359375 -1.347656 3.269531 -2.304688 2.46875 -3.546875 C 1.664062 -4.785156 1.265625 -6.242188 1.265625 -7.921875 C 1.265625 -9.578125 1.671875 -11.019531 2.484375 -12.25 C 3.296875 -13.488281 4.390625 -14.457031 5.765625 -15.15625 C 7.148438 -15.851562 8.671875 -16.203125 10.328125 -16.203125 Z M 10.328125 -16.203125 "/></g></g></g><g fill="#423b3b" fill-opacity="1"><g transform="translate(310.144053, 136.492476)"><g><path d="M 7.5625 -7.015625 L 7.5625 0 L 2.15625 0 L 2.15625 -27 L 7.5625 -27 L 7.5625 -9.578125 L 12.640625 -15.875 L 19.328125 -15.875 L 12.484375 -8.3125 L 20.046875 0 L 13.140625 0 Z M 7.5625 -7.015625 "/></g></g></g><g fill="#423b3b" fill-opacity="1"><g transform="translate(329.116091, 136.492476)"><g/></g></g><g fill="#423b3b" fill-opacity="1"><g transform="translate(338.116113, 136.492476)"><g><path d="M 14.578125 -7.921875 C 14.578125 -8.617188 14.410156 -9.265625 14.078125 -9.859375 C 13.742188 -10.460938 13.289062 -10.945312 12.71875 -11.3125 C 12.15625 -11.6875 11.515625 -11.875 10.796875 -11.875 C 10.078125 -11.875 9.4375 -11.6875 8.875 -11.3125 C 8.3125 -10.945312 7.859375 -10.460938 7.515625 -9.859375 C 7.179688 -9.265625 7.015625 -8.617188 7.015625 -7.921875 C 7.015625 -7.222656 7.179688 -6.570312 7.515625 -5.96875 C 7.859375 -5.375 8.3125 -4.890625 8.875 -4.515625 C 9.4375 -4.140625 10.078125 -3.953125 10.796875 -3.953125 C 11.515625 -3.953125 12.15625 -4.140625 12.71875 -4.515625 C 13.289062 -4.890625 13.742188 -5.375 14.078125 -5.96875 C 14.410156 -6.570312 14.578125 -7.222656 14.578125 -7.921875 Z M 19.984375 -15.84375 L 19.984375 0 L 14.578125 0 L 14.578125 -1.90625 C 14.046875 -1.09375 13.257812 -0.507812 12.21875 -0.15625 C 11.175781 0.1875 10.148438 0.359375 9.140625 0.359375 C 7.648438 0.359375 6.304688 -0.0195312 5.109375 -0.78125 C 3.910156 -1.550781 2.96875 -2.566406 2.28125 -3.828125 C 1.601562 -5.085938 1.265625 -6.453125 1.265625 -7.921875 C 1.265625 -9.378906 1.601562 -10.738281 2.28125 -12 C 2.96875 -13.257812 3.910156 -14.28125 5.109375 -15.0625 C 6.304688 -15.84375 7.648438 -16.234375 9.140625 -16.234375 C 10.148438 -16.234375 11.132812 -16.066406 12.09375 -15.734375 C 13.050781 -15.398438 13.878906 -14.800781 14.578125 -13.9375 L 14.578125 -15.84375 Z M 19.984375 -15.84375 "/></g></g></g><g fill="#423b3b" fill-opacity="1"><g transform="translate(360.25615, 136.492476)"><g><path d="M 8.96875 -11.703125 L 8.96875 0 L 3.59375 0 L 3.59375 -11.703125 L 0.71875 -11.703125 L 0.71875 -15.875 L 3.59375 -15.875 L 3.59375 -21.921875 L 8.96875 -21.921875 L 8.96875 -15.875 L 11.84375 -15.875 L 11.84375 -11.703125 Z M 8.96875 -11.703125 "/></g></g></g><g fill="#423b3b" fill-opacity="1"><g transform="translate(372.82016, 136.492476)"><g/></g></g><g fill="#423b3b" fill-opacity="1"><g transform="translate(381.820182, 136.492476)"><g><path d="M 18.1875 -8.0625 L 18.1875 0 L 12.78125 0 L 12.78125 -8.78125 C 12.78125 -9.550781 12.625 -10.257812 12.3125 -10.90625 C 12 -11.550781 11.382812 -11.875 10.46875 -11.875 C 9.875 -11.875 9.351562 -11.648438 8.90625 -11.203125 C 8.46875 -10.765625 8.132812 -10.238281 7.90625 -9.625 C 7.675781 -9.019531 7.5625 -8.453125 7.5625 -7.921875 L 7.5625 0 L 2.15625 0 L 2.15625 -15.875 L 7.5625 -15.875 L 7.5625 -13.9375 C 8.113281 -14.625 8.757812 -15.175781 9.5 -15.59375 C 10.25 -16.019531 11.066406 -16.234375 11.953125 -16.234375 C 12.960938 -16.234375 13.898438 -16.007812 14.765625 -15.5625 C 15.628906 -15.125 16.335938 -14.445312 16.890625 -13.53125 C 17.648438 -14.519531 18.492188 -15.21875 19.421875 -15.625 C 20.347656 -16.03125 21.4375 -16.234375 22.6875 -16.234375 C 24.070312 -16.234375 25.210938 -15.894531 26.109375 -15.21875 C 27.015625 -14.550781 27.6875 -13.65625 28.125 -12.53125 C 28.570312 -11.40625 28.796875 -10.15625 28.796875 -8.78125 L 28.796875 0 L 23.40625 0 L 23.40625 -8.78125 C 23.40625 -9.550781 23.25 -10.257812 22.9375 -10.90625 C 22.625 -11.550781 22.007812 -11.875 21.09375 -11.875 C 20.394531 -11.875 19.828125 -11.679688 19.390625 -11.296875 C 18.960938 -10.921875 18.65625 -10.4375 18.46875 -9.84375 C 18.28125 -9.257812 18.1875 -8.664062 18.1875 -8.0625 Z M 18.1875 -8.0625 "/></g></g></g><g fill="#423b3b" fill-opacity="1"><g transform="translate(412.240248, 136.492476)"><g><path d="M 8.609375 9 L 2.984375 9 L 6.59375 0 L 5.6875 0 L -0.359375 -15.875 L 5.078125 -15.875 L 8.859375 -4.53125 L 12.640625 -15.875 L 18.109375 -15.875 L 12.0625 0 Z M 8.609375 9 "/></g></g></g><g fill="#423b3b" fill-opacity="1"><g transform="translate(429.988294, 136.492476)"><g/></g></g><g fill="#423b3b" fill-opacity="1"><g transform="translate(438.988317, 136.492476)"><g><path d="M 7.5625 -7.921875 C 7.5625 -7.222656 7.726562 -6.570312 8.0625 -5.96875 C 8.394531 -5.375 8.84375 -4.890625 9.40625 -4.515625 C 9.976562 -4.140625 10.625 -3.953125 11.34375 -3.953125 C 12.0625 -3.953125 12.703125 -4.140625 13.265625 -4.515625 C 13.828125 -4.890625 14.273438 -5.375 14.609375 -5.96875 C 14.953125 -6.570312 15.125 -7.222656 15.125 -7.921875 C 15.125 -8.617188 14.953125 -9.265625 14.609375 -9.859375 C 14.273438 -10.460938 13.828125 -10.945312 13.265625 -11.3125 C 12.703125 -11.6875 12.0625 -11.875 11.34375 -11.875 C 10.625 -11.875 9.976562 -11.6875 9.40625 -11.3125 C 8.84375 -10.945312 8.394531 -10.460938 8.0625 -9.859375 C 7.726562 -9.265625 7.5625 -8.617188 7.5625 -7.921875 Z M 7.5625 9 L 2.15625 9 L 2.15625 -15.875 L 7.5625 -15.875 L 7.5625 -13.9375 C 8.257812 -14.800781 9.082031 -15.398438 10.03125 -15.734375 C 10.976562 -16.066406 11.96875 -16.234375 13 -16.234375 C 14.507812 -16.234375 15.859375 -15.84375 17.046875 -15.0625 C 18.234375 -14.28125 19.164062 -13.257812 19.84375 -12 C 20.53125 -10.738281 20.875 -9.378906 20.875 -7.921875 C 20.875 -6.453125 20.53125 -5.085938 19.84375 -3.828125 C 19.164062 -2.566406 18.234375 -1.550781 17.046875 -0.78125 C 15.859375 -0.0195312 14.507812 0.359375 13 0.359375 C 11.96875 0.359375 10.941406 0.1875 9.921875 -0.15625 C 8.898438 -0.507812 8.113281 -1.09375 7.5625 -1.90625 Z M 7.5625 9 "/></g></g></g><g fill="#423b3b" fill-opacity="1"><g transform="translate(461.128354, 136.492476)"><g><path d="M 10.328125 -3.75 C 11.285156 -3.75 12.03125 -3.953125 12.5625 -4.359375 C 13.09375 -4.765625 13.460938 -5.285156 13.671875 -5.921875 C 13.890625 -6.554688 14 -7.210938 14 -7.890625 C 14 -8.554688 13.882812 -9.203125 13.65625 -9.828125 C 13.425781 -10.453125 13.046875 -10.96875 12.515625 -11.375 C 11.992188 -11.78125 11.265625 -11.984375 10.328125 -11.984375 C 9.390625 -11.984375 8.648438 -11.78125 8.109375 -11.375 C 7.578125 -10.96875 7.195312 -10.453125 6.96875 -9.828125 C 6.738281 -9.203125 6.625 -8.554688 6.625 -7.890625 C 6.625 -7.210938 6.726562 -6.554688 6.9375 -5.921875 C 7.15625 -5.285156 7.535156 -4.765625 8.078125 -4.359375 C 8.617188 -3.953125 9.367188 -3.75 10.328125 -3.75 Z M 10.328125 -16.203125 C 11.984375 -16.203125 13.492188 -15.851562 14.859375 -15.15625 C 16.234375 -14.457031 17.328125 -13.488281 18.140625 -12.25 C 18.960938 -11.019531 19.375 -9.578125 19.375 -7.921875 C 19.375 -6.242188 18.96875 -4.785156 18.15625 -3.546875 C 17.351562 -2.304688 16.269531 -1.347656 14.90625 -0.671875 C 13.539062 -0.00390625 12.015625 0.328125 10.328125 0.328125 C 8.648438 0.328125 7.117188 -0.00390625 5.734375 -0.671875 C 4.359375 -1.347656 3.269531 -2.304688 2.46875 -3.546875 C 1.664062 -4.785156 1.265625 -6.242188 1.265625 -7.921875 C 1.265625 -9.578125 1.671875 -11.019531 2.484375 -12.25 C 3.296875 -13.488281 4.390625 -14.457031 5.765625 -15.15625 C 7.148438 -15.851562 8.671875 -16.203125 10.328125 -16.203125 Z M 10.328125 -16.203125 "/></g></g></g><g fill="#423b3b" fill-opacity="1"><g transform="translate(481.756397, 136.492476)"><g><path d="M 11.125 -11.875 C 10.445312 -11.875 9.835938 -11.675781 9.296875 -11.28125 C 8.765625 -10.882812 8.34375 -10.382812 8.03125 -9.78125 C 7.71875 -9.1875 7.5625 -8.566406 7.5625 -7.921875 L 7.5625 0 L 2.15625 0 L 2.15625 -15.875 L 7.5625 -15.875 L 7.5625 -13.9375 C 7.96875 -14.53125 8.519531 -15.0625 9.21875 -15.53125 C 9.914062 -16 10.753906 -16.234375 11.734375 -16.234375 C 11.972656 -16.234375 12.25 -16.203125 12.5625 -16.140625 C 12.875 -16.085938 13.140625 -16 13.359375 -15.875 L 13.359375 -10.984375 L 13.28125 -10.984375 C 13.019531 -11.316406 12.695312 -11.546875 12.3125 -11.671875 C 11.925781 -11.804688 11.53125 -11.875 11.125 -11.875 Z M 11.125 -11.875 "/></g></g></g><g fill="#423b3b" fill-opacity="1"><g transform="translate(495.472438, 136.492476)"><g><path d="M 8.96875 -11.703125 L 8.96875 0 L 3.59375 0 L 3.59375 -11.703125 L 0.71875 -11.703125 L 0.71875 -15.875 L 3.59375 -15.875 L 3.59375 -21.921875 L 8.96875 -21.921875 L 8.96875 -15.875 L 11.84375 -15.875 L 11.84375 -11.703125 Z M 8.96875 -11.703125 "/></g></g></g><g fill="#423b3b" fill-opacity="1"><g transform="translate(508.036448, 136.492476)"><g><path d="M 8.453125 -27 L 12.453125 -27 L 12.453125 -22.78125 L 10.15625 -22.78125 C 9.601562 -22.78125 9.226562 -22.613281 9.03125 -22.28125 C 8.84375 -21.945312 8.75 -21.394531 8.75 -20.625 L 8.75 -15.875 L 12.453125 -15.875 L 12.453125 -11.703125 L 8.75 -11.703125 L 8.75 0 L 3.34375 0 L 3.34375 -11.703125 L 1.078125 -11.703125 L 1.078125 -15.875 L 3.34375 -15.875 L 3.34375 -21.28125 C 3.34375 -23.25 3.832031 -24.691406 4.8125 -25.609375 C 5.800781 -26.535156 7.015625 -27 8.453125 -27 Z M 8.453125 -27 "/></g></g></g><g fill="#423b3b" fill-opacity="1"><g transform="translate(521.104479, 136.492476)"><g><path d="M 10.328125 -3.75 C 11.285156 -3.75 12.03125 -3.953125 12.5625 -4.359375 C 13.09375 -4.765625 13.460938 -5.285156 13.671875 -5.921875 C 13.890625 -6.554688 14 -7.210938 14 -7.890625 C 14 -8.554688 13.882812 -9.203125 13.65625 -9.828125 C 13.425781 -10.453125 13.046875 -10.96875 12.515625 -11.375 C 11.992188 -11.78125 11.265625 -11.984375 10.328125 -11.984375 C 9.390625 -11.984375 8.648438 -11.78125 8.109375 -11.375 C 7.578125 -10.96875 7.195312 -10.453125 6.96875 -9.828125 C 6.738281 -9.203125 6.625 -8.554688 6.625 -7.890625 C 6.625 -7.210938 6.726562 -6.554688 6.9375 -5.921875 C 7.15625 -5.285156 7.535156 -4.765625 8.078125 -4.359375 C 8.617188 -3.953125 9.367188 -3.75 10.328125 -3.75 Z M 10.328125 -16.203125 C 11.984375 -16.203125 13.492188 -15.851562 14.859375 -15.15625 C 16.234375 -14.457031 17.328125 -13.488281 18.140625 -12.25 C 18.960938 -11.019531 19.375 -9.578125 19.375 -7.921875 C 19.375 -6.242188 18.96875 -4.785156 18.15625 -3.546875 C 17.351562 -2.304688 16.269531 -1.347656 14.90625 -0.671875 C 13.539062 -0.00390625 12.015625 0.328125 10.328125 0.328125 C 8.648438 0.328125 7.117188 -0.00390625 5.734375 -0.671875 C 4.359375 -1.347656 3.269531 -2.304688 2.46875 -3.546875 C 1.664062 -4.785156 1.265625 -6.242188 1.265625 -7.921875 C 1.265625 -9.578125 1.671875 -11.019531 2.484375 -12.25 C 3.296875 -13.488281 4.390625 -14.457031 5.765625 -15.15625 C 7.148438 -15.851562 8.671875 -16.203125 10.328125 -16.203125 Z M 10.328125 -16.203125 "/></g></g></g><g fill="#423b3b" fill-opacity="1"><g transform="translate(541.732522, 136.492476)"><g><path d="M 7.5625 0 L 2.15625 0 L 2.15625 -27 L 7.5625 -27 Z M 7.5625 0 "/></g></g></g><g fill="#423b3b" fill-opacity="1"><g transform="translate(551.452538, 136.492476)"><g><path d="M 1.875 -21.3125 C 1.875 -22.195312 2.175781 -22.945312 2.78125 -23.5625 C 3.394531 -24.175781 4.148438 -24.484375 5.046875 -24.484375 C 5.910156 -24.484375 6.648438 -24.175781 7.265625 -23.5625 C 7.890625 -22.945312 8.203125 -22.195312 8.203125 -21.3125 C 8.203125 -20.445312 7.890625 -19.703125 7.265625 -19.078125 C 6.648438 -18.453125 5.910156 -18.140625 5.046875 -18.140625 C 4.148438 -18.140625 3.394531 -18.453125 2.78125 -19.078125 C 2.175781 -19.703125 1.875 -20.445312 1.875 -21.3125 Z M 7.734375 0 L 2.34375 0 L 2.34375 -15.875 L 7.734375 -15.875 Z M 7.734375 0 "/></g></g></g><g fill="#423b3b" fill-opacity="1"><g transform="translate(561.53254, 136.492476)"><g><path d="M 10.328125 -3.75 C 11.285156 -3.75 12.03125 -3.953125 12.5625 -4.359375 C 13.09375 -4.765625 13.460938 -5.285156 13.671875 -5.921875 C 13.890625 -6.554688 14 -7.210938 14 -7.890625 C 14 -8.554688 13.882812 -9.203125 13.65625 -9.828125 C 13.425781 -10.453125 13.046875 -10.96875 12.515625 -11.375 C 11.992188 -11.78125 11.265625 -11.984375 10.328125 -11.984375 C 9.390625 -11.984375 8.648438 -11.78125 8.109375 -11.375 C 7.578125 -10.96875 7.195312 -10.453125 6.96875 -9.828125 C 6.738281 -9.203125 6.625 -8.554688 6.625 -7.890625 C 6.625 -7.210938 6.726562 -6.554688 6.9375 -5.921875 C 7.15625 -5.285156 7.535156 -4.765625 8.078125 -4.359375 C 8.617188 -3.953125 9.367188 -3.75 10.328125 -3.75 Z M 10.328125 -16.203125 C 11.984375 -16.203125 13.492188 -15.851562 14.859375 -15.15625 C 16.234375 -14.457031 17.328125 -13.488281 18.140625 -12.25 C 18.960938 -11.019531 19.375 -9.578125 19.375 -7.921875 C 19.375 -6.242188 18.96875 -4.785156 18.15625 -3.546875 C 17.351562 -2.304688 16.269531 -1.347656 14.90625 -0.671875 C 13.539062 -0.00390625 12.015625 0.328125 10.328125 0.328125 C 8.648438 0.328125 7.117188 -0.00390625 5.734375 -0.671875 C 4.359375 -1.347656 3.269531 -2.304688 2.46875 -3.546875 C 1.664062 -4.785156 1.265625 -6.242188 1.265625 -7.921875 C 1.265625 -9.578125 1.671875 -11.019531 2.484375 -12.25 C 3.296875 -13.488281 4.390625 -14.457031 5.765625 -15.15625 C 7.148438 -15.851562 8.671875 -16.203125 10.328125 -16.203125 Z M 10.328125 -16.203125 "/></g></g></g><g fill="#423b3b" fill-opacity="1"><g transform="translate(582.16056, 136.492476)"><g><path d="M 1.875 -2.765625 C 1.875 -3.660156 2.175781 -4.410156 2.78125 -5.015625 C 3.394531 -5.628906 4.148438 -5.9375 5.046875 -5.9375 C 5.910156 -5.9375 6.648438 -5.628906 7.265625 -5.015625 C 7.890625 -4.410156 8.203125 -3.660156 8.203125 -2.765625 C 8.203125 -1.898438 7.890625 -1.160156 7.265625 -0.546875 C 6.648438 0.0546875 5.910156 0.359375 5.046875 0.359375 C 4.148438 0.359375 3.394531 0.0546875 2.78125 -0.546875 C 2.175781 -1.160156 1.875 -1.898438 1.875 -2.765625 Z M 1.875 -2.765625 "/></g></g></g><g fill="#423b3b" fill-opacity="1"><g transform="translate(592.240607, 136.492476)"><g><path d="M 1.875 -2.765625 C 1.875 -3.660156 2.175781 -4.410156 2.78125 -5.015625 C 3.394531 -5.628906 4.148438 -5.9375 5.046875 -5.9375 C 5.910156 -5.9375 6.648438 -5.628906 7.265625 -5.015625 C 7.890625 -4.410156 8.203125 -3.660156 8.203125 -2.765625 C 8.203125 -1.898438 7.890625 -1.160156 7.265625 -0.546875 C 6.648438 0.0546875 5.910156 0.359375 5.046875 0.359375 C 4.148438 0.359375 3.394531 0.0546875 2.78125 -0.546875 C 2.175781 -1.160156 1.875 -1.898438 1.875 -2.765625 Z M 1.875 -2.765625 "/></g></g></g><g fill="#423b3b" fill-opacity="1"><g transform="translate(602.320654, 136.492476)"><g><path d="M 1.875 -2.765625 C 1.875 -3.660156 2.175781 -4.410156 2.78125 -5.015625 C 3.394531 -5.628906 4.148438 -5.9375 5.046875 -5.9375 C 5.910156 -5.9375 6.648438 -5.628906 7.265625 -5.015625 C 7.890625 -4.410156 8.203125 -3.660156 8.203125 -2.765625 C 8.203125 -1.898438 7.890625 -1.160156 7.265625 -0.546875 C 6.648438 0.0546875 5.910156 0.359375 5.046875 0.359375 C 4.148438 0.359375 3.394531 0.0546875 2.78125 -0.546875 C 2.175781 -1.160156 1.875 -1.898438 1.875 -2.765625 Z M 1.875 -2.765625 "/></g></g></g></svg>